<svg width="437" height="305" viewBox="0 0 437 305" fill="none" xmlns="http://www.w3.org/2000/svg">
<g clip-path="url(#clip0)">
<path d="M365.13 46.7723L331.418 47.1008C329.834 39.3 324.51 18.8322 329.305 13.2494C329.523 11.1481 330.544 9.21216 332.154 7.84444C333.764 6.47672 335.839 5.78265 337.948 5.9067C343.173 -2.2722 351.876 -1.04419 357.758 4.06389C363.678 6.10654 365.91 9.73544 365.13 14.66C369.514 18.4976 370.322 23.1664 368.354 28.4811L365.13 46.7723Z" fill="#2F2E41"/>
<path d="M361.884 67.5392L337.563 64.1716L332.698 57.0622C339.399 52.6175 341.77 46.4094 338.685 37.9791L355.523 37.6049C354.734 45.1122 357.217 50.9249 364.129 54.443L361.884 67.5392Z" fill="#FFB9B9"/>
<path d="M331.812 286.914L330.882 299.628C330.84 300.203 330.922 300.781 331.121 301.322C331.321 301.864 331.634 302.356 332.039 302.767C332.445 303.178 332.933 303.497 333.472 303.703C334.011 303.909 334.588 303.998 335.164 303.963L341.694 303.567C341.997 303.549 342.292 303.464 342.558 303.319C342.824 303.174 343.055 302.972 343.234 302.727C343.413 302.483 343.536 302.202 343.595 301.904C343.653 301.607 343.645 301.3 343.572 301.006L339.947 286.507L331.812 286.914Z" fill="#E6E6E6"/>
<path d="M352.954 286.507L349.329 301.006C349.256 301.3 349.248 301.607 349.306 301.904C349.365 302.202 349.488 302.483 349.667 302.727C349.846 302.972 350.077 303.174 350.343 303.319C350.609 303.464 350.904 303.549 351.207 303.567L357.737 303.963C358.313 303.998 358.89 303.909 359.429 303.703C359.968 303.497 360.456 303.178 360.862 302.767C361.267 302.356 361.58 301.864 361.78 301.322C361.979 300.781 362.061 300.203 362.018 299.628L361.088 286.914L352.954 286.507Z" fill="#E6E6E6"/>
<path d="M361.51 288.679L352.697 287.795L343.924 194.012L340.608 287.492L331.95 287.182L317.357 157.716H373.109L361.51 288.679Z" fill="#038C98"/>
<path d="M348.04 43.966C357.339 43.966 364.878 36.4274 364.878 27.128C364.878 17.8286 357.339 10.2899 348.04 10.2899C338.74 10.2899 331.202 17.8286 331.202 27.128C331.202 36.4274 338.74 43.966 348.04 43.966Z" fill="#FFB9B9"/>
<path d="M381.342 160.71L313.241 161.458C323.348 122.984 329.393 87.2447 318.854 62.675L335.692 54.443C343.811 62.9113 352.853 62.0383 362.633 53.6947L378.722 57.8106C375.967 90.0301 377.202 124.537 381.342 160.71Z" fill="#038C98"/>
<path d="M294.532 121.047L336.814 137.885L346.268 140.665C346.69 140.79 347.134 140.827 347.572 140.776C348.009 140.724 348.432 140.585 348.815 140.366C349.197 140.147 349.532 139.853 349.798 139.502C350.064 139.15 350.256 138.749 350.363 138.321C350.55 137.571 350.466 136.779 350.125 136.086C349.784 135.392 349.209 134.842 348.501 134.532L338.685 131.524L309.125 114.312L315.299 98.0348L302.39 91.1125L294.532 121.047Z" fill="#FFB9B9"/>
<path d="M294.906 90.3641C302.951 93.5026 309.349 98.8588 314.364 106.08L330.079 83.2548L318.854 62.6749L294.906 90.3641Z" fill="#038C98"/>
<path d="M367.017 24.399C360.183 22.6382 353.464 22.3964 346.932 24.6299C342.772 26.645 337.775 26.4594 332.218 24.799V7.99969L362.217 8.79966L367.017 24.399Z" fill="#2F2E41"/>
<path d="M336.674 101.428C335.352 101.43 334.084 101.956 333.149 102.891C332.214 103.826 331.688 105.093 331.687 106.415L333.655 147.621C333.657 148.944 334.183 150.211 335.118 151.146C336.053 152.081 337.32 152.607 338.642 152.608H361.148C362.47 152.607 363.738 152.081 364.673 151.146C365.608 150.211 366.134 148.944 366.135 147.621L368.104 106.415C368.102 105.093 367.576 103.826 366.641 102.891C365.706 101.956 364.439 101.43 363.117 101.428H336.674Z" fill="#3F3D56"/>
<path d="M400.529 117.934L363.675 132.609L360.894 133.716C360.806 133.751 360.717 133.78 360.623 133.81L351.308 136.551C350.117 136.9 348.468 135.296 347.504 134.189C347.026 133.655 346.755 132.968 346.741 132.252C346.727 131.536 346.969 130.838 347.425 130.286C347.554 130.138 347.695 130.001 347.848 129.878C348.207 129.598 348.63 129.412 349.078 129.336L358.384 127.506C358.718 127.44 359.039 127.32 359.334 127.151L363.675 124.622L386.209 111.502C386.835 111.138 387.312 110.563 387.555 109.88C387.797 109.197 387.789 108.45 387.532 107.772L383.231 96.4284C382.968 95.7344 382.965 94.968 383.225 94.2725C383.485 93.577 383.989 92.9999 384.644 92.6489L391.77 88.8301C392.177 88.6115 392.628 88.4882 393.09 88.4694C393.552 88.4506 394.012 88.5368 394.435 88.7216C394.859 88.9064 395.235 89.1849 395.535 89.5362C395.836 89.8874 396.052 90.3022 396.169 90.7494L402.355 114.312C402.545 115.034 402.465 115.802 402.128 116.469C401.792 117.136 401.223 117.657 400.529 117.934Z" fill="#FFB9B9"/>
<path d="M402.67 86.2482C394.625 89.3866 388.227 94.7428 383.212 101.964L367.497 79.1388L378.722 57.8106L402.67 86.2482Z" fill="#038C98"/>
<path d="M359.245 42.1147C351.879 45.1787 344.156 45.0543 336.116 42.1147C338.455 38.1216 334.959 34.9943 333.163 30.9634L363.182 30.0713C360.887 33.573 357.499 37.7102 359.245 42.1147Z" fill="white"/>
<path d="M362.865 30.7376L362.516 30.3897L363.008 29.8976L365.948 26.4666L366.322 26.7864L363.369 30.2313L362.865 30.7376Z" fill="white"/>
<path d="M331.106 28.652L330.791 29.0302L333.744 31.4908L334.059 31.1126L331.106 28.652Z" fill="white"/>
<path d="M363.713 33.6308L358.544 41.7499L358.959 42.0143L364.128 33.8951L363.713 33.6308Z" fill="white"/>
<path d="M331.649 33.6302L331.233 33.8945L336.4 42.0144L336.816 41.7501L331.649 33.6302Z" fill="white"/>
<path d="M364.659 123.926V132.841L361.555 134.077C361.456 134.116 361.357 134.148 361.253 134.181L350.854 137.241C349.525 137.631 347.685 135.84 346.608 134.604C346.075 134.009 345.773 133.242 345.757 132.443C345.741 131.643 346.012 130.865 346.52 130.248C346.664 130.083 346.822 129.93 346.993 129.792C347.393 129.48 347.865 129.273 348.366 129.188L358.754 127.145C359.126 127.072 359.484 126.938 359.814 126.749L364.659 123.926Z" fill="white"/>
<path d="M369.157 92.1253H367.378C367.378 66.9729 362.199 49.4445 357.153 49.4445L356.708 47.6662C361.234 47.6662 364.12 54.9613 365.743 61.0814C367.944 69.3782 369.157 80.4031 369.157 92.1253Z" fill="#3F3D56"/>
<path d="M328.254 85.901H326.476C326.476 62.8654 331.691 48.5554 339.369 48.5554L338.924 50.3338C333.613 50.3338 328.254 61.3315 328.254 85.901Z" fill="#3F3D56"/>
<path d="M368.267 97.0157C370.723 97.0157 372.713 95.0252 372.713 92.5698C372.713 90.1144 370.723 88.1239 368.267 88.1239C365.812 88.1239 363.822 90.1144 363.822 92.5698C363.822 95.0252 365.812 97.0157 368.267 97.0157Z" fill="#3F3D56"/>
<path d="M321.141 96.5711H319.362C319.362 90.1973 322.952 85.0118 327.365 85.0118V86.7901C323.933 86.7901 321.141 91.1779 321.141 96.5711Z" fill="#3F3D56"/>
<path d="M335.368 96.5711H333.589C333.589 91.1779 330.797 86.7901 327.365 86.7901V85.0118C331.778 85.0118 335.368 90.1973 335.368 96.5711Z" fill="#3F3D56"/>
<path d="M334.479 98.7942C335.461 98.7942 336.257 97.998 336.257 97.0158C336.257 96.0336 335.461 95.2374 334.479 95.2374C333.496 95.2374 332.7 96.0336 332.7 97.0158C332.7 97.998 333.496 98.7942 334.479 98.7942Z" fill="#3F3D56"/>
<path d="M320.252 98.7942C321.234 98.7942 322.03 97.998 322.03 97.0158C322.03 96.0336 321.234 95.2374 320.252 95.2374C319.269 95.2374 318.473 96.0336 318.473 97.0158C318.473 97.998 319.269 98.7942 320.252 98.7942Z" fill="#3F3D56"/>
<path d="M105.938 37.252L74.7056 42.5411C73.9341 42.6727 73.1411 42.5135 72.4802 42.0942C71.8193 41.6748 71.3375 41.0252 71.1279 40.2711C68.8714 32.1269 64.1536 21.5024 68.7341 16.1689C68.9674 13.9251 70.0572 11.8578 71.7764 10.3973C73.4957 8.93678 75.712 8.19561 77.9639 8.32808C83.5434 -0.405693 92.8368 0.905628 99.1181 6.36025C105.44 8.54148 107.823 12.4166 106.989 17.6752C109.72 20.0657 111.152 22.7582 111.454 25.7134C111.597 27.358 111.388 29.0142 110.84 30.5714C110.292 32.1287 109.419 33.5512 108.278 34.7442L105.938 37.252Z" fill="#2F2E41"/>
<path d="M101.082 61.8407L76.8701 60.4164C79.2429 54.9702 80.1908 49.7258 79.2438 44.7496H97.2844C97.2435 48.5703 99.1449 55.1795 101.082 61.8407Z" fill="#9F616A"/>
<path d="M71.9375 285.57L70.9444 299.147C70.8994 299.761 70.9864 300.378 71.1994 300.956C71.4125 301.534 71.7467 302.06 72.1797 302.499C72.6126 302.937 73.1343 303.278 73.7098 303.498C74.2852 303.718 74.9011 303.813 75.5162 303.776L82.4896 303.353C82.8127 303.334 83.1275 303.243 83.4117 303.088C83.6959 302.933 83.9424 302.717 84.1338 302.456C84.3252 302.195 84.4567 301.895 84.5191 301.578C84.5814 301.26 84.573 300.933 84.4945 300.619L80.6237 285.136L71.9375 285.57Z" fill="#E6E6E6"/>
<path d="M94.5134 285.136L90.6426 300.618C90.5641 300.933 90.5557 301.26 90.6181 301.578C90.6804 301.895 90.812 302.195 91.0034 302.456C91.1947 302.717 91.4413 302.933 91.7254 303.088C92.0096 303.243 92.3244 303.334 92.6475 303.353L99.6209 303.776C100.236 303.813 100.852 303.718 101.427 303.498C102.003 303.278 102.524 302.937 102.957 302.499C103.39 302.06 103.725 301.534 103.938 300.956C104.151 300.378 104.238 299.761 104.193 299.147L103.2 285.57L94.5134 285.136Z" fill="#E6E6E6"/>
<path d="M103.65 287.455L94.2395 286.511L84.8705 186.365L81.3298 286.188L72.0844 285.857L56.5015 147.608H116.036L103.65 287.455Z" fill="#038C98"/>
<path d="M88.7401 50.5128C98.6703 50.5128 106.72 42.4627 106.72 32.5325C106.72 22.6022 98.6703 14.5521 88.7401 14.5521C78.8098 14.5521 70.7597 22.6022 70.7597 32.5325C70.7597 42.4627 78.8098 50.5128 88.7401 50.5128Z" fill="#9F616A"/>
<path d="M109.005 23.943C101.707 22.6721 94.5323 22.4976 87.5576 24.1096C83.1147 25.5641 77.7791 25.43 71.8455 24.2317V12.1065L103.879 12.6839L109.005 23.943Z" fill="#2F2E41"/>
<path d="M100.706 46.9594C92.8403 50.2312 84.5925 50.0984 76.0076 46.9594C78.5056 42.6954 74.7715 39.356 72.8546 35.0516L104.91 34.099C102.459 37.8383 98.8417 42.2561 100.706 46.9594Z" fill="white"/>
<path d="M70.6474 32.5962L70.3322 32.9744L73.485 35.6018L73.8002 35.2235L70.6474 32.5962Z" fill="white"/>
<path d="M105.491 37.9085L99.9719 46.5785L100.387 46.8428L105.906 38.1728L105.491 37.9085Z" fill="white"/>
<path d="M71.2221 37.9081L70.8069 38.1723L76.3247 46.8432L76.7399 46.579L71.2221 37.9081Z" fill="white"/>
<path d="M54.5567 114.538L40.7889 105.993L52.5304 71.604C53.84 68.0556 56.3483 65.0762 59.6217 63.1811L63.577 60.8911L63.9209 95.5828L54.5567 114.538Z" fill="#038C98"/>
<path d="M114.067 131.24L112.03 113.793C111.922 104.584 113.488 95.681 117.224 87.4773L119.123 61.8407L98.2339 53.2951C98.1699 53.7208 98.1154 54.1462 98.0543 54.5718L88.2641 59.4669L78.7162 57.297L78.7691 54.2447L59.779 62.7902C66.059 91.9865 62.6338 122.306 51.8344 158.118L76.8521 164.958L77.0601 152.946L99.3563 151.353C99.5859 155.251 99.7705 159.079 99.8776 162.822C112.459 167.454 112.891 167.377 124.354 160.745C119.789 151.147 116.174 141.16 114.067 131.24Z" fill="#038C98"/>
<path d="M146.184 110.265L133.366 105.993L112.862 82.1235L119.123 61.8409L147.608 101.72L146.184 110.265Z" fill="#038C98"/>
<path d="M106.012 128.744C106.221 129.665 106.787 130.464 107.586 130.968C108.384 131.472 109.35 131.638 110.271 131.431L121.152 128.967L119.579 122.021L108.698 124.485C107.777 124.694 106.977 125.26 106.473 126.058C105.969 126.857 105.803 127.823 106.012 128.744V128.744Z" fill="#E6E6E6"/>
<path d="M115.8 120.71L121.972 132.104C132.352 129.209 141.349 120.081 149.982 109.316L147.608 101.72L132.891 105.518L115.8 120.71Z" fill="#038C98"/>
<path d="M35.3291 84.9694L47.1773 87.085L74.259 125.592L59.872 122.206L35.3291 84.9694Z" fill="#E6E6E6"/>
<path d="M33.2276 84.498C33.0471 84.5008 32.8706 84.5519 32.7166 84.6462C32.5626 84.7405 32.4367 84.8744 32.3522 85.034C32.2677 85.1936 32.2276 85.3729 32.2362 85.5533C32.2447 85.7337 32.3015 85.9084 32.4007 86.0593L57.7149 124.467C57.8562 124.682 58.0744 124.834 58.3246 124.893L70.1025 127.664C70.3011 127.711 70.5092 127.696 70.6992 127.622C70.8893 127.548 71.0522 127.417 71.1665 127.248C71.2807 127.079 71.3409 126.88 71.339 126.676C71.3371 126.472 71.2733 126.273 71.1559 126.106L43.3625 86.5874C43.2871 86.4797 43.1913 86.3879 43.0804 86.3173C42.9695 86.2467 42.8459 86.1987 42.7164 86.1759L33.4175 84.5152C33.3548 84.504 33.2913 84.4982 33.2276 84.498Z" fill="#3F3D56"/>
<path d="M49.0187 111.959L49.7223 119.046L60.8243 117.944C61.764 117.851 62.6282 117.388 63.2267 116.657C63.8253 115.927 64.1091 114.989 64.0159 114.049C63.9226 113.109 63.4598 112.245 62.7294 111.646C61.999 111.048 61.0607 110.764 60.1209 110.857L49.0187 111.959Z" fill="#E6E6E6"/>
<path d="M39.3649 111.138C39.381 113.555 40.3515 115.867 42.0648 117.571C43.7782 119.275 46.0956 120.232 48.512 120.235H50.3375L51.6665 109.16L40.6626 105.198L39.3649 111.138Z" fill="#038C98"/>
<path d="M104.033 35.3242L103.685 34.9762L104.211 34.4507L107.351 30.7859L107.724 31.1057L104.571 34.7843L104.033 35.3242Z" fill="white"/>
<path d="M437 303.196H0V304.181H437V303.196Z" fill="#3F3D56"/>
<path d="M166.828 302.704H270.172V177.354C270.172 170.716 263.634 165.317 255.599 165.317H181.401C173.365 165.317 166.828 170.716 166.828 177.354V302.704Z" fill="#E6E6E6"/>
<path d="M174.702 297.521H262.298V191.271C262.298 185.645 256.757 181.068 249.945 181.068H187.054C180.243 181.068 174.702 185.645 174.702 191.271V297.521Z" fill="white"/>
<path d="M166.047 155.561C163.493 155.561 161.414 157.278 161.414 159.388V170.433C161.414 172.542 163.493 174.259 166.047 174.259H270.953C273.508 174.259 275.586 172.542 275.586 170.433V159.388C275.586 157.278 273.508 155.561 270.953 155.561H166.047Z" fill="#3F3D56"/>
<path d="M187.586 283.897C186.386 283.9 185.237 284.378 184.389 285.226C183.541 286.074 183.063 287.223 183.06 288.423C183.063 289.622 183.541 290.771 184.389 291.619C185.237 292.467 186.386 292.945 187.586 292.948H196.057V283.897H187.586Z" fill="#3F3D56"/>
<path d="M203.832 283.897H195.593V292.948H203.832C205.031 292.945 206.181 292.467 207.029 291.619C207.877 290.771 208.355 289.622 208.358 288.423C208.355 287.223 207.877 286.074 207.029 285.226C206.181 284.378 205.031 283.9 203.832 283.897Z" fill="#038C98"/>
<path opacity="0.2" d="M206.785 285.005C207.499 285.824 207.893 286.872 207.894 287.958C207.89 289.158 207.412 290.307 206.564 291.155C205.716 292.003 204.567 292.481 203.368 292.484H195.593V292.948H203.832C205.031 292.945 206.181 292.467 207.029 291.619C207.877 290.771 208.355 289.622 208.358 288.423C208.357 287.773 208.216 287.132 207.945 286.542C207.673 285.953 207.278 285.428 206.785 285.005Z" fill="black"/>
<path d="M225.814 215.726C224.988 214.856 223.852 214.347 222.654 214.312C221.455 214.276 220.291 214.717 219.416 215.537C218.546 216.362 218.037 217.498 218.002 218.697C217.966 219.896 218.407 221.06 219.227 221.935L225.038 228.099L231.624 221.89L225.814 215.726Z" fill="#3F3D56"/>
<path d="M236.958 227.548L231.306 221.552L224.719 227.761L230.371 233.757C231.196 234.627 232.332 235.135 233.531 235.171C234.73 235.206 235.894 234.766 236.769 233.946C237.639 233.12 238.147 231.984 238.183 230.786C238.218 229.587 237.778 228.423 236.958 227.548Z" fill="#038C98"/>
<path opacity="0.2" d="M238.177 230.457C238.071 231.538 237.578 232.544 236.788 233.289C235.913 234.109 234.749 234.55 233.55 234.514C232.352 234.479 231.216 233.971 230.39 233.1L225.057 227.443L224.719 227.761L230.371 233.757C231.196 234.627 232.332 235.135 233.531 235.171C234.73 235.206 235.894 234.766 236.769 233.946C237.24 233.499 237.61 232.957 237.853 232.355C238.096 231.753 238.207 231.106 238.177 230.457Z" fill="black"/>
<path d="M201.7 229.997C200.875 229.127 199.739 228.619 198.54 228.583C197.341 228.548 196.177 228.988 195.302 229.808C194.432 230.633 193.924 231.769 193.888 232.968C193.853 234.167 194.293 235.331 195.113 236.206L200.924 242.37L207.511 236.161L201.7 229.997Z" fill="#3F3D56"/>
<path d="M212.844 241.819L207.192 235.824L200.606 242.033L206.257 248.028C207.082 248.898 208.218 249.407 209.417 249.442C210.616 249.477 211.78 249.037 212.655 248.217C213.525 247.392 214.034 246.256 214.069 245.057C214.104 243.858 213.664 242.694 212.844 241.819Z" fill="#038C98"/>
<path opacity="0.2" d="M214.063 244.728C213.957 245.809 213.464 246.815 212.674 247.561C211.799 248.381 210.635 248.821 209.437 248.786C208.238 248.75 207.102 248.242 206.277 247.372L200.943 241.714L200.606 242.033L206.257 248.028C207.082 248.898 208.218 249.407 209.417 249.442C210.616 249.477 211.78 249.037 212.655 248.217C213.127 247.771 213.497 247.228 213.74 246.626C213.983 246.024 214.093 245.377 214.063 244.728Z" fill="black"/>
<path d="M225.814 243.284C224.988 242.414 223.852 241.906 222.654 241.87C221.455 241.835 220.291 242.275 219.416 243.095C218.546 243.921 218.037 245.057 218.002 246.255C217.966 247.454 218.407 248.618 219.227 249.493L225.038 255.657L231.624 249.449L225.814 243.284Z" fill="#3F3D56"/>
<path d="M236.958 255.106L231.306 249.111L224.719 255.32L230.371 261.315C231.196 262.185 232.332 262.694 233.531 262.729C234.73 262.765 235.894 262.324 236.769 261.504C237.639 260.679 238.147 259.543 238.183 258.344C238.218 257.145 237.778 255.981 236.958 255.106Z" fill="#038C98"/>
<path opacity="0.2" d="M238.177 258.016C238.071 259.096 237.578 260.102 236.788 260.848C235.913 261.668 234.749 262.108 233.55 262.073C232.352 262.038 231.216 261.529 230.39 260.659L225.057 255.001L224.719 255.32L230.371 261.315C231.196 262.185 232.332 262.694 233.531 262.729C234.73 262.765 235.894 262.324 236.769 261.504C237.24 261.058 237.61 260.515 237.853 259.913C238.096 259.311 238.207 258.664 238.177 258.016Z" fill="black"/>
<path d="M240.524 271.565C241.384 270.729 241.879 269.587 241.9 268.388C241.92 267.189 241.466 266.03 240.635 265.165C239.8 264.305 238.658 263.811 237.458 263.79C236.259 263.769 235.101 264.223 234.236 265.054L228.142 270.939L234.431 277.45L240.524 271.565Z" fill="#3F3D56"/>
<path d="M228.838 282.852L234.765 277.128L228.476 270.617L222.55 276.341C221.69 277.177 221.195 278.319 221.175 279.518C221.154 280.717 221.608 281.875 222.439 282.741C223.275 283.601 224.417 284.095 225.616 284.116C226.815 284.137 227.973 283.682 228.838 282.852Z" fill="#038C98"/>
<path opacity="0.2" d="M225.944 284.106C224.862 284.013 223.85 283.532 223.095 282.752C222.265 281.887 221.81 280.728 221.831 279.529C221.852 278.33 222.346 277.188 223.206 276.352L228.799 270.951L228.476 270.617L222.55 276.341C221.69 277.177 221.195 278.319 221.175 279.518C221.154 280.717 221.608 281.876 222.439 282.741C222.891 283.207 223.438 283.57 224.043 283.806C224.647 284.041 225.296 284.144 225.944 284.106Z" fill="black"/>
<path d="M208.044 257.293C208.905 256.458 209.399 255.316 209.42 254.117C209.441 252.917 208.986 251.759 208.156 250.894C207.32 250.034 206.178 249.539 204.979 249.518C203.78 249.498 202.621 249.952 201.756 250.783L195.663 256.668L201.951 263.179L208.044 257.293Z" fill="#3F3D56"/>
<path d="M196.359 268.58L202.285 262.856L195.997 256.346L190.07 262.07C189.21 262.905 188.716 264.047 188.695 265.246C188.674 266.446 189.129 267.604 189.959 268.469C190.795 269.329 191.937 269.824 193.136 269.845C194.335 269.865 195.494 269.411 196.359 268.58Z" fill="#038C98"/>
<path opacity="0.2" d="M193.464 269.835C192.382 269.742 191.371 269.261 190.615 268.481C189.785 267.616 189.33 266.457 189.351 265.258C189.372 264.059 189.866 262.917 190.727 262.081L196.319 256.679L195.997 256.346L190.07 262.07C189.21 262.905 188.716 264.047 188.695 265.246C188.674 266.446 189.129 267.604 189.959 268.469C190.411 268.935 190.958 269.299 191.563 269.534C192.168 269.77 192.816 269.872 193.464 269.835Z" fill="black"/>
<path d="M254.303 240.069C255.164 239.234 255.658 238.091 255.679 236.892C255.7 235.693 255.245 234.535 254.415 233.67C253.579 232.81 252.437 232.315 251.238 232.294C250.039 232.273 248.88 232.728 248.015 233.559L241.922 239.444L248.21 245.955L254.303 240.069Z" fill="#3F3D56"/>
<path d="M242.618 251.356L248.544 245.632L242.256 239.121L236.329 244.845C235.469 245.681 234.975 246.823 234.954 248.022C234.933 249.221 235.388 250.38 236.218 251.245C237.054 252.105 238.196 252.6 239.395 252.62C240.594 252.641 241.753 252.187 242.618 251.356Z" fill="#038C98"/>
<path opacity="0.2" d="M239.723 252.611C238.642 252.518 237.63 252.037 236.875 251.256C236.044 250.391 235.589 249.233 235.61 248.034C235.631 246.835 236.126 245.693 236.986 244.857L242.578 239.455L242.256 239.121L236.329 244.845C235.469 245.681 234.975 246.823 234.954 248.022C234.933 249.221 235.388 250.38 236.218 251.245C236.67 251.711 237.217 252.075 237.822 252.31C238.427 252.546 239.075 252.648 239.723 252.611Z" fill="black"/>
<path d="M244.022 275.764C243.197 274.894 242.061 274.385 240.862 274.35C239.663 274.315 238.499 274.755 237.624 275.575C236.754 276.4 236.246 277.536 236.21 278.735C236.175 279.934 236.615 281.098 237.435 281.973L243.246 288.137L249.833 281.928L244.022 275.764Z" fill="#3F3D56"/>
<path d="M255.166 287.586L249.514 281.591L242.928 287.799L248.579 293.795C249.405 294.665 250.541 295.173 251.739 295.209C252.938 295.244 254.102 294.804 254.977 293.984C255.847 293.159 256.356 292.023 256.391 290.824C256.426 289.625 255.986 288.461 255.166 287.586Z" fill="#038C98"/>
<path opacity="0.2" d="M256.385 290.495C256.279 291.576 255.786 292.582 254.996 293.328C254.121 294.148 252.957 294.588 251.759 294.553C250.56 294.517 249.424 294.009 248.599 293.139L243.266 287.481L242.928 287.799L248.579 293.795C249.405 294.665 250.541 295.174 251.739 295.209C252.938 295.244 254.102 294.804 254.977 293.984C255.449 293.538 255.819 292.995 256.062 292.393C256.305 291.791 256.415 291.144 256.385 290.495Z" fill="black"/>
<path d="M212.034 275.272C211.209 274.402 210.073 273.893 208.874 273.858C207.676 273.823 206.512 274.263 205.637 275.083C204.766 275.908 204.258 277.044 204.223 278.243C204.187 279.442 204.628 280.606 205.448 281.481L211.258 287.645L217.845 281.436L212.034 275.272Z" fill="#3F3D56"/>
<path d="M223.178 287.094L217.527 281.099L210.94 287.307L216.592 293.303C217.417 294.173 218.553 294.681 219.752 294.717C220.95 294.752 222.114 294.312 222.989 293.492C223.86 292.667 224.368 291.531 224.403 290.332C224.439 289.133 223.998 287.969 223.178 287.094Z" fill="#038C98"/>
<path opacity="0.2" d="M224.398 290.003C224.292 291.084 223.798 292.09 223.009 292.836C222.134 293.656 220.97 294.096 219.771 294.061C218.572 294.025 217.436 293.517 216.611 292.647L211.278 286.989L210.94 287.307L216.592 293.303C217.417 294.173 218.553 294.681 219.752 294.717C220.95 294.752 222.114 294.312 222.989 293.492C223.461 293.046 223.831 292.503 224.074 291.901C224.317 291.299 224.427 290.652 224.398 290.003Z" fill="black"/>
<path d="M221.038 259.035C221.039 260.54 220.519 261.999 219.567 263.164C218.616 264.33 217.291 265.131 215.817 265.432C214.955 265.606 214.067 265.606 213.206 265.432C211.732 265.131 210.407 264.329 209.455 263.164C208.504 261.998 207.984 260.54 207.984 259.035C207.984 257.531 208.504 256.072 209.455 254.907C210.407 253.741 211.732 252.94 213.206 252.639C214.067 252.465 214.955 252.465 215.817 252.639C217.291 252.94 218.616 253.741 219.567 254.906C220.519 256.072 221.039 257.531 221.038 259.035Z" fill="#038C98"/>
<path opacity="0.2" d="M215.817 252.639V265.432C214.955 265.606 214.067 265.606 213.206 265.432V252.639C214.067 252.465 214.955 252.465 215.817 252.639Z" fill="black"/>
<path d="M223.991 232.953C223.991 234.458 223.472 235.916 222.52 237.082C221.569 238.248 220.244 239.049 218.769 239.349C217.908 239.524 217.02 239.524 216.159 239.349C214.684 239.048 213.36 238.247 212.408 237.082C211.457 235.916 210.937 234.458 210.937 232.953C210.937 231.448 211.457 229.99 212.408 228.824C213.36 227.659 214.684 226.858 216.159 226.557C217.02 226.383 217.908 226.383 218.769 226.557C220.244 226.857 221.569 227.659 222.52 228.824C223.472 229.99 223.991 231.448 223.991 232.953Z" fill="#038C98"/>
<path opacity="0.2" d="M218.769 226.557V239.349C217.908 239.524 217.02 239.524 216.159 239.349V226.557C217.02 226.383 217.908 226.383 218.769 226.557Z" fill="black"/>
<path d="M223.991 270.354C223.991 271.859 223.472 273.317 222.52 274.483C221.569 275.648 220.244 276.449 218.769 276.75C217.908 276.924 217.02 276.924 216.159 276.75C214.684 276.449 213.36 275.648 212.408 274.482C211.457 273.317 210.937 271.859 210.937 270.354C210.937 268.849 211.457 267.391 212.408 266.225C213.36 265.06 214.684 264.259 216.159 263.957C217.02 263.783 217.908 263.783 218.769 263.957C220.244 264.258 221.569 265.059 222.52 266.225C223.472 267.391 223.991 268.849 223.991 270.354Z" fill="#038C98"/>
<path opacity="0.2" d="M218.769 263.957V276.75C217.908 276.924 217.02 276.924 216.159 276.75V263.957C217.02 263.783 217.908 263.783 218.769 263.957Z" fill="black"/>
<path d="M240.231 288.562C240.231 290.067 239.712 291.526 238.76 292.691C237.809 293.857 236.484 294.658 235.009 294.959C234.148 295.133 233.26 295.133 232.398 294.959C230.924 294.658 229.599 293.856 228.648 292.691C227.696 291.525 227.177 290.067 227.177 288.562C227.177 287.058 227.696 285.599 228.648 284.434C229.599 283.268 230.924 282.467 232.398 282.166C233.26 281.992 234.148 281.992 235.009 282.166C236.484 282.467 237.809 283.268 238.76 284.433C239.712 285.599 240.231 287.058 240.231 288.562Z" fill="#038C98"/>
<path opacity="0.2" d="M235.009 282.166V294.959C234.148 295.133 233.26 295.133 232.398 294.959V282.166C233.26 281.992 234.148 281.992 235.009 282.166Z" fill="black"/>
<path d="M254.577 255.061C255.661 256.105 256.35 257.491 256.529 258.985C256.708 260.479 256.365 261.989 255.559 263.26C255.086 264.001 254.47 264.64 253.747 265.139C252.507 265.992 251.011 266.39 249.511 266.266C248.012 266.142 246.601 265.504 245.518 264.46C244.434 263.416 243.745 262.03 243.566 260.536C243.387 259.042 243.73 257.532 244.536 256.261C245.009 255.52 245.625 254.881 246.348 254.382C247.588 253.529 249.084 253.131 250.583 253.255C252.083 253.378 253.494 254.017 254.577 255.061Z" fill="#038C98"/>
<path opacity="0.2" d="M246.348 254.382L255.559 263.26C255.086 264.001 254.47 264.64 253.747 265.139L244.536 256.261C245.008 255.52 245.625 254.881 246.348 254.382Z" fill="black"/>
<path d="M256.545 269.332C257.629 270.376 258.319 271.763 258.497 273.257C258.676 274.751 258.334 276.261 257.527 277.531C257.055 278.272 256.439 278.911 255.715 279.411C254.475 280.263 252.979 280.661 251.48 280.537C249.98 280.413 248.569 279.776 247.486 278.731C246.403 277.687 245.713 276.301 245.535 274.807C245.356 273.313 245.698 271.803 246.504 270.533C246.977 269.792 247.593 269.153 248.316 268.653C249.556 267.8 251.052 267.402 252.552 267.526C254.051 267.65 255.462 268.288 256.545 269.332Z" fill="#038C98"/>
<path opacity="0.2" d="M248.316 268.653L257.527 277.531C257.055 278.272 256.439 278.911 255.715 279.411L246.504 270.533C246.977 269.792 247.593 269.153 248.316 268.653Z" fill="black"/>
<path d="M197.983 272.777C199.067 273.821 199.757 275.208 199.935 276.702C200.114 278.196 199.772 279.705 198.965 280.976C198.493 281.717 197.877 282.356 197.153 282.856C195.913 283.708 194.417 284.106 192.918 283.982C191.418 283.858 190.007 283.22 188.924 282.176C187.841 281.132 187.151 279.746 186.973 278.252C186.794 276.758 187.136 275.248 187.942 273.978C188.415 273.236 189.031 272.597 189.754 272.098C190.994 271.245 192.49 270.847 193.99 270.971C195.489 271.095 196.9 271.733 197.983 272.777Z" fill="#038C98"/>
<path opacity="0.2" d="M189.754 272.098L198.965 280.976C198.493 281.717 197.877 282.356 197.153 282.856L187.942 273.978C188.415 273.237 189.031 272.597 189.754 272.098Z" fill="black"/>
<path opacity="0.2" d="M176.916 155.561H174.456V173.77H176.916V155.561Z" fill="black"/>
<path opacity="0.2" d="M191.188 155.561H188.727V173.77H191.188V155.561Z" fill="black"/>
<path opacity="0.2" d="M205.459 155.561H202.998V173.77H205.459V155.561Z" fill="black"/>
<path opacity="0.2" d="M219.73 155.561H217.27V173.77H219.73V155.561Z" fill="black"/>
<path opacity="0.2" d="M234.002 155.561H231.541V173.77H234.002V155.561Z" fill="black"/>
<path opacity="0.2" d="M248.273 155.561H245.812V173.77H248.273V155.561Z" fill="black"/>
<path opacity="0.2" d="M262.544 155.561H260.084V173.77H262.544V155.561Z" fill="black"/>
</g>
<defs>
<clipPath id="clip0">
<rect width="437" height="304.181" fill="white"/>
</clipPath>
</defs>
</svg>
