<svg width="318" height="338" viewBox="0 0 318 338" fill="none" xmlns="http://www.w3.org/2000/svg">
<g filter="url(#filter0_d)">
<rect x="30" y="24" width="257.349" height="277.704" rx="10" fill="white"/>
</g>
<path d="M65.8613 162.037C64.722 162.037 63.8398 162.467 63.2148 163.326C62.5898 164.179 62.2773 165.37 62.2773 166.9C62.2773 170.084 63.472 171.676 65.8613 171.676C66.8639 171.676 68.0781 171.425 69.5039 170.924V173.463C68.332 173.951 67.0234 174.195 65.5781 174.195C63.5013 174.195 61.9128 173.567 60.8125 172.311C59.7122 171.048 59.1621 169.238 59.1621 166.881C59.1621 165.396 59.4323 164.098 59.9727 162.984C60.513 161.865 61.2878 161.008 62.2969 160.416C63.3125 159.817 64.5007 159.518 65.8613 159.518C67.248 159.518 68.6413 159.853 70.041 160.523L69.0645 162.984C68.5306 162.73 67.9935 162.509 67.4531 162.32C66.9128 162.132 66.3822 162.037 65.8613 162.037ZM76.8379 164.996C76.2064 164.996 75.7116 165.198 75.3535 165.602C74.9954 165.999 74.7904 166.565 74.7383 167.301H78.918C78.9049 166.565 78.7129 165.999 78.3418 165.602C77.9707 165.198 77.4694 164.996 76.8379 164.996ZM77.2578 174.195C75.5 174.195 74.1263 173.71 73.1367 172.74C72.1471 171.77 71.6523 170.396 71.6523 168.619C71.6523 166.79 72.1081 165.377 73.0195 164.381C73.9375 163.378 75.2038 162.877 76.8184 162.877C78.3613 162.877 79.5625 163.316 80.4219 164.195C81.2812 165.074 81.7109 166.288 81.7109 167.838V169.283H74.6699C74.7025 170.13 74.9531 170.79 75.4219 171.266C75.8906 171.741 76.5482 171.979 77.3945 171.979C78.0521 171.979 78.6738 171.91 79.2598 171.773C79.8457 171.637 80.4577 171.419 81.0957 171.119V173.424C80.5749 173.684 80.0182 173.876 79.4258 174C78.8333 174.13 78.1107 174.195 77.2578 174.195ZM86.9941 168.062L88.293 166.402L91.3496 163.082H94.709L90.373 167.818L94.9727 174H91.5352L88.3906 169.576L87.1113 170.602V174H84.1328V158.805H87.1113V165.582L86.9551 168.062H86.9941ZM113.449 174H110.012L106.271 167.984L104.992 168.902V174H101.965V159.723H104.992V166.256L106.184 164.576L110.051 159.723H113.41L108.43 166.041L113.449 174ZM119.533 164.996C118.902 164.996 118.407 165.198 118.049 165.602C117.691 165.999 117.486 166.565 117.434 167.301H121.613C121.6 166.565 121.408 165.999 121.037 165.602C120.666 165.198 120.165 164.996 119.533 164.996ZM119.953 174.195C118.195 174.195 116.822 173.71 115.832 172.74C114.842 171.77 114.348 170.396 114.348 168.619C114.348 166.79 114.803 165.377 115.715 164.381C116.633 163.378 117.899 162.877 119.514 162.877C121.057 162.877 122.258 163.316 123.117 164.195C123.977 165.074 124.406 166.288 124.406 167.838V169.283H117.365C117.398 170.13 117.648 170.79 118.117 171.266C118.586 171.741 119.243 171.979 120.09 171.979C120.747 171.979 121.369 171.91 121.955 171.773C122.541 171.637 123.153 171.419 123.791 171.119V173.424C123.27 173.684 122.714 173.876 122.121 174C121.529 174.13 120.806 174.195 119.953 174.195ZM134.445 170.758C134.445 171.878 134.055 172.73 133.273 173.316C132.499 173.902 131.337 174.195 129.787 174.195C128.993 174.195 128.316 174.14 127.756 174.029C127.196 173.925 126.672 173.769 126.184 173.561V171.1C126.737 171.36 127.359 171.578 128.049 171.754C128.745 171.93 129.357 172.018 129.885 172.018C130.965 172.018 131.506 171.705 131.506 171.08C131.506 170.846 131.434 170.657 131.291 170.514C131.148 170.364 130.9 170.198 130.549 170.016C130.197 169.827 129.729 169.609 129.143 169.361C128.303 169.01 127.684 168.684 127.287 168.385C126.896 168.085 126.61 167.743 126.428 167.359C126.252 166.969 126.164 166.49 126.164 165.924C126.164 164.954 126.538 164.205 127.287 163.678C128.042 163.144 129.11 162.877 130.49 162.877C131.805 162.877 133.085 163.163 134.328 163.736L133.43 165.885C132.883 165.65 132.372 165.458 131.896 165.309C131.421 165.159 130.936 165.084 130.441 165.084C129.562 165.084 129.123 165.322 129.123 165.797C129.123 166.064 129.263 166.295 129.543 166.49C129.829 166.686 130.451 166.975 131.408 167.359C132.261 167.704 132.886 168.027 133.283 168.326C133.68 168.626 133.973 168.971 134.162 169.361C134.351 169.752 134.445 170.217 134.445 170.758ZM141.291 164.996C140.66 164.996 140.165 165.198 139.807 165.602C139.449 165.999 139.243 166.565 139.191 167.301H143.371C143.358 166.565 143.166 165.999 142.795 165.602C142.424 165.198 141.923 164.996 141.291 164.996ZM141.711 174.195C139.953 174.195 138.579 173.71 137.59 172.74C136.6 171.77 136.105 170.396 136.105 168.619C136.105 166.79 136.561 165.377 137.473 164.381C138.391 163.378 139.657 162.877 141.271 162.877C142.814 162.877 144.016 163.316 144.875 164.195C145.734 165.074 146.164 166.288 146.164 167.838V169.283H139.123C139.156 170.13 139.406 170.79 139.875 171.266C140.344 171.741 141.001 171.979 141.848 171.979C142.505 171.979 143.127 171.91 143.713 171.773C144.299 171.637 144.911 171.419 145.549 171.119V173.424C145.028 173.684 144.471 173.876 143.879 174C143.286 174.13 142.564 174.195 141.711 174.195ZM158.664 174H155.686V167.623C155.686 166.048 155.1 165.26 153.928 165.26C153.094 165.26 152.492 165.543 152.121 166.109C151.75 166.676 151.564 167.594 151.564 168.863V174H148.586V158.805H151.564V161.9C151.564 162.141 151.542 162.708 151.496 163.6L151.428 164.479H151.584C152.248 163.411 153.303 162.877 154.748 162.877C156.031 162.877 157.004 163.222 157.668 163.912C158.332 164.602 158.664 165.592 158.664 166.881V174ZM168.664 174L168.088 172.516H168.01C167.508 173.147 166.991 173.587 166.457 173.834C165.93 174.075 165.24 174.195 164.387 174.195C163.339 174.195 162.512 173.896 161.906 173.297C161.307 172.698 161.008 171.845 161.008 170.738C161.008 169.579 161.411 168.727 162.219 168.18C163.033 167.626 164.257 167.32 165.891 167.262L167.785 167.203V166.725C167.785 165.618 167.219 165.064 166.086 165.064C165.214 165.064 164.188 165.328 163.01 165.855L162.023 163.844C163.28 163.186 164.673 162.857 166.203 162.857C167.668 162.857 168.791 163.176 169.572 163.814C170.354 164.452 170.744 165.423 170.744 166.725V174H168.664ZM167.785 168.941L166.633 168.98C165.767 169.007 165.122 169.163 164.699 169.449C164.276 169.736 164.064 170.172 164.064 170.758C164.064 171.598 164.546 172.018 165.51 172.018C166.2 172.018 166.75 171.819 167.16 171.422C167.577 171.025 167.785 170.497 167.785 169.84V168.941ZM178.42 171.822C178.941 171.822 179.566 171.708 180.295 171.48V173.697C179.553 174.029 178.641 174.195 177.561 174.195C176.369 174.195 175.5 173.896 174.953 173.297C174.413 172.691 174.143 171.786 174.143 170.582V165.318H172.717V164.059L174.357 163.062L175.217 160.758H177.121V163.082H180.178V165.318H177.121V170.582C177.121 171.005 177.238 171.318 177.473 171.52C177.714 171.721 178.029 171.822 178.42 171.822ZM189.445 174L188.869 172.516H188.791C188.29 173.147 187.772 173.587 187.238 173.834C186.711 174.075 186.021 174.195 185.168 174.195C184.12 174.195 183.293 173.896 182.688 173.297C182.089 172.698 181.789 171.845 181.789 170.738C181.789 169.579 182.193 168.727 183 168.18C183.814 167.626 185.038 167.32 186.672 167.262L188.566 167.203V166.725C188.566 165.618 188 165.064 186.867 165.064C185.995 165.064 184.969 165.328 183.791 165.855L182.805 163.844C184.061 163.186 185.454 162.857 186.984 162.857C188.449 162.857 189.572 163.176 190.354 163.814C191.135 164.452 191.525 165.423 191.525 166.725V174H189.445ZM188.566 168.941L187.414 168.98C186.548 169.007 185.904 169.163 185.48 169.449C185.057 169.736 184.846 170.172 184.846 170.758C184.846 171.598 185.327 172.018 186.291 172.018C186.981 172.018 187.531 171.819 187.941 171.422C188.358 171.025 188.566 170.497 188.566 169.84V168.941ZM204.68 174H201.701V167.623C201.701 166.835 201.561 166.246 201.281 165.855C201.001 165.458 200.555 165.26 199.943 165.26C199.11 165.26 198.508 165.54 198.137 166.1C197.766 166.653 197.58 167.574 197.58 168.863V174H194.602V163.082H196.877L197.277 164.479H197.443C197.775 163.951 198.231 163.554 198.811 163.287C199.396 163.014 200.061 162.877 200.803 162.877C202.072 162.877 203.036 163.222 203.693 163.912C204.351 164.596 204.68 165.585 204.68 166.881V174Z" fill="#038C98"/>
<path d="M58.9 199.753V189.103H60.25V198.553H66.19V199.753H58.9ZM70.7672 199.903C70.1772 199.903 69.6372 199.793 69.1472 199.573C68.6672 199.353 68.2522 199.058 67.9022 198.688C67.5622 198.318 67.2972 197.888 67.1072 197.398C66.9172 196.908 66.8222 196.393 66.8222 195.853C66.8222 195.303 66.9172 194.783 67.1072 194.293C67.3072 193.803 67.5772 193.373 67.9172 193.003C68.2672 192.633 68.6822 192.338 69.1622 192.118C69.6522 191.898 70.1872 191.788 70.7672 191.788C71.3472 191.788 71.8822 191.898 72.3722 192.118C72.8622 192.338 73.2772 192.633 73.6172 193.003C73.9672 193.373 74.2372 193.803 74.4272 194.293C74.6272 194.783 74.7272 195.303 74.7272 195.853C74.7272 196.393 74.6322 196.908 74.4422 197.398C74.2522 197.888 73.9822 198.318 73.6322 198.688C73.2822 199.058 72.8622 199.353 72.3722 199.573C71.8922 199.793 71.3572 199.903 70.7672 199.903ZM68.1722 195.868C68.1722 196.278 68.2372 196.658 68.3672 197.008C68.5072 197.358 68.6922 197.663 68.9222 197.923C69.1622 198.183 69.4372 198.388 69.7472 198.538C70.0672 198.688 70.4072 198.763 70.7672 198.763C71.1272 198.763 71.4622 198.688 71.7722 198.538C72.0922 198.388 72.3722 198.183 72.6122 197.923C72.8522 197.653 73.0372 197.343 73.1672 196.993C73.3072 196.633 73.3772 196.248 73.3772 195.838C73.3772 195.438 73.3072 195.063 73.1672 194.713C73.0372 194.353 72.8522 194.043 72.6122 193.783C72.3722 193.513 72.0922 193.303 71.7722 193.153C71.4622 193.003 71.1272 192.928 70.7672 192.928C70.4072 192.928 70.0672 193.008 69.7472 193.168C69.4372 193.318 69.1622 193.528 68.9222 193.798C68.6922 194.058 68.5072 194.368 68.3672 194.728C68.2372 195.078 68.1722 195.458 68.1722 195.868ZM80.4667 193.078C79.8067 193.098 79.2217 193.268 78.7117 193.588C78.2117 193.908 77.8567 194.353 77.6467 194.923V199.753H76.3267V191.923H77.5567V193.738C77.8267 193.198 78.1817 192.763 78.6217 192.433C79.0617 192.093 79.5317 191.903 80.0317 191.863C80.1317 191.863 80.2167 191.863 80.2867 191.863C80.3567 191.863 80.4167 191.868 80.4667 191.878V193.078ZM85.0652 199.903C84.4752 199.903 83.9352 199.798 83.4452 199.588C82.9552 199.368 82.5352 199.073 82.1852 198.703C81.8352 198.333 81.5602 197.903 81.3602 197.413C81.1702 196.913 81.0752 196.388 81.0752 195.838C81.0752 195.288 81.1702 194.768 81.3602 194.278C81.5602 193.788 81.8352 193.358 82.1852 192.988C82.5452 192.618 82.9702 192.328 83.4602 192.118C83.9502 191.898 84.4902 191.788 85.0802 191.788C85.6702 191.788 86.2052 191.898 86.6852 192.118C87.1752 192.338 87.5902 192.633 87.9302 193.003C88.2702 193.363 88.5302 193.788 88.7102 194.278C88.9002 194.758 88.9952 195.258 88.9952 195.778C88.9952 195.888 88.9902 195.988 88.9802 196.078C88.9802 196.168 88.9752 196.238 88.9652 196.288H82.4702C82.5002 196.678 82.5902 197.033 82.7402 197.353C82.8902 197.673 83.0852 197.948 83.3252 198.178C83.5652 198.408 83.8352 198.588 84.1352 198.718C84.4452 198.848 84.7702 198.913 85.1102 198.913C85.3502 198.913 85.5852 198.883 85.8152 198.823C86.0452 198.753 86.2602 198.663 86.4602 198.553C86.6602 198.443 86.8352 198.308 86.9852 198.148C87.1452 197.988 87.2652 197.808 87.3452 197.608L88.4852 197.923C88.3552 198.213 88.1752 198.478 87.9452 198.718C87.7252 198.958 87.4652 199.168 87.1652 199.348C86.8752 199.518 86.5502 199.653 86.1902 199.753C85.8302 199.853 85.4552 199.903 85.0652 199.903ZM87.7502 195.313C87.7202 194.943 87.6252 194.603 87.4652 194.293C87.3152 193.973 87.1202 193.703 86.8802 193.483C86.6502 193.263 86.3802 193.093 86.0702 192.973C85.7602 192.843 85.4302 192.778 85.0802 192.778C84.7302 192.778 84.4002 192.843 84.0902 192.973C83.7802 193.093 83.5052 193.268 83.2652 193.498C83.0352 193.718 82.8452 193.983 82.6952 194.293C82.5552 194.603 82.4702 194.943 82.4402 195.313H87.7502ZM102.267 199.753H100.947V195.373C100.947 194.553 100.812 193.948 100.542 193.558C100.282 193.168 99.8925 192.973 99.3725 192.973C98.8325 192.973 98.3475 193.168 97.9175 193.558C97.4975 193.938 97.1975 194.433 97.0175 195.043V199.753H95.6975V195.373C95.6975 194.533 95.5675 193.923 95.3075 193.543C95.0475 193.163 94.6575 192.973 94.1375 192.973C93.6075 192.973 93.1275 193.163 92.6975 193.543C92.2675 193.913 91.9625 194.408 91.7825 195.028V199.753H90.4625V191.923H91.6625V193.603C91.9825 193.023 92.3975 192.578 92.9075 192.268C93.4175 191.948 93.9925 191.788 94.6325 191.788C95.2925 191.788 95.8125 191.968 96.1925 192.328C96.5825 192.678 96.8225 193.133 96.9125 193.693C97.6125 192.423 98.6075 191.788 99.8975 191.788C100.347 191.788 100.722 191.873 101.022 192.043C101.332 192.203 101.577 192.433 101.757 192.733C101.937 193.023 102.067 193.368 102.147 193.768C102.227 194.168 102.267 194.603 102.267 195.073V199.753ZM108.114 199.753V191.923H109.434V199.753H108.114ZM108.114 190.453V188.803H109.434V190.453H108.114ZM115.786 199.903C115.136 199.903 114.561 199.743 114.061 199.423C113.571 199.103 113.181 198.698 112.891 198.208V202.948H111.571V191.923H112.741V193.393C113.051 192.913 113.451 192.528 113.941 192.238C114.441 191.938 114.991 191.788 115.591 191.788C116.131 191.788 116.626 191.898 117.076 192.118C117.526 192.338 117.916 192.638 118.246 193.018C118.576 193.388 118.831 193.818 119.011 194.308C119.201 194.798 119.296 195.308 119.296 195.838C119.296 196.398 119.211 196.928 119.041 197.428C118.871 197.918 118.631 198.348 118.321 198.718C118.011 199.078 117.641 199.368 117.211 199.588C116.781 199.798 116.306 199.903 115.786 199.903ZM115.381 198.763C115.771 198.763 116.121 198.683 116.431 198.523C116.751 198.353 117.021 198.133 117.241 197.863C117.471 197.583 117.646 197.268 117.766 196.918C117.886 196.568 117.946 196.208 117.946 195.838C117.946 195.448 117.876 195.078 117.736 194.728C117.596 194.368 117.406 194.058 117.166 193.798C116.926 193.528 116.641 193.318 116.311 193.168C115.991 193.008 115.641 192.928 115.261 192.928C115.021 192.928 114.771 192.978 114.511 193.078C114.261 193.168 114.021 193.293 113.791 193.453C113.571 193.603 113.376 193.788 113.206 194.008C113.046 194.218 112.941 194.443 112.891 194.683V196.918C113.001 197.178 113.141 197.423 113.311 197.653C113.481 197.873 113.676 198.068 113.896 198.238C114.116 198.398 114.351 198.528 114.601 198.628C114.851 198.718 115.111 198.763 115.381 198.763ZM123.662 199.903C123.032 199.903 122.412 199.808 121.802 199.618C121.192 199.418 120.667 199.133 120.227 198.763L120.797 197.878C121.257 198.228 121.717 198.493 122.177 198.673C122.637 198.843 123.122 198.928 123.632 198.928C124.202 198.928 124.652 198.818 124.982 198.598C125.322 198.368 125.492 198.048 125.492 197.638C125.492 197.448 125.447 197.288 125.357 197.158C125.267 197.018 125.132 196.898 124.952 196.798C124.772 196.698 124.542 196.608 124.262 196.528C123.982 196.448 123.657 196.363 123.287 196.273C122.817 196.153 122.412 196.038 122.072 195.928C121.732 195.818 121.452 195.688 121.232 195.538C121.012 195.388 120.852 195.208 120.752 194.998C120.652 194.788 120.602 194.528 120.602 194.218C120.602 193.828 120.677 193.483 120.827 193.183C120.987 192.873 121.202 192.618 121.472 192.418C121.742 192.208 122.057 192.053 122.417 191.953C122.787 191.843 123.182 191.788 123.602 191.788C124.192 191.788 124.742 191.883 125.252 192.073C125.762 192.263 126.192 192.513 126.542 192.823L125.942 193.618C125.612 193.328 125.242 193.113 124.832 192.973C124.422 192.823 124.002 192.748 123.572 192.748C123.092 192.748 122.682 192.853 122.342 193.063C122.012 193.263 121.847 193.588 121.847 194.038C121.847 194.218 121.877 194.368 121.937 194.488C122.007 194.608 122.117 194.713 122.267 194.803C122.417 194.893 122.607 194.973 122.837 195.043C123.077 195.113 123.362 195.188 123.692 195.268C124.212 195.388 124.662 195.513 125.042 195.643C125.432 195.763 125.752 195.908 126.002 196.078C126.262 196.248 126.452 196.448 126.572 196.678C126.702 196.908 126.767 197.188 126.767 197.518C126.767 198.248 126.487 198.828 125.927 199.258C125.367 199.688 124.612 199.903 123.662 199.903ZM130.744 199.903C129.924 199.903 129.304 199.628 128.884 199.078C128.464 198.528 128.254 197.708 128.254 196.618V191.923H129.574V196.363C129.574 197.963 130.129 198.763 131.239 198.763C131.779 198.763 132.284 198.593 132.754 198.253C133.234 197.903 133.589 197.428 133.819 196.828V191.923H135.139V198.133C135.139 198.443 135.279 198.603 135.559 198.613V199.753C135.409 199.773 135.289 199.783 135.199 199.783C135.119 199.793 135.039 199.798 134.959 199.798C134.699 199.798 134.479 199.723 134.299 199.573C134.129 199.413 134.039 199.218 134.029 198.988L133.999 198.073C133.649 198.663 133.189 199.118 132.619 199.438C132.049 199.748 131.424 199.903 130.744 199.903ZM149.142 199.753H147.822V195.373C147.822 194.553 147.687 193.948 147.417 193.558C147.157 193.168 146.767 192.973 146.247 192.973C145.707 192.973 145.222 193.168 144.792 193.558C144.372 193.938 144.072 194.433 143.892 195.043V199.753H142.572V195.373C142.572 194.533 142.442 193.923 142.182 193.543C141.922 193.163 141.532 192.973 141.012 192.973C140.482 192.973 140.002 193.163 139.572 193.543C139.142 193.913 138.837 194.408 138.657 195.028V199.753H137.337V191.923H138.537V193.603C138.857 193.023 139.272 192.578 139.782 192.268C140.292 191.948 140.867 191.788 141.507 191.788C142.167 191.788 142.687 191.968 143.067 192.328C143.457 192.678 143.697 193.133 143.787 193.693C144.487 192.423 145.482 191.788 146.772 191.788C147.222 191.788 147.597 191.873 147.897 192.043C148.207 192.203 148.452 192.433 148.632 192.733C148.812 193.023 148.942 193.368 149.022 193.768C149.102 194.168 149.142 194.603 149.142 195.073V199.753ZM158.214 199.903C157.674 199.903 157.174 199.793 156.714 199.573C156.254 199.353 155.859 199.058 155.529 198.688C155.199 198.318 154.939 197.888 154.749 197.398C154.569 196.908 154.479 196.393 154.479 195.853C154.479 195.303 154.564 194.783 154.734 194.293C154.914 193.793 155.159 193.358 155.469 192.988C155.789 192.618 156.164 192.328 156.594 192.118C157.034 191.898 157.514 191.788 158.034 191.788C158.664 191.788 159.224 191.953 159.714 192.283C160.214 192.613 160.609 193.013 160.899 193.483V188.803H162.219V198.133C162.219 198.443 162.359 198.603 162.639 198.613V199.753C162.499 199.773 162.384 199.788 162.294 199.798C162.214 199.808 162.134 199.813 162.054 199.813C161.794 199.813 161.564 199.728 161.364 199.558C161.174 199.378 161.079 199.173 161.079 198.943V198.283C160.769 198.793 160.354 199.193 159.834 199.483C159.324 199.763 158.784 199.903 158.214 199.903ZM158.529 198.763C158.769 198.763 159.014 198.718 159.264 198.628C159.524 198.538 159.764 198.413 159.984 198.253C160.214 198.093 160.409 197.908 160.569 197.698C160.739 197.478 160.849 197.248 160.899 197.008V194.758C160.809 194.508 160.674 194.273 160.494 194.053C160.314 193.823 160.109 193.628 159.879 193.468C159.659 193.298 159.419 193.168 159.159 193.078C158.909 192.978 158.659 192.928 158.409 192.928C158.019 192.928 157.664 193.013 157.344 193.183C157.034 193.343 156.764 193.563 156.534 193.843C156.314 194.113 156.144 194.428 156.024 194.788C155.904 195.138 155.844 195.498 155.844 195.868C155.844 196.258 155.914 196.633 156.054 196.993C156.194 197.343 156.384 197.648 156.624 197.908C156.864 198.168 157.144 198.378 157.464 198.538C157.794 198.688 158.149 198.763 158.529 198.763ZM167.842 199.903C167.252 199.903 166.712 199.793 166.222 199.573C165.742 199.353 165.327 199.058 164.977 198.688C164.637 198.318 164.372 197.888 164.182 197.398C163.992 196.908 163.897 196.393 163.897 195.853C163.897 195.303 163.992 194.783 164.182 194.293C164.382 193.803 164.652 193.373 164.992 193.003C165.342 192.633 165.757 192.338 166.237 192.118C166.727 191.898 167.262 191.788 167.842 191.788C168.422 191.788 168.957 191.898 169.447 192.118C169.937 192.338 170.352 192.633 170.692 193.003C171.042 193.373 171.312 193.803 171.502 194.293C171.702 194.783 171.802 195.303 171.802 195.853C171.802 196.393 171.707 196.908 171.517 197.398C171.327 197.888 171.057 198.318 170.707 198.688C170.357 199.058 169.937 199.353 169.447 199.573C168.967 199.793 168.432 199.903 167.842 199.903ZM165.247 195.868C165.247 196.278 165.312 196.658 165.442 197.008C165.582 197.358 165.767 197.663 165.997 197.923C166.237 198.183 166.512 198.388 166.822 198.538C167.142 198.688 167.482 198.763 167.842 198.763C168.202 198.763 168.537 198.688 168.847 198.538C169.167 198.388 169.447 198.183 169.687 197.923C169.927 197.653 170.112 197.343 170.242 196.993C170.382 196.633 170.452 196.248 170.452 195.838C170.452 195.438 170.382 195.063 170.242 194.713C170.112 194.353 169.927 194.043 169.687 193.783C169.447 193.513 169.167 193.303 168.847 193.153C168.537 193.003 168.202 192.928 167.842 192.928C167.482 192.928 167.142 193.008 166.822 193.168C166.512 193.318 166.237 193.528 165.997 193.798C165.767 194.058 165.582 194.368 165.442 194.728C165.312 195.078 165.247 195.458 165.247 195.868ZM173.432 188.803H174.752V197.728C174.752 198.018 174.827 198.248 174.977 198.418C175.137 198.578 175.357 198.658 175.637 198.658C175.747 198.658 175.877 198.643 176.027 198.613C176.177 198.573 176.317 198.528 176.447 198.478L176.657 199.543C176.437 199.633 176.177 199.708 175.877 199.768C175.577 199.828 175.312 199.858 175.082 199.858C174.572 199.858 174.167 199.713 173.867 199.423C173.577 199.133 173.432 198.728 173.432 198.208V188.803ZM181.114 199.903C180.524 199.903 179.984 199.793 179.494 199.573C179.014 199.353 178.599 199.058 178.249 198.688C177.909 198.318 177.644 197.888 177.454 197.398C177.264 196.908 177.169 196.393 177.169 195.853C177.169 195.303 177.264 194.783 177.454 194.293C177.654 193.803 177.924 193.373 178.264 193.003C178.614 192.633 179.029 192.338 179.509 192.118C179.999 191.898 180.534 191.788 181.114 191.788C181.694 191.788 182.229 191.898 182.719 192.118C183.209 192.338 183.624 192.633 183.964 193.003C184.314 193.373 184.584 193.803 184.774 194.293C184.974 194.783 185.074 195.303 185.074 195.853C185.074 196.393 184.979 196.908 184.789 197.398C184.599 197.888 184.329 198.318 183.979 198.688C183.629 199.058 183.209 199.353 182.719 199.573C182.239 199.793 181.704 199.903 181.114 199.903ZM178.519 195.868C178.519 196.278 178.584 196.658 178.714 197.008C178.854 197.358 179.039 197.663 179.269 197.923C179.509 198.183 179.784 198.388 180.094 198.538C180.414 198.688 180.754 198.763 181.114 198.763C181.474 198.763 181.809 198.688 182.119 198.538C182.439 198.388 182.719 198.183 182.959 197.923C183.199 197.653 183.384 197.343 183.514 196.993C183.654 196.633 183.724 196.248 183.724 195.838C183.724 195.438 183.654 195.063 183.514 194.713C183.384 194.353 183.199 194.043 182.959 193.783C182.719 193.513 182.439 193.303 182.119 193.153C181.809 193.003 181.474 192.928 181.114 192.928C180.754 192.928 180.414 193.008 180.094 193.168C179.784 193.318 179.509 193.528 179.269 193.798C179.039 194.058 178.854 194.368 178.714 194.728C178.584 195.078 178.519 195.458 178.519 195.868ZM190.813 193.078C190.153 193.098 189.568 193.268 189.058 193.588C188.558 193.908 188.203 194.353 187.993 194.923V199.753H186.673V191.923H187.903V193.738C188.173 193.198 188.528 192.763 188.968 192.433C189.408 192.093 189.878 191.903 190.378 191.863C190.478 191.863 190.563 191.863 190.633 191.863C190.703 191.863 190.763 191.868 190.813 191.878V193.078ZM198.31 199.903C197.68 199.903 197.06 199.808 196.45 199.618C195.84 199.418 195.315 199.133 194.875 198.763L195.445 197.878C195.905 198.228 196.365 198.493 196.825 198.673C197.285 198.843 197.77 198.928 198.28 198.928C198.85 198.928 199.3 198.818 199.63 198.598C199.97 198.368 200.14 198.048 200.14 197.638C200.14 197.448 200.095 197.288 200.005 197.158C199.915 197.018 199.78 196.898 199.6 196.798C199.42 196.698 199.19 196.608 198.91 196.528C198.63 196.448 198.305 196.363 197.935 196.273C197.465 196.153 197.06 196.038 196.72 195.928C196.38 195.818 196.1 195.688 195.88 195.538C195.66 195.388 195.5 195.208 195.4 194.998C195.3 194.788 195.25 194.528 195.25 194.218C195.25 193.828 195.325 193.483 195.475 193.183C195.635 192.873 195.85 192.618 196.12 192.418C196.39 192.208 196.705 192.053 197.065 191.953C197.435 191.843 197.83 191.788 198.25 191.788C198.84 191.788 199.39 191.883 199.9 192.073C200.41 192.263 200.84 192.513 201.19 192.823L200.59 193.618C200.26 193.328 199.89 193.113 199.48 192.973C199.07 192.823 198.65 192.748 198.22 192.748C197.74 192.748 197.33 192.853 196.99 193.063C196.66 193.263 196.495 193.588 196.495 194.038C196.495 194.218 196.525 194.368 196.585 194.488C196.655 194.608 196.765 194.713 196.915 194.803C197.065 194.893 197.255 194.973 197.485 195.043C197.725 195.113 198.01 195.188 198.34 195.268C198.86 195.388 199.31 195.513 199.69 195.643C200.08 195.763 200.4 195.908 200.65 196.078C200.91 196.248 201.1 196.448 201.22 196.678C201.35 196.908 201.415 197.188 201.415 197.518C201.415 198.248 201.135 198.828 200.575 199.258C200.015 199.688 199.26 199.903 198.31 199.903ZM202.977 199.753V191.923H204.297V199.753H202.977ZM202.977 190.453V188.803H204.297V190.453H202.977ZM210.484 199.363C210.404 199.403 210.299 199.453 210.169 199.513C210.039 199.563 209.889 199.618 209.719 199.678C209.559 199.728 209.379 199.768 209.179 199.798C208.989 199.838 208.789 199.858 208.579 199.858C208.099 199.858 207.684 199.728 207.334 199.468C206.984 199.198 206.809 198.783 206.809 198.223V192.958H205.744V191.923H206.809V189.313H208.129V191.923H209.884V192.958H208.129V197.818C208.149 198.108 208.244 198.318 208.414 198.448C208.584 198.578 208.784 198.643 209.014 198.643C209.274 198.643 209.509 198.603 209.719 198.523C209.939 198.433 210.089 198.363 210.169 198.313L210.484 199.363ZM217.512 199.903C217.142 199.903 216.797 199.843 216.477 199.723C216.157 199.593 215.877 199.418 215.637 199.198C215.407 198.978 215.222 198.723 215.082 198.433C214.952 198.133 214.887 197.808 214.887 197.458C214.887 197.098 214.967 196.773 215.127 196.483C215.287 196.183 215.512 195.928 215.802 195.718C216.102 195.508 216.452 195.343 216.852 195.223C217.262 195.103 217.707 195.043 218.187 195.043C218.567 195.043 218.952 195.078 219.342 195.148C219.732 195.218 220.077 195.313 220.377 195.433V194.803C220.377 194.163 220.197 193.663 219.837 193.303C219.477 192.933 218.967 192.748 218.307 192.748C217.517 192.748 216.687 193.053 215.817 193.663L215.382 192.808C216.392 192.128 217.407 191.788 218.427 191.788C219.457 191.788 220.257 192.063 220.827 192.613C221.407 193.163 221.697 193.938 221.697 194.938V198.133C221.697 198.443 221.837 198.603 222.117 198.613V199.753C221.977 199.773 221.862 199.788 221.772 199.798C221.682 199.808 221.587 199.813 221.487 199.813C221.227 199.813 221.017 199.738 220.857 199.588C220.707 199.428 220.617 199.238 220.587 199.018L220.557 198.463C220.207 198.933 219.762 199.293 219.222 199.543C218.692 199.783 218.122 199.903 217.512 199.903ZM217.857 198.913C218.327 198.913 218.762 198.828 219.162 198.658C219.572 198.478 219.882 198.243 220.092 197.953C220.282 197.763 220.377 197.568 220.377 197.368V196.213C219.737 195.963 219.072 195.838 218.382 195.838C217.722 195.838 217.182 195.978 216.762 196.258C216.352 196.538 216.147 196.903 216.147 197.353C216.147 197.573 216.187 197.778 216.267 197.968C216.357 198.158 216.477 198.323 216.627 198.463C216.787 198.603 216.972 198.713 217.182 198.793C217.392 198.873 217.617 198.913 217.857 198.913ZM235.612 199.753H234.292V195.373C234.292 194.553 234.157 193.948 233.887 193.558C233.627 193.168 233.237 192.973 232.717 192.973C232.177 192.973 231.692 193.168 231.262 193.558C230.842 193.938 230.542 194.433 230.362 195.043V199.753H229.042V195.373C229.042 194.533 228.912 193.923 228.652 193.543C228.392 193.163 228.002 192.973 227.482 192.973C226.952 192.973 226.472 193.163 226.042 193.543C225.612 193.913 225.307 194.408 225.127 195.028V199.753H223.807V191.923H225.007V193.603C225.327 193.023 225.742 192.578 226.252 192.268C226.762 191.948 227.337 191.788 227.977 191.788C228.637 191.788 229.157 191.968 229.537 192.328C229.927 192.678 230.167 193.133 230.257 193.693C230.957 192.423 231.952 191.788 233.242 191.788C233.692 191.788 234.067 191.873 234.367 192.043C234.677 192.203 234.922 192.433 235.102 192.733C235.282 193.023 235.412 193.368 235.492 193.768C235.572 194.168 235.612 194.603 235.612 195.073V199.753ZM241.13 199.903C240.54 199.903 240 199.798 239.51 199.588C239.02 199.368 238.6 199.073 238.25 198.703C237.9 198.333 237.625 197.903 237.425 197.413C237.235 196.913 237.14 196.388 237.14 195.838C237.14 195.288 237.235 194.768 237.425 194.278C237.625 193.788 237.9 193.358 238.25 192.988C238.61 192.618 239.035 192.328 239.525 192.118C240.015 191.898 240.555 191.788 241.145 191.788C241.735 191.788 242.27 191.898 242.75 192.118C243.24 192.338 243.655 192.633 243.995 193.003C244.335 193.363 244.595 193.788 244.775 194.278C244.965 194.758 245.06 195.258 245.06 195.778C245.06 195.888 245.055 195.988 245.045 196.078C245.045 196.168 245.04 196.238 245.03 196.288H238.535C238.565 196.678 238.655 197.033 238.805 197.353C238.955 197.673 239.15 197.948 239.39 198.178C239.63 198.408 239.9 198.588 240.2 198.718C240.51 198.848 240.835 198.913 241.175 198.913C241.415 198.913 241.65 198.883 241.88 198.823C242.11 198.753 242.325 198.663 242.525 198.553C242.725 198.443 242.9 198.308 243.05 198.148C243.21 197.988 243.33 197.808 243.41 197.608L244.55 197.923C244.42 198.213 244.24 198.478 244.01 198.718C243.79 198.958 243.53 199.168 243.23 199.348C242.94 199.518 242.615 199.653 242.255 199.753C241.895 199.853 241.52 199.903 241.13 199.903ZM243.815 195.313C243.785 194.943 243.69 194.603 243.53 194.293C243.38 193.973 243.185 193.703 242.945 193.483C242.715 193.263 242.445 193.093 242.135 192.973C241.825 192.843 241.495 192.778 241.145 192.778C240.795 192.778 240.465 192.843 240.155 192.973C239.845 193.093 239.57 193.268 239.33 193.498C239.1 193.718 238.91 193.983 238.76 194.293C238.62 194.603 238.535 194.943 238.505 195.313H243.815ZM250.504 199.363C250.424 199.403 250.319 199.453 250.189 199.513C250.059 199.563 249.909 199.618 249.739 199.678C249.579 199.728 249.399 199.768 249.199 199.798C249.009 199.838 248.809 199.858 248.599 199.858C248.119 199.858 247.704 199.728 247.354 199.468C247.004 199.198 246.829 198.783 246.829 198.223V192.958H245.764V191.923H246.829V189.313H248.149V191.923H249.904V192.958H248.149V197.818C248.169 198.108 248.264 198.318 248.434 198.448C248.604 198.578 248.804 198.643 249.034 198.643C249.294 198.643 249.529 198.603 249.739 198.523C249.959 198.433 250.109 198.363 250.189 198.313L250.504 199.363ZM251.772 200.968L252.072 199.633H251.622V198.073H252.867V199.633L252.417 200.968H251.772ZM58.165 220.823C58.165 220.273 58.26 219.753 58.45 219.263C58.64 218.773 58.91 218.348 59.26 217.988C59.61 217.618 60.025 217.328 60.505 217.118C60.995 216.898 61.54 216.788 62.14 216.788C62.92 216.788 63.59 216.963 64.15 217.313C64.72 217.653 65.15 218.113 65.44 218.693L64.15 219.098C63.95 218.728 63.67 218.443 63.31 218.243C62.95 218.033 62.55 217.928 62.11 217.928C61.75 217.928 61.41 218.003 61.09 218.153C60.77 218.293 60.495 218.493 60.265 218.753C60.035 219.013 59.85 219.318 59.71 219.668C59.58 220.018 59.515 220.403 59.515 220.823C59.515 221.233 59.585 221.618 59.725 221.978C59.865 222.338 60.05 222.653 60.28 222.923C60.52 223.183 60.795 223.388 61.105 223.538C61.425 223.688 61.765 223.763 62.125 223.763C62.355 223.763 62.58 223.733 62.8 223.673C63.03 223.603 63.235 223.513 63.415 223.403C63.605 223.293 63.77 223.168 63.91 223.028C64.05 222.878 64.15 222.718 64.21 222.548L65.5 222.938C65.38 223.228 65.21 223.493 64.99 223.733C64.78 223.973 64.53 224.178 64.24 224.348C63.95 224.518 63.625 224.653 63.265 224.753C62.915 224.853 62.545 224.903 62.155 224.903C61.565 224.903 61.025 224.793 60.535 224.573C60.045 224.353 59.625 224.058 59.275 223.688C58.925 223.318 58.65 222.888 58.45 222.398C58.26 221.898 58.165 221.373 58.165 220.823ZM70.3424 224.903C69.7524 224.903 69.2124 224.793 68.7224 224.573C68.2424 224.353 67.8274 224.058 67.4774 223.688C67.1374 223.318 66.8724 222.888 66.6824 222.398C66.4924 221.908 66.3974 221.393 66.3974 220.853C66.3974 220.303 66.4924 219.783 66.6824 219.293C66.8824 218.803 67.1524 218.373 67.4924 218.003C67.8424 217.633 68.2574 217.338 68.7374 217.118C69.2274 216.898 69.7624 216.788 70.3424 216.788C70.9224 216.788 71.4574 216.898 71.9474 217.118C72.4374 217.338 72.8524 217.633 73.1924 218.003C73.5424 218.373 73.8124 218.803 74.0024 219.293C74.2024 219.783 74.3024 220.303 74.3024 220.853C74.3024 221.393 74.2074 221.908 74.0174 222.398C73.8274 222.888 73.5574 223.318 73.2074 223.688C72.8574 224.058 72.4374 224.353 71.9474 224.573C71.4674 224.793 70.9324 224.903 70.3424 224.903ZM67.7474 220.868C67.7474 221.278 67.8124 221.658 67.9424 222.008C68.0824 222.358 68.2674 222.663 68.4974 222.923C68.7374 223.183 69.0124 223.388 69.3224 223.538C69.6424 223.688 69.9824 223.763 70.3424 223.763C70.7024 223.763 71.0374 223.688 71.3474 223.538C71.6674 223.388 71.9474 223.183 72.1874 222.923C72.4274 222.653 72.6124 222.343 72.7424 221.993C72.8824 221.633 72.9524 221.248 72.9524 220.838C72.9524 220.438 72.8824 220.063 72.7424 219.713C72.6124 219.353 72.4274 219.043 72.1874 218.783C71.9474 218.513 71.6674 218.303 71.3474 218.153C71.0374 218.003 70.7024 217.928 70.3424 217.928C69.9824 217.928 69.6424 218.008 69.3224 218.168C69.0124 218.318 68.7374 218.528 68.4974 218.798C68.2674 219.058 68.0824 219.368 67.9424 219.728C67.8124 220.078 67.7474 220.458 67.7474 220.868ZM82.6969 224.753H81.3769V220.373C81.3769 219.533 81.2469 218.923 80.9869 218.543C80.7369 218.163 80.3519 217.973 79.8319 217.973C79.5619 217.973 79.2919 218.028 79.0219 218.138C78.7519 218.238 78.4969 218.378 78.2569 218.558C78.0169 218.738 77.8069 218.953 77.6269 219.203C77.4469 219.453 77.3119 219.728 77.2219 220.028V224.753H75.9019V216.923H77.1019V218.603C77.4119 218.053 77.8569 217.613 78.4369 217.283C79.0269 216.953 79.6669 216.788 80.3569 216.788C80.8069 216.788 81.1819 216.873 81.4819 217.043C81.7819 217.203 82.0219 217.433 82.2019 217.733C82.3819 218.023 82.5069 218.368 82.5769 218.768C82.6569 219.168 82.6969 219.603 82.6969 220.073V224.753ZM87.4946 224.903C86.8646 224.903 86.2446 224.808 85.6346 224.618C85.0246 224.418 84.4996 224.133 84.0596 223.763L84.6296 222.878C85.0896 223.228 85.5496 223.493 86.0096 223.673C86.4696 223.843 86.9546 223.928 87.4646 223.928C88.0346 223.928 88.4846 223.818 88.8146 223.598C89.1546 223.368 89.3246 223.048 89.3246 222.638C89.3246 222.448 89.2796 222.288 89.1896 222.158C89.0996 222.018 88.9646 221.898 88.7846 221.798C88.6046 221.698 88.3746 221.608 88.0946 221.528C87.8146 221.448 87.4896 221.363 87.1196 221.273C86.6496 221.153 86.2446 221.038 85.9046 220.928C85.5646 220.818 85.2846 220.688 85.0646 220.538C84.8446 220.388 84.6846 220.208 84.5846 219.998C84.4846 219.788 84.4346 219.528 84.4346 219.218C84.4346 218.828 84.5096 218.483 84.6596 218.183C84.8196 217.873 85.0346 217.618 85.3046 217.418C85.5746 217.208 85.8896 217.053 86.2496 216.953C86.6196 216.843 87.0146 216.788 87.4346 216.788C88.0246 216.788 88.5746 216.883 89.0846 217.073C89.5946 217.263 90.0246 217.513 90.3746 217.823L89.7746 218.618C89.4446 218.328 89.0746 218.113 88.6646 217.973C88.2546 217.823 87.8346 217.748 87.4046 217.748C86.9246 217.748 86.5146 217.853 86.1746 218.063C85.8446 218.263 85.6796 218.588 85.6796 219.038C85.6796 219.218 85.7096 219.368 85.7696 219.488C85.8396 219.608 85.9496 219.713 86.0996 219.803C86.2496 219.893 86.4396 219.973 86.6696 220.043C86.9096 220.113 87.1946 220.188 87.5246 220.268C88.0446 220.388 88.4946 220.513 88.8746 220.643C89.2646 220.763 89.5846 220.908 89.8346 221.078C90.0946 221.248 90.2846 221.448 90.4046 221.678C90.5346 221.908 90.5996 222.188 90.5996 222.518C90.5996 223.248 90.3196 223.828 89.7596 224.258C89.1996 224.688 88.4446 224.903 87.4946 224.903ZM95.6267 224.903C95.0367 224.903 94.4967 224.798 94.0067 224.588C93.5167 224.368 93.0967 224.073 92.7467 223.703C92.3967 223.333 92.1217 222.903 91.9217 222.413C91.7317 221.913 91.6367 221.388 91.6367 220.838C91.6367 220.288 91.7317 219.768 91.9217 219.278C92.1217 218.788 92.3967 218.358 92.7467 217.988C93.1067 217.618 93.5317 217.328 94.0217 217.118C94.5117 216.898 95.0517 216.788 95.6417 216.788C96.2317 216.788 96.7667 216.898 97.2467 217.118C97.7367 217.338 98.1517 217.633 98.4917 218.003C98.8317 218.363 99.0917 218.788 99.2717 219.278C99.4617 219.758 99.5567 220.258 99.5567 220.778C99.5567 220.888 99.5517 220.988 99.5417 221.078C99.5417 221.168 99.5367 221.238 99.5267 221.288H93.0317C93.0617 221.678 93.1517 222.033 93.3017 222.353C93.4517 222.673 93.6467 222.948 93.8867 223.178C94.1267 223.408 94.3967 223.588 94.6967 223.718C95.0067 223.848 95.3317 223.913 95.6717 223.913C95.9117 223.913 96.1467 223.883 96.3767 223.823C96.6067 223.753 96.8217 223.663 97.0217 223.553C97.2217 223.443 97.3967 223.308 97.5467 223.148C97.7067 222.988 97.8267 222.808 97.9067 222.608L99.0467 222.923C98.9167 223.213 98.7367 223.478 98.5067 223.718C98.2867 223.958 98.0267 224.168 97.7267 224.348C97.4367 224.518 97.1117 224.653 96.7517 224.753C96.3917 224.853 96.0167 224.903 95.6267 224.903ZM98.3117 220.313C98.2817 219.943 98.1867 219.603 98.0267 219.293C97.8767 218.973 97.6817 218.703 97.4417 218.483C97.2117 218.263 96.9417 218.093 96.6317 217.973C96.3217 217.843 95.9917 217.778 95.6417 217.778C95.2917 217.778 94.9617 217.843 94.6517 217.973C94.3417 218.093 94.0667 218.268 93.8267 218.498C93.5967 218.718 93.4067 218.983 93.2567 219.293C93.1167 219.603 93.0317 219.943 93.0017 220.313H98.3117ZM100.499 220.823C100.499 220.273 100.594 219.753 100.784 219.263C100.974 218.773 101.244 218.348 101.594 217.988C101.944 217.618 102.359 217.328 102.839 217.118C103.329 216.898 103.874 216.788 104.474 216.788C105.254 216.788 105.924 216.963 106.484 217.313C107.054 217.653 107.484 218.113 107.774 218.693L106.484 219.098C106.284 218.728 106.004 218.443 105.644 218.243C105.284 218.033 104.884 217.928 104.444 217.928C104.084 217.928 103.744 218.003 103.424 218.153C103.104 218.293 102.829 218.493 102.599 218.753C102.369 219.013 102.184 219.318 102.044 219.668C101.914 220.018 101.849 220.403 101.849 220.823C101.849 221.233 101.919 221.618 102.059 221.978C102.199 222.338 102.384 222.653 102.614 222.923C102.854 223.183 103.129 223.388 103.439 223.538C103.759 223.688 104.099 223.763 104.459 223.763C104.689 223.763 104.914 223.733 105.134 223.673C105.364 223.603 105.569 223.513 105.749 223.403C105.939 223.293 106.104 223.168 106.244 223.028C106.384 222.878 106.484 222.718 106.544 222.548L107.834 222.938C107.714 223.228 107.544 223.493 107.324 223.733C107.114 223.973 106.864 224.178 106.574 224.348C106.284 224.518 105.959 224.653 105.599 224.753C105.249 224.853 104.879 224.903 104.489 224.903C103.899 224.903 103.359 224.793 102.869 224.573C102.379 224.353 101.959 224.058 101.609 223.688C101.259 223.318 100.984 222.888 100.784 222.398C100.594 221.898 100.499 221.373 100.499 220.823ZM113.38 224.363C113.3 224.403 113.195 224.453 113.065 224.513C112.935 224.563 112.785 224.618 112.615 224.678C112.455 224.728 112.275 224.768 112.075 224.798C111.885 224.838 111.685 224.858 111.475 224.858C110.995 224.858 110.58 224.728 110.23 224.468C109.88 224.198 109.705 223.783 109.705 223.223V217.958H108.64V216.923H109.705V214.313H111.025V216.923H112.78V217.958H111.025V222.818C111.045 223.108 111.14 223.318 111.31 223.448C111.48 223.578 111.68 223.643 111.91 223.643C112.17 223.643 112.405 223.603 112.615 223.523C112.835 223.433 112.985 223.363 113.065 223.313L113.38 224.363ZM117.966 224.903C117.376 224.903 116.836 224.798 116.346 224.588C115.856 224.368 115.436 224.073 115.086 223.703C114.736 223.333 114.461 222.903 114.261 222.413C114.071 221.913 113.976 221.388 113.976 220.838C113.976 220.288 114.071 219.768 114.261 219.278C114.461 218.788 114.736 218.358 115.086 217.988C115.446 217.618 115.871 217.328 116.361 217.118C116.851 216.898 117.391 216.788 117.981 216.788C118.571 216.788 119.106 216.898 119.586 217.118C120.076 217.338 120.491 217.633 120.831 218.003C121.171 218.363 121.431 218.788 121.611 219.278C121.801 219.758 121.896 220.258 121.896 220.778C121.896 220.888 121.891 220.988 121.881 221.078C121.881 221.168 121.876 221.238 121.866 221.288H115.371C115.401 221.678 115.491 222.033 115.641 222.353C115.791 222.673 115.986 222.948 116.226 223.178C116.466 223.408 116.736 223.588 117.036 223.718C117.346 223.848 117.671 223.913 118.011 223.913C118.251 223.913 118.486 223.883 118.716 223.823C118.946 223.753 119.161 223.663 119.361 223.553C119.561 223.443 119.736 223.308 119.886 223.148C120.046 222.988 120.166 222.808 120.246 222.608L121.386 222.923C121.256 223.213 121.076 223.478 120.846 223.718C120.626 223.958 120.366 224.168 120.066 224.348C119.776 224.518 119.451 224.653 119.091 224.753C118.731 224.853 118.356 224.903 117.966 224.903ZM120.651 220.313C120.621 219.943 120.526 219.603 120.366 219.293C120.216 218.973 120.021 218.703 119.781 218.483C119.551 218.263 119.281 218.093 118.971 217.973C118.661 217.843 118.331 217.778 117.981 217.778C117.631 217.778 117.301 217.843 116.991 217.973C116.681 218.093 116.406 218.268 116.166 218.498C115.936 218.718 115.746 218.983 115.596 219.293C115.456 219.603 115.371 219.943 115.341 220.313H120.651ZM127.34 224.363C127.26 224.403 127.155 224.453 127.025 224.513C126.895 224.563 126.745 224.618 126.575 224.678C126.415 224.728 126.235 224.768 126.035 224.798C125.845 224.838 125.645 224.858 125.435 224.858C124.955 224.858 124.54 224.728 124.19 224.468C123.84 224.198 123.665 223.783 123.665 223.223V217.958H122.6V216.923H123.665V214.313H124.985V216.923H126.74V217.958H124.985V222.818C125.005 223.108 125.1 223.318 125.27 223.448C125.44 223.578 125.64 223.643 125.87 223.643C126.13 223.643 126.365 223.603 126.575 223.523C126.795 223.433 126.945 223.363 127.025 223.313L127.34 224.363ZM130.978 224.903C130.158 224.903 129.538 224.628 129.118 224.078C128.698 223.528 128.488 222.708 128.488 221.618V216.923H129.808V221.363C129.808 222.963 130.363 223.763 131.473 223.763C132.013 223.763 132.518 223.593 132.988 223.253C133.468 222.903 133.823 222.428 134.053 221.828V216.923H135.373V223.133C135.373 223.443 135.513 223.603 135.793 223.613V224.753C135.643 224.773 135.523 224.783 135.433 224.783C135.353 224.793 135.273 224.798 135.193 224.798C134.933 224.798 134.713 224.723 134.533 224.573C134.363 224.413 134.273 224.218 134.263 223.988L134.233 223.073C133.883 223.663 133.423 224.118 132.853 224.438C132.283 224.748 131.658 224.903 130.978 224.903ZM141.712 218.078C141.052 218.098 140.467 218.268 139.957 218.588C139.457 218.908 139.102 219.353 138.892 219.923V224.753H137.572V216.923H138.802V218.738C139.072 218.198 139.427 217.763 139.867 217.433C140.307 217.093 140.777 216.903 141.277 216.863C141.377 216.863 141.462 216.863 141.532 216.863C141.602 216.863 141.662 216.868 141.712 216.878V218.078ZM148.473 224.903C148.103 224.903 147.758 224.843 147.438 224.723C147.118 224.593 146.838 224.418 146.598 224.198C146.368 223.978 146.183 223.723 146.043 223.433C145.913 223.133 145.848 222.808 145.848 222.458C145.848 222.098 145.928 221.773 146.088 221.483C146.248 221.183 146.473 220.928 146.763 220.718C147.063 220.508 147.413 220.343 147.813 220.223C148.223 220.103 148.668 220.043 149.148 220.043C149.528 220.043 149.913 220.078 150.303 220.148C150.693 220.218 151.038 220.313 151.338 220.433V219.803C151.338 219.163 151.158 218.663 150.798 218.303C150.438 217.933 149.928 217.748 149.268 217.748C148.478 217.748 147.648 218.053 146.778 218.663L146.343 217.808C147.353 217.128 148.368 216.788 149.388 216.788C150.418 216.788 151.218 217.063 151.788 217.613C152.368 218.163 152.658 218.938 152.658 219.938V223.133C152.658 223.443 152.798 223.603 153.078 223.613V224.753C152.938 224.773 152.823 224.788 152.733 224.798C152.643 224.808 152.548 224.813 152.448 224.813C152.188 224.813 151.978 224.738 151.818 224.588C151.668 224.428 151.578 224.238 151.548 224.018L151.518 223.463C151.168 223.933 150.723 224.293 150.183 224.543C149.653 224.783 149.083 224.903 148.473 224.903ZM148.818 223.913C149.288 223.913 149.723 223.828 150.123 223.658C150.533 223.478 150.843 223.243 151.053 222.953C151.243 222.763 151.338 222.568 151.338 222.368V221.213C150.698 220.963 150.033 220.838 149.343 220.838C148.683 220.838 148.143 220.978 147.723 221.258C147.313 221.538 147.108 221.903 147.108 222.353C147.108 222.573 147.148 222.778 147.228 222.968C147.318 223.158 147.438 223.323 147.588 223.463C147.748 223.603 147.933 223.713 148.143 223.793C148.353 223.873 148.578 223.913 148.818 223.913ZM157.994 224.903C157.454 224.903 156.954 224.793 156.494 224.573C156.034 224.353 155.639 224.058 155.309 223.688C154.979 223.318 154.719 222.888 154.529 222.398C154.349 221.908 154.259 221.393 154.259 220.853C154.259 220.303 154.344 219.783 154.514 219.293C154.694 218.793 154.939 218.358 155.249 217.988C155.569 217.618 155.944 217.328 156.374 217.118C156.814 216.898 157.294 216.788 157.814 216.788C158.444 216.788 159.004 216.953 159.494 217.283C159.994 217.613 160.389 218.013 160.679 218.483V213.803H161.999V223.133C161.999 223.443 162.139 223.603 162.419 223.613V224.753C162.279 224.773 162.164 224.788 162.074 224.798C161.994 224.808 161.914 224.813 161.834 224.813C161.574 224.813 161.344 224.728 161.144 224.558C160.954 224.378 160.859 224.173 160.859 223.943V223.283C160.549 223.793 160.134 224.193 159.614 224.483C159.104 224.763 158.564 224.903 157.994 224.903ZM158.309 223.763C158.549 223.763 158.794 223.718 159.044 223.628C159.304 223.538 159.544 223.413 159.764 223.253C159.994 223.093 160.189 222.908 160.349 222.698C160.519 222.478 160.629 222.248 160.679 222.008V219.758C160.589 219.508 160.454 219.273 160.274 219.053C160.094 218.823 159.889 218.628 159.659 218.468C159.439 218.298 159.199 218.168 158.939 218.078C158.689 217.978 158.439 217.928 158.189 217.928C157.799 217.928 157.444 218.013 157.124 218.183C156.814 218.343 156.544 218.563 156.314 218.843C156.094 219.113 155.924 219.428 155.804 219.788C155.684 220.138 155.624 220.498 155.624 220.868C155.624 221.258 155.694 221.633 155.834 221.993C155.974 222.343 156.164 222.648 156.404 222.908C156.644 223.168 156.924 223.378 157.244 223.538C157.574 223.688 157.929 223.763 158.309 223.763ZM164.203 224.753V216.923H165.523V224.753H164.203ZM164.203 215.453V213.803H165.523V215.453H164.203ZM171.875 224.903C171.225 224.903 170.65 224.743 170.15 224.423C169.66 224.103 169.27 223.698 168.98 223.208V227.948H167.66V216.923H168.83V218.393C169.14 217.913 169.54 217.528 170.03 217.238C170.53 216.938 171.08 216.788 171.68 216.788C172.22 216.788 172.715 216.898 173.165 217.118C173.615 217.338 174.005 217.638 174.335 218.018C174.665 218.388 174.92 218.818 175.1 219.308C175.29 219.798 175.385 220.308 175.385 220.838C175.385 221.398 175.3 221.928 175.13 222.428C174.96 222.918 174.72 223.348 174.41 223.718C174.1 224.078 173.73 224.368 173.3 224.588C172.87 224.798 172.395 224.903 171.875 224.903ZM171.47 223.763C171.86 223.763 172.21 223.683 172.52 223.523C172.84 223.353 173.11 223.133 173.33 222.863C173.56 222.583 173.735 222.268 173.855 221.918C173.975 221.568 174.035 221.208 174.035 220.838C174.035 220.448 173.965 220.078 173.825 219.728C173.685 219.368 173.495 219.058 173.255 218.798C173.015 218.528 172.73 218.318 172.4 218.168C172.08 218.008 171.73 217.928 171.35 217.928C171.11 217.928 170.86 217.978 170.6 218.078C170.35 218.168 170.11 218.293 169.88 218.453C169.66 218.603 169.465 218.788 169.295 219.008C169.135 219.218 169.03 219.443 168.98 219.683V221.918C169.09 222.178 169.23 222.423 169.4 222.653C169.57 222.873 169.765 223.068 169.985 223.238C170.205 223.398 170.44 223.528 170.69 223.628C170.94 223.718 171.2 223.763 171.47 223.763ZM177.005 224.753V216.923H178.325V224.753H177.005ZM177.005 215.453V213.803H178.325V215.453H177.005ZM183.207 224.903C182.577 224.903 181.957 224.808 181.347 224.618C180.737 224.418 180.212 224.133 179.772 223.763L180.342 222.878C180.802 223.228 181.262 223.493 181.722 223.673C182.182 223.843 182.667 223.928 183.177 223.928C183.747 223.928 184.197 223.818 184.527 223.598C184.867 223.368 185.037 223.048 185.037 222.638C185.037 222.448 184.992 222.288 184.902 222.158C184.812 222.018 184.677 221.898 184.497 221.798C184.317 221.698 184.087 221.608 183.807 221.528C183.527 221.448 183.202 221.363 182.832 221.273C182.362 221.153 181.957 221.038 181.617 220.928C181.277 220.818 180.997 220.688 180.777 220.538C180.557 220.388 180.397 220.208 180.297 219.998C180.197 219.788 180.147 219.528 180.147 219.218C180.147 218.828 180.222 218.483 180.372 218.183C180.532 217.873 180.747 217.618 181.017 217.418C181.287 217.208 181.602 217.053 181.962 216.953C182.332 216.843 182.727 216.788 183.147 216.788C183.737 216.788 184.287 216.883 184.797 217.073C185.307 217.263 185.737 217.513 186.087 217.823L185.487 218.618C185.157 218.328 184.787 218.113 184.377 217.973C183.967 217.823 183.547 217.748 183.117 217.748C182.637 217.748 182.227 217.853 181.887 218.063C181.557 218.263 181.392 218.588 181.392 219.038C181.392 219.218 181.422 219.368 181.482 219.488C181.552 219.608 181.662 219.713 181.812 219.803C181.962 219.893 182.152 219.973 182.382 220.043C182.622 220.113 182.907 220.188 183.237 220.268C183.757 220.388 184.207 220.513 184.587 220.643C184.977 220.763 185.297 220.908 185.547 221.078C185.807 221.248 185.997 221.448 186.117 221.678C186.247 221.908 186.312 222.188 186.312 222.518C186.312 223.248 186.032 223.828 185.472 224.258C184.912 224.688 184.157 224.903 183.207 224.903ZM187.875 224.753V216.923H189.195V224.753H187.875ZM187.875 215.453V213.803H189.195V215.453H187.875ZM190.807 220.823C190.807 220.273 190.902 219.753 191.092 219.263C191.282 218.773 191.552 218.348 191.902 217.988C192.252 217.618 192.667 217.328 193.147 217.118C193.637 216.898 194.182 216.788 194.782 216.788C195.562 216.788 196.232 216.963 196.792 217.313C197.362 217.653 197.792 218.113 198.082 218.693L196.792 219.098C196.592 218.728 196.312 218.443 195.952 218.243C195.592 218.033 195.192 217.928 194.752 217.928C194.392 217.928 194.052 218.003 193.732 218.153C193.412 218.293 193.137 218.493 192.907 218.753C192.677 219.013 192.492 219.318 192.352 219.668C192.222 220.018 192.157 220.403 192.157 220.823C192.157 221.233 192.227 221.618 192.367 221.978C192.507 222.338 192.692 222.653 192.922 222.923C193.162 223.183 193.437 223.388 193.747 223.538C194.067 223.688 194.407 223.763 194.767 223.763C194.997 223.763 195.222 223.733 195.442 223.673C195.672 223.603 195.877 223.513 196.057 223.403C196.247 223.293 196.412 223.168 196.552 223.028C196.692 222.878 196.792 222.718 196.852 222.548L198.142 222.938C198.022 223.228 197.852 223.493 197.632 223.733C197.422 223.973 197.172 224.178 196.882 224.348C196.592 224.518 196.267 224.653 195.907 224.753C195.557 224.853 195.187 224.903 194.797 224.903C194.207 224.903 193.667 224.793 193.177 224.573C192.687 224.353 192.267 224.058 191.917 223.688C191.567 223.318 191.292 222.888 191.092 222.398C190.902 221.898 190.807 221.373 190.807 220.823ZM199.637 224.753V216.923H200.957V224.753H199.637ZM199.637 215.453V213.803H200.957V215.453H199.637ZM209.889 224.753H208.569V220.373C208.569 219.533 208.439 218.923 208.179 218.543C207.929 218.163 207.544 217.973 207.024 217.973C206.754 217.973 206.484 218.028 206.214 218.138C205.944 218.238 205.689 218.378 205.449 218.558C205.209 218.738 204.999 218.953 204.819 219.203C204.639 219.453 204.504 219.728 204.414 220.028V224.753H203.094V216.923H204.294V218.603C204.604 218.053 205.049 217.613 205.629 217.283C206.219 216.953 206.859 216.788 207.549 216.788C207.999 216.788 208.374 216.873 208.674 217.043C208.974 217.203 209.214 217.433 209.394 217.733C209.574 218.023 209.699 218.368 209.769 218.768C209.849 219.168 209.889 219.603 209.889 220.073V224.753ZM215.062 224.843C214.532 224.843 214.042 224.733 213.592 224.513C213.152 224.293 212.772 223.998 212.452 223.628C212.132 223.258 211.882 222.833 211.702 222.353C211.532 221.873 211.447 221.373 211.447 220.853C211.447 220.303 211.532 219.783 211.702 219.293C211.882 218.793 212.132 218.358 212.452 217.988C212.772 217.618 213.152 217.328 213.592 217.118C214.042 216.898 214.537 216.788 215.077 216.788C215.737 216.788 216.307 216.948 216.787 217.268C217.267 217.588 217.672 217.993 218.002 218.483V216.923H219.172V224.663C219.172 225.223 219.067 225.713 218.857 226.133C218.647 226.563 218.362 226.923 218.002 227.213C217.642 227.503 217.217 227.723 216.727 227.873C216.247 228.023 215.732 228.098 215.182 228.098C214.292 228.098 213.567 227.943 213.007 227.633C212.457 227.333 211.997 226.913 211.627 226.373L212.392 225.698C212.702 226.158 213.102 226.503 213.592 226.733C214.082 226.963 214.612 227.078 215.182 227.078C215.542 227.078 215.882 227.028 216.202 226.928C216.532 226.828 216.817 226.678 217.057 226.478C217.297 226.278 217.487 226.028 217.627 225.728C217.777 225.428 217.852 225.073 217.852 224.663V223.283C217.702 223.523 217.522 223.743 217.312 223.943C217.112 224.133 216.892 224.298 216.652 224.438C216.412 224.568 216.157 224.668 215.887 224.738C215.617 224.808 215.342 224.843 215.062 224.843ZM215.467 223.763C215.747 223.763 216.017 223.713 216.277 223.613C216.537 223.513 216.777 223.383 216.997 223.223C217.217 223.053 217.402 222.863 217.552 222.653C217.702 222.443 217.802 222.228 217.852 222.008V219.758C217.742 219.488 217.597 219.243 217.417 219.023C217.247 218.803 217.052 218.613 216.832 218.453C216.612 218.283 216.372 218.153 216.112 218.063C215.862 217.973 215.607 217.928 215.347 217.928C214.947 217.928 214.587 218.013 214.267 218.183C213.957 218.353 213.692 218.578 213.472 218.858C213.252 219.138 213.082 219.458 212.962 219.818C212.842 220.168 212.782 220.523 212.782 220.883C212.782 221.273 212.852 221.643 212.992 221.993C213.132 222.343 213.322 222.648 213.562 222.908C213.802 223.168 214.082 223.378 214.402 223.538C214.732 223.688 215.087 223.763 215.467 223.763ZM228.561 224.903C227.971 224.903 227.431 224.798 226.941 224.588C226.451 224.368 226.031 224.073 225.681 223.703C225.331 223.333 225.056 222.903 224.856 222.413C224.666 221.913 224.571 221.388 224.571 220.838C224.571 220.288 224.666 219.768 224.856 219.278C225.056 218.788 225.331 218.358 225.681 217.988C226.041 217.618 226.466 217.328 226.956 217.118C227.446 216.898 227.986 216.788 228.576 216.788C229.166 216.788 229.701 216.898 230.181 217.118C230.671 217.338 231.086 217.633 231.426 218.003C231.766 218.363 232.026 218.788 232.206 219.278C232.396 219.758 232.491 220.258 232.491 220.778C232.491 220.888 232.486 220.988 232.476 221.078C232.476 221.168 232.471 221.238 232.461 221.288H225.966C225.996 221.678 226.086 222.033 226.236 222.353C226.386 222.673 226.581 222.948 226.821 223.178C227.061 223.408 227.331 223.588 227.631 223.718C227.941 223.848 228.266 223.913 228.606 223.913C228.846 223.913 229.081 223.883 229.311 223.823C229.541 223.753 229.756 223.663 229.956 223.553C230.156 223.443 230.331 223.308 230.481 223.148C230.641 222.988 230.761 222.808 230.841 222.608L231.981 222.923C231.851 223.213 231.671 223.478 231.441 223.718C231.221 223.958 230.961 224.168 230.661 224.348C230.371 224.518 230.046 224.653 229.686 224.753C229.326 224.853 228.951 224.903 228.561 224.903ZM231.246 220.313C231.216 219.943 231.121 219.603 230.961 219.293C230.811 218.973 230.616 218.703 230.376 218.483C230.146 218.263 229.876 218.093 229.566 217.973C229.256 217.843 228.926 217.778 228.576 217.778C228.226 217.778 227.896 217.843 227.586 217.973C227.276 218.093 227.001 218.268 226.761 218.498C226.531 218.718 226.341 218.983 226.191 219.293C226.051 219.603 225.966 219.943 225.936 220.313H231.246ZM233.989 213.803H235.309V222.728C235.309 223.018 235.384 223.248 235.534 223.418C235.694 223.578 235.914 223.658 236.194 223.658C236.304 223.658 236.434 223.643 236.584 223.613C236.734 223.573 236.874 223.528 237.004 223.478L237.214 224.543C236.994 224.633 236.734 224.708 236.434 224.768C236.134 224.828 235.869 224.858 235.639 224.858C235.129 224.858 234.724 224.713 234.424 224.423C234.134 224.133 233.989 223.728 233.989 223.208V213.803ZM238.251 224.753V216.923H239.571V224.753H238.251ZM238.251 215.453V213.803H239.571V215.453H238.251ZM245.758 224.363C245.678 224.403 245.573 224.453 245.443 224.513C245.313 224.563 245.163 224.618 244.993 224.678C244.833 224.728 244.653 224.768 244.453 224.798C244.263 224.838 244.063 224.858 243.853 224.858C243.373 224.858 242.958 224.728 242.608 224.468C242.258 224.198 242.083 223.783 242.083 223.223V217.958H241.018V216.923H242.083V214.313H243.403V216.923H245.158V217.958H243.403V222.818C243.423 223.108 243.518 223.318 243.688 223.448C243.858 223.578 244.058 223.643 244.288 223.643C244.548 223.643 244.783 223.603 244.993 223.523C245.213 223.433 245.363 223.363 245.443 223.313L245.758 224.363ZM247.026 225.968L247.326 224.633H246.876V223.073H248.121V224.633L247.671 225.968H247.026ZM61.435 249.903C60.805 249.903 60.185 249.808 59.575 249.618C58.965 249.418 58.44 249.133 58 248.763L58.57 247.878C59.03 248.228 59.49 248.493 59.95 248.673C60.41 248.843 60.895 248.928 61.405 248.928C61.975 248.928 62.425 248.818 62.755 248.598C63.095 248.368 63.265 248.048 63.265 247.638C63.265 247.448 63.22 247.288 63.13 247.158C63.04 247.018 62.905 246.898 62.725 246.798C62.545 246.698 62.315 246.608 62.035 246.528C61.755 246.448 61.43 246.363 61.06 246.273C60.59 246.153 60.185 246.038 59.845 245.928C59.505 245.818 59.225 245.688 59.005 245.538C58.785 245.388 58.625 245.208 58.525 244.998C58.425 244.788 58.375 244.528 58.375 244.218C58.375 243.828 58.45 243.483 58.6 243.183C58.76 242.873 58.975 242.618 59.245 242.418C59.515 242.208 59.83 242.053 60.19 241.953C60.56 241.843 60.955 241.788 61.375 241.788C61.965 241.788 62.515 241.883 63.025 242.073C63.535 242.263 63.965 242.513 64.315 242.823L63.715 243.618C63.385 243.328 63.015 243.113 62.605 242.973C62.195 242.823 61.775 242.748 61.345 242.748C60.865 242.748 60.455 242.853 60.115 243.063C59.785 243.263 59.62 243.588 59.62 244.038C59.62 244.218 59.65 244.368 59.71 244.488C59.78 244.608 59.89 244.713 60.04 244.803C60.19 244.893 60.38 244.973 60.61 245.043C60.85 245.113 61.135 245.188 61.465 245.268C61.985 245.388 62.435 245.513 62.815 245.643C63.205 245.763 63.525 245.908 63.775 246.078C64.035 246.248 64.225 246.448 64.345 246.678C64.475 246.908 64.54 247.188 64.54 247.518C64.54 248.248 64.26 248.828 63.7 249.258C63.14 249.688 62.385 249.903 61.435 249.903ZM69.5671 249.903C68.9771 249.903 68.4371 249.798 67.9471 249.588C67.4571 249.368 67.0371 249.073 66.6871 248.703C66.3371 248.333 66.0621 247.903 65.8621 247.413C65.6721 246.913 65.5771 246.388 65.5771 245.838C65.5771 245.288 65.6721 244.768 65.8621 244.278C66.0621 243.788 66.3371 243.358 66.6871 242.988C67.0471 242.618 67.4721 242.328 67.9621 242.118C68.4521 241.898 68.9921 241.788 69.5821 241.788C70.1721 241.788 70.7071 241.898 71.1871 242.118C71.6771 242.338 72.0921 242.633 72.4321 243.003C72.7721 243.363 73.0321 243.788 73.2121 244.278C73.4021 244.758 73.4971 245.258 73.4971 245.778C73.4971 245.888 73.4921 245.988 73.4821 246.078C73.4821 246.168 73.4771 246.238 73.4671 246.288H66.9721C67.0021 246.678 67.0921 247.033 67.2421 247.353C67.3921 247.673 67.5871 247.948 67.8271 248.178C68.0671 248.408 68.3371 248.588 68.6371 248.718C68.9471 248.848 69.2721 248.913 69.6121 248.913C69.8521 248.913 70.0871 248.883 70.3171 248.823C70.5471 248.753 70.7621 248.663 70.9621 248.553C71.1621 248.443 71.3371 248.308 71.4871 248.148C71.6471 247.988 71.7671 247.808 71.8471 247.608L72.9871 247.923C72.8571 248.213 72.6771 248.478 72.4471 248.718C72.2271 248.958 71.9671 249.168 71.6671 249.348C71.3771 249.518 71.0521 249.653 70.6921 249.753C70.3321 249.853 69.9571 249.903 69.5671 249.903ZM72.2521 245.313C72.2221 244.943 72.1271 244.603 71.9671 244.293C71.8171 243.973 71.6221 243.703 71.3821 243.483C71.1521 243.263 70.8821 243.093 70.5721 242.973C70.2621 242.843 69.9321 242.778 69.5821 242.778C69.2321 242.778 68.9021 242.843 68.5921 242.973C68.2821 243.093 68.0071 243.268 67.7671 243.498C67.5371 243.718 67.3471 243.983 67.1971 244.293C67.0571 244.603 66.9721 244.943 66.9421 245.313H72.2521ZM78.1894 249.903C77.6494 249.903 77.1494 249.793 76.6894 249.573C76.2294 249.353 75.8344 249.058 75.5044 248.688C75.1744 248.318 74.9144 247.888 74.7244 247.398C74.5444 246.908 74.4544 246.393 74.4544 245.853C74.4544 245.303 74.5394 244.783 74.7094 244.293C74.8894 243.793 75.1344 243.358 75.4444 242.988C75.7644 242.618 76.1394 242.328 76.5694 242.118C77.0094 241.898 77.4894 241.788 78.0094 241.788C78.6394 241.788 79.1994 241.953 79.6894 242.283C80.1894 242.613 80.5844 243.013 80.8744 243.483V238.803H82.1944V248.133C82.1944 248.443 82.3344 248.603 82.6144 248.613V249.753C82.4744 249.773 82.3594 249.788 82.2694 249.798C82.1894 249.808 82.1094 249.813 82.0294 249.813C81.7694 249.813 81.5394 249.728 81.3394 249.558C81.1494 249.378 81.0544 249.173 81.0544 248.943V248.283C80.7444 248.793 80.3294 249.193 79.8094 249.483C79.2994 249.763 78.7594 249.903 78.1894 249.903ZM78.5044 248.763C78.7444 248.763 78.9894 248.718 79.2394 248.628C79.4994 248.538 79.7394 248.413 79.9594 248.253C80.1894 248.093 80.3844 247.908 80.5444 247.698C80.7144 247.478 80.8244 247.248 80.8744 247.008V244.758C80.7844 244.508 80.6494 244.273 80.4694 244.053C80.2894 243.823 80.0844 243.628 79.8544 243.468C79.6344 243.298 79.3944 243.168 79.1344 243.078C78.8844 242.978 78.6344 242.928 78.3844 242.928C77.9944 242.928 77.6394 243.013 77.3194 243.183C77.0094 243.343 76.7394 243.563 76.5094 243.843C76.2894 244.113 76.1194 244.428 75.9994 244.788C75.8794 245.138 75.8194 245.498 75.8194 245.868C75.8194 246.258 75.8894 246.633 76.0294 246.993C76.1694 247.343 76.3594 247.648 76.5994 247.908C76.8394 248.168 77.1194 248.378 77.4394 248.538C77.7694 248.688 78.1244 248.763 78.5044 248.763ZM91.417 249.903C90.877 249.903 90.377 249.793 89.917 249.573C89.457 249.353 89.062 249.058 88.732 248.688C88.402 248.318 88.142 247.888 87.952 247.398C87.772 246.908 87.682 246.393 87.682 245.853C87.682 245.303 87.767 244.783 87.937 244.293C88.117 243.793 88.362 243.358 88.672 242.988C88.992 242.618 89.367 242.328 89.797 242.118C90.237 241.898 90.717 241.788 91.237 241.788C91.867 241.788 92.427 241.953 92.917 242.283C93.417 242.613 93.812 243.013 94.102 243.483V238.803H95.422V248.133C95.422 248.443 95.562 248.603 95.842 248.613V249.753C95.702 249.773 95.587 249.788 95.497 249.798C95.417 249.808 95.337 249.813 95.257 249.813C94.997 249.813 94.767 249.728 94.567 249.558C94.377 249.378 94.282 249.173 94.282 248.943V248.283C93.972 248.793 93.557 249.193 93.037 249.483C92.527 249.763 91.987 249.903 91.417 249.903ZM91.732 248.763C91.972 248.763 92.217 248.718 92.467 248.628C92.727 248.538 92.967 248.413 93.187 248.253C93.417 248.093 93.612 247.908 93.772 247.698C93.942 247.478 94.052 247.248 94.102 247.008V244.758C94.012 244.508 93.877 244.273 93.697 244.053C93.517 243.823 93.312 243.628 93.082 243.468C92.862 243.298 92.622 243.168 92.362 243.078C92.112 242.978 91.862 242.928 91.612 242.928C91.222 242.928 90.867 243.013 90.547 243.183C90.237 243.343 89.967 243.563 89.737 243.843C89.517 244.113 89.347 244.428 89.227 244.788C89.107 245.138 89.047 245.498 89.047 245.868C89.047 246.258 89.117 246.633 89.257 246.993C89.397 247.343 89.587 247.648 89.827 247.908C90.067 248.168 90.347 248.378 90.667 248.538C90.997 248.688 91.352 248.763 91.732 248.763ZM101.046 249.903C100.456 249.903 99.9155 249.793 99.4255 249.573C98.9455 249.353 98.5305 249.058 98.1805 248.688C97.8405 248.318 97.5755 247.888 97.3855 247.398C97.1955 246.908 97.1005 246.393 97.1005 245.853C97.1005 245.303 97.1955 244.783 97.3855 244.293C97.5855 243.803 97.8555 243.373 98.1955 243.003C98.5455 242.633 98.9605 242.338 99.4405 242.118C99.9305 241.898 100.466 241.788 101.046 241.788C101.626 241.788 102.161 241.898 102.651 242.118C103.141 242.338 103.556 242.633 103.896 243.003C104.246 243.373 104.516 243.803 104.706 244.293C104.906 244.783 105.006 245.303 105.006 245.853C105.006 246.393 104.911 246.908 104.721 247.398C104.531 247.888 104.261 248.318 103.911 248.688C103.561 249.058 103.141 249.353 102.651 249.573C102.171 249.793 101.636 249.903 101.046 249.903ZM98.4505 245.868C98.4505 246.278 98.5155 246.658 98.6455 247.008C98.7855 247.358 98.9705 247.663 99.2005 247.923C99.4405 248.183 99.7155 248.388 100.026 248.538C100.346 248.688 100.686 248.763 101.046 248.763C101.406 248.763 101.741 248.688 102.051 248.538C102.371 248.388 102.651 248.183 102.891 247.923C103.131 247.653 103.316 247.343 103.446 246.993C103.586 246.633 103.656 246.248 103.656 245.838C103.656 245.438 103.586 245.063 103.446 244.713C103.316 244.353 103.131 244.043 102.891 243.783C102.651 243.513 102.371 243.303 102.051 243.153C101.741 243.003 101.406 242.928 101.046 242.928C100.686 242.928 100.346 243.008 100.026 243.168C99.7155 243.318 99.4405 243.528 99.2005 243.798C98.9705 244.058 98.7855 244.368 98.6455 244.728C98.5155 245.078 98.4505 245.458 98.4505 245.868ZM113.864 249.903C113.274 249.903 112.734 249.798 112.244 249.588C111.754 249.368 111.334 249.073 110.984 248.703C110.634 248.333 110.359 247.903 110.159 247.413C109.969 246.913 109.874 246.388 109.874 245.838C109.874 245.288 109.969 244.768 110.159 244.278C110.359 243.788 110.634 243.358 110.984 242.988C111.344 242.618 111.769 242.328 112.259 242.118C112.749 241.898 113.289 241.788 113.879 241.788C114.469 241.788 115.004 241.898 115.484 242.118C115.974 242.338 116.389 242.633 116.729 243.003C117.069 243.363 117.329 243.788 117.509 244.278C117.699 244.758 117.794 245.258 117.794 245.778C117.794 245.888 117.789 245.988 117.779 246.078C117.779 246.168 117.774 246.238 117.764 246.288H111.269C111.299 246.678 111.389 247.033 111.539 247.353C111.689 247.673 111.884 247.948 112.124 248.178C112.364 248.408 112.634 248.588 112.934 248.718C113.244 248.848 113.569 248.913 113.909 248.913C114.149 248.913 114.384 248.883 114.614 248.823C114.844 248.753 115.059 248.663 115.259 248.553C115.459 248.443 115.634 248.308 115.784 248.148C115.944 247.988 116.064 247.808 116.144 247.608L117.284 247.923C117.154 248.213 116.974 248.478 116.744 248.718C116.524 248.958 116.264 249.168 115.964 249.348C115.674 249.518 115.349 249.653 114.989 249.753C114.629 249.853 114.254 249.903 113.864 249.903ZM116.549 245.313C116.519 244.943 116.424 244.603 116.264 244.293C116.114 243.973 115.919 243.703 115.679 243.483C115.449 243.263 115.179 243.093 114.869 242.973C114.559 242.843 114.229 242.778 113.879 242.778C113.529 242.778 113.199 242.843 112.889 242.973C112.579 243.093 112.304 243.268 112.064 243.498C111.834 243.718 111.644 243.983 111.494 244.293C111.354 244.603 111.269 244.943 111.239 245.313H116.549ZM119.261 249.753V241.923H120.581V249.753H119.261ZM119.261 240.453V238.803H120.581V240.453H119.261ZM125.133 249.903C124.313 249.903 123.693 249.628 123.273 249.078C122.853 248.528 122.643 247.708 122.643 246.618V241.923H123.963V246.363C123.963 247.963 124.518 248.763 125.628 248.763C126.168 248.763 126.673 248.593 127.143 248.253C127.623 247.903 127.978 247.428 128.208 246.828V241.923H129.528V248.133C129.528 248.443 129.668 248.603 129.948 248.613V249.753C129.798 249.773 129.678 249.783 129.588 249.783C129.508 249.793 129.428 249.798 129.348 249.798C129.088 249.798 128.868 249.723 128.688 249.573C128.518 249.413 128.428 249.218 128.418 248.988L128.388 248.073C128.038 248.663 127.578 249.118 127.008 249.438C126.438 249.748 125.813 249.903 125.133 249.903ZM134.472 249.903C133.842 249.903 133.222 249.808 132.612 249.618C132.002 249.418 131.477 249.133 131.037 248.763L131.607 247.878C132.067 248.228 132.527 248.493 132.987 248.673C133.447 248.843 133.932 248.928 134.442 248.928C135.012 248.928 135.462 248.818 135.792 248.598C136.132 248.368 136.302 248.048 136.302 247.638C136.302 247.448 136.257 247.288 136.167 247.158C136.077 247.018 135.942 246.898 135.762 246.798C135.582 246.698 135.352 246.608 135.072 246.528C134.792 246.448 134.467 246.363 134.097 246.273C133.627 246.153 133.222 246.038 132.882 245.928C132.542 245.818 132.262 245.688 132.042 245.538C131.822 245.388 131.662 245.208 131.562 244.998C131.462 244.788 131.412 244.528 131.412 244.218C131.412 243.828 131.487 243.483 131.637 243.183C131.797 242.873 132.012 242.618 132.282 242.418C132.552 242.208 132.867 242.053 133.227 241.953C133.597 241.843 133.992 241.788 134.412 241.788C135.002 241.788 135.552 241.883 136.062 242.073C136.572 242.263 137.002 242.513 137.352 242.823L136.752 243.618C136.422 243.328 136.052 243.113 135.642 242.973C135.232 242.823 134.812 242.748 134.382 242.748C133.902 242.748 133.492 242.853 133.152 243.063C132.822 243.263 132.657 243.588 132.657 244.038C132.657 244.218 132.687 244.368 132.747 244.488C132.817 244.608 132.927 244.713 133.077 244.803C133.227 244.893 133.417 244.973 133.647 245.043C133.887 245.113 134.172 245.188 134.502 245.268C135.022 245.388 135.472 245.513 135.852 245.643C136.242 245.763 136.562 245.908 136.812 246.078C137.072 246.248 137.262 246.448 137.382 246.678C137.512 246.908 137.577 247.188 137.577 247.518C137.577 248.248 137.297 248.828 136.737 249.258C136.177 249.688 135.422 249.903 134.472 249.903ZM150.944 249.753H149.624V245.373C149.624 244.553 149.489 243.948 149.219 243.558C148.959 243.168 148.569 242.973 148.049 242.973C147.509 242.973 147.024 243.168 146.594 243.558C146.174 243.938 145.874 244.433 145.694 245.043V249.753H144.374V245.373C144.374 244.533 144.244 243.923 143.984 243.543C143.724 243.163 143.334 242.973 142.814 242.973C142.284 242.973 141.804 243.163 141.374 243.543C140.944 243.913 140.639 244.408 140.459 245.028V249.753H139.139V241.923H140.339V243.603C140.659 243.023 141.074 242.578 141.584 242.268C142.094 241.948 142.669 241.788 143.309 241.788C143.969 241.788 144.489 241.968 144.869 242.328C145.259 242.678 145.499 243.133 145.589 243.693C146.289 242.423 147.284 241.788 148.574 241.788C149.024 241.788 149.399 241.873 149.699 242.043C150.009 242.203 150.254 242.433 150.434 242.733C150.614 243.023 150.744 243.368 150.824 243.768C150.904 244.168 150.944 244.603 150.944 245.073V249.753ZM156.417 249.903C155.827 249.903 155.287 249.793 154.797 249.573C154.317 249.353 153.902 249.058 153.552 248.688C153.212 248.318 152.947 247.888 152.757 247.398C152.567 246.908 152.472 246.393 152.472 245.853C152.472 245.303 152.567 244.783 152.757 244.293C152.957 243.803 153.227 243.373 153.567 243.003C153.917 242.633 154.332 242.338 154.812 242.118C155.302 241.898 155.837 241.788 156.417 241.788C156.997 241.788 157.532 241.898 158.022 242.118C158.512 242.338 158.927 242.633 159.267 243.003C159.617 243.373 159.887 243.803 160.077 244.293C160.277 244.783 160.377 245.303 160.377 245.853C160.377 246.393 160.282 246.908 160.092 247.398C159.902 247.888 159.632 248.318 159.282 248.688C158.932 249.058 158.512 249.353 158.022 249.573C157.542 249.793 157.007 249.903 156.417 249.903ZM153.822 245.868C153.822 246.278 153.887 246.658 154.017 247.008C154.157 247.358 154.342 247.663 154.572 247.923C154.812 248.183 155.087 248.388 155.397 248.538C155.717 248.688 156.057 248.763 156.417 248.763C156.777 248.763 157.112 248.688 157.422 248.538C157.742 248.388 158.022 248.183 158.262 247.923C158.502 247.653 158.687 247.343 158.817 246.993C158.957 246.633 159.027 246.248 159.027 245.838C159.027 245.438 158.957 245.063 158.817 244.713C158.687 244.353 158.502 244.043 158.262 243.783C158.022 243.513 157.742 243.303 157.422 243.153C157.112 243.003 156.777 242.928 156.417 242.928C156.057 242.928 155.717 243.008 155.397 243.168C155.087 243.318 154.812 243.528 154.572 243.798C154.342 244.058 154.157 244.368 154.017 244.728C153.887 245.078 153.822 245.458 153.822 245.868ZM165.201 249.903C164.661 249.903 164.161 249.793 163.701 249.573C163.241 249.353 162.846 249.058 162.516 248.688C162.186 248.318 161.926 247.888 161.736 247.398C161.556 246.908 161.466 246.393 161.466 245.853C161.466 245.303 161.551 244.783 161.721 244.293C161.901 243.793 162.146 243.358 162.456 242.988C162.776 242.618 163.151 242.328 163.581 242.118C164.021 241.898 164.501 241.788 165.021 241.788C165.651 241.788 166.211 241.953 166.701 242.283C167.201 242.613 167.596 243.013 167.886 243.483V238.803H169.206V248.133C169.206 248.443 169.346 248.603 169.626 248.613V249.753C169.486 249.773 169.371 249.788 169.281 249.798C169.201 249.808 169.121 249.813 169.041 249.813C168.781 249.813 168.551 249.728 168.351 249.558C168.161 249.378 168.066 249.173 168.066 248.943V248.283C167.756 248.793 167.341 249.193 166.821 249.483C166.311 249.763 165.771 249.903 165.201 249.903ZM165.516 248.763C165.756 248.763 166.001 248.718 166.251 248.628C166.511 248.538 166.751 248.413 166.971 248.253C167.201 248.093 167.396 247.908 167.556 247.698C167.726 247.478 167.836 247.248 167.886 247.008V244.758C167.796 244.508 167.661 244.273 167.481 244.053C167.301 243.823 167.096 243.628 166.866 243.468C166.646 243.298 166.406 243.168 166.146 243.078C165.896 242.978 165.646 242.928 165.396 242.928C165.006 242.928 164.651 243.013 164.331 243.183C164.021 243.343 163.751 243.563 163.521 243.843C163.301 244.113 163.131 244.428 163.011 244.788C162.891 245.138 162.831 245.498 162.831 245.868C162.831 246.258 162.901 246.633 163.041 246.993C163.181 247.343 163.371 247.648 163.611 247.908C163.851 248.168 164.131 248.378 164.451 248.538C164.781 248.688 165.136 248.763 165.516 248.763ZM179.254 249.363C179.174 249.403 179.069 249.453 178.939 249.513C178.809 249.563 178.659 249.618 178.489 249.678C178.329 249.728 178.149 249.768 177.949 249.798C177.759 249.838 177.559 249.858 177.349 249.858C176.869 249.858 176.454 249.728 176.104 249.468C175.754 249.198 175.579 248.783 175.579 248.223V242.958H174.514V241.923H175.579V239.313H176.899V241.923H178.654V242.958H176.899V247.818C176.919 248.108 177.014 248.318 177.184 248.448C177.354 248.578 177.554 248.643 177.784 248.643C178.044 248.643 178.279 248.603 178.489 248.523C178.709 248.433 178.859 248.363 178.939 248.313L179.254 249.363ZM183.84 249.903C183.25 249.903 182.71 249.798 182.22 249.588C181.73 249.368 181.31 249.073 180.96 248.703C180.61 248.333 180.335 247.903 180.135 247.413C179.945 246.913 179.85 246.388 179.85 245.838C179.85 245.288 179.945 244.768 180.135 244.278C180.335 243.788 180.61 243.358 180.96 242.988C181.32 242.618 181.745 242.328 182.235 242.118C182.725 241.898 183.265 241.788 183.855 241.788C184.445 241.788 184.98 241.898 185.46 242.118C185.95 242.338 186.365 242.633 186.705 243.003C187.045 243.363 187.305 243.788 187.485 244.278C187.675 244.758 187.77 245.258 187.77 245.778C187.77 245.888 187.765 245.988 187.755 246.078C187.755 246.168 187.75 246.238 187.74 246.288H181.245C181.275 246.678 181.365 247.033 181.515 247.353C181.665 247.673 181.86 247.948 182.1 248.178C182.34 248.408 182.61 248.588 182.91 248.718C183.22 248.848 183.545 248.913 183.885 248.913C184.125 248.913 184.36 248.883 184.59 248.823C184.82 248.753 185.035 248.663 185.235 248.553C185.435 248.443 185.61 248.308 185.76 248.148C185.92 247.988 186.04 247.808 186.12 247.608L187.26 247.923C187.13 248.213 186.95 248.478 186.72 248.718C186.5 248.958 186.24 249.168 185.94 249.348C185.65 249.518 185.325 249.653 184.965 249.753C184.605 249.853 184.23 249.903 183.84 249.903ZM186.525 245.313C186.495 244.943 186.4 244.603 186.24 244.293C186.09 243.973 185.895 243.703 185.655 243.483C185.425 243.263 185.155 243.093 184.845 242.973C184.535 242.843 184.205 242.778 183.855 242.778C183.505 242.778 183.175 242.843 182.865 242.973C182.555 243.093 182.28 243.268 182.04 243.498C181.81 243.718 181.62 243.983 181.47 244.293C181.33 244.603 181.245 244.943 181.215 245.313H186.525ZM201.042 249.753H199.722V245.373C199.722 244.553 199.587 243.948 199.317 243.558C199.057 243.168 198.667 242.973 198.147 242.973C197.607 242.973 197.122 243.168 196.692 243.558C196.272 243.938 195.972 244.433 195.792 245.043V249.753H194.472V245.373C194.472 244.533 194.342 243.923 194.082 243.543C193.822 243.163 193.432 242.973 192.912 242.973C192.382 242.973 191.902 243.163 191.472 243.543C191.042 243.913 190.737 244.408 190.557 245.028V249.753H189.237V241.923H190.437V243.603C190.757 243.023 191.172 242.578 191.682 242.268C192.192 241.948 192.767 241.788 193.407 241.788C194.067 241.788 194.587 241.968 194.967 242.328C195.357 242.678 195.597 243.133 195.687 243.693C196.387 242.423 197.382 241.788 198.672 241.788C199.122 241.788 199.497 241.873 199.797 242.043C200.107 242.203 200.352 242.433 200.532 242.733C200.712 243.023 200.842 243.368 200.922 243.768C201.002 244.168 201.042 244.603 201.042 245.073V249.753ZM207.309 249.903C206.659 249.903 206.084 249.743 205.584 249.423C205.094 249.103 204.704 248.698 204.414 248.208V252.948H203.094V241.923H204.264V243.393C204.574 242.913 204.974 242.528 205.464 242.238C205.964 241.938 206.514 241.788 207.114 241.788C207.654 241.788 208.149 241.898 208.599 242.118C209.049 242.338 209.439 242.638 209.769 243.018C210.099 243.388 210.354 243.818 210.534 244.308C210.724 244.798 210.819 245.308 210.819 245.838C210.819 246.398 210.734 246.928 210.564 247.428C210.394 247.918 210.154 248.348 209.844 248.718C209.534 249.078 209.164 249.368 208.734 249.588C208.304 249.798 207.829 249.903 207.309 249.903ZM206.904 248.763C207.294 248.763 207.644 248.683 207.954 248.523C208.274 248.353 208.544 248.133 208.764 247.863C208.994 247.583 209.169 247.268 209.289 246.918C209.409 246.568 209.469 246.208 209.469 245.838C209.469 245.448 209.399 245.078 209.259 244.728C209.119 244.368 208.929 244.058 208.689 243.798C208.449 243.528 208.164 243.318 207.834 243.168C207.514 243.008 207.164 242.928 206.784 242.928C206.544 242.928 206.294 242.978 206.034 243.078C205.784 243.168 205.544 243.293 205.314 243.453C205.094 243.603 204.899 243.788 204.729 244.008C204.569 244.218 204.464 244.443 204.414 244.683V246.918C204.524 247.178 204.664 247.423 204.834 247.653C205.004 247.873 205.199 248.068 205.419 248.238C205.639 248.398 205.874 248.528 206.124 248.628C206.374 248.718 206.634 248.763 206.904 248.763ZM215.86 249.903C215.27 249.903 214.73 249.793 214.24 249.573C213.76 249.353 213.345 249.058 212.995 248.688C212.655 248.318 212.39 247.888 212.2 247.398C212.01 246.908 211.915 246.393 211.915 245.853C211.915 245.303 212.01 244.783 212.2 244.293C212.4 243.803 212.67 243.373 213.01 243.003C213.36 242.633 213.775 242.338 214.255 242.118C214.745 241.898 215.28 241.788 215.86 241.788C216.44 241.788 216.975 241.898 217.465 242.118C217.955 242.338 218.37 242.633 218.71 243.003C219.06 243.373 219.33 243.803 219.52 244.293C219.72 244.783 219.82 245.303 219.82 245.853C219.82 246.393 219.725 246.908 219.535 247.398C219.345 247.888 219.075 248.318 218.725 248.688C218.375 249.058 217.955 249.353 217.465 249.573C216.985 249.793 216.45 249.903 215.86 249.903ZM213.265 245.868C213.265 246.278 213.33 246.658 213.46 247.008C213.6 247.358 213.785 247.663 214.015 247.923C214.255 248.183 214.53 248.388 214.84 248.538C215.16 248.688 215.5 248.763 215.86 248.763C216.22 248.763 216.555 248.688 216.865 248.538C217.185 248.388 217.465 248.183 217.705 247.923C217.945 247.653 218.13 247.343 218.26 246.993C218.4 246.633 218.47 246.248 218.47 245.838C218.47 245.438 218.4 245.063 218.26 244.713C218.13 244.353 217.945 244.043 217.705 243.783C217.465 243.513 217.185 243.303 216.865 243.153C216.555 243.003 216.22 242.928 215.86 242.928C215.5 242.928 215.16 243.008 214.84 243.168C214.53 243.318 214.255 243.528 214.015 243.798C213.785 244.058 213.6 244.368 213.46 244.728C213.33 245.078 213.265 245.458 213.265 245.868ZM225.559 243.078C224.899 243.098 224.314 243.268 223.804 243.588C223.304 243.908 222.949 244.353 222.739 244.923V249.753H221.419V241.923H222.649V243.738C222.919 243.198 223.274 242.763 223.714 242.433C224.154 242.093 224.624 241.903 225.124 241.863C225.224 241.863 225.309 241.863 225.379 241.863C225.449 241.863 225.509 241.868 225.559 241.878V243.078ZM58.69 274.753V266.923H60.01V274.753H58.69ZM58.69 265.453V263.803H60.01V265.453H58.69ZM68.942 274.753H67.622V270.373C67.622 269.533 67.492 268.923 67.232 268.543C66.982 268.163 66.597 267.973 66.077 267.973C65.807 267.973 65.537 268.028 65.267 268.138C64.997 268.238 64.742 268.378 64.502 268.558C64.262 268.738 64.052 268.953 63.872 269.203C63.692 269.453 63.557 269.728 63.467 270.028V274.753H62.147V266.923H63.347V268.603C63.657 268.053 64.102 267.613 64.682 267.283C65.272 266.953 65.912 266.788 66.602 266.788C67.052 266.788 67.427 266.873 67.727 267.043C68.027 267.203 68.267 267.433 68.447 267.733C68.627 268.023 68.752 268.368 68.822 268.768C68.902 269.168 68.942 269.603 68.942 270.073V274.753ZM70.4697 270.823C70.4697 270.273 70.5647 269.753 70.7547 269.263C70.9447 268.773 71.2147 268.348 71.5647 267.988C71.9147 267.618 72.3297 267.328 72.8097 267.118C73.2997 266.898 73.8447 266.788 74.4447 266.788C75.2247 266.788 75.8947 266.963 76.4547 267.313C77.0247 267.653 77.4547 268.113 77.7447 268.693L76.4547 269.098C76.2547 268.728 75.9747 268.443 75.6147 268.243C75.2547 268.033 74.8547 267.928 74.4147 267.928C74.0547 267.928 73.7147 268.003 73.3947 268.153C73.0747 268.293 72.7997 268.493 72.5697 268.753C72.3397 269.013 72.1547 269.318 72.0147 269.668C71.8847 270.018 71.8197 270.403 71.8197 270.823C71.8197 271.233 71.8897 271.618 72.0297 271.978C72.1697 272.338 72.3547 272.653 72.5847 272.923C72.8247 273.183 73.0997 273.388 73.4097 273.538C73.7297 273.688 74.0697 273.763 74.4297 273.763C74.6597 273.763 74.8847 273.733 75.1047 273.673C75.3347 273.603 75.5397 273.513 75.7197 273.403C75.9097 273.293 76.0747 273.168 76.2147 273.028C76.3547 272.878 76.4547 272.718 76.5147 272.548L77.8047 272.938C77.6847 273.228 77.5147 273.493 77.2947 273.733C77.0847 273.973 76.8347 274.178 76.5447 274.348C76.2547 274.518 75.9297 274.653 75.5697 274.753C75.2197 274.853 74.8497 274.903 74.4597 274.903C73.8697 274.903 73.3297 274.793 72.8397 274.573C72.3497 274.353 71.9297 274.058 71.5797 273.688C71.2297 273.318 70.9547 272.888 70.7547 272.398C70.5647 271.898 70.4697 271.373 70.4697 270.823ZM79.3004 274.753V266.923H80.6204V274.753H79.3004ZM79.3004 265.453V263.803H80.6204V265.453H79.3004ZM85.9824 274.903C85.4424 274.903 84.9424 274.793 84.4824 274.573C84.0224 274.353 83.6274 274.058 83.2974 273.688C82.9674 273.318 82.7074 272.888 82.5174 272.398C82.3374 271.908 82.2474 271.393 82.2474 270.853C82.2474 270.303 82.3324 269.783 82.5024 269.293C82.6824 268.793 82.9274 268.358 83.2374 267.988C83.5574 267.618 83.9324 267.328 84.3624 267.118C84.8024 266.898 85.2824 266.788 85.8024 266.788C86.4324 266.788 86.9924 266.953 87.4824 267.283C87.9824 267.613 88.3774 268.013 88.6674 268.483V263.803H89.9874V273.133C89.9874 273.443 90.1274 273.603 90.4074 273.613V274.753C90.2674 274.773 90.1524 274.788 90.0624 274.798C89.9824 274.808 89.9024 274.813 89.8224 274.813C89.5624 274.813 89.3324 274.728 89.1324 274.558C88.9424 274.378 88.8474 274.173 88.8474 273.943V273.283C88.5374 273.793 88.1224 274.193 87.6024 274.483C87.0924 274.763 86.5524 274.903 85.9824 274.903ZM86.2974 273.763C86.5374 273.763 86.7824 273.718 87.0324 273.628C87.2924 273.538 87.5324 273.413 87.7524 273.253C87.9824 273.093 88.1774 272.908 88.3374 272.698C88.5074 272.478 88.6174 272.248 88.6674 272.008V269.758C88.5774 269.508 88.4424 269.273 88.2624 269.053C88.0824 268.823 87.8774 268.628 87.6474 268.468C87.4274 268.298 87.1874 268.168 86.9274 268.078C86.6774 267.978 86.4274 267.928 86.1774 267.928C85.7874 267.928 85.4324 268.013 85.1124 268.183C84.8024 268.343 84.5324 268.563 84.3024 268.843C84.0824 269.113 83.9124 269.428 83.7924 269.788C83.6724 270.138 83.6124 270.498 83.6124 270.868C83.6124 271.258 83.6824 271.633 83.8224 271.993C83.9624 272.343 84.1524 272.648 84.3924 272.908C84.6324 273.168 84.9124 273.378 85.2324 273.538C85.5624 273.688 85.9174 273.763 86.2974 273.763ZM92.191 274.753V266.923H93.511V274.753H92.191ZM92.191 265.453V263.803H93.511V265.453H92.191ZM98.873 274.903C98.333 274.903 97.833 274.793 97.373 274.573C96.913 274.353 96.518 274.058 96.188 273.688C95.858 273.318 95.598 272.888 95.408 272.398C95.228 271.908 95.138 271.393 95.138 270.853C95.138 270.303 95.223 269.783 95.393 269.293C95.573 268.793 95.818 268.358 96.128 267.988C96.448 267.618 96.823 267.328 97.253 267.118C97.693 266.898 98.173 266.788 98.693 266.788C99.323 266.788 99.883 266.953 100.373 267.283C100.873 267.613 101.268 268.013 101.558 268.483V263.803H102.878V273.133C102.878 273.443 103.018 273.603 103.298 273.613V274.753C103.158 274.773 103.043 274.788 102.953 274.798C102.873 274.808 102.793 274.813 102.713 274.813C102.453 274.813 102.223 274.728 102.023 274.558C101.833 274.378 101.738 274.173 101.738 273.943V273.283C101.428 273.793 101.013 274.193 100.493 274.483C99.983 274.763 99.443 274.903 98.873 274.903ZM99.188 273.763C99.428 273.763 99.673 273.718 99.923 273.628C100.183 273.538 100.423 273.413 100.643 273.253C100.873 273.093 101.068 272.908 101.228 272.698C101.398 272.478 101.508 272.248 101.558 272.008V269.758C101.468 269.508 101.333 269.273 101.153 269.053C100.973 268.823 100.768 268.628 100.538 268.468C100.318 268.298 100.078 268.168 99.818 268.078C99.568 267.978 99.318 267.928 99.068 267.928C98.678 267.928 98.323 268.013 98.003 268.183C97.693 268.343 97.423 268.563 97.193 268.843C96.973 269.113 96.803 269.428 96.683 269.788C96.563 270.138 96.503 270.498 96.503 270.868C96.503 271.258 96.573 271.633 96.713 271.993C96.853 272.343 97.043 272.648 97.283 272.908C97.523 273.168 97.803 273.378 98.123 273.538C98.453 273.688 98.808 273.763 99.188 273.763ZM107.497 274.903C106.677 274.903 106.057 274.628 105.637 274.078C105.217 273.528 105.007 272.708 105.007 271.618V266.923H106.327V271.363C106.327 272.963 106.882 273.763 107.992 273.763C108.532 273.763 109.037 273.593 109.507 273.253C109.987 272.903 110.342 272.428 110.572 271.828V266.923H111.892V273.133C111.892 273.443 112.032 273.603 112.312 273.613V274.753C112.162 274.773 112.042 274.783 111.952 274.783C111.872 274.793 111.792 274.798 111.712 274.798C111.452 274.798 111.232 274.723 111.052 274.573C110.882 274.413 110.792 274.218 110.782 273.988L110.752 273.073C110.402 273.663 109.942 274.118 109.372 274.438C108.802 274.748 108.177 274.903 107.497 274.903ZM120.885 274.753H119.565V270.373C119.565 269.533 119.435 268.923 119.175 268.543C118.925 268.163 118.54 267.973 118.02 267.973C117.75 267.973 117.48 268.028 117.21 268.138C116.94 268.238 116.685 268.378 116.445 268.558C116.205 268.738 115.995 268.953 115.815 269.203C115.635 269.453 115.5 269.728 115.41 270.028V274.753H114.09V266.923H115.29V268.603C115.6 268.053 116.045 267.613 116.625 267.283C117.215 266.953 117.855 266.788 118.545 266.788C118.995 266.788 119.37 266.873 119.67 267.043C119.97 267.203 120.21 267.433 120.39 267.733C120.57 268.023 120.695 268.368 120.765 268.768C120.845 269.168 120.885 269.603 120.885 270.073V274.753ZM126.915 274.363C126.835 274.403 126.73 274.453 126.6 274.513C126.47 274.563 126.32 274.618 126.15 274.678C125.99 274.728 125.81 274.768 125.61 274.798C125.42 274.838 125.22 274.858 125.01 274.858C124.53 274.858 124.115 274.728 123.765 274.468C123.415 274.198 123.24 273.783 123.24 273.223V267.958H122.175V266.923H123.24V264.313H124.56V266.923H126.315V267.958H124.56V272.818C124.58 273.108 124.675 273.318 124.845 273.448C125.015 273.578 125.215 273.643 125.445 273.643C125.705 273.643 125.94 273.603 126.15 273.523C126.37 273.433 126.52 273.363 126.6 273.313L126.915 274.363Z" fill="#4D6668"/>
<g clip-path="url(#clip0)">
<path d="M112.239 118.507H71.3467C64.5709 118.507 59.079 113.015 59.079 106.239V65.3467C59.079 58.5709 64.5709 53.079 71.3467 53.079H112.239C119.015 53.079 124.507 58.5709 124.507 65.3467V106.239C124.507 113.015 119.015 118.507 112.239 118.507Z" fill="#F5E6FE"/>
<path d="M90.4271 99.4242C89.4232 99.4242 88.4194 99.3238 87.446 99.1277C86.7077 98.9784 86.2315 98.2606 86.3808 97.5228C86.53 96.7845 87.2478 96.3043 87.9856 96.4576C88.7833 96.6168 89.6049 96.6987 90.4271 96.6987C91.1793 96.6987 91.7908 97.3102 91.7908 98.0624C91.7908 98.8147 91.1793 99.4242 90.4271 99.4242Z" fill="#D9A4FC"/>
<path d="M82.586 96.9463C82.316 96.9463 82.0419 96.8664 81.8028 96.6987C80.2958 95.6374 79.0079 94.3231 77.9771 92.7916C77.5563 92.1657 77.7216 91.3191 78.3475 90.9003C78.973 90.481 79.8196 90.6467 80.2389 91.2702C81.083 92.5256 82.1363 93.6013 83.3732 94.4699C83.9887 94.9036 84.1354 95.7542 83.7022 96.3697C83.4366 96.7436 83.0153 96.9463 82.586 96.9463ZM77.0082 88.2157C76.3598 88.2157 75.7853 87.7535 75.667 87.0931C75.5092 86.218 75.4299 85.3205 75.4319 84.427C75.4319 83.4866 75.5197 82.5436 75.6934 81.6256C75.8327 80.8859 76.542 80.3952 77.2863 80.5399C78.0266 80.6792 78.5128 81.3925 78.372 82.1328C78.2287 82.8851 78.1573 83.6563 78.1573 84.429C78.1573 85.1608 78.2227 85.8951 78.3495 86.6104C78.4823 87.3507 77.9896 88.06 77.2494 88.1933C77.1695 88.2092 77.0881 88.2157 77.0082 88.2157ZM79.1797 78.0865C78.9136 78.0865 78.646 78.0091 78.4089 77.8474C77.789 77.4221 77.6297 76.5735 78.055 75.952C79.0978 74.4331 80.3981 73.1282 81.9171 72.0815C82.5346 71.6542 83.3852 71.8094 83.8125 72.4294C84.2398 73.0488 84.0845 73.8969 83.4651 74.3247C82.2221 75.1833 81.1569 76.2485 80.3043 77.4935C80.0402 77.8798 79.6129 78.0865 79.1797 78.0865ZM101.56 77.9253C101.133 77.9253 100.711 77.7246 100.445 77.3487C99.5744 76.1158 98.4952 75.0645 97.2397 74.2244C96.6138 73.8051 96.4461 72.9585 96.8654 72.333C97.2847 71.7076 98.1293 71.5398 98.7567 71.9587C100.29 72.9855 101.607 74.2693 102.672 75.7743C103.108 76.3893 102.96 77.2399 102.347 77.6737C102.108 77.8434 101.832 77.9253 101.56 77.9253ZM87.8403 72.4064C87.2004 72.4064 86.6283 71.9527 86.5035 71.3007C86.3623 70.5605 86.847 69.8467 87.5847 69.7059C89.3718 69.3625 91.2591 69.35 93.0522 69.665C93.7944 69.7957 94.2891 70.5031 94.1583 71.2433C94.0276 71.9856 93.3202 72.4823 92.58 72.3495C91.1139 72.0899 89.5659 72.1019 88.1024 72.382C88.012 72.3984 87.9262 72.4064 87.8403 72.4064Z" fill="#D9A4FC"/>
<path d="M104.057 85.7927C103.304 85.7927 102.693 85.1812 102.693 84.4289C102.693 83.6088 102.611 82.7871 102.449 81.9875C102.3 81.2497 102.779 80.5319 103.516 80.3826C104.251 80.2334 104.973 80.7116 105.122 81.4499C105.318 82.4272 105.418 83.4291 105.418 84.4289C105.42 85.1832 104.811 85.7927 104.057 85.7927Z" fill="#D9A4FC"/>
<path d="M107.87 94.8219L95.011 81.9632C94.8433 81.7955 94.6206 81.7036 94.3815 81.7036C93.8903 81.7036 93.492 82.1025 93.492 82.5931V101.26C93.492 101.751 93.8903 102.15 94.3815 102.15C94.6226 102.15 94.8473 102.056 95.0215 101.878L100.36 96.3409H107.242C107.732 96.3409 108.131 95.9425 108.131 95.4518C108.131 95.2187 108.035 94.9876 107.87 94.8219Z" fill="#BE63F9"/>
</g>
<defs>
<filter id="filter0_d" x="0" y="0" width="317.349" height="337.704" filterUnits="userSpaceOnUse" color-interpolation-filters="sRGB">
<feFlood flood-opacity="0" result="BackgroundImageFix"/>
<feColorMatrix in="SourceAlpha" type="matrix" values="0 0 0 0 0 0 0 0 0 0 0 0 0 0 0 0 0 0 127 0"/>
<feOffset dy="6"/>
<feGaussianBlur stdDeviation="15"/>
<feColorMatrix type="matrix" values="0 0 0 0 0 0 0 0 0 0 0 0 0 0 0 0 0 0 0.1 0"/>
<feBlend mode="normal" in2="BackgroundImageFix" result="effect1_dropShadow"/>
<feBlend mode="normal" in="SourceGraphic" in2="effect1_dropShadow" result="shape"/>
</filter>
<clipPath id="clip0">
<rect width="65.4276" height="65.4276" fill="white" transform="translate(59.079 53.079)"/>
</clipPath>
</defs>
</svg>
