<svg width="319" height="338" viewBox="0 0 319 338" fill="none" xmlns="http://www.w3.org/2000/svg">
<g filter="url(#filter0_d)">
<rect x="30.7928" y="24" width="257.349" height="277.704" rx="10" fill="white"/>
</g>
<path d="M73.5143 166.725C73.5143 169.075 72.8437 170.875 71.5026 172.125C70.1679 173.375 68.2376 174 65.7115 174H61.6686V159.723H66.151C68.4817 159.723 70.2916 160.338 71.5807 161.568C72.8698 162.799 73.5143 164.518 73.5143 166.725ZM70.3698 166.803C70.3698 163.736 69.0156 162.203 66.3073 162.203H64.6959V171.5H65.9948C68.9114 171.5 70.3698 169.934 70.3698 166.803ZM78.6119 168.521C78.6119 169.602 78.7877 170.419 79.1393 170.973C79.4974 171.526 80.0768 171.803 80.8776 171.803C81.6718 171.803 82.2415 171.529 82.5865 170.982C82.9381 170.429 83.1139 169.609 83.1139 168.521C83.1139 167.441 82.9381 166.63 82.5865 166.09C82.235 165.549 81.6588 165.279 80.858 165.279C80.0638 165.279 79.4908 165.549 79.1393 166.09C78.7877 166.624 78.6119 167.434 78.6119 168.521ZM86.1608 168.521C86.1608 170.299 85.692 171.689 84.7545 172.691C83.817 173.694 82.5117 174.195 80.8385 174.195C79.7903 174.195 78.8658 173.967 78.0651 173.512C77.2643 173.049 76.649 172.389 76.2194 171.529C75.7897 170.67 75.5748 169.667 75.5748 168.521C75.5748 166.738 76.0403 165.351 76.9713 164.361C77.9023 163.372 79.2109 162.877 80.8971 162.877C81.9453 162.877 82.8698 163.105 83.6705 163.561C84.4713 164.016 85.0865 164.671 85.5162 165.523C85.9459 166.376 86.1608 167.376 86.1608 168.521ZM98.6998 174H95.7213V167.623C95.7213 166.835 95.5813 166.246 95.3014 165.855C95.0214 165.458 94.5755 165.26 93.9635 165.26C93.1302 165.26 92.528 165.54 92.1569 166.1C91.7858 166.653 91.6002 167.574 91.6002 168.863V174H88.6217V163.082H90.8971L91.2975 164.479H91.4635C91.7955 163.951 92.2513 163.554 92.8307 163.287C93.4166 163.014 94.0807 162.877 94.8229 162.877C96.0924 162.877 97.0559 163.222 97.7135 163.912C98.3711 164.596 98.6998 165.585 98.6998 166.881V174ZM104.139 168.521C104.139 169.602 104.315 170.419 104.667 170.973C105.025 171.526 105.604 171.803 106.405 171.803C107.199 171.803 107.769 171.529 108.114 170.982C108.465 170.429 108.641 169.609 108.641 168.521C108.641 167.441 108.465 166.63 108.114 166.09C107.762 165.549 107.186 165.279 106.385 165.279C105.591 165.279 105.018 165.549 104.667 166.09C104.315 166.624 104.139 167.434 104.139 168.521ZM111.688 168.521C111.688 170.299 111.219 171.689 110.282 172.691C109.344 173.694 108.039 174.195 106.366 174.195C105.318 174.195 104.393 173.967 103.592 173.512C102.792 173.049 102.176 172.389 101.747 171.529C101.317 170.67 101.102 169.667 101.102 168.521C101.102 166.738 101.568 165.351 102.499 164.361C103.43 163.372 104.738 162.877 106.424 162.877C107.473 162.877 108.397 163.105 109.198 163.561C109.999 164.016 110.614 164.671 111.044 165.523C111.473 166.376 111.688 167.376 111.688 168.521ZM120.243 162.877C120.646 162.877 120.982 162.906 121.249 162.965L121.024 165.758C120.783 165.693 120.49 165.66 120.145 165.66C119.195 165.66 118.452 165.904 117.919 166.393C117.391 166.881 117.128 167.564 117.128 168.443V174H114.149V163.082H116.405L116.844 164.918H116.991C117.329 164.306 117.785 163.814 118.358 163.443C118.937 163.066 119.566 162.877 120.243 162.877ZM140.506 166.725C140.506 169.075 139.836 170.875 138.495 172.125C137.16 173.375 135.23 174 132.704 174H128.661V159.723H133.143C135.474 159.723 137.284 160.338 138.573 161.568C139.862 162.799 140.506 164.518 140.506 166.725ZM137.362 166.803C137.362 163.736 136.008 162.203 133.299 162.203H131.688V171.5H132.987C135.904 171.5 137.362 169.934 137.362 166.803ZM150.165 174L149.589 172.516H149.51C149.009 173.147 148.491 173.587 147.958 173.834C147.43 174.075 146.74 174.195 145.887 174.195C144.839 174.195 144.012 173.896 143.407 173.297C142.808 172.698 142.508 171.845 142.508 170.738C142.508 169.579 142.912 168.727 143.719 168.18C144.533 167.626 145.757 167.32 147.391 167.262L149.286 167.203V166.725C149.286 165.618 148.719 165.064 147.587 165.064C146.714 165.064 145.689 165.328 144.51 165.855L143.524 163.844C144.781 163.186 146.174 162.857 147.704 162.857C149.169 162.857 150.292 163.176 151.073 163.814C151.854 164.452 152.245 165.423 152.245 166.725V174H150.165ZM149.286 168.941L148.133 168.98C147.268 169.007 146.623 169.163 146.2 169.449C145.777 169.736 145.565 170.172 145.565 170.758C145.565 171.598 146.047 172.018 147.01 172.018C147.7 172.018 148.251 171.819 148.661 171.422C149.077 171.025 149.286 170.497 149.286 169.84V168.941ZM161.415 162.877C161.818 162.877 162.154 162.906 162.421 162.965L162.196 165.758C161.955 165.693 161.662 165.66 161.317 165.66C160.366 165.66 159.624 165.904 159.09 166.393C158.563 166.881 158.299 167.564 158.299 168.443V174H155.321V163.082H157.577L158.016 164.918H158.163C158.501 164.306 158.957 163.814 159.53 163.443C160.109 163.066 160.738 162.877 161.415 162.877ZM171.337 174L170.76 172.516H170.682C170.181 173.147 169.663 173.587 169.13 173.834C168.602 174.075 167.912 174.195 167.059 174.195C166.011 174.195 165.184 173.896 164.579 173.297C163.98 172.698 163.68 171.845 163.68 170.738C163.68 169.579 164.084 168.727 164.891 168.18C165.705 167.626 166.929 167.32 168.563 167.262L170.458 167.203V166.725C170.458 165.618 169.891 165.064 168.758 165.064C167.886 165.064 166.861 165.328 165.682 165.855L164.696 163.844C165.952 163.186 167.346 162.857 168.876 162.857C170.34 162.857 171.464 163.176 172.245 163.814C173.026 164.452 173.417 165.423 173.417 166.725V174H171.337ZM170.458 168.941L169.305 168.98C168.439 169.007 167.795 169.163 167.372 169.449C166.949 169.736 166.737 170.172 166.737 170.758C166.737 171.598 167.219 172.018 168.182 172.018C168.872 172.018 169.422 171.819 169.833 171.422C170.249 171.025 170.458 170.497 170.458 169.84V168.941ZM186.571 174H183.592V167.623C183.592 166.048 183.006 165.26 181.835 165.26C181.001 165.26 180.399 165.543 180.028 166.109C179.657 166.676 179.471 167.594 179.471 168.863V174H176.493V158.805H179.471V161.9C179.471 162.141 179.449 162.708 179.403 163.6L179.335 164.479H179.491C180.155 163.411 181.21 162.877 182.655 162.877C183.937 162.877 184.911 163.222 185.575 163.912C186.239 164.602 186.571 165.592 186.571 166.881V174Z" fill="#038C98"/>
<path d="M61.1467 199.753V189.103H62.4967V198.553H68.4367V199.753H61.1467ZM73.0139 199.903C72.4239 199.903 71.8839 199.793 71.3939 199.573C70.9139 199.353 70.4989 199.058 70.1489 198.688C69.8089 198.318 69.5439 197.888 69.3539 197.398C69.1639 196.908 69.0689 196.393 69.0689 195.853C69.0689 195.303 69.1639 194.783 69.3539 194.293C69.5539 193.803 69.8239 193.373 70.1639 193.003C70.5139 192.633 70.9289 192.338 71.4089 192.118C71.8989 191.898 72.4339 191.788 73.0139 191.788C73.5939 191.788 74.1289 191.898 74.6189 192.118C75.1089 192.338 75.5239 192.633 75.8639 193.003C76.2139 193.373 76.4839 193.803 76.6739 194.293C76.8739 194.783 76.9739 195.303 76.9739 195.853C76.9739 196.393 76.8789 196.908 76.6889 197.398C76.4989 197.888 76.2289 198.318 75.8789 198.688C75.5289 199.058 75.1089 199.353 74.6189 199.573C74.1389 199.793 73.6039 199.903 73.0139 199.903ZM70.4189 195.868C70.4189 196.278 70.4839 196.658 70.6139 197.008C70.7539 197.358 70.9389 197.663 71.1689 197.923C71.4089 198.183 71.6839 198.388 71.9939 198.538C72.3139 198.688 72.6539 198.763 73.0139 198.763C73.3739 198.763 73.7089 198.688 74.0189 198.538C74.3389 198.388 74.6189 198.183 74.8589 197.923C75.0989 197.653 75.2839 197.343 75.4139 196.993C75.5539 196.633 75.6239 196.248 75.6239 195.838C75.6239 195.438 75.5539 195.063 75.4139 194.713C75.2839 194.353 75.0989 194.043 74.8589 193.783C74.6189 193.513 74.3389 193.303 74.0189 193.153C73.7089 193.003 73.3739 192.928 73.0139 192.928C72.6539 192.928 72.3139 193.008 71.9939 193.168C71.6839 193.318 71.4089 193.528 71.1689 193.798C70.9389 194.058 70.7539 194.368 70.6139 194.728C70.4839 195.078 70.4189 195.458 70.4189 195.868ZM82.7134 193.078C82.0534 193.098 81.4684 193.268 80.9584 193.588C80.4584 193.908 80.1034 194.353 79.8934 194.923V199.753H78.5734V191.923H79.8034V193.738C80.0734 193.198 80.4284 192.763 80.8684 192.433C81.3084 192.093 81.7784 191.903 82.2784 191.863C82.3784 191.863 82.4634 191.863 82.5334 191.863C82.6034 191.863 82.6634 191.868 82.7134 191.878V193.078ZM87.3119 199.903C86.7219 199.903 86.1819 199.798 85.6919 199.588C85.2019 199.368 84.7819 199.073 84.4319 198.703C84.0819 198.333 83.8069 197.903 83.6069 197.413C83.4169 196.913 83.3219 196.388 83.3219 195.838C83.3219 195.288 83.4169 194.768 83.6069 194.278C83.8069 193.788 84.0819 193.358 84.4319 192.988C84.7919 192.618 85.2169 192.328 85.7069 192.118C86.1969 191.898 86.7369 191.788 87.3269 191.788C87.9169 191.788 88.4519 191.898 88.9319 192.118C89.4219 192.338 89.8369 192.633 90.1769 193.003C90.5169 193.363 90.7769 193.788 90.9569 194.278C91.1469 194.758 91.2419 195.258 91.2419 195.778C91.2419 195.888 91.2369 195.988 91.2269 196.078C91.2269 196.168 91.2219 196.238 91.2119 196.288H84.7169C84.7469 196.678 84.8369 197.033 84.9869 197.353C85.1369 197.673 85.3319 197.948 85.5719 198.178C85.8119 198.408 86.0819 198.588 86.3819 198.718C86.6919 198.848 87.0169 198.913 87.3569 198.913C87.5969 198.913 87.8319 198.883 88.0619 198.823C88.2919 198.753 88.5069 198.663 88.7069 198.553C88.9069 198.443 89.0819 198.308 89.2319 198.148C89.3919 197.988 89.5119 197.808 89.5919 197.608L90.7319 197.923C90.6019 198.213 90.4219 198.478 90.1919 198.718C89.9719 198.958 89.7119 199.168 89.4119 199.348C89.1219 199.518 88.7969 199.653 88.4369 199.753C88.0769 199.853 87.7019 199.903 87.3119 199.903ZM89.9969 195.313C89.9669 194.943 89.8719 194.603 89.7119 194.293C89.5619 193.973 89.3669 193.703 89.1269 193.483C88.8969 193.263 88.6269 193.093 88.3169 192.973C88.0069 192.843 87.6769 192.778 87.3269 192.778C86.9769 192.778 86.6469 192.843 86.3369 192.973C86.0269 193.093 85.7519 193.268 85.5119 193.498C85.2819 193.718 85.0919 193.983 84.9419 194.293C84.8019 194.603 84.7169 194.943 84.6869 195.313H89.9969ZM104.514 199.753H103.194V195.373C103.194 194.553 103.059 193.948 102.789 193.558C102.529 193.168 102.139 192.973 101.619 192.973C101.079 192.973 100.594 193.168 100.164 193.558C99.7442 193.938 99.4442 194.433 99.2642 195.043V199.753H97.9442V195.373C97.9442 194.533 97.8142 193.923 97.5542 193.543C97.2942 193.163 96.9042 192.973 96.3842 192.973C95.8542 192.973 95.3742 193.163 94.9442 193.543C94.5142 193.913 94.2092 194.408 94.0292 195.028V199.753H92.7092V191.923H93.9092V193.603C94.2292 193.023 94.6442 192.578 95.1542 192.268C95.6642 191.948 96.2392 191.788 96.8792 191.788C97.5392 191.788 98.0592 191.968 98.4392 192.328C98.8292 192.678 99.0692 193.133 99.1592 193.693C99.8592 192.423 100.854 191.788 102.144 191.788C102.594 191.788 102.969 191.873 103.269 192.043C103.579 192.203 103.824 192.433 104.004 192.733C104.184 193.023 104.314 193.368 104.394 193.768C104.474 194.168 104.514 194.603 104.514 195.073V199.753ZM110.361 199.753V191.923H111.681V199.753H110.361ZM110.361 190.453V188.803H111.681V190.453H110.361ZM118.033 199.903C117.383 199.903 116.808 199.743 116.308 199.423C115.818 199.103 115.428 198.698 115.138 198.208V202.948H113.818V191.923H114.988V193.393C115.298 192.913 115.698 192.528 116.188 192.238C116.688 191.938 117.238 191.788 117.838 191.788C118.378 191.788 118.873 191.898 119.323 192.118C119.773 192.338 120.163 192.638 120.493 193.018C120.823 193.388 121.078 193.818 121.258 194.308C121.448 194.798 121.543 195.308 121.543 195.838C121.543 196.398 121.458 196.928 121.288 197.428C121.118 197.918 120.878 198.348 120.568 198.718C120.258 199.078 119.888 199.368 119.458 199.588C119.028 199.798 118.553 199.903 118.033 199.903ZM117.628 198.763C118.018 198.763 118.368 198.683 118.678 198.523C118.998 198.353 119.268 198.133 119.488 197.863C119.718 197.583 119.893 197.268 120.013 196.918C120.133 196.568 120.193 196.208 120.193 195.838C120.193 195.448 120.123 195.078 119.983 194.728C119.843 194.368 119.653 194.058 119.413 193.798C119.173 193.528 118.888 193.318 118.558 193.168C118.238 193.008 117.888 192.928 117.508 192.928C117.268 192.928 117.018 192.978 116.758 193.078C116.508 193.168 116.268 193.293 116.038 193.453C115.818 193.603 115.623 193.788 115.453 194.008C115.293 194.218 115.188 194.443 115.138 194.683V196.918C115.248 197.178 115.388 197.423 115.558 197.653C115.728 197.873 115.923 198.068 116.143 198.238C116.363 198.398 116.598 198.528 116.848 198.628C117.098 198.718 117.358 198.763 117.628 198.763ZM125.908 199.903C125.278 199.903 124.658 199.808 124.048 199.618C123.438 199.418 122.913 199.133 122.473 198.763L123.043 197.878C123.503 198.228 123.963 198.493 124.423 198.673C124.883 198.843 125.368 198.928 125.878 198.928C126.448 198.928 126.898 198.818 127.228 198.598C127.568 198.368 127.738 198.048 127.738 197.638C127.738 197.448 127.693 197.288 127.603 197.158C127.513 197.018 127.378 196.898 127.198 196.798C127.018 196.698 126.788 196.608 126.508 196.528C126.228 196.448 125.903 196.363 125.533 196.273C125.063 196.153 124.658 196.038 124.318 195.928C123.978 195.818 123.698 195.688 123.478 195.538C123.258 195.388 123.098 195.208 122.998 194.998C122.898 194.788 122.848 194.528 122.848 194.218C122.848 193.828 122.923 193.483 123.073 193.183C123.233 192.873 123.448 192.618 123.718 192.418C123.988 192.208 124.303 192.053 124.663 191.953C125.033 191.843 125.428 191.788 125.848 191.788C126.438 191.788 126.988 191.883 127.498 192.073C128.008 192.263 128.438 192.513 128.788 192.823L128.188 193.618C127.858 193.328 127.488 193.113 127.078 192.973C126.668 192.823 126.248 192.748 125.818 192.748C125.338 192.748 124.928 192.853 124.588 193.063C124.258 193.263 124.093 193.588 124.093 194.038C124.093 194.218 124.123 194.368 124.183 194.488C124.253 194.608 124.363 194.713 124.513 194.803C124.663 194.893 124.853 194.973 125.083 195.043C125.323 195.113 125.608 195.188 125.938 195.268C126.458 195.388 126.908 195.513 127.288 195.643C127.678 195.763 127.998 195.908 128.248 196.078C128.508 196.248 128.698 196.448 128.818 196.678C128.948 196.908 129.013 197.188 129.013 197.518C129.013 198.248 128.733 198.828 128.173 199.258C127.613 199.688 126.858 199.903 125.908 199.903ZM132.99 199.903C132.17 199.903 131.55 199.628 131.13 199.078C130.71 198.528 130.5 197.708 130.5 196.618V191.923H131.82V196.363C131.82 197.963 132.375 198.763 133.485 198.763C134.025 198.763 134.53 198.593 135 198.253C135.48 197.903 135.835 197.428 136.065 196.828V191.923H137.385V198.133C137.385 198.443 137.525 198.603 137.805 198.613V199.753C137.655 199.773 137.535 199.783 137.445 199.783C137.365 199.793 137.285 199.798 137.205 199.798C136.945 199.798 136.725 199.723 136.545 199.573C136.375 199.413 136.285 199.218 136.275 198.988L136.245 198.073C135.895 198.663 135.435 199.118 134.865 199.438C134.295 199.748 133.67 199.903 132.99 199.903ZM151.389 199.753H150.069V195.373C150.069 194.553 149.934 193.948 149.664 193.558C149.404 193.168 149.014 192.973 148.494 192.973C147.954 192.973 147.469 193.168 147.039 193.558C146.619 193.938 146.319 194.433 146.139 195.043V199.753H144.819V195.373C144.819 194.533 144.689 193.923 144.429 193.543C144.169 193.163 143.779 192.973 143.259 192.973C142.729 192.973 142.249 193.163 141.819 193.543C141.389 193.913 141.084 194.408 140.904 195.028V199.753H139.584V191.923H140.784V193.603C141.104 193.023 141.519 192.578 142.029 192.268C142.539 191.948 143.114 191.788 143.754 191.788C144.414 191.788 144.934 191.968 145.314 192.328C145.704 192.678 145.944 193.133 146.034 193.693C146.734 192.423 147.729 191.788 149.019 191.788C149.469 191.788 149.844 191.873 150.144 192.043C150.454 192.203 150.699 192.433 150.879 192.733C151.059 193.023 151.189 193.368 151.269 193.768C151.349 194.168 151.389 194.603 151.389 195.073V199.753ZM160.461 199.903C159.921 199.903 159.421 199.793 158.961 199.573C158.501 199.353 158.106 199.058 157.776 198.688C157.446 198.318 157.186 197.888 156.996 197.398C156.816 196.908 156.726 196.393 156.726 195.853C156.726 195.303 156.811 194.783 156.981 194.293C157.161 193.793 157.406 193.358 157.716 192.988C158.036 192.618 158.411 192.328 158.841 192.118C159.281 191.898 159.761 191.788 160.281 191.788C160.911 191.788 161.471 191.953 161.961 192.283C162.461 192.613 162.856 193.013 163.146 193.483V188.803H164.466V198.133C164.466 198.443 164.606 198.603 164.886 198.613V199.753C164.746 199.773 164.631 199.788 164.541 199.798C164.461 199.808 164.381 199.813 164.301 199.813C164.041 199.813 163.811 199.728 163.611 199.558C163.421 199.378 163.326 199.173 163.326 198.943V198.283C163.016 198.793 162.601 199.193 162.081 199.483C161.571 199.763 161.031 199.903 160.461 199.903ZM160.776 198.763C161.016 198.763 161.261 198.718 161.511 198.628C161.771 198.538 162.011 198.413 162.231 198.253C162.461 198.093 162.656 197.908 162.816 197.698C162.986 197.478 163.096 197.248 163.146 197.008V194.758C163.056 194.508 162.921 194.273 162.741 194.053C162.561 193.823 162.356 193.628 162.126 193.468C161.906 193.298 161.666 193.168 161.406 193.078C161.156 192.978 160.906 192.928 160.656 192.928C160.266 192.928 159.911 193.013 159.591 193.183C159.281 193.343 159.011 193.563 158.781 193.843C158.561 194.113 158.391 194.428 158.271 194.788C158.151 195.138 158.091 195.498 158.091 195.868C158.091 196.258 158.161 196.633 158.301 196.993C158.441 197.343 158.631 197.648 158.871 197.908C159.111 198.168 159.391 198.378 159.711 198.538C160.041 198.688 160.396 198.763 160.776 198.763ZM170.089 199.903C169.499 199.903 168.959 199.793 168.469 199.573C167.989 199.353 167.574 199.058 167.224 198.688C166.884 198.318 166.619 197.888 166.429 197.398C166.239 196.908 166.144 196.393 166.144 195.853C166.144 195.303 166.239 194.783 166.429 194.293C166.629 193.803 166.899 193.373 167.239 193.003C167.589 192.633 168.004 192.338 168.484 192.118C168.974 191.898 169.509 191.788 170.089 191.788C170.669 191.788 171.204 191.898 171.694 192.118C172.184 192.338 172.599 192.633 172.939 193.003C173.289 193.373 173.559 193.803 173.749 194.293C173.949 194.783 174.049 195.303 174.049 195.853C174.049 196.393 173.954 196.908 173.764 197.398C173.574 197.888 173.304 198.318 172.954 198.688C172.604 199.058 172.184 199.353 171.694 199.573C171.214 199.793 170.679 199.903 170.089 199.903ZM167.494 195.868C167.494 196.278 167.559 196.658 167.689 197.008C167.829 197.358 168.014 197.663 168.244 197.923C168.484 198.183 168.759 198.388 169.069 198.538C169.389 198.688 169.729 198.763 170.089 198.763C170.449 198.763 170.784 198.688 171.094 198.538C171.414 198.388 171.694 198.183 171.934 197.923C172.174 197.653 172.359 197.343 172.489 196.993C172.629 196.633 172.699 196.248 172.699 195.838C172.699 195.438 172.629 195.063 172.489 194.713C172.359 194.353 172.174 194.043 171.934 193.783C171.694 193.513 171.414 193.303 171.094 193.153C170.784 193.003 170.449 192.928 170.089 192.928C169.729 192.928 169.389 193.008 169.069 193.168C168.759 193.318 168.484 193.528 168.244 193.798C168.014 194.058 167.829 194.368 167.689 194.728C167.559 195.078 167.494 195.458 167.494 195.868ZM175.679 188.803H176.999V197.728C176.999 198.018 177.074 198.248 177.224 198.418C177.384 198.578 177.604 198.658 177.884 198.658C177.994 198.658 178.124 198.643 178.274 198.613C178.424 198.573 178.564 198.528 178.694 198.478L178.904 199.543C178.684 199.633 178.424 199.708 178.124 199.768C177.824 199.828 177.559 199.858 177.329 199.858C176.819 199.858 176.414 199.713 176.114 199.423C175.824 199.133 175.679 198.728 175.679 198.208V188.803ZM183.361 199.903C182.771 199.903 182.231 199.793 181.741 199.573C181.261 199.353 180.846 199.058 180.496 198.688C180.156 198.318 179.891 197.888 179.701 197.398C179.511 196.908 179.416 196.393 179.416 195.853C179.416 195.303 179.511 194.783 179.701 194.293C179.901 193.803 180.171 193.373 180.511 193.003C180.861 192.633 181.276 192.338 181.756 192.118C182.246 191.898 182.781 191.788 183.361 191.788C183.941 191.788 184.476 191.898 184.966 192.118C185.456 192.338 185.871 192.633 186.211 193.003C186.561 193.373 186.831 193.803 187.021 194.293C187.221 194.783 187.321 195.303 187.321 195.853C187.321 196.393 187.226 196.908 187.036 197.398C186.846 197.888 186.576 198.318 186.226 198.688C185.876 199.058 185.456 199.353 184.966 199.573C184.486 199.793 183.951 199.903 183.361 199.903ZM180.766 195.868C180.766 196.278 180.831 196.658 180.961 197.008C181.101 197.358 181.286 197.663 181.516 197.923C181.756 198.183 182.031 198.388 182.341 198.538C182.661 198.688 183.001 198.763 183.361 198.763C183.721 198.763 184.056 198.688 184.366 198.538C184.686 198.388 184.966 198.183 185.206 197.923C185.446 197.653 185.631 197.343 185.761 196.993C185.901 196.633 185.971 196.248 185.971 195.838C185.971 195.438 185.901 195.063 185.761 194.713C185.631 194.353 185.446 194.043 185.206 193.783C184.966 193.513 184.686 193.303 184.366 193.153C184.056 193.003 183.721 192.928 183.361 192.928C183.001 192.928 182.661 193.008 182.341 193.168C182.031 193.318 181.756 193.528 181.516 193.798C181.286 194.058 181.101 194.368 180.961 194.728C180.831 195.078 180.766 195.458 180.766 195.868ZM193.06 193.078C192.4 193.098 191.815 193.268 191.305 193.588C190.805 193.908 190.45 194.353 190.24 194.923V199.753H188.92V191.923H190.15V193.738C190.42 193.198 190.775 192.763 191.215 192.433C191.655 192.093 192.125 191.903 192.625 191.863C192.725 191.863 192.81 191.863 192.88 191.863C192.95 191.863 193.01 191.868 193.06 191.878V193.078ZM200.557 199.903C199.927 199.903 199.307 199.808 198.697 199.618C198.087 199.418 197.562 199.133 197.122 198.763L197.692 197.878C198.152 198.228 198.612 198.493 199.072 198.673C199.532 198.843 200.017 198.928 200.527 198.928C201.097 198.928 201.547 198.818 201.877 198.598C202.217 198.368 202.387 198.048 202.387 197.638C202.387 197.448 202.342 197.288 202.252 197.158C202.162 197.018 202.027 196.898 201.847 196.798C201.667 196.698 201.437 196.608 201.157 196.528C200.877 196.448 200.552 196.363 200.182 196.273C199.712 196.153 199.307 196.038 198.967 195.928C198.627 195.818 198.347 195.688 198.127 195.538C197.907 195.388 197.747 195.208 197.647 194.998C197.547 194.788 197.497 194.528 197.497 194.218C197.497 193.828 197.572 193.483 197.722 193.183C197.882 192.873 198.097 192.618 198.367 192.418C198.637 192.208 198.952 192.053 199.312 191.953C199.682 191.843 200.077 191.788 200.497 191.788C201.087 191.788 201.637 191.883 202.147 192.073C202.657 192.263 203.087 192.513 203.437 192.823L202.837 193.618C202.507 193.328 202.137 193.113 201.727 192.973C201.317 192.823 200.897 192.748 200.467 192.748C199.987 192.748 199.577 192.853 199.237 193.063C198.907 193.263 198.742 193.588 198.742 194.038C198.742 194.218 198.772 194.368 198.832 194.488C198.902 194.608 199.012 194.713 199.162 194.803C199.312 194.893 199.502 194.973 199.732 195.043C199.972 195.113 200.257 195.188 200.587 195.268C201.107 195.388 201.557 195.513 201.937 195.643C202.327 195.763 202.647 195.908 202.897 196.078C203.157 196.248 203.347 196.448 203.467 196.678C203.597 196.908 203.662 197.188 203.662 197.518C203.662 198.248 203.382 198.828 202.822 199.258C202.262 199.688 201.507 199.903 200.557 199.903ZM205.224 199.753V191.923H206.544V199.753H205.224ZM205.224 190.453V188.803H206.544V190.453H205.224ZM212.731 199.363C212.651 199.403 212.546 199.453 212.416 199.513C212.286 199.563 212.136 199.618 211.966 199.678C211.806 199.728 211.626 199.768 211.426 199.798C211.236 199.838 211.036 199.858 210.826 199.858C210.346 199.858 209.931 199.728 209.581 199.468C209.231 199.198 209.056 198.783 209.056 198.223V192.958H207.991V191.923H209.056V189.313H210.376V191.923H212.131V192.958H210.376V197.818C210.396 198.108 210.491 198.318 210.661 198.448C210.831 198.578 211.031 198.643 211.261 198.643C211.521 198.643 211.756 198.603 211.966 198.523C212.186 198.433 212.336 198.363 212.416 198.313L212.731 199.363ZM219.758 199.903C219.388 199.903 219.043 199.843 218.723 199.723C218.403 199.593 218.123 199.418 217.883 199.198C217.653 198.978 217.468 198.723 217.328 198.433C217.198 198.133 217.133 197.808 217.133 197.458C217.133 197.098 217.213 196.773 217.373 196.483C217.533 196.183 217.758 195.928 218.048 195.718C218.348 195.508 218.698 195.343 219.098 195.223C219.508 195.103 219.953 195.043 220.433 195.043C220.813 195.043 221.198 195.078 221.588 195.148C221.978 195.218 222.323 195.313 222.623 195.433V194.803C222.623 194.163 222.443 193.663 222.083 193.303C221.723 192.933 221.213 192.748 220.553 192.748C219.763 192.748 218.933 193.053 218.063 193.663L217.628 192.808C218.638 192.128 219.653 191.788 220.673 191.788C221.703 191.788 222.503 192.063 223.073 192.613C223.653 193.163 223.943 193.938 223.943 194.938V198.133C223.943 198.443 224.083 198.603 224.363 198.613V199.753C224.223 199.773 224.108 199.788 224.018 199.798C223.928 199.808 223.833 199.813 223.733 199.813C223.473 199.813 223.263 199.738 223.103 199.588C222.953 199.428 222.863 199.238 222.833 199.018L222.803 198.463C222.453 198.933 222.008 199.293 221.468 199.543C220.938 199.783 220.368 199.903 219.758 199.903ZM220.103 198.913C220.573 198.913 221.008 198.828 221.408 198.658C221.818 198.478 222.128 198.243 222.338 197.953C222.528 197.763 222.623 197.568 222.623 197.368V196.213C221.983 195.963 221.318 195.838 220.628 195.838C219.968 195.838 219.428 195.978 219.008 196.258C218.598 196.538 218.393 196.903 218.393 197.353C218.393 197.573 218.433 197.778 218.513 197.968C218.603 198.158 218.723 198.323 218.873 198.463C219.033 198.603 219.218 198.713 219.428 198.793C219.638 198.873 219.863 198.913 220.103 198.913ZM237.859 199.753H236.539V195.373C236.539 194.553 236.404 193.948 236.134 193.558C235.874 193.168 235.484 192.973 234.964 192.973C234.424 192.973 233.939 193.168 233.509 193.558C233.089 193.938 232.789 194.433 232.609 195.043V199.753H231.289V195.373C231.289 194.533 231.159 193.923 230.899 193.543C230.639 193.163 230.249 192.973 229.729 192.973C229.199 192.973 228.719 193.163 228.289 193.543C227.859 193.913 227.554 194.408 227.374 195.028V199.753H226.054V191.923H227.254V193.603C227.574 193.023 227.989 192.578 228.499 192.268C229.009 191.948 229.584 191.788 230.224 191.788C230.884 191.788 231.404 191.968 231.784 192.328C232.174 192.678 232.414 193.133 232.504 193.693C233.204 192.423 234.199 191.788 235.489 191.788C235.939 191.788 236.314 191.873 236.614 192.043C236.924 192.203 237.169 192.433 237.349 192.733C237.529 193.023 237.659 193.368 237.739 193.768C237.819 194.168 237.859 194.603 237.859 195.073V199.753ZM243.376 199.903C242.786 199.903 242.246 199.798 241.756 199.588C241.266 199.368 240.846 199.073 240.496 198.703C240.146 198.333 239.871 197.903 239.671 197.413C239.481 196.913 239.386 196.388 239.386 195.838C239.386 195.288 239.481 194.768 239.671 194.278C239.871 193.788 240.146 193.358 240.496 192.988C240.856 192.618 241.281 192.328 241.771 192.118C242.261 191.898 242.801 191.788 243.391 191.788C243.981 191.788 244.516 191.898 244.996 192.118C245.486 192.338 245.901 192.633 246.241 193.003C246.581 193.363 246.841 193.788 247.021 194.278C247.211 194.758 247.306 195.258 247.306 195.778C247.306 195.888 247.301 195.988 247.291 196.078C247.291 196.168 247.286 196.238 247.276 196.288H240.781C240.811 196.678 240.901 197.033 241.051 197.353C241.201 197.673 241.396 197.948 241.636 198.178C241.876 198.408 242.146 198.588 242.446 198.718C242.756 198.848 243.081 198.913 243.421 198.913C243.661 198.913 243.896 198.883 244.126 198.823C244.356 198.753 244.571 198.663 244.771 198.553C244.971 198.443 245.146 198.308 245.296 198.148C245.456 197.988 245.576 197.808 245.656 197.608L246.796 197.923C246.666 198.213 246.486 198.478 246.256 198.718C246.036 198.958 245.776 199.168 245.476 199.348C245.186 199.518 244.861 199.653 244.501 199.753C244.141 199.853 243.766 199.903 243.376 199.903ZM246.061 195.313C246.031 194.943 245.936 194.603 245.776 194.293C245.626 193.973 245.431 193.703 245.191 193.483C244.961 193.263 244.691 193.093 244.381 192.973C244.071 192.843 243.741 192.778 243.391 192.778C243.041 192.778 242.711 192.843 242.401 192.973C242.091 193.093 241.816 193.268 241.576 193.498C241.346 193.718 241.156 193.983 241.006 194.293C240.866 194.603 240.781 194.943 240.751 195.313H246.061ZM252.75 199.363C252.67 199.403 252.565 199.453 252.435 199.513C252.305 199.563 252.155 199.618 251.985 199.678C251.825 199.728 251.645 199.768 251.445 199.798C251.255 199.838 251.055 199.858 250.845 199.858C250.365 199.858 249.95 199.728 249.6 199.468C249.25 199.198 249.075 198.783 249.075 198.223V192.958H248.01V191.923H249.075V189.313H250.395V191.923H252.15V192.958H250.395V197.818C250.415 198.108 250.51 198.318 250.68 198.448C250.85 198.578 251.05 198.643 251.28 198.643C251.54 198.643 251.775 198.603 251.985 198.523C252.205 198.433 252.355 198.363 252.435 198.313L252.75 199.363ZM254.019 200.968L254.319 199.633H253.869V198.073H255.114V199.633L254.664 200.968H254.019ZM60.4117 220.823C60.4117 220.273 60.5067 219.753 60.6967 219.263C60.8867 218.773 61.1567 218.348 61.5067 217.988C61.8567 217.618 62.2717 217.328 62.7517 217.118C63.2417 216.898 63.7867 216.788 64.3867 216.788C65.1667 216.788 65.8367 216.963 66.3967 217.313C66.9667 217.653 67.3967 218.113 67.6867 218.693L66.3967 219.098C66.1967 218.728 65.9167 218.443 65.5567 218.243C65.1967 218.033 64.7967 217.928 64.3567 217.928C63.9967 217.928 63.6567 218.003 63.3367 218.153C63.0167 218.293 62.7417 218.493 62.5117 218.753C62.2817 219.013 62.0967 219.318 61.9567 219.668C61.8267 220.018 61.7617 220.403 61.7617 220.823C61.7617 221.233 61.8317 221.618 61.9717 221.978C62.1117 222.338 62.2967 222.653 62.5267 222.923C62.7667 223.183 63.0417 223.388 63.3517 223.538C63.6717 223.688 64.0117 223.763 64.3717 223.763C64.6017 223.763 64.8267 223.733 65.0467 223.673C65.2767 223.603 65.4817 223.513 65.6617 223.403C65.8517 223.293 66.0167 223.168 66.1567 223.028C66.2967 222.878 66.3967 222.718 66.4567 222.548L67.7467 222.938C67.6267 223.228 67.4567 223.493 67.2367 223.733C67.0267 223.973 66.7767 224.178 66.4867 224.348C66.1967 224.518 65.8717 224.653 65.5117 224.753C65.1617 224.853 64.7917 224.903 64.4017 224.903C63.8117 224.903 63.2717 224.793 62.7817 224.573C62.2917 224.353 61.8717 224.058 61.5217 223.688C61.1717 223.318 60.8967 222.888 60.6967 222.398C60.5067 221.898 60.4117 221.373 60.4117 220.823ZM72.5891 224.903C71.9991 224.903 71.4591 224.793 70.9691 224.573C70.4891 224.353 70.0741 224.058 69.7241 223.688C69.3841 223.318 69.1191 222.888 68.9291 222.398C68.7391 221.908 68.6441 221.393 68.6441 220.853C68.6441 220.303 68.7391 219.783 68.9291 219.293C69.1291 218.803 69.3991 218.373 69.7391 218.003C70.0891 217.633 70.5041 217.338 70.9841 217.118C71.4741 216.898 72.0091 216.788 72.5891 216.788C73.1691 216.788 73.7041 216.898 74.1941 217.118C74.6841 217.338 75.0991 217.633 75.4391 218.003C75.7891 218.373 76.0591 218.803 76.2491 219.293C76.4491 219.783 76.5491 220.303 76.5491 220.853C76.5491 221.393 76.4541 221.908 76.2641 222.398C76.0741 222.888 75.8041 223.318 75.4541 223.688C75.1041 224.058 74.6841 224.353 74.1941 224.573C73.7141 224.793 73.1791 224.903 72.5891 224.903ZM69.9941 220.868C69.9941 221.278 70.0591 221.658 70.1891 222.008C70.3291 222.358 70.5141 222.663 70.7441 222.923C70.9841 223.183 71.2591 223.388 71.5691 223.538C71.8891 223.688 72.2291 223.763 72.5891 223.763C72.9491 223.763 73.2841 223.688 73.5941 223.538C73.9141 223.388 74.1941 223.183 74.4341 222.923C74.6741 222.653 74.8591 222.343 74.9891 221.993C75.1291 221.633 75.1991 221.248 75.1991 220.838C75.1991 220.438 75.1291 220.063 74.9891 219.713C74.8591 219.353 74.6741 219.043 74.4341 218.783C74.1941 218.513 73.9141 218.303 73.5941 218.153C73.2841 218.003 72.9491 217.928 72.5891 217.928C72.2291 217.928 71.8891 218.008 71.5691 218.168C71.2591 218.318 70.9841 218.528 70.7441 218.798C70.5141 219.058 70.3291 219.368 70.1891 219.728C70.0591 220.078 69.9941 220.458 69.9941 220.868ZM84.9436 224.753H83.6236V220.373C83.6236 219.533 83.4936 218.923 83.2336 218.543C82.9836 218.163 82.5986 217.973 82.0786 217.973C81.8086 217.973 81.5386 218.028 81.2686 218.138C80.9986 218.238 80.7436 218.378 80.5036 218.558C80.2636 218.738 80.0536 218.953 79.8736 219.203C79.6936 219.453 79.5586 219.728 79.4686 220.028V224.753H78.1486V216.923H79.3486V218.603C79.6586 218.053 80.1036 217.613 80.6836 217.283C81.2736 216.953 81.9136 216.788 82.6036 216.788C83.0536 216.788 83.4286 216.873 83.7286 217.043C84.0286 217.203 84.2686 217.433 84.4486 217.733C84.6286 218.023 84.7536 218.368 84.8236 218.768C84.9036 219.168 84.9436 219.603 84.9436 220.073V224.753ZM89.7413 224.903C89.1113 224.903 88.4913 224.808 87.8813 224.618C87.2713 224.418 86.7463 224.133 86.3063 223.763L86.8763 222.878C87.3363 223.228 87.7963 223.493 88.2563 223.673C88.7163 223.843 89.2013 223.928 89.7113 223.928C90.2813 223.928 90.7313 223.818 91.0613 223.598C91.4013 223.368 91.5713 223.048 91.5713 222.638C91.5713 222.448 91.5263 222.288 91.4363 222.158C91.3463 222.018 91.2113 221.898 91.0313 221.798C90.8513 221.698 90.6213 221.608 90.3413 221.528C90.0613 221.448 89.7363 221.363 89.3663 221.273C88.8963 221.153 88.4913 221.038 88.1513 220.928C87.8113 220.818 87.5313 220.688 87.3113 220.538C87.0913 220.388 86.9313 220.208 86.8313 219.998C86.7313 219.788 86.6813 219.528 86.6813 219.218C86.6813 218.828 86.7563 218.483 86.9063 218.183C87.0663 217.873 87.2813 217.618 87.5513 217.418C87.8213 217.208 88.1363 217.053 88.4963 216.953C88.8663 216.843 89.2613 216.788 89.6813 216.788C90.2713 216.788 90.8213 216.883 91.3313 217.073C91.8413 217.263 92.2713 217.513 92.6213 217.823L92.0213 218.618C91.6913 218.328 91.3213 218.113 90.9113 217.973C90.5013 217.823 90.0813 217.748 89.6513 217.748C89.1713 217.748 88.7613 217.853 88.4213 218.063C88.0913 218.263 87.9263 218.588 87.9263 219.038C87.9263 219.218 87.9563 219.368 88.0163 219.488C88.0863 219.608 88.1963 219.713 88.3463 219.803C88.4963 219.893 88.6863 219.973 88.9163 220.043C89.1563 220.113 89.4413 220.188 89.7713 220.268C90.2913 220.388 90.7413 220.513 91.1213 220.643C91.5113 220.763 91.8313 220.908 92.0813 221.078C92.3413 221.248 92.5313 221.448 92.6513 221.678C92.7813 221.908 92.8463 222.188 92.8463 222.518C92.8463 223.248 92.5663 223.828 92.0063 224.258C91.4463 224.688 90.6913 224.903 89.7413 224.903ZM97.8734 224.903C97.2834 224.903 96.7434 224.798 96.2534 224.588C95.7634 224.368 95.3434 224.073 94.9934 223.703C94.6434 223.333 94.3684 222.903 94.1684 222.413C93.9784 221.913 93.8834 221.388 93.8834 220.838C93.8834 220.288 93.9784 219.768 94.1684 219.278C94.3684 218.788 94.6434 218.358 94.9934 217.988C95.3534 217.618 95.7784 217.328 96.2684 217.118C96.7584 216.898 97.2984 216.788 97.8884 216.788C98.4784 216.788 99.0134 216.898 99.4934 217.118C99.9834 217.338 100.398 217.633 100.738 218.003C101.078 218.363 101.338 218.788 101.518 219.278C101.708 219.758 101.803 220.258 101.803 220.778C101.803 220.888 101.798 220.988 101.788 221.078C101.788 221.168 101.783 221.238 101.773 221.288H95.2784C95.3084 221.678 95.3984 222.033 95.5484 222.353C95.6984 222.673 95.8934 222.948 96.1334 223.178C96.3734 223.408 96.6434 223.588 96.9434 223.718C97.2534 223.848 97.5784 223.913 97.9184 223.913C98.1584 223.913 98.3934 223.883 98.6234 223.823C98.8534 223.753 99.0684 223.663 99.2684 223.553C99.4684 223.443 99.6434 223.308 99.7934 223.148C99.9534 222.988 100.073 222.808 100.153 222.608L101.293 222.923C101.163 223.213 100.983 223.478 100.753 223.718C100.533 223.958 100.273 224.168 99.9734 224.348C99.6834 224.518 99.3584 224.653 98.9984 224.753C98.6384 224.853 98.2634 224.903 97.8734 224.903ZM100.558 220.313C100.528 219.943 100.433 219.603 100.273 219.293C100.123 218.973 99.9284 218.703 99.6884 218.483C99.4584 218.263 99.1884 218.093 98.8784 217.973C98.5684 217.843 98.2384 217.778 97.8884 217.778C97.5384 217.778 97.2084 217.843 96.8984 217.973C96.5884 218.093 96.3134 218.268 96.0734 218.498C95.8434 218.718 95.6534 218.983 95.5034 219.293C95.3634 219.603 95.2784 219.943 95.2484 220.313H100.558ZM102.746 220.823C102.746 220.273 102.841 219.753 103.031 219.263C103.221 218.773 103.491 218.348 103.841 217.988C104.191 217.618 104.606 217.328 105.086 217.118C105.576 216.898 106.121 216.788 106.721 216.788C107.501 216.788 108.171 216.963 108.731 217.313C109.301 217.653 109.731 218.113 110.021 218.693L108.731 219.098C108.531 218.728 108.251 218.443 107.891 218.243C107.531 218.033 107.131 217.928 106.691 217.928C106.331 217.928 105.991 218.003 105.671 218.153C105.351 218.293 105.076 218.493 104.846 218.753C104.616 219.013 104.431 219.318 104.291 219.668C104.161 220.018 104.096 220.403 104.096 220.823C104.096 221.233 104.166 221.618 104.306 221.978C104.446 222.338 104.631 222.653 104.861 222.923C105.101 223.183 105.376 223.388 105.686 223.538C106.006 223.688 106.346 223.763 106.706 223.763C106.936 223.763 107.161 223.733 107.381 223.673C107.611 223.603 107.816 223.513 107.996 223.403C108.186 223.293 108.351 223.168 108.491 223.028C108.631 222.878 108.731 222.718 108.791 222.548L110.081 222.938C109.961 223.228 109.791 223.493 109.571 223.733C109.361 223.973 109.111 224.178 108.821 224.348C108.531 224.518 108.206 224.653 107.846 224.753C107.496 224.853 107.126 224.903 106.736 224.903C106.146 224.903 105.606 224.793 105.116 224.573C104.626 224.353 104.206 224.058 103.856 223.688C103.506 223.318 103.231 222.888 103.031 222.398C102.841 221.898 102.746 221.373 102.746 220.823ZM115.626 224.363C115.546 224.403 115.441 224.453 115.311 224.513C115.181 224.563 115.031 224.618 114.861 224.678C114.701 224.728 114.521 224.768 114.321 224.798C114.131 224.838 113.931 224.858 113.721 224.858C113.241 224.858 112.826 224.728 112.476 224.468C112.126 224.198 111.951 223.783 111.951 223.223V217.958H110.886V216.923H111.951V214.313H113.271V216.923H115.026V217.958H113.271V222.818C113.291 223.108 113.386 223.318 113.556 223.448C113.726 223.578 113.926 223.643 114.156 223.643C114.416 223.643 114.651 223.603 114.861 223.523C115.081 223.433 115.231 223.363 115.311 223.313L115.626 224.363ZM120.212 224.903C119.622 224.903 119.082 224.798 118.592 224.588C118.102 224.368 117.682 224.073 117.332 223.703C116.982 223.333 116.707 222.903 116.507 222.413C116.317 221.913 116.222 221.388 116.222 220.838C116.222 220.288 116.317 219.768 116.507 219.278C116.707 218.788 116.982 218.358 117.332 217.988C117.692 217.618 118.117 217.328 118.607 217.118C119.097 216.898 119.637 216.788 120.227 216.788C120.817 216.788 121.352 216.898 121.832 217.118C122.322 217.338 122.737 217.633 123.077 218.003C123.417 218.363 123.677 218.788 123.857 219.278C124.047 219.758 124.142 220.258 124.142 220.778C124.142 220.888 124.137 220.988 124.127 221.078C124.127 221.168 124.122 221.238 124.112 221.288H117.617C117.647 221.678 117.737 222.033 117.887 222.353C118.037 222.673 118.232 222.948 118.472 223.178C118.712 223.408 118.982 223.588 119.282 223.718C119.592 223.848 119.917 223.913 120.257 223.913C120.497 223.913 120.732 223.883 120.962 223.823C121.192 223.753 121.407 223.663 121.607 223.553C121.807 223.443 121.982 223.308 122.132 223.148C122.292 222.988 122.412 222.808 122.492 222.608L123.632 222.923C123.502 223.213 123.322 223.478 123.092 223.718C122.872 223.958 122.612 224.168 122.312 224.348C122.022 224.518 121.697 224.653 121.337 224.753C120.977 224.853 120.602 224.903 120.212 224.903ZM122.897 220.313C122.867 219.943 122.772 219.603 122.612 219.293C122.462 218.973 122.267 218.703 122.027 218.483C121.797 218.263 121.527 218.093 121.217 217.973C120.907 217.843 120.577 217.778 120.227 217.778C119.877 217.778 119.547 217.843 119.237 217.973C118.927 218.093 118.652 218.268 118.412 218.498C118.182 218.718 117.992 218.983 117.842 219.293C117.702 219.603 117.617 219.943 117.587 220.313H122.897ZM129.586 224.363C129.506 224.403 129.401 224.453 129.271 224.513C129.141 224.563 128.991 224.618 128.821 224.678C128.661 224.728 128.481 224.768 128.281 224.798C128.091 224.838 127.891 224.858 127.681 224.858C127.201 224.858 126.786 224.728 126.436 224.468C126.086 224.198 125.911 223.783 125.911 223.223V217.958H124.846V216.923H125.911V214.313H127.231V216.923H128.986V217.958H127.231V222.818C127.251 223.108 127.346 223.318 127.516 223.448C127.686 223.578 127.886 223.643 128.116 223.643C128.376 223.643 128.611 223.603 128.821 223.523C129.041 223.433 129.191 223.363 129.271 223.313L129.586 224.363ZM133.225 224.903C132.405 224.903 131.785 224.628 131.365 224.078C130.945 223.528 130.735 222.708 130.735 221.618V216.923H132.055V221.363C132.055 222.963 132.61 223.763 133.72 223.763C134.26 223.763 134.765 223.593 135.235 223.253C135.715 222.903 136.07 222.428 136.3 221.828V216.923H137.62V223.133C137.62 223.443 137.76 223.603 138.04 223.613V224.753C137.89 224.773 137.77 224.783 137.68 224.783C137.6 224.793 137.52 224.798 137.44 224.798C137.18 224.798 136.96 224.723 136.78 224.573C136.61 224.413 136.52 224.218 136.51 223.988L136.48 223.073C136.13 223.663 135.67 224.118 135.1 224.438C134.53 224.748 133.905 224.903 133.225 224.903ZM143.959 218.078C143.299 218.098 142.714 218.268 142.204 218.588C141.704 218.908 141.349 219.353 141.139 219.923V224.753H139.819V216.923H141.049V218.738C141.319 218.198 141.674 217.763 142.114 217.433C142.554 217.093 143.024 216.903 143.524 216.863C143.624 216.863 143.709 216.863 143.779 216.863C143.849 216.863 143.909 216.868 143.959 216.878V218.078ZM150.72 224.903C150.35 224.903 150.005 224.843 149.685 224.723C149.365 224.593 149.085 224.418 148.845 224.198C148.615 223.978 148.43 223.723 148.29 223.433C148.16 223.133 148.095 222.808 148.095 222.458C148.095 222.098 148.175 221.773 148.335 221.483C148.495 221.183 148.72 220.928 149.01 220.718C149.31 220.508 149.66 220.343 150.06 220.223C150.47 220.103 150.915 220.043 151.395 220.043C151.775 220.043 152.16 220.078 152.55 220.148C152.94 220.218 153.285 220.313 153.585 220.433V219.803C153.585 219.163 153.405 218.663 153.045 218.303C152.685 217.933 152.175 217.748 151.515 217.748C150.725 217.748 149.895 218.053 149.025 218.663L148.59 217.808C149.6 217.128 150.615 216.788 151.635 216.788C152.665 216.788 153.465 217.063 154.035 217.613C154.615 218.163 154.905 218.938 154.905 219.938V223.133C154.905 223.443 155.045 223.603 155.325 223.613V224.753C155.185 224.773 155.07 224.788 154.98 224.798C154.89 224.808 154.795 224.813 154.695 224.813C154.435 224.813 154.225 224.738 154.065 224.588C153.915 224.428 153.825 224.238 153.795 224.018L153.765 223.463C153.415 223.933 152.97 224.293 152.43 224.543C151.9 224.783 151.33 224.903 150.72 224.903ZM151.065 223.913C151.535 223.913 151.97 223.828 152.37 223.658C152.78 223.478 153.09 223.243 153.3 222.953C153.49 222.763 153.585 222.568 153.585 222.368V221.213C152.945 220.963 152.28 220.838 151.59 220.838C150.93 220.838 150.39 220.978 149.97 221.258C149.56 221.538 149.355 221.903 149.355 222.353C149.355 222.573 149.395 222.778 149.475 222.968C149.565 223.158 149.685 223.323 149.835 223.463C149.995 223.603 150.18 223.713 150.39 223.793C150.6 223.873 150.825 223.913 151.065 223.913ZM160.241 224.903C159.701 224.903 159.201 224.793 158.741 224.573C158.281 224.353 157.886 224.058 157.556 223.688C157.226 223.318 156.966 222.888 156.776 222.398C156.596 221.908 156.506 221.393 156.506 220.853C156.506 220.303 156.591 219.783 156.761 219.293C156.941 218.793 157.186 218.358 157.496 217.988C157.816 217.618 158.191 217.328 158.621 217.118C159.061 216.898 159.541 216.788 160.061 216.788C160.691 216.788 161.251 216.953 161.741 217.283C162.241 217.613 162.636 218.013 162.926 218.483V213.803H164.246V223.133C164.246 223.443 164.386 223.603 164.666 223.613V224.753C164.526 224.773 164.411 224.788 164.321 224.798C164.241 224.808 164.161 224.813 164.081 224.813C163.821 224.813 163.591 224.728 163.391 224.558C163.201 224.378 163.106 224.173 163.106 223.943V223.283C162.796 223.793 162.381 224.193 161.861 224.483C161.351 224.763 160.811 224.903 160.241 224.903ZM160.556 223.763C160.796 223.763 161.041 223.718 161.291 223.628C161.551 223.538 161.791 223.413 162.011 223.253C162.241 223.093 162.436 222.908 162.596 222.698C162.766 222.478 162.876 222.248 162.926 222.008V219.758C162.836 219.508 162.701 219.273 162.521 219.053C162.341 218.823 162.136 218.628 161.906 218.468C161.686 218.298 161.446 218.168 161.186 218.078C160.936 217.978 160.686 217.928 160.436 217.928C160.046 217.928 159.691 218.013 159.371 218.183C159.061 218.343 158.791 218.563 158.561 218.843C158.341 219.113 158.171 219.428 158.051 219.788C157.931 220.138 157.871 220.498 157.871 220.868C157.871 221.258 157.941 221.633 158.081 221.993C158.221 222.343 158.411 222.648 158.651 222.908C158.891 223.168 159.171 223.378 159.491 223.538C159.821 223.688 160.176 223.763 160.556 223.763ZM166.449 224.753V216.923H167.769V224.753H166.449ZM166.449 215.453V213.803H167.769V215.453H166.449ZM174.121 224.903C173.471 224.903 172.896 224.743 172.396 224.423C171.906 224.103 171.516 223.698 171.226 223.208V227.948H169.906V216.923H171.076V218.393C171.386 217.913 171.786 217.528 172.276 217.238C172.776 216.938 173.326 216.788 173.926 216.788C174.466 216.788 174.961 216.898 175.411 217.118C175.861 217.338 176.251 217.638 176.581 218.018C176.911 218.388 177.166 218.818 177.346 219.308C177.536 219.798 177.631 220.308 177.631 220.838C177.631 221.398 177.546 221.928 177.376 222.428C177.206 222.918 176.966 223.348 176.656 223.718C176.346 224.078 175.976 224.368 175.546 224.588C175.116 224.798 174.641 224.903 174.121 224.903ZM173.716 223.763C174.106 223.763 174.456 223.683 174.766 223.523C175.086 223.353 175.356 223.133 175.576 222.863C175.806 222.583 175.981 222.268 176.101 221.918C176.221 221.568 176.281 221.208 176.281 220.838C176.281 220.448 176.211 220.078 176.071 219.728C175.931 219.368 175.741 219.058 175.501 218.798C175.261 218.528 174.976 218.318 174.646 218.168C174.326 218.008 173.976 217.928 173.596 217.928C173.356 217.928 173.106 217.978 172.846 218.078C172.596 218.168 172.356 218.293 172.126 218.453C171.906 218.603 171.711 218.788 171.541 219.008C171.381 219.218 171.276 219.443 171.226 219.683V221.918C171.336 222.178 171.476 222.423 171.646 222.653C171.816 222.873 172.011 223.068 172.231 223.238C172.451 223.398 172.686 223.528 172.936 223.628C173.186 223.718 173.446 223.763 173.716 223.763ZM179.252 224.753V216.923H180.572V224.753H179.252ZM179.252 215.453V213.803H180.572V215.453H179.252ZM185.454 224.903C184.824 224.903 184.204 224.808 183.594 224.618C182.984 224.418 182.459 224.133 182.019 223.763L182.589 222.878C183.049 223.228 183.509 223.493 183.969 223.673C184.429 223.843 184.914 223.928 185.424 223.928C185.994 223.928 186.444 223.818 186.774 223.598C187.114 223.368 187.284 223.048 187.284 222.638C187.284 222.448 187.239 222.288 187.149 222.158C187.059 222.018 186.924 221.898 186.744 221.798C186.564 221.698 186.334 221.608 186.054 221.528C185.774 221.448 185.449 221.363 185.079 221.273C184.609 221.153 184.204 221.038 183.864 220.928C183.524 220.818 183.244 220.688 183.024 220.538C182.804 220.388 182.644 220.208 182.544 219.998C182.444 219.788 182.394 219.528 182.394 219.218C182.394 218.828 182.469 218.483 182.619 218.183C182.779 217.873 182.994 217.618 183.264 217.418C183.534 217.208 183.849 217.053 184.209 216.953C184.579 216.843 184.974 216.788 185.394 216.788C185.984 216.788 186.534 216.883 187.044 217.073C187.554 217.263 187.984 217.513 188.334 217.823L187.734 218.618C187.404 218.328 187.034 218.113 186.624 217.973C186.214 217.823 185.794 217.748 185.364 217.748C184.884 217.748 184.474 217.853 184.134 218.063C183.804 218.263 183.639 218.588 183.639 219.038C183.639 219.218 183.669 219.368 183.729 219.488C183.799 219.608 183.909 219.713 184.059 219.803C184.209 219.893 184.399 219.973 184.629 220.043C184.869 220.113 185.154 220.188 185.484 220.268C186.004 220.388 186.454 220.513 186.834 220.643C187.224 220.763 187.544 220.908 187.794 221.078C188.054 221.248 188.244 221.448 188.364 221.678C188.494 221.908 188.559 222.188 188.559 222.518C188.559 223.248 188.279 223.828 187.719 224.258C187.159 224.688 186.404 224.903 185.454 224.903ZM190.121 224.753V216.923H191.441V224.753H190.121ZM190.121 215.453V213.803H191.441V215.453H190.121ZM193.053 220.823C193.053 220.273 193.148 219.753 193.338 219.263C193.528 218.773 193.798 218.348 194.148 217.988C194.498 217.618 194.913 217.328 195.393 217.118C195.883 216.898 196.428 216.788 197.028 216.788C197.808 216.788 198.478 216.963 199.038 217.313C199.608 217.653 200.038 218.113 200.328 218.693L199.038 219.098C198.838 218.728 198.558 218.443 198.198 218.243C197.838 218.033 197.438 217.928 196.998 217.928C196.638 217.928 196.298 218.003 195.978 218.153C195.658 218.293 195.383 218.493 195.153 218.753C194.923 219.013 194.738 219.318 194.598 219.668C194.468 220.018 194.403 220.403 194.403 220.823C194.403 221.233 194.473 221.618 194.613 221.978C194.753 222.338 194.938 222.653 195.168 222.923C195.408 223.183 195.683 223.388 195.993 223.538C196.313 223.688 196.653 223.763 197.013 223.763C197.243 223.763 197.468 223.733 197.688 223.673C197.918 223.603 198.123 223.513 198.303 223.403C198.493 223.293 198.658 223.168 198.798 223.028C198.938 222.878 199.038 222.718 199.098 222.548L200.388 222.938C200.268 223.228 200.098 223.493 199.878 223.733C199.668 223.973 199.418 224.178 199.128 224.348C198.838 224.518 198.513 224.653 198.153 224.753C197.803 224.853 197.433 224.903 197.043 224.903C196.453 224.903 195.913 224.793 195.423 224.573C194.933 224.353 194.513 224.058 194.163 223.688C193.813 223.318 193.538 222.888 193.338 222.398C193.148 221.898 193.053 221.373 193.053 220.823ZM201.884 224.753V216.923H203.204V224.753H201.884ZM201.884 215.453V213.803H203.204V215.453H201.884ZM212.136 224.753H210.816V220.373C210.816 219.533 210.686 218.923 210.426 218.543C210.176 218.163 209.791 217.973 209.271 217.973C209.001 217.973 208.731 218.028 208.461 218.138C208.191 218.238 207.936 218.378 207.696 218.558C207.456 218.738 207.246 218.953 207.066 219.203C206.886 219.453 206.751 219.728 206.661 220.028V224.753H205.341V216.923H206.541V218.603C206.851 218.053 207.296 217.613 207.876 217.283C208.466 216.953 209.106 216.788 209.796 216.788C210.246 216.788 210.621 216.873 210.921 217.043C211.221 217.203 211.461 217.433 211.641 217.733C211.821 218.023 211.946 218.368 212.016 218.768C212.096 219.168 212.136 219.603 212.136 220.073V224.753ZM217.309 224.843C216.779 224.843 216.289 224.733 215.839 224.513C215.399 224.293 215.019 223.998 214.699 223.628C214.379 223.258 214.129 222.833 213.949 222.353C213.779 221.873 213.694 221.373 213.694 220.853C213.694 220.303 213.779 219.783 213.949 219.293C214.129 218.793 214.379 218.358 214.699 217.988C215.019 217.618 215.399 217.328 215.839 217.118C216.289 216.898 216.784 216.788 217.324 216.788C217.984 216.788 218.554 216.948 219.034 217.268C219.514 217.588 219.919 217.993 220.249 218.483V216.923H221.419V224.663C221.419 225.223 221.314 225.713 221.104 226.133C220.894 226.563 220.609 226.923 220.249 227.213C219.889 227.503 219.464 227.723 218.974 227.873C218.494 228.023 217.979 228.098 217.429 228.098C216.539 228.098 215.814 227.943 215.254 227.633C214.704 227.333 214.244 226.913 213.874 226.373L214.639 225.698C214.949 226.158 215.349 226.503 215.839 226.733C216.329 226.963 216.859 227.078 217.429 227.078C217.789 227.078 218.129 227.028 218.449 226.928C218.779 226.828 219.064 226.678 219.304 226.478C219.544 226.278 219.734 226.028 219.874 225.728C220.024 225.428 220.099 225.073 220.099 224.663V223.283C219.949 223.523 219.769 223.743 219.559 223.943C219.359 224.133 219.139 224.298 218.899 224.438C218.659 224.568 218.404 224.668 218.134 224.738C217.864 224.808 217.589 224.843 217.309 224.843ZM217.714 223.763C217.994 223.763 218.264 223.713 218.524 223.613C218.784 223.513 219.024 223.383 219.244 223.223C219.464 223.053 219.649 222.863 219.799 222.653C219.949 222.443 220.049 222.228 220.099 222.008V219.758C219.989 219.488 219.844 219.243 219.664 219.023C219.494 218.803 219.299 218.613 219.079 218.453C218.859 218.283 218.619 218.153 218.359 218.063C218.109 217.973 217.854 217.928 217.594 217.928C217.194 217.928 216.834 218.013 216.514 218.183C216.204 218.353 215.939 218.578 215.719 218.858C215.499 219.138 215.329 219.458 215.209 219.818C215.089 220.168 215.029 220.523 215.029 220.883C215.029 221.273 215.099 221.643 215.239 221.993C215.379 222.343 215.569 222.648 215.809 222.908C216.049 223.168 216.329 223.378 216.649 223.538C216.979 223.688 217.334 223.763 217.714 223.763ZM230.808 224.903C230.218 224.903 229.678 224.798 229.188 224.588C228.698 224.368 228.278 224.073 227.928 223.703C227.578 223.333 227.303 222.903 227.103 222.413C226.913 221.913 226.818 221.388 226.818 220.838C226.818 220.288 226.913 219.768 227.103 219.278C227.303 218.788 227.578 218.358 227.928 217.988C228.288 217.618 228.713 217.328 229.203 217.118C229.693 216.898 230.233 216.788 230.823 216.788C231.413 216.788 231.948 216.898 232.428 217.118C232.918 217.338 233.333 217.633 233.673 218.003C234.013 218.363 234.273 218.788 234.453 219.278C234.643 219.758 234.738 220.258 234.738 220.778C234.738 220.888 234.733 220.988 234.723 221.078C234.723 221.168 234.718 221.238 234.708 221.288H228.213C228.243 221.678 228.333 222.033 228.483 222.353C228.633 222.673 228.828 222.948 229.068 223.178C229.308 223.408 229.578 223.588 229.878 223.718C230.188 223.848 230.513 223.913 230.853 223.913C231.093 223.913 231.328 223.883 231.558 223.823C231.788 223.753 232.003 223.663 232.203 223.553C232.403 223.443 232.578 223.308 232.728 223.148C232.888 222.988 233.008 222.808 233.088 222.608L234.228 222.923C234.098 223.213 233.918 223.478 233.688 223.718C233.468 223.958 233.208 224.168 232.908 224.348C232.618 224.518 232.293 224.653 231.933 224.753C231.573 224.853 231.198 224.903 230.808 224.903ZM233.493 220.313C233.463 219.943 233.368 219.603 233.208 219.293C233.058 218.973 232.863 218.703 232.623 218.483C232.393 218.263 232.123 218.093 231.813 217.973C231.503 217.843 231.173 217.778 230.823 217.778C230.473 217.778 230.143 217.843 229.833 217.973C229.523 218.093 229.248 218.268 229.008 218.498C228.778 218.718 228.588 218.983 228.438 219.293C228.298 219.603 228.213 219.943 228.183 220.313H233.493ZM236.235 213.803H237.555V222.728C237.555 223.018 237.63 223.248 237.78 223.418C237.94 223.578 238.16 223.658 238.44 223.658C238.55 223.658 238.68 223.643 238.83 223.613C238.98 223.573 239.12 223.528 239.25 223.478L239.46 224.543C239.24 224.633 238.98 224.708 238.68 224.768C238.38 224.828 238.115 224.858 237.885 224.858C237.375 224.858 236.97 224.713 236.67 224.423C236.38 224.133 236.235 223.728 236.235 223.208V213.803ZM240.497 224.753V216.923H241.817V224.753H240.497ZM240.497 215.453V213.803H241.817V215.453H240.497ZM248.004 224.363C247.924 224.403 247.819 224.453 247.689 224.513C247.559 224.563 247.409 224.618 247.239 224.678C247.079 224.728 246.899 224.768 246.699 224.798C246.509 224.838 246.309 224.858 246.099 224.858C245.619 224.858 245.204 224.728 244.854 224.468C244.504 224.198 244.329 223.783 244.329 223.223V217.958H243.264V216.923H244.329V214.313H245.649V216.923H247.404V217.958H245.649V222.818C245.669 223.108 245.764 223.318 245.934 223.448C246.104 223.578 246.304 223.643 246.534 223.643C246.794 223.643 247.029 223.603 247.239 223.523C247.459 223.433 247.609 223.363 247.689 223.313L248.004 224.363ZM249.273 225.968L249.573 224.633H249.123V223.073H250.368V224.633L249.918 225.968H249.273ZM63.6817 249.903C63.0517 249.903 62.4317 249.808 61.8217 249.618C61.2117 249.418 60.6867 249.133 60.2467 248.763L60.8167 247.878C61.2767 248.228 61.7367 248.493 62.1967 248.673C62.6567 248.843 63.1417 248.928 63.6517 248.928C64.2217 248.928 64.6717 248.818 65.0017 248.598C65.3417 248.368 65.5117 248.048 65.5117 247.638C65.5117 247.448 65.4667 247.288 65.3767 247.158C65.2867 247.018 65.1517 246.898 64.9717 246.798C64.7917 246.698 64.5617 246.608 64.2817 246.528C64.0017 246.448 63.6767 246.363 63.3067 246.273C62.8367 246.153 62.4317 246.038 62.0917 245.928C61.7517 245.818 61.4717 245.688 61.2517 245.538C61.0317 245.388 60.8717 245.208 60.7717 244.998C60.6717 244.788 60.6217 244.528 60.6217 244.218C60.6217 243.828 60.6967 243.483 60.8467 243.183C61.0067 242.873 61.2217 242.618 61.4917 242.418C61.7617 242.208 62.0767 242.053 62.4367 241.953C62.8067 241.843 63.2017 241.788 63.6217 241.788C64.2117 241.788 64.7617 241.883 65.2717 242.073C65.7817 242.263 66.2117 242.513 66.5617 242.823L65.9617 243.618C65.6317 243.328 65.2617 243.113 64.8517 242.973C64.4417 242.823 64.0217 242.748 63.5917 242.748C63.1117 242.748 62.7017 242.853 62.3617 243.063C62.0317 243.263 61.8667 243.588 61.8667 244.038C61.8667 244.218 61.8967 244.368 61.9567 244.488C62.0267 244.608 62.1367 244.713 62.2867 244.803C62.4367 244.893 62.6267 244.973 62.8567 245.043C63.0967 245.113 63.3817 245.188 63.7117 245.268C64.2317 245.388 64.6817 245.513 65.0617 245.643C65.4517 245.763 65.7717 245.908 66.0217 246.078C66.2817 246.248 66.4717 246.448 66.5917 246.678C66.7217 246.908 66.7867 247.188 66.7867 247.518C66.7867 248.248 66.5067 248.828 65.9467 249.258C65.3867 249.688 64.6317 249.903 63.6817 249.903ZM71.8138 249.903C71.2238 249.903 70.6838 249.798 70.1938 249.588C69.7038 249.368 69.2838 249.073 68.9338 248.703C68.5838 248.333 68.3088 247.903 68.1088 247.413C67.9188 246.913 67.8238 246.388 67.8238 245.838C67.8238 245.288 67.9188 244.768 68.1088 244.278C68.3088 243.788 68.5838 243.358 68.9338 242.988C69.2938 242.618 69.7188 242.328 70.2088 242.118C70.6988 241.898 71.2388 241.788 71.8288 241.788C72.4188 241.788 72.9538 241.898 73.4338 242.118C73.9238 242.338 74.3388 242.633 74.6788 243.003C75.0188 243.363 75.2788 243.788 75.4588 244.278C75.6488 244.758 75.7438 245.258 75.7438 245.778C75.7438 245.888 75.7388 245.988 75.7288 246.078C75.7288 246.168 75.7238 246.238 75.7138 246.288H69.2188C69.2488 246.678 69.3388 247.033 69.4888 247.353C69.6388 247.673 69.8338 247.948 70.0738 248.178C70.3138 248.408 70.5838 248.588 70.8838 248.718C71.1938 248.848 71.5188 248.913 71.8588 248.913C72.0988 248.913 72.3338 248.883 72.5638 248.823C72.7938 248.753 73.0088 248.663 73.2088 248.553C73.4088 248.443 73.5838 248.308 73.7338 248.148C73.8938 247.988 74.0138 247.808 74.0938 247.608L75.2338 247.923C75.1038 248.213 74.9238 248.478 74.6938 248.718C74.4738 248.958 74.2138 249.168 73.9138 249.348C73.6238 249.518 73.2988 249.653 72.9388 249.753C72.5788 249.853 72.2038 249.903 71.8138 249.903ZM74.4988 245.313C74.4688 244.943 74.3738 244.603 74.2138 244.293C74.0638 243.973 73.8688 243.703 73.6288 243.483C73.3988 243.263 73.1288 243.093 72.8188 242.973C72.5088 242.843 72.1788 242.778 71.8288 242.778C71.4788 242.778 71.1488 242.843 70.8388 242.973C70.5288 243.093 70.2538 243.268 70.0138 243.498C69.7838 243.718 69.5938 243.983 69.4438 244.293C69.3038 244.603 69.2188 244.943 69.1888 245.313H74.4988ZM80.4361 249.903C79.8961 249.903 79.3961 249.793 78.9361 249.573C78.4761 249.353 78.0811 249.058 77.7511 248.688C77.4211 248.318 77.1611 247.888 76.9711 247.398C76.7911 246.908 76.7011 246.393 76.7011 245.853C76.7011 245.303 76.7861 244.783 76.9561 244.293C77.1361 243.793 77.3811 243.358 77.6911 242.988C78.0111 242.618 78.3861 242.328 78.8161 242.118C79.2561 241.898 79.7361 241.788 80.2561 241.788C80.8861 241.788 81.4461 241.953 81.9361 242.283C82.4361 242.613 82.8311 243.013 83.1211 243.483V238.803H84.4411V248.133C84.4411 248.443 84.5811 248.603 84.8611 248.613V249.753C84.7211 249.773 84.6061 249.788 84.5161 249.798C84.4361 249.808 84.3561 249.813 84.2761 249.813C84.0161 249.813 83.7861 249.728 83.5861 249.558C83.3961 249.378 83.3011 249.173 83.3011 248.943V248.283C82.9911 248.793 82.5761 249.193 82.0561 249.483C81.5461 249.763 81.0061 249.903 80.4361 249.903ZM80.7511 248.763C80.9911 248.763 81.2361 248.718 81.4861 248.628C81.7461 248.538 81.9861 248.413 82.2061 248.253C82.4361 248.093 82.6311 247.908 82.7911 247.698C82.9611 247.478 83.0711 247.248 83.1211 247.008V244.758C83.0311 244.508 82.8961 244.273 82.7161 244.053C82.5361 243.823 82.3311 243.628 82.1011 243.468C81.8811 243.298 81.6411 243.168 81.3811 243.078C81.1311 242.978 80.8811 242.928 80.6311 242.928C80.2411 242.928 79.8861 243.013 79.5661 243.183C79.2561 243.343 78.9861 243.563 78.7561 243.843C78.5361 244.113 78.3661 244.428 78.2461 244.788C78.1261 245.138 78.0661 245.498 78.0661 245.868C78.0661 246.258 78.1361 246.633 78.2761 246.993C78.4161 247.343 78.6061 247.648 78.8461 247.908C79.0861 248.168 79.3661 248.378 79.6861 248.538C80.0161 248.688 80.3711 248.763 80.7511 248.763ZM93.6637 249.903C93.1237 249.903 92.6237 249.793 92.1637 249.573C91.7037 249.353 91.3087 249.058 90.9787 248.688C90.6487 248.318 90.3887 247.888 90.1987 247.398C90.0187 246.908 89.9287 246.393 89.9287 245.853C89.9287 245.303 90.0137 244.783 90.1837 244.293C90.3637 243.793 90.6087 243.358 90.9187 242.988C91.2387 242.618 91.6137 242.328 92.0437 242.118C92.4837 241.898 92.9637 241.788 93.4837 241.788C94.1137 241.788 94.6737 241.953 95.1637 242.283C95.6637 242.613 96.0587 243.013 96.3487 243.483V238.803H97.6687V248.133C97.6687 248.443 97.8087 248.603 98.0887 248.613V249.753C97.9487 249.773 97.8337 249.788 97.7437 249.798C97.6637 249.808 97.5837 249.813 97.5037 249.813C97.2437 249.813 97.0137 249.728 96.8137 249.558C96.6237 249.378 96.5287 249.173 96.5287 248.943V248.283C96.2187 248.793 95.8037 249.193 95.2837 249.483C94.7737 249.763 94.2337 249.903 93.6637 249.903ZM93.9787 248.763C94.2187 248.763 94.4637 248.718 94.7137 248.628C94.9737 248.538 95.2137 248.413 95.4337 248.253C95.6637 248.093 95.8587 247.908 96.0187 247.698C96.1887 247.478 96.2987 247.248 96.3487 247.008V244.758C96.2587 244.508 96.1237 244.273 95.9437 244.053C95.7637 243.823 95.5587 243.628 95.3287 243.468C95.1087 243.298 94.8687 243.168 94.6087 243.078C94.3587 242.978 94.1087 242.928 93.8587 242.928C93.4687 242.928 93.1137 243.013 92.7937 243.183C92.4837 243.343 92.2137 243.563 91.9837 243.843C91.7637 244.113 91.5937 244.428 91.4737 244.788C91.3537 245.138 91.2937 245.498 91.2937 245.868C91.2937 246.258 91.3637 246.633 91.5037 246.993C91.6437 247.343 91.8337 247.648 92.0737 247.908C92.3137 248.168 92.5937 248.378 92.9137 248.538C93.2437 248.688 93.5987 248.763 93.9787 248.763ZM103.292 249.903C102.702 249.903 102.162 249.793 101.672 249.573C101.192 249.353 100.777 249.058 100.427 248.688C100.087 248.318 99.8223 247.888 99.6323 247.398C99.4423 246.908 99.3473 246.393 99.3473 245.853C99.3473 245.303 99.4423 244.783 99.6323 244.293C99.8323 243.803 100.102 243.373 100.442 243.003C100.792 242.633 101.207 242.338 101.687 242.118C102.177 241.898 102.712 241.788 103.292 241.788C103.872 241.788 104.407 241.898 104.897 242.118C105.387 242.338 105.802 242.633 106.142 243.003C106.492 243.373 106.762 243.803 106.952 244.293C107.152 244.783 107.252 245.303 107.252 245.853C107.252 246.393 107.157 246.908 106.967 247.398C106.777 247.888 106.507 248.318 106.157 248.688C105.807 249.058 105.387 249.353 104.897 249.573C104.417 249.793 103.882 249.903 103.292 249.903ZM100.697 245.868C100.697 246.278 100.762 246.658 100.892 247.008C101.032 247.358 101.217 247.663 101.447 247.923C101.687 248.183 101.962 248.388 102.272 248.538C102.592 248.688 102.932 248.763 103.292 248.763C103.652 248.763 103.987 248.688 104.297 248.538C104.617 248.388 104.897 248.183 105.137 247.923C105.377 247.653 105.562 247.343 105.692 246.993C105.832 246.633 105.902 246.248 105.902 245.838C105.902 245.438 105.832 245.063 105.692 244.713C105.562 244.353 105.377 244.043 105.137 243.783C104.897 243.513 104.617 243.303 104.297 243.153C103.987 243.003 103.652 242.928 103.292 242.928C102.932 242.928 102.592 243.008 102.272 243.168C101.962 243.318 101.687 243.528 101.447 243.798C101.217 244.058 101.032 244.368 100.892 244.728C100.762 245.078 100.697 245.458 100.697 245.868ZM116.111 249.903C115.521 249.903 114.981 249.798 114.491 249.588C114.001 249.368 113.581 249.073 113.231 248.703C112.881 248.333 112.606 247.903 112.406 247.413C112.216 246.913 112.121 246.388 112.121 245.838C112.121 245.288 112.216 244.768 112.406 244.278C112.606 243.788 112.881 243.358 113.231 242.988C113.591 242.618 114.016 242.328 114.506 242.118C114.996 241.898 115.536 241.788 116.126 241.788C116.716 241.788 117.251 241.898 117.731 242.118C118.221 242.338 118.636 242.633 118.976 243.003C119.316 243.363 119.576 243.788 119.756 244.278C119.946 244.758 120.041 245.258 120.041 245.778C120.041 245.888 120.036 245.988 120.026 246.078C120.026 246.168 120.021 246.238 120.011 246.288H113.516C113.546 246.678 113.636 247.033 113.786 247.353C113.936 247.673 114.131 247.948 114.371 248.178C114.611 248.408 114.881 248.588 115.181 248.718C115.491 248.848 115.816 248.913 116.156 248.913C116.396 248.913 116.631 248.883 116.861 248.823C117.091 248.753 117.306 248.663 117.506 248.553C117.706 248.443 117.881 248.308 118.031 248.148C118.191 247.988 118.311 247.808 118.391 247.608L119.531 247.923C119.401 248.213 119.221 248.478 118.991 248.718C118.771 248.958 118.511 249.168 118.211 249.348C117.921 249.518 117.596 249.653 117.236 249.753C116.876 249.853 116.501 249.903 116.111 249.903ZM118.796 245.313C118.766 244.943 118.671 244.603 118.511 244.293C118.361 243.973 118.166 243.703 117.926 243.483C117.696 243.263 117.426 243.093 117.116 242.973C116.806 242.843 116.476 242.778 116.126 242.778C115.776 242.778 115.446 242.843 115.136 242.973C114.826 243.093 114.551 243.268 114.311 243.498C114.081 243.718 113.891 243.983 113.741 244.293C113.601 244.603 113.516 244.943 113.486 245.313H118.796ZM121.508 249.753V241.923H122.828V249.753H121.508ZM121.508 240.453V238.803H122.828V240.453H121.508ZM127.38 249.903C126.56 249.903 125.94 249.628 125.52 249.078C125.1 248.528 124.89 247.708 124.89 246.618V241.923H126.21V246.363C126.21 247.963 126.765 248.763 127.875 248.763C128.415 248.763 128.92 248.593 129.39 248.253C129.87 247.903 130.225 247.428 130.455 246.828V241.923H131.775V248.133C131.775 248.443 131.915 248.603 132.195 248.613V249.753C132.045 249.773 131.925 249.783 131.835 249.783C131.755 249.793 131.675 249.798 131.595 249.798C131.335 249.798 131.115 249.723 130.935 249.573C130.765 249.413 130.675 249.218 130.665 248.988L130.635 248.073C130.285 248.663 129.825 249.118 129.255 249.438C128.685 249.748 128.06 249.903 127.38 249.903ZM136.719 249.903C136.089 249.903 135.469 249.808 134.859 249.618C134.249 249.418 133.724 249.133 133.284 248.763L133.854 247.878C134.314 248.228 134.774 248.493 135.234 248.673C135.694 248.843 136.179 248.928 136.689 248.928C137.259 248.928 137.709 248.818 138.039 248.598C138.379 248.368 138.549 248.048 138.549 247.638C138.549 247.448 138.504 247.288 138.414 247.158C138.324 247.018 138.189 246.898 138.009 246.798C137.829 246.698 137.599 246.608 137.319 246.528C137.039 246.448 136.714 246.363 136.344 246.273C135.874 246.153 135.469 246.038 135.129 245.928C134.789 245.818 134.509 245.688 134.289 245.538C134.069 245.388 133.909 245.208 133.809 244.998C133.709 244.788 133.659 244.528 133.659 244.218C133.659 243.828 133.734 243.483 133.884 243.183C134.044 242.873 134.259 242.618 134.529 242.418C134.799 242.208 135.114 242.053 135.474 241.953C135.844 241.843 136.239 241.788 136.659 241.788C137.249 241.788 137.799 241.883 138.309 242.073C138.819 242.263 139.249 242.513 139.599 242.823L138.999 243.618C138.669 243.328 138.299 243.113 137.889 242.973C137.479 242.823 137.059 242.748 136.629 242.748C136.149 242.748 135.739 242.853 135.399 243.063C135.069 243.263 134.904 243.588 134.904 244.038C134.904 244.218 134.934 244.368 134.994 244.488C135.064 244.608 135.174 244.713 135.324 244.803C135.474 244.893 135.664 244.973 135.894 245.043C136.134 245.113 136.419 245.188 136.749 245.268C137.269 245.388 137.719 245.513 138.099 245.643C138.489 245.763 138.809 245.908 139.059 246.078C139.319 246.248 139.509 246.448 139.629 246.678C139.759 246.908 139.824 247.188 139.824 247.518C139.824 248.248 139.544 248.828 138.984 249.258C138.424 249.688 137.669 249.903 136.719 249.903ZM153.191 249.753H151.871V245.373C151.871 244.553 151.736 243.948 151.466 243.558C151.206 243.168 150.816 242.973 150.296 242.973C149.756 242.973 149.271 243.168 148.841 243.558C148.421 243.938 148.121 244.433 147.941 245.043V249.753H146.621V245.373C146.621 244.533 146.491 243.923 146.231 243.543C145.971 243.163 145.581 242.973 145.061 242.973C144.531 242.973 144.051 243.163 143.621 243.543C143.191 243.913 142.886 244.408 142.706 245.028V249.753H141.386V241.923H142.586V243.603C142.906 243.023 143.321 242.578 143.831 242.268C144.341 241.948 144.916 241.788 145.556 241.788C146.216 241.788 146.736 241.968 147.116 242.328C147.506 242.678 147.746 243.133 147.836 243.693C148.536 242.423 149.531 241.788 150.821 241.788C151.271 241.788 151.646 241.873 151.946 242.043C152.256 242.203 152.501 242.433 152.681 242.733C152.861 243.023 152.991 243.368 153.071 243.768C153.151 244.168 153.191 244.603 153.191 245.073V249.753ZM158.663 249.903C158.073 249.903 157.533 249.793 157.043 249.573C156.563 249.353 156.148 249.058 155.798 248.688C155.458 248.318 155.193 247.888 155.003 247.398C154.813 246.908 154.718 246.393 154.718 245.853C154.718 245.303 154.813 244.783 155.003 244.293C155.203 243.803 155.473 243.373 155.813 243.003C156.163 242.633 156.578 242.338 157.058 242.118C157.548 241.898 158.083 241.788 158.663 241.788C159.243 241.788 159.778 241.898 160.268 242.118C160.758 242.338 161.173 242.633 161.513 243.003C161.863 243.373 162.133 243.803 162.323 244.293C162.523 244.783 162.623 245.303 162.623 245.853C162.623 246.393 162.528 246.908 162.338 247.398C162.148 247.888 161.878 248.318 161.528 248.688C161.178 249.058 160.758 249.353 160.268 249.573C159.788 249.793 159.253 249.903 158.663 249.903ZM156.068 245.868C156.068 246.278 156.133 246.658 156.263 247.008C156.403 247.358 156.588 247.663 156.818 247.923C157.058 248.183 157.333 248.388 157.643 248.538C157.963 248.688 158.303 248.763 158.663 248.763C159.023 248.763 159.358 248.688 159.668 248.538C159.988 248.388 160.268 248.183 160.508 247.923C160.748 247.653 160.933 247.343 161.063 246.993C161.203 246.633 161.273 246.248 161.273 245.838C161.273 245.438 161.203 245.063 161.063 244.713C160.933 244.353 160.748 244.043 160.508 243.783C160.268 243.513 159.988 243.303 159.668 243.153C159.358 243.003 159.023 242.928 158.663 242.928C158.303 242.928 157.963 243.008 157.643 243.168C157.333 243.318 157.058 243.528 156.818 243.798C156.588 244.058 156.403 244.368 156.263 244.728C156.133 245.078 156.068 245.458 156.068 245.868ZM167.448 249.903C166.908 249.903 166.408 249.793 165.948 249.573C165.488 249.353 165.093 249.058 164.763 248.688C164.433 248.318 164.173 247.888 163.983 247.398C163.803 246.908 163.713 246.393 163.713 245.853C163.713 245.303 163.798 244.783 163.968 244.293C164.148 243.793 164.393 243.358 164.703 242.988C165.023 242.618 165.398 242.328 165.828 242.118C166.268 241.898 166.748 241.788 167.268 241.788C167.898 241.788 168.458 241.953 168.948 242.283C169.448 242.613 169.843 243.013 170.133 243.483V238.803H171.453V248.133C171.453 248.443 171.593 248.603 171.873 248.613V249.753C171.733 249.773 171.618 249.788 171.528 249.798C171.448 249.808 171.368 249.813 171.288 249.813C171.028 249.813 170.798 249.728 170.598 249.558C170.408 249.378 170.313 249.173 170.313 248.943V248.283C170.003 248.793 169.588 249.193 169.068 249.483C168.558 249.763 168.018 249.903 167.448 249.903ZM167.763 248.763C168.003 248.763 168.248 248.718 168.498 248.628C168.758 248.538 168.998 248.413 169.218 248.253C169.448 248.093 169.643 247.908 169.803 247.698C169.973 247.478 170.083 247.248 170.133 247.008V244.758C170.043 244.508 169.908 244.273 169.728 244.053C169.548 243.823 169.343 243.628 169.113 243.468C168.893 243.298 168.653 243.168 168.393 243.078C168.143 242.978 167.893 242.928 167.643 242.928C167.253 242.928 166.898 243.013 166.578 243.183C166.268 243.343 165.998 243.563 165.768 243.843C165.548 244.113 165.378 244.428 165.258 244.788C165.138 245.138 165.078 245.498 165.078 245.868C165.078 246.258 165.148 246.633 165.288 246.993C165.428 247.343 165.618 247.648 165.858 247.908C166.098 248.168 166.378 248.378 166.698 248.538C167.028 248.688 167.383 248.763 167.763 248.763ZM181.5 249.363C181.42 249.403 181.315 249.453 181.185 249.513C181.055 249.563 180.905 249.618 180.735 249.678C180.575 249.728 180.395 249.768 180.195 249.798C180.005 249.838 179.805 249.858 179.595 249.858C179.115 249.858 178.7 249.728 178.35 249.468C178 249.198 177.825 248.783 177.825 248.223V242.958H176.76V241.923H177.825V239.313H179.145V241.923H180.9V242.958H179.145V247.818C179.165 248.108 179.26 248.318 179.43 248.448C179.6 248.578 179.8 248.643 180.03 248.643C180.29 248.643 180.525 248.603 180.735 248.523C180.955 248.433 181.105 248.363 181.185 248.313L181.5 249.363ZM186.086 249.903C185.496 249.903 184.956 249.798 184.466 249.588C183.976 249.368 183.556 249.073 183.206 248.703C182.856 248.333 182.581 247.903 182.381 247.413C182.191 246.913 182.096 246.388 182.096 245.838C182.096 245.288 182.191 244.768 182.381 244.278C182.581 243.788 182.856 243.358 183.206 242.988C183.566 242.618 183.991 242.328 184.481 242.118C184.971 241.898 185.511 241.788 186.101 241.788C186.691 241.788 187.226 241.898 187.706 242.118C188.196 242.338 188.611 242.633 188.951 243.003C189.291 243.363 189.551 243.788 189.731 244.278C189.921 244.758 190.016 245.258 190.016 245.778C190.016 245.888 190.011 245.988 190.001 246.078C190.001 246.168 189.996 246.238 189.986 246.288H183.491C183.521 246.678 183.611 247.033 183.761 247.353C183.911 247.673 184.106 247.948 184.346 248.178C184.586 248.408 184.856 248.588 185.156 248.718C185.466 248.848 185.791 248.913 186.131 248.913C186.371 248.913 186.606 248.883 186.836 248.823C187.066 248.753 187.281 248.663 187.481 248.553C187.681 248.443 187.856 248.308 188.006 248.148C188.166 247.988 188.286 247.808 188.366 247.608L189.506 247.923C189.376 248.213 189.196 248.478 188.966 248.718C188.746 248.958 188.486 249.168 188.186 249.348C187.896 249.518 187.571 249.653 187.211 249.753C186.851 249.853 186.476 249.903 186.086 249.903ZM188.771 245.313C188.741 244.943 188.646 244.603 188.486 244.293C188.336 243.973 188.141 243.703 187.901 243.483C187.671 243.263 187.401 243.093 187.091 242.973C186.781 242.843 186.451 242.778 186.101 242.778C185.751 242.778 185.421 242.843 185.111 242.973C184.801 243.093 184.526 243.268 184.286 243.498C184.056 243.718 183.866 243.983 183.716 244.293C183.576 244.603 183.491 244.943 183.461 245.313H188.771ZM203.289 249.753H201.969V245.373C201.969 244.553 201.834 243.948 201.564 243.558C201.304 243.168 200.914 242.973 200.394 242.973C199.854 242.973 199.369 243.168 198.939 243.558C198.519 243.938 198.219 244.433 198.039 245.043V249.753H196.719V245.373C196.719 244.533 196.589 243.923 196.329 243.543C196.069 243.163 195.679 242.973 195.159 242.973C194.629 242.973 194.149 243.163 193.719 243.543C193.289 243.913 192.984 244.408 192.804 245.028V249.753H191.484V241.923H192.684V243.603C193.004 243.023 193.419 242.578 193.929 242.268C194.439 241.948 195.014 241.788 195.654 241.788C196.314 241.788 196.834 241.968 197.214 242.328C197.604 242.678 197.844 243.133 197.934 243.693C198.634 242.423 199.629 241.788 200.919 241.788C201.369 241.788 201.744 241.873 202.044 242.043C202.354 242.203 202.599 242.433 202.779 242.733C202.959 243.023 203.089 243.368 203.169 243.768C203.249 244.168 203.289 244.603 203.289 245.073V249.753ZM209.556 249.903C208.906 249.903 208.331 249.743 207.831 249.423C207.341 249.103 206.951 248.698 206.661 248.208V252.948H205.341V241.923H206.511V243.393C206.821 242.913 207.221 242.528 207.711 242.238C208.211 241.938 208.761 241.788 209.361 241.788C209.901 241.788 210.396 241.898 210.846 242.118C211.296 242.338 211.686 242.638 212.016 243.018C212.346 243.388 212.601 243.818 212.781 244.308C212.971 244.798 213.066 245.308 213.066 245.838C213.066 246.398 212.981 246.928 212.811 247.428C212.641 247.918 212.401 248.348 212.091 248.718C211.781 249.078 211.411 249.368 210.981 249.588C210.551 249.798 210.076 249.903 209.556 249.903ZM209.151 248.763C209.541 248.763 209.891 248.683 210.201 248.523C210.521 248.353 210.791 248.133 211.011 247.863C211.241 247.583 211.416 247.268 211.536 246.918C211.656 246.568 211.716 246.208 211.716 245.838C211.716 245.448 211.646 245.078 211.506 244.728C211.366 244.368 211.176 244.058 210.936 243.798C210.696 243.528 210.411 243.318 210.081 243.168C209.761 243.008 209.411 242.928 209.031 242.928C208.791 242.928 208.541 242.978 208.281 243.078C208.031 243.168 207.791 243.293 207.561 243.453C207.341 243.603 207.146 243.788 206.976 244.008C206.816 244.218 206.711 244.443 206.661 244.683V246.918C206.771 247.178 206.911 247.423 207.081 247.653C207.251 247.873 207.446 248.068 207.666 248.238C207.886 248.398 208.121 248.528 208.371 248.628C208.621 248.718 208.881 248.763 209.151 248.763ZM218.107 249.903C217.517 249.903 216.977 249.793 216.487 249.573C216.007 249.353 215.592 249.058 215.242 248.688C214.902 248.318 214.637 247.888 214.447 247.398C214.257 246.908 214.162 246.393 214.162 245.853C214.162 245.303 214.257 244.783 214.447 244.293C214.647 243.803 214.917 243.373 215.257 243.003C215.607 242.633 216.022 242.338 216.502 242.118C216.992 241.898 217.527 241.788 218.107 241.788C218.687 241.788 219.222 241.898 219.712 242.118C220.202 242.338 220.617 242.633 220.957 243.003C221.307 243.373 221.577 243.803 221.767 244.293C221.967 244.783 222.067 245.303 222.067 245.853C222.067 246.393 221.972 246.908 221.782 247.398C221.592 247.888 221.322 248.318 220.972 248.688C220.622 249.058 220.202 249.353 219.712 249.573C219.232 249.793 218.697 249.903 218.107 249.903ZM215.512 245.868C215.512 246.278 215.577 246.658 215.707 247.008C215.847 247.358 216.032 247.663 216.262 247.923C216.502 248.183 216.777 248.388 217.087 248.538C217.407 248.688 217.747 248.763 218.107 248.763C218.467 248.763 218.802 248.688 219.112 248.538C219.432 248.388 219.712 248.183 219.952 247.923C220.192 247.653 220.377 247.343 220.507 246.993C220.647 246.633 220.717 246.248 220.717 245.838C220.717 245.438 220.647 245.063 220.507 244.713C220.377 244.353 220.192 244.043 219.952 243.783C219.712 243.513 219.432 243.303 219.112 243.153C218.802 243.003 218.467 242.928 218.107 242.928C217.747 242.928 217.407 243.008 217.087 243.168C216.777 243.318 216.502 243.528 216.262 243.798C216.032 244.058 215.847 244.368 215.707 244.728C215.577 245.078 215.512 245.458 215.512 245.868ZM227.806 243.078C227.146 243.098 226.561 243.268 226.051 243.588C225.551 243.908 225.196 244.353 224.986 244.923V249.753H223.666V241.923H224.896V243.738C225.166 243.198 225.521 242.763 225.961 242.433C226.401 242.093 226.871 241.903 227.371 241.863C227.471 241.863 227.556 241.863 227.626 241.863C227.696 241.863 227.756 241.868 227.806 241.878V243.078ZM60.9367 274.753V266.923H62.2567V274.753H60.9367ZM60.9367 265.453V263.803H62.2567V265.453H60.9367ZM71.1887 274.753H69.8687V270.373C69.8687 269.533 69.7387 268.923 69.4787 268.543C69.2287 268.163 68.8437 267.973 68.3237 267.973C68.0537 267.973 67.7837 268.028 67.5137 268.138C67.2437 268.238 66.9887 268.378 66.7487 268.558C66.5087 268.738 66.2987 268.953 66.1187 269.203C65.9387 269.453 65.8037 269.728 65.7137 270.028V274.753H64.3937V266.923H65.5937V268.603C65.9037 268.053 66.3487 267.613 66.9287 267.283C67.5187 266.953 68.1587 266.788 68.8487 266.788C69.2987 266.788 69.6737 266.873 69.9737 267.043C70.2737 267.203 70.5137 267.433 70.6937 267.733C70.8737 268.023 70.9987 268.368 71.0687 268.768C71.1487 269.168 71.1887 269.603 71.1887 270.073V274.753ZM72.7164 270.823C72.7164 270.273 72.8114 269.753 73.0014 269.263C73.1914 268.773 73.4614 268.348 73.8114 267.988C74.1614 267.618 74.5764 267.328 75.0564 267.118C75.5464 266.898 76.0914 266.788 76.6914 266.788C77.4714 266.788 78.1414 266.963 78.7014 267.313C79.2714 267.653 79.7014 268.113 79.9914 268.693L78.7014 269.098C78.5014 268.728 78.2214 268.443 77.8614 268.243C77.5014 268.033 77.1014 267.928 76.6614 267.928C76.3014 267.928 75.9614 268.003 75.6414 268.153C75.3214 268.293 75.0464 268.493 74.8164 268.753C74.5864 269.013 74.4014 269.318 74.2614 269.668C74.1314 270.018 74.0664 270.403 74.0664 270.823C74.0664 271.233 74.1364 271.618 74.2764 271.978C74.4164 272.338 74.6014 272.653 74.8314 272.923C75.0714 273.183 75.3464 273.388 75.6564 273.538C75.9764 273.688 76.3164 273.763 76.6764 273.763C76.9064 273.763 77.1314 273.733 77.3514 273.673C77.5814 273.603 77.7864 273.513 77.9664 273.403C78.1564 273.293 78.3214 273.168 78.4614 273.028C78.6014 272.878 78.7014 272.718 78.7614 272.548L80.0514 272.938C79.9314 273.228 79.7614 273.493 79.5414 273.733C79.3314 273.973 79.0814 274.178 78.7914 274.348C78.5014 274.518 78.1764 274.653 77.8164 274.753C77.4664 274.853 77.0964 274.903 76.7064 274.903C76.1164 274.903 75.5764 274.793 75.0864 274.573C74.5964 274.353 74.1764 274.058 73.8264 273.688C73.4764 273.318 73.2014 272.888 73.0014 272.398C72.8114 271.898 72.7164 271.373 72.7164 270.823ZM81.5471 274.753V266.923H82.8671V274.753H81.5471ZM81.5471 265.453V263.803H82.8671V265.453H81.5471ZM88.2291 274.903C87.6891 274.903 87.1891 274.793 86.7291 274.573C86.2691 274.353 85.8741 274.058 85.5441 273.688C85.2141 273.318 84.9541 272.888 84.7641 272.398C84.5841 271.908 84.4941 271.393 84.4941 270.853C84.4941 270.303 84.5791 269.783 84.7491 269.293C84.9291 268.793 85.1741 268.358 85.4841 267.988C85.8041 267.618 86.1791 267.328 86.6091 267.118C87.0491 266.898 87.5291 266.788 88.0491 266.788C88.6791 266.788 89.2391 266.953 89.7291 267.283C90.2291 267.613 90.6241 268.013 90.9141 268.483V263.803H92.2341V273.133C92.2341 273.443 92.3741 273.603 92.6541 273.613V274.753C92.5141 274.773 92.3991 274.788 92.3091 274.798C92.2291 274.808 92.1491 274.813 92.0691 274.813C91.8091 274.813 91.5791 274.728 91.3791 274.558C91.1891 274.378 91.0941 274.173 91.0941 273.943V273.283C90.7841 273.793 90.3691 274.193 89.8491 274.483C89.3391 274.763 88.7991 274.903 88.2291 274.903ZM88.5441 273.763C88.7841 273.763 89.0291 273.718 89.2791 273.628C89.5391 273.538 89.7791 273.413 89.9991 273.253C90.2291 273.093 90.4241 272.908 90.5841 272.698C90.7541 272.478 90.8641 272.248 90.9141 272.008V269.758C90.8241 269.508 90.6891 269.273 90.5091 269.053C90.3291 268.823 90.1241 268.628 89.8941 268.468C89.6741 268.298 89.4341 268.168 89.1741 268.078C88.9241 267.978 88.6741 267.928 88.4241 267.928C88.0341 267.928 87.6791 268.013 87.3591 268.183C87.0491 268.343 86.7791 268.563 86.5491 268.843C86.3291 269.113 86.1591 269.428 86.0391 269.788C85.9191 270.138 85.8591 270.498 85.8591 270.868C85.8591 271.258 85.9291 271.633 86.0691 271.993C86.2091 272.343 86.3991 272.648 86.6391 272.908C86.8791 273.168 87.1591 273.378 87.4791 273.538C87.8091 273.688 88.1641 273.763 88.5441 273.763ZM94.4377 274.753V266.923H95.7577V274.753H94.4377ZM94.4377 265.453V263.803H95.7577V265.453H94.4377ZM101.12 274.903C100.58 274.903 100.08 274.793 99.6197 274.573C99.1597 274.353 98.7647 274.058 98.4347 273.688C98.1047 273.318 97.8447 272.888 97.6547 272.398C97.4747 271.908 97.3847 271.393 97.3847 270.853C97.3847 270.303 97.4697 269.783 97.6397 269.293C97.8197 268.793 98.0647 268.358 98.3747 267.988C98.6947 267.618 99.0697 267.328 99.4997 267.118C99.9397 266.898 100.42 266.788 100.94 266.788C101.57 266.788 102.13 266.953 102.62 267.283C103.12 267.613 103.515 268.013 103.805 268.483V263.803H105.125V273.133C105.125 273.443 105.265 273.603 105.545 273.613V274.753C105.405 274.773 105.29 274.788 105.2 274.798C105.12 274.808 105.04 274.813 104.96 274.813C104.7 274.813 104.47 274.728 104.27 274.558C104.08 274.378 103.985 274.173 103.985 273.943V273.283C103.675 273.793 103.26 274.193 102.74 274.483C102.23 274.763 101.69 274.903 101.12 274.903ZM101.435 273.763C101.675 273.763 101.92 273.718 102.17 273.628C102.43 273.538 102.67 273.413 102.89 273.253C103.12 273.093 103.315 272.908 103.475 272.698C103.645 272.478 103.755 272.248 103.805 272.008V269.758C103.715 269.508 103.58 269.273 103.4 269.053C103.22 268.823 103.015 268.628 102.785 268.468C102.565 268.298 102.325 268.168 102.065 268.078C101.815 267.978 101.565 267.928 101.315 267.928C100.925 267.928 100.57 268.013 100.25 268.183C99.9397 268.343 99.6697 268.563 99.4397 268.843C99.2197 269.113 99.0497 269.428 98.9297 269.788C98.8097 270.138 98.7497 270.498 98.7497 270.868C98.7497 271.258 98.8197 271.633 98.9597 271.993C99.0997 272.343 99.2897 272.648 99.5297 272.908C99.7697 273.168 100.05 273.378 100.37 273.538C100.7 273.688 101.055 273.763 101.435 273.763ZM109.743 274.903C108.923 274.903 108.303 274.628 107.883 274.078C107.463 273.528 107.253 272.708 107.253 271.618V266.923H108.573V271.363C108.573 272.963 109.128 273.763 110.238 273.763C110.778 273.763 111.283 273.593 111.753 273.253C112.233 272.903 112.588 272.428 112.818 271.828V266.923H114.138V273.133C114.138 273.443 114.278 273.603 114.558 273.613V274.753C114.408 274.773 114.288 274.783 114.198 274.783C114.118 274.793 114.038 274.798 113.958 274.798C113.698 274.798 113.478 274.723 113.298 274.573C113.128 274.413 113.038 274.218 113.028 273.988L112.998 273.073C112.648 273.663 112.188 274.118 111.618 274.438C111.048 274.748 110.423 274.903 109.743 274.903ZM123.132 274.753H121.812V270.373C121.812 269.533 121.682 268.923 121.422 268.543C121.172 268.163 120.787 267.973 120.267 267.973C119.997 267.973 119.727 268.028 119.457 268.138C119.187 268.238 118.932 268.378 118.692 268.558C118.452 268.738 118.242 268.953 118.062 269.203C117.882 269.453 117.747 269.728 117.657 270.028V274.753H116.337V266.923H117.537V268.603C117.847 268.053 118.292 267.613 118.872 267.283C119.462 266.953 120.102 266.788 120.792 266.788C121.242 266.788 121.617 266.873 121.917 267.043C122.217 267.203 122.457 267.433 122.637 267.733C122.817 268.023 122.942 268.368 123.012 268.768C123.092 269.168 123.132 269.603 123.132 270.073V274.753ZM129.162 274.363C129.082 274.403 128.977 274.453 128.847 274.513C128.717 274.563 128.567 274.618 128.397 274.678C128.237 274.728 128.057 274.768 127.857 274.798C127.667 274.838 127.467 274.858 127.257 274.858C126.777 274.858 126.362 274.728 126.012 274.468C125.662 274.198 125.487 273.783 125.487 273.223V267.958H124.422V266.923H125.487V264.313H126.807V266.923H128.562V267.958H126.807V272.818C126.827 273.108 126.922 273.318 127.092 273.448C127.262 273.578 127.462 273.643 127.692 273.643C127.952 273.643 128.187 273.603 128.397 273.523C128.617 273.433 128.767 273.363 128.847 273.313L129.162 274.363ZM134.179 274.753V266.923H135.499V274.753H134.179ZM134.179 265.453V263.803H135.499V265.453H134.179ZM144.431 274.753H143.111V270.373C143.111 269.533 142.981 268.923 142.721 268.543C142.471 268.163 142.086 267.973 141.566 267.973C141.296 267.973 141.026 268.028 140.756 268.138C140.486 268.238 140.231 268.378 139.991 268.558C139.751 268.738 139.541 268.953 139.361 269.203C139.181 269.453 139.046 269.728 138.956 270.028V274.753H137.636V266.923H138.836V268.603C139.146 268.053 139.591 267.613 140.171 267.283C140.761 266.953 141.401 266.788 142.091 266.788C142.541 266.788 142.916 266.873 143.216 267.043C143.516 267.203 143.756 267.433 143.936 267.733C144.116 268.023 144.241 268.368 144.311 268.768C144.391 269.168 144.431 269.603 144.431 270.073V274.753ZM145.959 270.823C145.959 270.273 146.054 269.753 146.244 269.263C146.434 268.773 146.704 268.348 147.054 267.988C147.404 267.618 147.819 267.328 148.299 267.118C148.789 266.898 149.334 266.788 149.934 266.788C150.714 266.788 151.384 266.963 151.944 267.313C152.514 267.653 152.944 268.113 153.234 268.693L151.944 269.098C151.744 268.728 151.464 268.443 151.104 268.243C150.744 268.033 150.344 267.928 149.904 267.928C149.544 267.928 149.204 268.003 148.884 268.153C148.564 268.293 148.289 268.493 148.059 268.753C147.829 269.013 147.644 269.318 147.504 269.668C147.374 270.018 147.309 270.403 147.309 270.823C147.309 271.233 147.379 271.618 147.519 271.978C147.659 272.338 147.844 272.653 148.074 272.923C148.314 273.183 148.589 273.388 148.899 273.538C149.219 273.688 149.559 273.763 149.919 273.763C150.149 273.763 150.374 273.733 150.594 273.673C150.824 273.603 151.029 273.513 151.209 273.403C151.399 273.293 151.564 273.168 151.704 273.028C151.844 272.878 151.944 272.718 152.004 272.548L153.294 272.938C153.174 273.228 153.004 273.493 152.784 273.733C152.574 273.973 152.324 274.178 152.034 274.348C151.744 274.518 151.419 274.653 151.059 274.753C150.709 274.853 150.339 274.903 149.949 274.903C149.359 274.903 148.819 274.793 148.329 274.573C147.839 274.353 147.419 274.058 147.069 273.688C146.719 273.318 146.444 272.888 146.244 272.398C146.054 271.898 145.959 271.373 145.959 270.823ZM160.309 274.753L157.609 270.928L156.109 272.338V274.753H154.789V263.803H156.109V271.003L160.129 266.938H161.584L158.464 270.178L161.734 274.753H160.309Z" fill="#4D6668"/>
<path d="M113.032 118.507H72.1394C65.3635 118.507 59.8717 113.015 59.8717 106.239V65.3467C59.8717 58.5708 65.3635 53.079 72.1394 53.079H113.032C119.807 53.079 125.299 58.5708 125.299 65.3467V106.239C125.299 113.015 119.807 118.507 113.032 118.507Z" fill="#DFFDE5"/>
<path d="M106.558 72.1613H78.6127C77.298 72.1613 76.2287 73.2326 76.2287 74.5473V91.5851C76.2287 92.9018 77.298 93.9711 78.6127 93.9711H89.8581V96.6966H87.1326C86.3802 96.6966 85.7688 97.3079 85.7688 98.0604C85.7688 98.8128 86.3802 99.4241 87.1326 99.4241H98.0386C98.793 99.4241 99.4023 98.8128 99.4023 98.0604C99.4023 97.3079 98.793 96.6966 98.0386 96.6966H95.3131V93.9711H106.558C107.873 93.9711 108.942 92.9018 108.942 91.5851V74.5473C108.942 73.2326 107.873 72.1613 106.558 72.1613ZM106.217 91.2457H78.9541V74.8888H106.217V91.2457Z" fill="#2BC24F"/>
<path d="M85.7709 88.5184C85.4212 88.5184 85.0736 88.3855 84.8078 88.1197C84.2762 87.5881 84.2762 86.7253 84.8078 86.1916L87.9341 83.0654L84.8078 79.9392C84.2762 79.4076 84.2762 78.5448 84.8078 78.0111C85.3394 77.4795 86.2023 77.4795 86.7359 78.0111L90.8251 82.1004C91.3567 82.632 91.3567 83.4948 90.8251 84.0284L86.7359 88.1177C86.4681 88.3855 86.1184 88.5184 85.7709 88.5184Z" fill="#2BC24F" fill-opacity="0.46"/>
<path d="M99.4003 88.5182H93.9473C93.1928 88.5182 92.5835 87.9069 92.5835 87.1544C92.5835 86.402 93.1949 85.7927 93.9493 85.7927H99.4023C100.155 85.7927 100.764 86.4041 100.764 87.1565C100.764 87.9089 100.155 88.5182 99.4003 88.5182Z" fill="#2BC24F" fill-opacity="0.46"/>
<defs>
<filter id="filter0_d" x="0.792755" y="0" width="317.349" height="337.704" filterUnits="userSpaceOnUse" color-interpolation-filters="sRGB">
<feFlood flood-opacity="0" result="BackgroundImageFix"/>
<feColorMatrix in="SourceAlpha" type="matrix" values="0 0 0 0 0 0 0 0 0 0 0 0 0 0 0 0 0 0 127 0"/>
<feOffset dy="6"/>
<feGaussianBlur stdDeviation="15"/>
<feColorMatrix type="matrix" values="0 0 0 0 0 0 0 0 0 0 0 0 0 0 0 0 0 0 0.1 0"/>
<feBlend mode="normal" in2="BackgroundImageFix" result="effect1_dropShadow"/>
<feBlend mode="normal" in="SourceGraphic" in2="effect1_dropShadow" result="shape"/>
</filter>
</defs>
</svg>
