<svg width="318" height="338" viewBox="0 0 318 338" fill="none" xmlns="http://www.w3.org/2000/svg">
<g filter="url(#filter0_d)">
<rect x="30.6514" y="24" width="257.349" height="277.704" rx="10" fill="white"/>
</g>
<path d="M61.5271 174V159.723H64.5544V171.5H70.3455V174H61.5271ZM74.9744 168.521C74.9744 169.602 75.1501 170.419 75.5017 170.973C75.8598 171.526 76.4392 171.803 77.24 171.803C78.0343 171.803 78.6039 171.529 78.949 170.982C79.3005 170.429 79.4763 169.609 79.4763 168.521C79.4763 167.441 79.3005 166.63 78.949 166.09C78.5974 165.549 78.0212 165.279 77.2205 165.279C76.4262 165.279 75.8533 165.549 75.5017 166.09C75.1501 166.624 74.9744 167.434 74.9744 168.521ZM82.5232 168.521C82.5232 170.299 82.0544 171.689 81.1169 172.691C80.1794 173.694 78.8741 174.195 77.2009 174.195C76.1528 174.195 75.2283 173.967 74.4275 173.512C73.6267 173.049 73.0115 172.389 72.5818 171.529C72.1521 170.67 71.9373 169.667 71.9373 168.521C71.9373 166.738 72.4028 165.351 73.3337 164.361C74.2647 163.372 75.5733 162.877 77.2595 162.877C78.3077 162.877 79.2322 163.105 80.033 163.561C80.8337 164.016 81.449 164.671 81.8787 165.523C82.3083 166.376 82.5232 167.376 82.5232 168.521ZM93.9587 174L93.1189 170.182L91.9861 165.357H91.9177L89.9255 174H86.7224L83.6169 163.082H86.5857L87.8455 167.916C88.0473 168.782 88.2524 169.977 88.4607 171.5H88.5193C88.5453 171.005 88.6593 170.221 88.8611 169.146L89.0173 168.316L90.365 163.082H93.6462L94.9255 168.316C94.9516 168.46 94.9906 168.671 95.0427 168.951C95.1013 169.231 95.1567 169.531 95.2087 169.85C95.2608 170.162 95.3064 170.471 95.3455 170.777C95.391 171.077 95.4171 171.318 95.4236 171.5H95.4822C95.5408 171.031 95.6449 170.39 95.7947 169.576C95.9444 168.756 96.0518 168.202 96.1169 167.916L97.4255 163.082H100.345L97.2009 174H93.9587ZM104.486 168.521C104.486 169.602 104.662 170.419 105.013 170.973C105.372 171.526 105.951 171.803 106.752 171.803C107.546 171.803 108.116 171.529 108.461 170.982C108.812 170.429 108.988 169.609 108.988 168.521C108.988 167.441 108.812 166.63 108.461 166.09C108.109 165.549 107.533 165.279 106.732 165.279C105.938 165.279 105.365 165.549 105.013 166.09C104.662 166.624 104.486 167.434 104.486 168.521ZM112.035 168.521C112.035 170.299 111.566 171.689 110.629 172.691C109.691 173.694 108.386 174.195 106.713 174.195C105.664 174.195 104.74 173.967 103.939 173.512C103.138 173.049 102.523 172.389 102.094 171.529C101.664 170.67 101.449 169.667 101.449 168.521C101.449 166.738 101.914 165.351 102.845 164.361C103.776 163.372 105.085 162.877 106.771 162.877C107.819 162.877 108.744 163.105 109.545 163.561C110.345 164.016 110.961 164.671 111.39 165.523C111.82 166.376 112.035 167.376 112.035 168.521ZM124.574 174H121.595V167.623C121.595 166.835 121.455 166.246 121.176 165.855C120.896 165.458 120.45 165.26 119.838 165.26C119.004 165.26 118.402 165.54 118.031 166.1C117.66 166.653 117.474 167.574 117.474 168.863V174H114.496V163.082H116.771L117.172 164.479H117.338C117.67 163.951 118.125 163.554 118.705 163.287C119.291 163.014 119.955 162.877 120.697 162.877C121.967 162.877 122.93 163.222 123.588 163.912C124.245 164.596 124.574 165.585 124.574 166.881V174ZM137.142 163.082V164.596L135.433 165.035C135.746 165.523 135.902 166.07 135.902 166.676C135.902 167.848 135.492 168.762 134.672 169.42C133.858 170.071 132.725 170.396 131.273 170.396L130.736 170.367L130.297 170.318C129.991 170.553 129.838 170.813 129.838 171.1C129.838 171.529 130.385 171.744 131.478 171.744H133.334C134.532 171.744 135.443 172.001 136.068 172.516C136.7 173.03 137.015 173.785 137.015 174.781C137.015 176.057 136.482 177.047 135.414 177.75C134.353 178.453 132.826 178.805 130.834 178.805C129.31 178.805 128.145 178.538 127.338 178.004C126.537 177.477 126.136 176.734 126.136 175.777C126.136 175.12 126.342 174.57 126.752 174.127C127.162 173.684 127.764 173.368 128.558 173.18C128.252 173.049 127.985 172.838 127.758 172.545C127.53 172.245 127.416 171.93 127.416 171.598C127.416 171.181 127.536 170.836 127.777 170.562C128.018 170.283 128.366 170.009 128.822 169.742C128.249 169.495 127.793 169.098 127.455 168.551C127.123 168.004 126.957 167.359 126.957 166.617C126.957 165.426 127.344 164.505 128.119 163.854C128.894 163.202 130 162.877 131.439 162.877C131.745 162.877 132.107 162.906 132.523 162.965C132.946 163.017 133.217 163.056 133.334 163.082H137.142ZM128.715 175.543C128.715 175.953 128.91 176.275 129.301 176.51C129.698 176.744 130.251 176.861 130.961 176.861C132.028 176.861 132.865 176.715 133.47 176.422C134.076 176.129 134.379 175.729 134.379 175.221C134.379 174.811 134.2 174.527 133.842 174.371C133.483 174.215 132.93 174.137 132.181 174.137H130.638C130.092 174.137 129.633 174.264 129.261 174.518C128.897 174.778 128.715 175.12 128.715 175.543ZM129.799 166.656C129.799 167.249 129.932 167.717 130.199 168.062C130.472 168.408 130.886 168.58 131.439 168.58C131.999 168.58 132.409 168.408 132.67 168.062C132.93 167.717 133.06 167.249 133.06 166.656C133.06 165.341 132.52 164.684 131.439 164.684C130.345 164.684 129.799 165.341 129.799 166.656ZM145.883 174L145.306 172.516H145.228C144.727 173.147 144.209 173.587 143.676 173.834C143.148 174.075 142.458 174.195 141.605 174.195C140.557 174.195 139.73 173.896 139.125 173.297C138.526 172.698 138.226 171.845 138.226 170.738C138.226 169.579 138.63 168.727 139.437 168.18C140.251 167.626 141.475 167.32 143.109 167.262L145.004 167.203V166.725C145.004 165.618 144.437 165.064 143.304 165.064C142.432 165.064 141.407 165.328 140.228 165.855L139.242 163.844C140.498 163.186 141.892 162.857 143.422 162.857C144.886 162.857 146.01 163.176 146.791 163.814C147.572 164.452 147.963 165.423 147.963 166.725V174H145.883ZM145.004 168.941L143.851 168.98C142.985 169.007 142.341 169.163 141.918 169.449C141.495 169.736 141.283 170.172 141.283 170.758C141.283 171.598 141.765 172.018 142.728 172.018C143.418 172.018 143.969 171.819 144.379 171.422C144.795 171.025 145.004 170.497 145.004 169.84V168.941ZM161.117 174H158.138V167.623C158.138 166.835 157.998 166.246 157.719 165.855C157.439 165.458 156.993 165.26 156.381 165.26C155.547 165.26 154.945 165.54 154.574 166.1C154.203 166.653 154.017 167.574 154.017 168.863V174H151.039V163.082H153.314L153.715 164.479H153.881C154.213 163.951 154.668 163.554 155.248 163.287C155.834 163.014 156.498 162.877 157.24 162.877C158.51 162.877 159.473 163.222 160.131 163.912C160.788 164.596 161.117 165.585 161.117 166.881V174Z" fill="#038C98"/>
<path d="M61.0052 199.753V189.103H62.3552V198.553H68.2952V199.753H61.0052ZM72.8725 199.903C72.2825 199.903 71.7425 199.793 71.2525 199.573C70.7725 199.353 70.3575 199.058 70.0075 198.688C69.6675 198.318 69.4025 197.888 69.2125 197.398C69.0225 196.908 68.9275 196.393 68.9275 195.853C68.9275 195.303 69.0225 194.783 69.2125 194.293C69.4125 193.803 69.6825 193.373 70.0225 193.003C70.3725 192.633 70.7875 192.338 71.2675 192.118C71.7575 191.898 72.2925 191.788 72.8725 191.788C73.4525 191.788 73.9875 191.898 74.4775 192.118C74.9675 192.338 75.3825 192.633 75.7225 193.003C76.0725 193.373 76.3425 193.803 76.5325 194.293C76.7325 194.783 76.8325 195.303 76.8325 195.853C76.8325 196.393 76.7375 196.908 76.5475 197.398C76.3575 197.888 76.0875 198.318 75.7375 198.688C75.3875 199.058 74.9675 199.353 74.4775 199.573C73.9975 199.793 73.4625 199.903 72.8725 199.903ZM70.2775 195.868C70.2775 196.278 70.3425 196.658 70.4725 197.008C70.6125 197.358 70.7975 197.663 71.0275 197.923C71.2675 198.183 71.5425 198.388 71.8525 198.538C72.1725 198.688 72.5125 198.763 72.8725 198.763C73.2325 198.763 73.5675 198.688 73.8775 198.538C74.1975 198.388 74.4775 198.183 74.7175 197.923C74.9575 197.653 75.1425 197.343 75.2725 196.993C75.4125 196.633 75.4825 196.248 75.4825 195.838C75.4825 195.438 75.4125 195.063 75.2725 194.713C75.1425 194.353 74.9575 194.043 74.7175 193.783C74.4775 193.513 74.1975 193.303 73.8775 193.153C73.5675 193.003 73.2325 192.928 72.8725 192.928C72.5125 192.928 72.1725 193.008 71.8525 193.168C71.5425 193.318 71.2675 193.528 71.0275 193.798C70.7975 194.058 70.6125 194.368 70.4725 194.728C70.3425 195.078 70.2775 195.458 70.2775 195.868ZM82.5719 193.078C81.9119 193.098 81.3269 193.268 80.8169 193.588C80.3169 193.908 79.9619 194.353 79.7519 194.923V199.753H78.4319V191.923H79.6619V193.738C79.9319 193.198 80.2869 192.763 80.7269 192.433C81.1669 192.093 81.6369 191.903 82.1369 191.863C82.2369 191.863 82.3219 191.863 82.3919 191.863C82.4619 191.863 82.5219 191.868 82.5719 191.878V193.078ZM87.1704 199.903C86.5804 199.903 86.0404 199.798 85.5504 199.588C85.0604 199.368 84.6404 199.073 84.2904 198.703C83.9404 198.333 83.6654 197.903 83.4654 197.413C83.2754 196.913 83.1804 196.388 83.1804 195.838C83.1804 195.288 83.2754 194.768 83.4654 194.278C83.6654 193.788 83.9404 193.358 84.2904 192.988C84.6504 192.618 85.0754 192.328 85.5654 192.118C86.0554 191.898 86.5954 191.788 87.1854 191.788C87.7754 191.788 88.3104 191.898 88.7904 192.118C89.2804 192.338 89.6954 192.633 90.0354 193.003C90.3754 193.363 90.6354 193.788 90.8154 194.278C91.0054 194.758 91.1004 195.258 91.1004 195.778C91.1004 195.888 91.0954 195.988 91.0854 196.078C91.0854 196.168 91.0804 196.238 91.0704 196.288H84.5754C84.6054 196.678 84.6954 197.033 84.8454 197.353C84.9954 197.673 85.1904 197.948 85.4304 198.178C85.6704 198.408 85.9404 198.588 86.2404 198.718C86.5504 198.848 86.8754 198.913 87.2154 198.913C87.4554 198.913 87.6904 198.883 87.9204 198.823C88.1504 198.753 88.3654 198.663 88.5654 198.553C88.7654 198.443 88.9404 198.308 89.0904 198.148C89.2504 197.988 89.3704 197.808 89.4504 197.608L90.5904 197.923C90.4604 198.213 90.2804 198.478 90.0504 198.718C89.8304 198.958 89.5704 199.168 89.2704 199.348C88.9804 199.518 88.6554 199.653 88.2954 199.753C87.9354 199.853 87.5604 199.903 87.1704 199.903ZM89.8554 195.313C89.8254 194.943 89.7304 194.603 89.5704 194.293C89.4204 193.973 89.2254 193.703 88.9854 193.483C88.7554 193.263 88.4854 193.093 88.1754 192.973C87.8654 192.843 87.5354 192.778 87.1854 192.778C86.8354 192.778 86.5054 192.843 86.1954 192.973C85.8854 193.093 85.6104 193.268 85.3704 193.498C85.1404 193.718 84.9504 193.983 84.8004 194.293C84.6604 194.603 84.5754 194.943 84.5454 195.313H89.8554ZM104.373 199.753H103.053V195.373C103.053 194.553 102.918 193.948 102.648 193.558C102.388 193.168 101.998 192.973 101.478 192.973C100.938 192.973 100.453 193.168 100.023 193.558C99.6027 193.938 99.3027 194.433 99.1227 195.043V199.753H97.8027V195.373C97.8027 194.533 97.6727 193.923 97.4127 193.543C97.1527 193.163 96.7627 192.973 96.2427 192.973C95.7127 192.973 95.2327 193.163 94.8027 193.543C94.3727 193.913 94.0677 194.408 93.8877 195.028V199.753H92.5677V191.923H93.7677V193.603C94.0877 193.023 94.5027 192.578 95.0127 192.268C95.5227 191.948 96.0977 191.788 96.7377 191.788C97.3977 191.788 97.9177 191.968 98.2977 192.328C98.6877 192.678 98.9277 193.133 99.0177 193.693C99.7177 192.423 100.713 191.788 102.003 191.788C102.453 191.788 102.828 191.873 103.128 192.043C103.438 192.203 103.683 192.433 103.863 192.733C104.043 193.023 104.173 193.368 104.253 193.768C104.333 194.168 104.373 194.603 104.373 195.073V199.753ZM110.219 199.753V191.923H111.539V199.753H110.219ZM110.219 190.453V188.803H111.539V190.453H110.219ZM117.891 199.903C117.241 199.903 116.666 199.743 116.166 199.423C115.676 199.103 115.286 198.698 114.996 198.208V202.948H113.676V191.923H114.846V193.393C115.156 192.913 115.556 192.528 116.046 192.238C116.546 191.938 117.096 191.788 117.696 191.788C118.236 191.788 118.731 191.898 119.181 192.118C119.631 192.338 120.021 192.638 120.351 193.018C120.681 193.388 120.936 193.818 121.116 194.308C121.306 194.798 121.401 195.308 121.401 195.838C121.401 196.398 121.316 196.928 121.146 197.428C120.976 197.918 120.736 198.348 120.426 198.718C120.116 199.078 119.746 199.368 119.316 199.588C118.886 199.798 118.411 199.903 117.891 199.903ZM117.486 198.763C117.876 198.763 118.226 198.683 118.536 198.523C118.856 198.353 119.126 198.133 119.346 197.863C119.576 197.583 119.751 197.268 119.871 196.918C119.991 196.568 120.051 196.208 120.051 195.838C120.051 195.448 119.981 195.078 119.841 194.728C119.701 194.368 119.511 194.058 119.271 193.798C119.031 193.528 118.746 193.318 118.416 193.168C118.096 193.008 117.746 192.928 117.366 192.928C117.126 192.928 116.876 192.978 116.616 193.078C116.366 193.168 116.126 193.293 115.896 193.453C115.676 193.603 115.481 193.788 115.311 194.008C115.151 194.218 115.046 194.443 114.996 194.683V196.918C115.106 197.178 115.246 197.423 115.416 197.653C115.586 197.873 115.781 198.068 116.001 198.238C116.221 198.398 116.456 198.528 116.706 198.628C116.956 198.718 117.216 198.763 117.486 198.763ZM125.767 199.903C125.137 199.903 124.517 199.808 123.907 199.618C123.297 199.418 122.772 199.133 122.332 198.763L122.902 197.878C123.362 198.228 123.822 198.493 124.282 198.673C124.742 198.843 125.227 198.928 125.737 198.928C126.307 198.928 126.757 198.818 127.087 198.598C127.427 198.368 127.597 198.048 127.597 197.638C127.597 197.448 127.552 197.288 127.462 197.158C127.372 197.018 127.237 196.898 127.057 196.798C126.877 196.698 126.647 196.608 126.367 196.528C126.087 196.448 125.762 196.363 125.392 196.273C124.922 196.153 124.517 196.038 124.177 195.928C123.837 195.818 123.557 195.688 123.337 195.538C123.117 195.388 122.957 195.208 122.857 194.998C122.757 194.788 122.707 194.528 122.707 194.218C122.707 193.828 122.782 193.483 122.932 193.183C123.092 192.873 123.307 192.618 123.577 192.418C123.847 192.208 124.162 192.053 124.522 191.953C124.892 191.843 125.287 191.788 125.707 191.788C126.297 191.788 126.847 191.883 127.357 192.073C127.867 192.263 128.297 192.513 128.647 192.823L128.047 193.618C127.717 193.328 127.347 193.113 126.937 192.973C126.527 192.823 126.107 192.748 125.677 192.748C125.197 192.748 124.787 192.853 124.447 193.063C124.117 193.263 123.952 193.588 123.952 194.038C123.952 194.218 123.982 194.368 124.042 194.488C124.112 194.608 124.222 194.713 124.372 194.803C124.522 194.893 124.712 194.973 124.942 195.043C125.182 195.113 125.467 195.188 125.797 195.268C126.317 195.388 126.767 195.513 127.147 195.643C127.537 195.763 127.857 195.908 128.107 196.078C128.367 196.248 128.557 196.448 128.677 196.678C128.807 196.908 128.872 197.188 128.872 197.518C128.872 198.248 128.592 198.828 128.032 199.258C127.472 199.688 126.717 199.903 125.767 199.903ZM132.849 199.903C132.029 199.903 131.409 199.628 130.989 199.078C130.569 198.528 130.359 197.708 130.359 196.618V191.923H131.679V196.363C131.679 197.963 132.234 198.763 133.344 198.763C133.884 198.763 134.389 198.593 134.859 198.253C135.339 197.903 135.694 197.428 135.924 196.828V191.923H137.244V198.133C137.244 198.443 137.384 198.603 137.664 198.613V199.753C137.514 199.773 137.394 199.783 137.304 199.783C137.224 199.793 137.144 199.798 137.064 199.798C136.804 199.798 136.584 199.723 136.404 199.573C136.234 199.413 136.144 199.218 136.134 198.988L136.104 198.073C135.754 198.663 135.294 199.118 134.724 199.438C134.154 199.748 133.529 199.903 132.849 199.903ZM151.248 199.753H149.928V195.373C149.928 194.553 149.793 193.948 149.523 193.558C149.263 193.168 148.873 192.973 148.353 192.973C147.813 192.973 147.328 193.168 146.898 193.558C146.478 193.938 146.178 194.433 145.998 195.043V199.753H144.678V195.373C144.678 194.533 144.548 193.923 144.288 193.543C144.028 193.163 143.638 192.973 143.118 192.973C142.588 192.973 142.108 193.163 141.678 193.543C141.248 193.913 140.943 194.408 140.763 195.028V199.753H139.443V191.923H140.643V193.603C140.963 193.023 141.378 192.578 141.888 192.268C142.398 191.948 142.973 191.788 143.613 191.788C144.273 191.788 144.793 191.968 145.173 192.328C145.563 192.678 145.803 193.133 145.893 193.693C146.593 192.423 147.588 191.788 148.878 191.788C149.328 191.788 149.703 191.873 150.003 192.043C150.313 192.203 150.558 192.433 150.738 192.733C150.918 193.023 151.048 193.368 151.128 193.768C151.208 194.168 151.248 194.603 151.248 195.073V199.753ZM160.319 199.903C159.779 199.903 159.279 199.793 158.819 199.573C158.359 199.353 157.964 199.058 157.634 198.688C157.304 198.318 157.044 197.888 156.854 197.398C156.674 196.908 156.584 196.393 156.584 195.853C156.584 195.303 156.669 194.783 156.839 194.293C157.019 193.793 157.264 193.358 157.574 192.988C157.894 192.618 158.269 192.328 158.699 192.118C159.139 191.898 159.619 191.788 160.139 191.788C160.769 191.788 161.329 191.953 161.819 192.283C162.319 192.613 162.714 193.013 163.004 193.483V188.803H164.324V198.133C164.324 198.443 164.464 198.603 164.744 198.613V199.753C164.604 199.773 164.489 199.788 164.399 199.798C164.319 199.808 164.239 199.813 164.159 199.813C163.899 199.813 163.669 199.728 163.469 199.558C163.279 199.378 163.184 199.173 163.184 198.943V198.283C162.874 198.793 162.459 199.193 161.939 199.483C161.429 199.763 160.889 199.903 160.319 199.903ZM160.634 198.763C160.874 198.763 161.119 198.718 161.369 198.628C161.629 198.538 161.869 198.413 162.089 198.253C162.319 198.093 162.514 197.908 162.674 197.698C162.844 197.478 162.954 197.248 163.004 197.008V194.758C162.914 194.508 162.779 194.273 162.599 194.053C162.419 193.823 162.214 193.628 161.984 193.468C161.764 193.298 161.524 193.168 161.264 193.078C161.014 192.978 160.764 192.928 160.514 192.928C160.124 192.928 159.769 193.013 159.449 193.183C159.139 193.343 158.869 193.563 158.639 193.843C158.419 194.113 158.249 194.428 158.129 194.788C158.009 195.138 157.949 195.498 157.949 195.868C157.949 196.258 158.019 196.633 158.159 196.993C158.299 197.343 158.489 197.648 158.729 197.908C158.969 198.168 159.249 198.378 159.569 198.538C159.899 198.688 160.254 198.763 160.634 198.763ZM169.948 199.903C169.358 199.903 168.818 199.793 168.328 199.573C167.848 199.353 167.433 199.058 167.083 198.688C166.743 198.318 166.478 197.888 166.288 197.398C166.098 196.908 166.003 196.393 166.003 195.853C166.003 195.303 166.098 194.783 166.288 194.293C166.488 193.803 166.758 193.373 167.098 193.003C167.448 192.633 167.863 192.338 168.343 192.118C168.833 191.898 169.368 191.788 169.948 191.788C170.528 191.788 171.063 191.898 171.553 192.118C172.043 192.338 172.458 192.633 172.798 193.003C173.148 193.373 173.418 193.803 173.608 194.293C173.808 194.783 173.908 195.303 173.908 195.853C173.908 196.393 173.813 196.908 173.623 197.398C173.433 197.888 173.163 198.318 172.813 198.688C172.463 199.058 172.043 199.353 171.553 199.573C171.073 199.793 170.538 199.903 169.948 199.903ZM167.353 195.868C167.353 196.278 167.418 196.658 167.548 197.008C167.688 197.358 167.873 197.663 168.103 197.923C168.343 198.183 168.618 198.388 168.928 198.538C169.248 198.688 169.588 198.763 169.948 198.763C170.308 198.763 170.643 198.688 170.953 198.538C171.273 198.388 171.553 198.183 171.793 197.923C172.033 197.653 172.218 197.343 172.348 196.993C172.488 196.633 172.558 196.248 172.558 195.838C172.558 195.438 172.488 195.063 172.348 194.713C172.218 194.353 172.033 194.043 171.793 193.783C171.553 193.513 171.273 193.303 170.953 193.153C170.643 193.003 170.308 192.928 169.948 192.928C169.588 192.928 169.248 193.008 168.928 193.168C168.618 193.318 168.343 193.528 168.103 193.798C167.873 194.058 167.688 194.368 167.548 194.728C167.418 195.078 167.353 195.458 167.353 195.868ZM175.537 188.803H176.857V197.728C176.857 198.018 176.932 198.248 177.082 198.418C177.242 198.578 177.462 198.658 177.742 198.658C177.852 198.658 177.982 198.643 178.132 198.613C178.282 198.573 178.422 198.528 178.552 198.478L178.762 199.543C178.542 199.633 178.282 199.708 177.982 199.768C177.682 199.828 177.417 199.858 177.187 199.858C176.677 199.858 176.272 199.713 175.972 199.423C175.682 199.133 175.537 198.728 175.537 198.208V188.803ZM183.219 199.903C182.629 199.903 182.089 199.793 181.599 199.573C181.119 199.353 180.704 199.058 180.354 198.688C180.014 198.318 179.749 197.888 179.559 197.398C179.369 196.908 179.274 196.393 179.274 195.853C179.274 195.303 179.369 194.783 179.559 194.293C179.759 193.803 180.029 193.373 180.369 193.003C180.719 192.633 181.134 192.338 181.614 192.118C182.104 191.898 182.639 191.788 183.219 191.788C183.799 191.788 184.334 191.898 184.824 192.118C185.314 192.338 185.729 192.633 186.069 193.003C186.419 193.373 186.689 193.803 186.879 194.293C187.079 194.783 187.179 195.303 187.179 195.853C187.179 196.393 187.084 196.908 186.894 197.398C186.704 197.888 186.434 198.318 186.084 198.688C185.734 199.058 185.314 199.353 184.824 199.573C184.344 199.793 183.809 199.903 183.219 199.903ZM180.624 195.868C180.624 196.278 180.689 196.658 180.819 197.008C180.959 197.358 181.144 197.663 181.374 197.923C181.614 198.183 181.889 198.388 182.199 198.538C182.519 198.688 182.859 198.763 183.219 198.763C183.579 198.763 183.914 198.688 184.224 198.538C184.544 198.388 184.824 198.183 185.064 197.923C185.304 197.653 185.489 197.343 185.619 196.993C185.759 196.633 185.829 196.248 185.829 195.838C185.829 195.438 185.759 195.063 185.619 194.713C185.489 194.353 185.304 194.043 185.064 193.783C184.824 193.513 184.544 193.303 184.224 193.153C183.914 193.003 183.579 192.928 183.219 192.928C182.859 192.928 182.519 193.008 182.199 193.168C181.889 193.318 181.614 193.528 181.374 193.798C181.144 194.058 180.959 194.368 180.819 194.728C180.689 195.078 180.624 195.458 180.624 195.868ZM192.919 193.078C192.259 193.098 191.674 193.268 191.164 193.588C190.664 193.908 190.309 194.353 190.099 194.923V199.753H188.779V191.923H190.009V193.738C190.279 193.198 190.634 192.763 191.074 192.433C191.514 192.093 191.984 191.903 192.484 191.863C192.584 191.863 192.669 191.863 192.739 191.863C192.809 191.863 192.869 191.868 192.919 191.878V193.078ZM200.415 199.903C199.785 199.903 199.165 199.808 198.555 199.618C197.945 199.418 197.42 199.133 196.98 198.763L197.55 197.878C198.01 198.228 198.47 198.493 198.93 198.673C199.39 198.843 199.875 198.928 200.385 198.928C200.955 198.928 201.405 198.818 201.735 198.598C202.075 198.368 202.245 198.048 202.245 197.638C202.245 197.448 202.2 197.288 202.11 197.158C202.02 197.018 201.885 196.898 201.705 196.798C201.525 196.698 201.295 196.608 201.015 196.528C200.735 196.448 200.41 196.363 200.04 196.273C199.57 196.153 199.165 196.038 198.825 195.928C198.485 195.818 198.205 195.688 197.985 195.538C197.765 195.388 197.605 195.208 197.505 194.998C197.405 194.788 197.355 194.528 197.355 194.218C197.355 193.828 197.43 193.483 197.58 193.183C197.74 192.873 197.955 192.618 198.225 192.418C198.495 192.208 198.81 192.053 199.17 191.953C199.54 191.843 199.935 191.788 200.355 191.788C200.945 191.788 201.495 191.883 202.005 192.073C202.515 192.263 202.945 192.513 203.295 192.823L202.695 193.618C202.365 193.328 201.995 193.113 201.585 192.973C201.175 192.823 200.755 192.748 200.325 192.748C199.845 192.748 199.435 192.853 199.095 193.063C198.765 193.263 198.6 193.588 198.6 194.038C198.6 194.218 198.63 194.368 198.69 194.488C198.76 194.608 198.87 194.713 199.02 194.803C199.17 194.893 199.36 194.973 199.59 195.043C199.83 195.113 200.115 195.188 200.445 195.268C200.965 195.388 201.415 195.513 201.795 195.643C202.185 195.763 202.505 195.908 202.755 196.078C203.015 196.248 203.205 196.448 203.325 196.678C203.455 196.908 203.52 197.188 203.52 197.518C203.52 198.248 203.24 198.828 202.68 199.258C202.12 199.688 201.365 199.903 200.415 199.903ZM205.082 199.753V191.923H206.402V199.753H205.082ZM205.082 190.453V188.803H206.402V190.453H205.082ZM212.589 199.363C212.509 199.403 212.404 199.453 212.274 199.513C212.144 199.563 211.994 199.618 211.824 199.678C211.664 199.728 211.484 199.768 211.284 199.798C211.094 199.838 210.894 199.858 210.684 199.858C210.204 199.858 209.789 199.728 209.439 199.468C209.089 199.198 208.914 198.783 208.914 198.223V192.958H207.849V191.923H208.914V189.313H210.234V191.923H211.989V192.958H210.234V197.818C210.254 198.108 210.349 198.318 210.519 198.448C210.689 198.578 210.889 198.643 211.119 198.643C211.379 198.643 211.614 198.603 211.824 198.523C212.044 198.433 212.194 198.363 212.274 198.313L212.589 199.363ZM219.617 199.903C219.247 199.903 218.902 199.843 218.582 199.723C218.262 199.593 217.982 199.418 217.742 199.198C217.512 198.978 217.327 198.723 217.187 198.433C217.057 198.133 216.992 197.808 216.992 197.458C216.992 197.098 217.072 196.773 217.232 196.483C217.392 196.183 217.617 195.928 217.907 195.718C218.207 195.508 218.557 195.343 218.957 195.223C219.367 195.103 219.812 195.043 220.292 195.043C220.672 195.043 221.057 195.078 221.447 195.148C221.837 195.218 222.182 195.313 222.482 195.433V194.803C222.482 194.163 222.302 193.663 221.942 193.303C221.582 192.933 221.072 192.748 220.412 192.748C219.622 192.748 218.792 193.053 217.922 193.663L217.487 192.808C218.497 192.128 219.512 191.788 220.532 191.788C221.562 191.788 222.362 192.063 222.932 192.613C223.512 193.163 223.802 193.938 223.802 194.938V198.133C223.802 198.443 223.942 198.603 224.222 198.613V199.753C224.082 199.773 223.967 199.788 223.877 199.798C223.787 199.808 223.692 199.813 223.592 199.813C223.332 199.813 223.122 199.738 222.962 199.588C222.812 199.428 222.722 199.238 222.692 199.018L222.662 198.463C222.312 198.933 221.867 199.293 221.327 199.543C220.797 199.783 220.227 199.903 219.617 199.903ZM219.962 198.913C220.432 198.913 220.867 198.828 221.267 198.658C221.677 198.478 221.987 198.243 222.197 197.953C222.387 197.763 222.482 197.568 222.482 197.368V196.213C221.842 195.963 221.177 195.838 220.487 195.838C219.827 195.838 219.287 195.978 218.867 196.258C218.457 196.538 218.252 196.903 218.252 197.353C218.252 197.573 218.292 197.778 218.372 197.968C218.462 198.158 218.582 198.323 218.732 198.463C218.892 198.603 219.077 198.713 219.287 198.793C219.497 198.873 219.722 198.913 219.962 198.913ZM237.717 199.753H236.397V195.373C236.397 194.553 236.262 193.948 235.992 193.558C235.732 193.168 235.342 192.973 234.822 192.973C234.282 192.973 233.797 193.168 233.367 193.558C232.947 193.938 232.647 194.433 232.467 195.043V199.753H231.147V195.373C231.147 194.533 231.017 193.923 230.757 193.543C230.497 193.163 230.107 192.973 229.587 192.973C229.057 192.973 228.577 193.163 228.147 193.543C227.717 193.913 227.412 194.408 227.232 195.028V199.753H225.912V191.923H227.112V193.603C227.432 193.023 227.847 192.578 228.357 192.268C228.867 191.948 229.442 191.788 230.082 191.788C230.742 191.788 231.262 191.968 231.642 192.328C232.032 192.678 232.272 193.133 232.362 193.693C233.062 192.423 234.057 191.788 235.347 191.788C235.797 191.788 236.172 191.873 236.472 192.043C236.782 192.203 237.027 192.433 237.207 192.733C237.387 193.023 237.517 193.368 237.597 193.768C237.677 194.168 237.717 194.603 237.717 195.073V199.753ZM243.235 199.903C242.645 199.903 242.105 199.798 241.615 199.588C241.125 199.368 240.705 199.073 240.355 198.703C240.005 198.333 239.73 197.903 239.53 197.413C239.34 196.913 239.245 196.388 239.245 195.838C239.245 195.288 239.34 194.768 239.53 194.278C239.73 193.788 240.005 193.358 240.355 192.988C240.715 192.618 241.14 192.328 241.63 192.118C242.12 191.898 242.66 191.788 243.25 191.788C243.84 191.788 244.375 191.898 244.855 192.118C245.345 192.338 245.76 192.633 246.1 193.003C246.44 193.363 246.7 193.788 246.88 194.278C247.07 194.758 247.165 195.258 247.165 195.778C247.165 195.888 247.16 195.988 247.15 196.078C247.15 196.168 247.145 196.238 247.135 196.288H240.64C240.67 196.678 240.76 197.033 240.91 197.353C241.06 197.673 241.255 197.948 241.495 198.178C241.735 198.408 242.005 198.588 242.305 198.718C242.615 198.848 242.94 198.913 243.28 198.913C243.52 198.913 243.755 198.883 243.985 198.823C244.215 198.753 244.43 198.663 244.63 198.553C244.83 198.443 245.005 198.308 245.155 198.148C245.315 197.988 245.435 197.808 245.515 197.608L246.655 197.923C246.525 198.213 246.345 198.478 246.115 198.718C245.895 198.958 245.635 199.168 245.335 199.348C245.045 199.518 244.72 199.653 244.36 199.753C244 199.853 243.625 199.903 243.235 199.903ZM245.92 195.313C245.89 194.943 245.795 194.603 245.635 194.293C245.485 193.973 245.29 193.703 245.05 193.483C244.82 193.263 244.55 193.093 244.24 192.973C243.93 192.843 243.6 192.778 243.25 192.778C242.9 192.778 242.57 192.843 242.26 192.973C241.95 193.093 241.675 193.268 241.435 193.498C241.205 193.718 241.015 193.983 240.865 194.293C240.725 194.603 240.64 194.943 240.61 195.313H245.92ZM252.609 199.363C252.529 199.403 252.424 199.453 252.294 199.513C252.164 199.563 252.014 199.618 251.844 199.678C251.684 199.728 251.504 199.768 251.304 199.798C251.114 199.838 250.914 199.858 250.704 199.858C250.224 199.858 249.809 199.728 249.459 199.468C249.109 199.198 248.934 198.783 248.934 198.223V192.958H247.869V191.923H248.934V189.313H250.254V191.923H252.009V192.958H250.254V197.818C250.274 198.108 250.369 198.318 250.539 198.448C250.709 198.578 250.909 198.643 251.139 198.643C251.399 198.643 251.634 198.603 251.844 198.523C252.064 198.433 252.214 198.363 252.294 198.313L252.609 199.363ZM253.877 200.968L254.177 199.633H253.727V198.073H254.972V199.633L254.522 200.968H253.877ZM60.2702 220.823C60.2702 220.273 60.3652 219.753 60.5552 219.263C60.7452 218.773 61.0152 218.348 61.3652 217.988C61.7152 217.618 62.1302 217.328 62.6102 217.118C63.1002 216.898 63.6452 216.788 64.2452 216.788C65.0252 216.788 65.6952 216.963 66.2552 217.313C66.8252 217.653 67.2552 218.113 67.5452 218.693L66.2552 219.098C66.0552 218.728 65.7752 218.443 65.4152 218.243C65.0552 218.033 64.6552 217.928 64.2152 217.928C63.8552 217.928 63.5152 218.003 63.1952 218.153C62.8752 218.293 62.6002 218.493 62.3702 218.753C62.1402 219.013 61.9552 219.318 61.8152 219.668C61.6852 220.018 61.6202 220.403 61.6202 220.823C61.6202 221.233 61.6902 221.618 61.8302 221.978C61.9702 222.338 62.1552 222.653 62.3852 222.923C62.6252 223.183 62.9002 223.388 63.2102 223.538C63.5302 223.688 63.8702 223.763 64.2302 223.763C64.4602 223.763 64.6852 223.733 64.9052 223.673C65.1352 223.603 65.3402 223.513 65.5202 223.403C65.7102 223.293 65.8752 223.168 66.0152 223.028C66.1552 222.878 66.2552 222.718 66.3152 222.548L67.6052 222.938C67.4852 223.228 67.3152 223.493 67.0952 223.733C66.8852 223.973 66.6352 224.178 66.3452 224.348C66.0552 224.518 65.7302 224.653 65.3702 224.753C65.0202 224.853 64.6502 224.903 64.2602 224.903C63.6702 224.903 63.1302 224.793 62.6402 224.573C62.1502 224.353 61.7302 224.058 61.3802 223.688C61.0302 223.318 60.7552 222.888 60.5552 222.398C60.3652 221.898 60.2702 221.373 60.2702 220.823ZM72.4476 224.903C71.8576 224.903 71.3176 224.793 70.8276 224.573C70.3476 224.353 69.9326 224.058 69.5826 223.688C69.2426 223.318 68.9776 222.888 68.7876 222.398C68.5976 221.908 68.5026 221.393 68.5026 220.853C68.5026 220.303 68.5976 219.783 68.7876 219.293C68.9876 218.803 69.2576 218.373 69.5976 218.003C69.9476 217.633 70.3626 217.338 70.8426 217.118C71.3326 216.898 71.8676 216.788 72.4476 216.788C73.0276 216.788 73.5626 216.898 74.0526 217.118C74.5426 217.338 74.9576 217.633 75.2976 218.003C75.6476 218.373 75.9176 218.803 76.1076 219.293C76.3076 219.783 76.4076 220.303 76.4076 220.853C76.4076 221.393 76.3126 221.908 76.1226 222.398C75.9326 222.888 75.6626 223.318 75.3126 223.688C74.9626 224.058 74.5426 224.353 74.0526 224.573C73.5726 224.793 73.0376 224.903 72.4476 224.903ZM69.8526 220.868C69.8526 221.278 69.9176 221.658 70.0476 222.008C70.1876 222.358 70.3726 222.663 70.6026 222.923C70.8426 223.183 71.1176 223.388 71.4276 223.538C71.7476 223.688 72.0876 223.763 72.4476 223.763C72.8076 223.763 73.1426 223.688 73.4526 223.538C73.7726 223.388 74.0526 223.183 74.2926 222.923C74.5326 222.653 74.7176 222.343 74.8476 221.993C74.9876 221.633 75.0576 221.248 75.0576 220.838C75.0576 220.438 74.9876 220.063 74.8476 219.713C74.7176 219.353 74.5326 219.043 74.2926 218.783C74.0526 218.513 73.7726 218.303 73.4526 218.153C73.1426 218.003 72.8076 217.928 72.4476 217.928C72.0876 217.928 71.7476 218.008 71.4276 218.168C71.1176 218.318 70.8426 218.528 70.6026 218.798C70.3726 219.058 70.1876 219.368 70.0476 219.728C69.9176 220.078 69.8526 220.458 69.8526 220.868ZM84.8021 224.753H83.4821V220.373C83.4821 219.533 83.3521 218.923 83.0921 218.543C82.8421 218.163 82.4571 217.973 81.9371 217.973C81.6671 217.973 81.3971 218.028 81.1271 218.138C80.8571 218.238 80.6021 218.378 80.3621 218.558C80.1221 218.738 79.9121 218.953 79.7321 219.203C79.5521 219.453 79.4171 219.728 79.3271 220.028V224.753H78.0071V216.923H79.2071V218.603C79.5171 218.053 79.9621 217.613 80.5421 217.283C81.1321 216.953 81.7721 216.788 82.4621 216.788C82.9121 216.788 83.2871 216.873 83.5871 217.043C83.8871 217.203 84.1271 217.433 84.3071 217.733C84.4871 218.023 84.6121 218.368 84.6821 218.768C84.7621 219.168 84.8021 219.603 84.8021 220.073V224.753ZM89.5998 224.903C88.9698 224.903 88.3498 224.808 87.7398 224.618C87.1298 224.418 86.6048 224.133 86.1648 223.763L86.7348 222.878C87.1948 223.228 87.6548 223.493 88.1148 223.673C88.5748 223.843 89.0598 223.928 89.5698 223.928C90.1398 223.928 90.5898 223.818 90.9198 223.598C91.2598 223.368 91.4298 223.048 91.4298 222.638C91.4298 222.448 91.3848 222.288 91.2948 222.158C91.2048 222.018 91.0698 221.898 90.8898 221.798C90.7098 221.698 90.4798 221.608 90.1998 221.528C89.9198 221.448 89.5948 221.363 89.2248 221.273C88.7548 221.153 88.3498 221.038 88.0098 220.928C87.6698 220.818 87.3898 220.688 87.1698 220.538C86.9498 220.388 86.7898 220.208 86.6898 219.998C86.5898 219.788 86.5398 219.528 86.5398 219.218C86.5398 218.828 86.6148 218.483 86.7648 218.183C86.9248 217.873 87.1398 217.618 87.4098 217.418C87.6798 217.208 87.9948 217.053 88.3548 216.953C88.7248 216.843 89.1198 216.788 89.5398 216.788C90.1298 216.788 90.6798 216.883 91.1898 217.073C91.6998 217.263 92.1298 217.513 92.4798 217.823L91.8798 218.618C91.5498 218.328 91.1798 218.113 90.7698 217.973C90.3598 217.823 89.9398 217.748 89.5098 217.748C89.0298 217.748 88.6198 217.853 88.2798 218.063C87.9498 218.263 87.7848 218.588 87.7848 219.038C87.7848 219.218 87.8148 219.368 87.8748 219.488C87.9448 219.608 88.0548 219.713 88.2048 219.803C88.3548 219.893 88.5448 219.973 88.7748 220.043C89.0148 220.113 89.2998 220.188 89.6298 220.268C90.1498 220.388 90.5998 220.513 90.9798 220.643C91.3698 220.763 91.6898 220.908 91.9398 221.078C92.1998 221.248 92.3898 221.448 92.5098 221.678C92.6398 221.908 92.7048 222.188 92.7048 222.518C92.7048 223.248 92.4248 223.828 91.8648 224.258C91.3048 224.688 90.5498 224.903 89.5998 224.903ZM97.7319 224.903C97.1419 224.903 96.6019 224.798 96.1119 224.588C95.6219 224.368 95.2019 224.073 94.8519 223.703C94.5019 223.333 94.2269 222.903 94.0269 222.413C93.8369 221.913 93.7419 221.388 93.7419 220.838C93.7419 220.288 93.8369 219.768 94.0269 219.278C94.2269 218.788 94.5019 218.358 94.8519 217.988C95.2119 217.618 95.6369 217.328 96.1269 217.118C96.6169 216.898 97.1569 216.788 97.7469 216.788C98.3369 216.788 98.8719 216.898 99.3519 217.118C99.8419 217.338 100.257 217.633 100.597 218.003C100.937 218.363 101.197 218.788 101.377 219.278C101.567 219.758 101.662 220.258 101.662 220.778C101.662 220.888 101.657 220.988 101.647 221.078C101.647 221.168 101.642 221.238 101.632 221.288H95.1369C95.1669 221.678 95.2569 222.033 95.4069 222.353C95.5569 222.673 95.7519 222.948 95.9919 223.178C96.2319 223.408 96.5019 223.588 96.8019 223.718C97.1119 223.848 97.4369 223.913 97.7769 223.913C98.0169 223.913 98.2519 223.883 98.4819 223.823C98.7119 223.753 98.9269 223.663 99.1269 223.553C99.3269 223.443 99.5019 223.308 99.6519 223.148C99.8119 222.988 99.9319 222.808 100.012 222.608L101.152 222.923C101.022 223.213 100.842 223.478 100.612 223.718C100.392 223.958 100.132 224.168 99.8319 224.348C99.5419 224.518 99.2169 224.653 98.8569 224.753C98.4969 224.853 98.1219 224.903 97.7319 224.903ZM100.417 220.313C100.387 219.943 100.292 219.603 100.132 219.293C99.9819 218.973 99.7869 218.703 99.5469 218.483C99.3169 218.263 99.0469 218.093 98.7369 217.973C98.4269 217.843 98.0969 217.778 97.7469 217.778C97.3969 217.778 97.0669 217.843 96.7569 217.973C96.4469 218.093 96.1719 218.268 95.9319 218.498C95.7019 218.718 95.5119 218.983 95.3619 219.293C95.2219 219.603 95.1369 219.943 95.1069 220.313H100.417ZM102.604 220.823C102.604 220.273 102.699 219.753 102.889 219.263C103.079 218.773 103.349 218.348 103.699 217.988C104.049 217.618 104.464 217.328 104.944 217.118C105.434 216.898 105.979 216.788 106.579 216.788C107.359 216.788 108.029 216.963 108.589 217.313C109.159 217.653 109.589 218.113 109.879 218.693L108.589 219.098C108.389 218.728 108.109 218.443 107.749 218.243C107.389 218.033 106.989 217.928 106.549 217.928C106.189 217.928 105.849 218.003 105.529 218.153C105.209 218.293 104.934 218.493 104.704 218.753C104.474 219.013 104.289 219.318 104.149 219.668C104.019 220.018 103.954 220.403 103.954 220.823C103.954 221.233 104.024 221.618 104.164 221.978C104.304 222.338 104.489 222.653 104.719 222.923C104.959 223.183 105.234 223.388 105.544 223.538C105.864 223.688 106.204 223.763 106.564 223.763C106.794 223.763 107.019 223.733 107.239 223.673C107.469 223.603 107.674 223.513 107.854 223.403C108.044 223.293 108.209 223.168 108.349 223.028C108.489 222.878 108.589 222.718 108.649 222.548L109.939 222.938C109.819 223.228 109.649 223.493 109.429 223.733C109.219 223.973 108.969 224.178 108.679 224.348C108.389 224.518 108.064 224.653 107.704 224.753C107.354 224.853 106.984 224.903 106.594 224.903C106.004 224.903 105.464 224.793 104.974 224.573C104.484 224.353 104.064 224.058 103.714 223.688C103.364 223.318 103.089 222.888 102.889 222.398C102.699 221.898 102.604 221.373 102.604 220.823ZM115.485 224.363C115.405 224.403 115.3 224.453 115.17 224.513C115.04 224.563 114.89 224.618 114.72 224.678C114.56 224.728 114.38 224.768 114.18 224.798C113.99 224.838 113.79 224.858 113.58 224.858C113.1 224.858 112.685 224.728 112.335 224.468C111.985 224.198 111.81 223.783 111.81 223.223V217.958H110.745V216.923H111.81V214.313H113.13V216.923H114.885V217.958H113.13V222.818C113.15 223.108 113.245 223.318 113.415 223.448C113.585 223.578 113.785 223.643 114.015 223.643C114.275 223.643 114.51 223.603 114.72 223.523C114.94 223.433 115.09 223.363 115.17 223.313L115.485 224.363ZM120.071 224.903C119.481 224.903 118.941 224.798 118.451 224.588C117.961 224.368 117.541 224.073 117.191 223.703C116.841 223.333 116.566 222.903 116.366 222.413C116.176 221.913 116.081 221.388 116.081 220.838C116.081 220.288 116.176 219.768 116.366 219.278C116.566 218.788 116.841 218.358 117.191 217.988C117.551 217.618 117.976 217.328 118.466 217.118C118.956 216.898 119.496 216.788 120.086 216.788C120.676 216.788 121.211 216.898 121.691 217.118C122.181 217.338 122.596 217.633 122.936 218.003C123.276 218.363 123.536 218.788 123.716 219.278C123.906 219.758 124.001 220.258 124.001 220.778C124.001 220.888 123.996 220.988 123.986 221.078C123.986 221.168 123.981 221.238 123.971 221.288H117.476C117.506 221.678 117.596 222.033 117.746 222.353C117.896 222.673 118.091 222.948 118.331 223.178C118.571 223.408 118.841 223.588 119.141 223.718C119.451 223.848 119.776 223.913 120.116 223.913C120.356 223.913 120.591 223.883 120.821 223.823C121.051 223.753 121.266 223.663 121.466 223.553C121.666 223.443 121.841 223.308 121.991 223.148C122.151 222.988 122.271 222.808 122.351 222.608L123.491 222.923C123.361 223.213 123.181 223.478 122.951 223.718C122.731 223.958 122.471 224.168 122.171 224.348C121.881 224.518 121.556 224.653 121.196 224.753C120.836 224.853 120.461 224.903 120.071 224.903ZM122.756 220.313C122.726 219.943 122.631 219.603 122.471 219.293C122.321 218.973 122.126 218.703 121.886 218.483C121.656 218.263 121.386 218.093 121.076 217.973C120.766 217.843 120.436 217.778 120.086 217.778C119.736 217.778 119.406 217.843 119.096 217.973C118.786 218.093 118.511 218.268 118.271 218.498C118.041 218.718 117.851 218.983 117.701 219.293C117.561 219.603 117.476 219.943 117.446 220.313H122.756ZM129.445 224.363C129.365 224.403 129.26 224.453 129.13 224.513C129 224.563 128.85 224.618 128.68 224.678C128.52 224.728 128.34 224.768 128.14 224.798C127.95 224.838 127.75 224.858 127.54 224.858C127.06 224.858 126.645 224.728 126.295 224.468C125.945 224.198 125.77 223.783 125.77 223.223V217.958H124.705V216.923H125.77V214.313H127.09V216.923H128.845V217.958H127.09V222.818C127.11 223.108 127.205 223.318 127.375 223.448C127.545 223.578 127.745 223.643 127.975 223.643C128.235 223.643 128.47 223.603 128.68 223.523C128.9 223.433 129.05 223.363 129.13 223.313L129.445 224.363ZM133.083 224.903C132.263 224.903 131.643 224.628 131.223 224.078C130.803 223.528 130.593 222.708 130.593 221.618V216.923H131.913V221.363C131.913 222.963 132.468 223.763 133.578 223.763C134.118 223.763 134.623 223.593 135.093 223.253C135.573 222.903 135.928 222.428 136.158 221.828V216.923H137.478V223.133C137.478 223.443 137.618 223.603 137.898 223.613V224.753C137.748 224.773 137.628 224.783 137.538 224.783C137.458 224.793 137.378 224.798 137.298 224.798C137.038 224.798 136.818 224.723 136.638 224.573C136.468 224.413 136.378 224.218 136.368 223.988L136.338 223.073C135.988 223.663 135.528 224.118 134.958 224.438C134.388 224.748 133.763 224.903 133.083 224.903ZM143.817 218.078C143.157 218.098 142.572 218.268 142.062 218.588C141.562 218.908 141.207 219.353 140.997 219.923V224.753H139.677V216.923H140.907V218.738C141.177 218.198 141.532 217.763 141.972 217.433C142.412 217.093 142.882 216.903 143.382 216.863C143.482 216.863 143.567 216.863 143.637 216.863C143.707 216.863 143.767 216.868 143.817 216.878V218.078ZM150.579 224.903C150.209 224.903 149.864 224.843 149.544 224.723C149.224 224.593 148.944 224.418 148.704 224.198C148.474 223.978 148.289 223.723 148.149 223.433C148.019 223.133 147.954 222.808 147.954 222.458C147.954 222.098 148.034 221.773 148.194 221.483C148.354 221.183 148.579 220.928 148.869 220.718C149.169 220.508 149.519 220.343 149.919 220.223C150.329 220.103 150.774 220.043 151.254 220.043C151.634 220.043 152.019 220.078 152.409 220.148C152.799 220.218 153.144 220.313 153.444 220.433V219.803C153.444 219.163 153.264 218.663 152.904 218.303C152.544 217.933 152.034 217.748 151.374 217.748C150.584 217.748 149.754 218.053 148.884 218.663L148.449 217.808C149.459 217.128 150.474 216.788 151.494 216.788C152.524 216.788 153.324 217.063 153.894 217.613C154.474 218.163 154.764 218.938 154.764 219.938V223.133C154.764 223.443 154.904 223.603 155.184 223.613V224.753C155.044 224.773 154.929 224.788 154.839 224.798C154.749 224.808 154.654 224.813 154.554 224.813C154.294 224.813 154.084 224.738 153.924 224.588C153.774 224.428 153.684 224.238 153.654 224.018L153.624 223.463C153.274 223.933 152.829 224.293 152.289 224.543C151.759 224.783 151.189 224.903 150.579 224.903ZM150.924 223.913C151.394 223.913 151.829 223.828 152.229 223.658C152.639 223.478 152.949 223.243 153.159 222.953C153.349 222.763 153.444 222.568 153.444 222.368V221.213C152.804 220.963 152.139 220.838 151.449 220.838C150.789 220.838 150.249 220.978 149.829 221.258C149.419 221.538 149.214 221.903 149.214 222.353C149.214 222.573 149.254 222.778 149.334 222.968C149.424 223.158 149.544 223.323 149.694 223.463C149.854 223.603 150.039 223.713 150.249 223.793C150.459 223.873 150.684 223.913 150.924 223.913ZM160.099 224.903C159.559 224.903 159.059 224.793 158.599 224.573C158.139 224.353 157.744 224.058 157.414 223.688C157.084 223.318 156.824 222.888 156.634 222.398C156.454 221.908 156.364 221.393 156.364 220.853C156.364 220.303 156.449 219.783 156.619 219.293C156.799 218.793 157.044 218.358 157.354 217.988C157.674 217.618 158.049 217.328 158.479 217.118C158.919 216.898 159.399 216.788 159.919 216.788C160.549 216.788 161.109 216.953 161.599 217.283C162.099 217.613 162.494 218.013 162.784 218.483V213.803H164.104V223.133C164.104 223.443 164.244 223.603 164.524 223.613V224.753C164.384 224.773 164.269 224.788 164.179 224.798C164.099 224.808 164.019 224.813 163.939 224.813C163.679 224.813 163.449 224.728 163.249 224.558C163.059 224.378 162.964 224.173 162.964 223.943V223.283C162.654 223.793 162.239 224.193 161.719 224.483C161.209 224.763 160.669 224.903 160.099 224.903ZM160.414 223.763C160.654 223.763 160.899 223.718 161.149 223.628C161.409 223.538 161.649 223.413 161.869 223.253C162.099 223.093 162.294 222.908 162.454 222.698C162.624 222.478 162.734 222.248 162.784 222.008V219.758C162.694 219.508 162.559 219.273 162.379 219.053C162.199 218.823 161.994 218.628 161.764 218.468C161.544 218.298 161.304 218.168 161.044 218.078C160.794 217.978 160.544 217.928 160.294 217.928C159.904 217.928 159.549 218.013 159.229 218.183C158.919 218.343 158.649 218.563 158.419 218.843C158.199 219.113 158.029 219.428 157.909 219.788C157.789 220.138 157.729 220.498 157.729 220.868C157.729 221.258 157.799 221.633 157.939 221.993C158.079 222.343 158.269 222.648 158.509 222.908C158.749 223.168 159.029 223.378 159.349 223.538C159.679 223.688 160.034 223.763 160.414 223.763ZM166.308 224.753V216.923H167.628V224.753H166.308ZM166.308 215.453V213.803H167.628V215.453H166.308ZM173.98 224.903C173.33 224.903 172.755 224.743 172.255 224.423C171.765 224.103 171.375 223.698 171.085 223.208V227.948H169.765V216.923H170.935V218.393C171.245 217.913 171.645 217.528 172.135 217.238C172.635 216.938 173.185 216.788 173.785 216.788C174.325 216.788 174.82 216.898 175.27 217.118C175.72 217.338 176.11 217.638 176.44 218.018C176.77 218.388 177.025 218.818 177.205 219.308C177.395 219.798 177.49 220.308 177.49 220.838C177.49 221.398 177.405 221.928 177.235 222.428C177.065 222.918 176.825 223.348 176.515 223.718C176.205 224.078 175.835 224.368 175.405 224.588C174.975 224.798 174.5 224.903 173.98 224.903ZM173.575 223.763C173.965 223.763 174.315 223.683 174.625 223.523C174.945 223.353 175.215 223.133 175.435 222.863C175.665 222.583 175.84 222.268 175.96 221.918C176.08 221.568 176.14 221.208 176.14 220.838C176.14 220.448 176.07 220.078 175.93 219.728C175.79 219.368 175.6 219.058 175.36 218.798C175.12 218.528 174.835 218.318 174.505 218.168C174.185 218.008 173.835 217.928 173.455 217.928C173.215 217.928 172.965 217.978 172.705 218.078C172.455 218.168 172.215 218.293 171.985 218.453C171.765 218.603 171.57 218.788 171.4 219.008C171.24 219.218 171.135 219.443 171.085 219.683V221.918C171.195 222.178 171.335 222.423 171.505 222.653C171.675 222.873 171.87 223.068 172.09 223.238C172.31 223.398 172.545 223.528 172.795 223.628C173.045 223.718 173.305 223.763 173.575 223.763ZM179.111 224.753V216.923H180.431V224.753H179.111ZM179.111 215.453V213.803H180.431V215.453H179.111ZM185.313 224.903C184.683 224.903 184.063 224.808 183.453 224.618C182.843 224.418 182.318 224.133 181.878 223.763L182.448 222.878C182.908 223.228 183.368 223.493 183.828 223.673C184.288 223.843 184.773 223.928 185.283 223.928C185.853 223.928 186.303 223.818 186.633 223.598C186.973 223.368 187.143 223.048 187.143 222.638C187.143 222.448 187.098 222.288 187.008 222.158C186.918 222.018 186.783 221.898 186.603 221.798C186.423 221.698 186.193 221.608 185.913 221.528C185.633 221.448 185.308 221.363 184.938 221.273C184.468 221.153 184.063 221.038 183.723 220.928C183.383 220.818 183.103 220.688 182.883 220.538C182.663 220.388 182.503 220.208 182.403 219.998C182.303 219.788 182.253 219.528 182.253 219.218C182.253 218.828 182.328 218.483 182.478 218.183C182.638 217.873 182.853 217.618 183.123 217.418C183.393 217.208 183.708 217.053 184.068 216.953C184.438 216.843 184.833 216.788 185.253 216.788C185.843 216.788 186.393 216.883 186.903 217.073C187.413 217.263 187.843 217.513 188.193 217.823L187.593 218.618C187.263 218.328 186.893 218.113 186.483 217.973C186.073 217.823 185.653 217.748 185.223 217.748C184.743 217.748 184.333 217.853 183.993 218.063C183.663 218.263 183.498 218.588 183.498 219.038C183.498 219.218 183.528 219.368 183.588 219.488C183.658 219.608 183.768 219.713 183.918 219.803C184.068 219.893 184.258 219.973 184.488 220.043C184.728 220.113 185.013 220.188 185.343 220.268C185.863 220.388 186.313 220.513 186.693 220.643C187.083 220.763 187.403 220.908 187.653 221.078C187.913 221.248 188.103 221.448 188.223 221.678C188.353 221.908 188.418 222.188 188.418 222.518C188.418 223.248 188.138 223.828 187.578 224.258C187.018 224.688 186.263 224.903 185.313 224.903ZM189.98 224.753V216.923H191.3V224.753H189.98ZM189.98 215.453V213.803H191.3V215.453H189.98ZM192.912 220.823C192.912 220.273 193.007 219.753 193.197 219.263C193.387 218.773 193.657 218.348 194.007 217.988C194.357 217.618 194.772 217.328 195.252 217.118C195.742 216.898 196.287 216.788 196.887 216.788C197.667 216.788 198.337 216.963 198.897 217.313C199.467 217.653 199.897 218.113 200.187 218.693L198.897 219.098C198.697 218.728 198.417 218.443 198.057 218.243C197.697 218.033 197.297 217.928 196.857 217.928C196.497 217.928 196.157 218.003 195.837 218.153C195.517 218.293 195.242 218.493 195.012 218.753C194.782 219.013 194.597 219.318 194.457 219.668C194.327 220.018 194.262 220.403 194.262 220.823C194.262 221.233 194.332 221.618 194.472 221.978C194.612 222.338 194.797 222.653 195.027 222.923C195.267 223.183 195.542 223.388 195.852 223.538C196.172 223.688 196.512 223.763 196.872 223.763C197.102 223.763 197.327 223.733 197.547 223.673C197.777 223.603 197.982 223.513 198.162 223.403C198.352 223.293 198.517 223.168 198.657 223.028C198.797 222.878 198.897 222.718 198.957 222.548L200.247 222.938C200.127 223.228 199.957 223.493 199.737 223.733C199.527 223.973 199.277 224.178 198.987 224.348C198.697 224.518 198.372 224.653 198.012 224.753C197.662 224.853 197.292 224.903 196.902 224.903C196.312 224.903 195.772 224.793 195.282 224.573C194.792 224.353 194.372 224.058 194.022 223.688C193.672 223.318 193.397 222.888 193.197 222.398C193.007 221.898 192.912 221.373 192.912 220.823ZM201.742 224.753V216.923H203.062V224.753H201.742ZM201.742 215.453V213.803H203.062V215.453H201.742ZM211.995 224.753H210.675V220.373C210.675 219.533 210.545 218.923 210.285 218.543C210.035 218.163 209.65 217.973 209.13 217.973C208.86 217.973 208.59 218.028 208.32 218.138C208.05 218.238 207.795 218.378 207.555 218.558C207.315 218.738 207.105 218.953 206.925 219.203C206.745 219.453 206.61 219.728 206.52 220.028V224.753H205.2V216.923H206.4V218.603C206.71 218.053 207.155 217.613 207.735 217.283C208.325 216.953 208.965 216.788 209.655 216.788C210.105 216.788 210.48 216.873 210.78 217.043C211.08 217.203 211.32 217.433 211.5 217.733C211.68 218.023 211.805 218.368 211.875 218.768C211.955 219.168 211.995 219.603 211.995 220.073V224.753ZM217.167 224.843C216.637 224.843 216.147 224.733 215.697 224.513C215.257 224.293 214.877 223.998 214.557 223.628C214.237 223.258 213.987 222.833 213.807 222.353C213.637 221.873 213.552 221.373 213.552 220.853C213.552 220.303 213.637 219.783 213.807 219.293C213.987 218.793 214.237 218.358 214.557 217.988C214.877 217.618 215.257 217.328 215.697 217.118C216.147 216.898 216.642 216.788 217.182 216.788C217.842 216.788 218.412 216.948 218.892 217.268C219.372 217.588 219.777 217.993 220.107 218.483V216.923H221.277V224.663C221.277 225.223 221.172 225.713 220.962 226.133C220.752 226.563 220.467 226.923 220.107 227.213C219.747 227.503 219.322 227.723 218.832 227.873C218.352 228.023 217.837 228.098 217.287 228.098C216.397 228.098 215.672 227.943 215.112 227.633C214.562 227.333 214.102 226.913 213.732 226.373L214.497 225.698C214.807 226.158 215.207 226.503 215.697 226.733C216.187 226.963 216.717 227.078 217.287 227.078C217.647 227.078 217.987 227.028 218.307 226.928C218.637 226.828 218.922 226.678 219.162 226.478C219.402 226.278 219.592 226.028 219.732 225.728C219.882 225.428 219.957 225.073 219.957 224.663V223.283C219.807 223.523 219.627 223.743 219.417 223.943C219.217 224.133 218.997 224.298 218.757 224.438C218.517 224.568 218.262 224.668 217.992 224.738C217.722 224.808 217.447 224.843 217.167 224.843ZM217.572 223.763C217.852 223.763 218.122 223.713 218.382 223.613C218.642 223.513 218.882 223.383 219.102 223.223C219.322 223.053 219.507 222.863 219.657 222.653C219.807 222.443 219.907 222.228 219.957 222.008V219.758C219.847 219.488 219.702 219.243 219.522 219.023C219.352 218.803 219.157 218.613 218.937 218.453C218.717 218.283 218.477 218.153 218.217 218.063C217.967 217.973 217.712 217.928 217.452 217.928C217.052 217.928 216.692 218.013 216.372 218.183C216.062 218.353 215.797 218.578 215.577 218.858C215.357 219.138 215.187 219.458 215.067 219.818C214.947 220.168 214.887 220.523 214.887 220.883C214.887 221.273 214.957 221.643 215.097 221.993C215.237 222.343 215.427 222.648 215.667 222.908C215.907 223.168 216.187 223.378 216.507 223.538C216.837 223.688 217.192 223.763 217.572 223.763ZM230.666 224.903C230.076 224.903 229.536 224.798 229.046 224.588C228.556 224.368 228.136 224.073 227.786 223.703C227.436 223.333 227.161 222.903 226.961 222.413C226.771 221.913 226.676 221.388 226.676 220.838C226.676 220.288 226.771 219.768 226.961 219.278C227.161 218.788 227.436 218.358 227.786 217.988C228.146 217.618 228.571 217.328 229.061 217.118C229.551 216.898 230.091 216.788 230.681 216.788C231.271 216.788 231.806 216.898 232.286 217.118C232.776 217.338 233.191 217.633 233.531 218.003C233.871 218.363 234.131 218.788 234.311 219.278C234.501 219.758 234.596 220.258 234.596 220.778C234.596 220.888 234.591 220.988 234.581 221.078C234.581 221.168 234.576 221.238 234.566 221.288H228.071C228.101 221.678 228.191 222.033 228.341 222.353C228.491 222.673 228.686 222.948 228.926 223.178C229.166 223.408 229.436 223.588 229.736 223.718C230.046 223.848 230.371 223.913 230.711 223.913C230.951 223.913 231.186 223.883 231.416 223.823C231.646 223.753 231.861 223.663 232.061 223.553C232.261 223.443 232.436 223.308 232.586 223.148C232.746 222.988 232.866 222.808 232.946 222.608L234.086 222.923C233.956 223.213 233.776 223.478 233.546 223.718C233.326 223.958 233.066 224.168 232.766 224.348C232.476 224.518 232.151 224.653 231.791 224.753C231.431 224.853 231.056 224.903 230.666 224.903ZM233.351 220.313C233.321 219.943 233.226 219.603 233.066 219.293C232.916 218.973 232.721 218.703 232.481 218.483C232.251 218.263 231.981 218.093 231.671 217.973C231.361 217.843 231.031 217.778 230.681 217.778C230.331 217.778 230.001 217.843 229.691 217.973C229.381 218.093 229.106 218.268 228.866 218.498C228.636 218.718 228.446 218.983 228.296 219.293C228.156 219.603 228.071 219.943 228.041 220.313H233.351ZM236.094 213.803H237.414V222.728C237.414 223.018 237.489 223.248 237.639 223.418C237.799 223.578 238.019 223.658 238.299 223.658C238.409 223.658 238.539 223.643 238.689 223.613C238.839 223.573 238.979 223.528 239.109 223.478L239.319 224.543C239.099 224.633 238.839 224.708 238.539 224.768C238.239 224.828 237.974 224.858 237.744 224.858C237.234 224.858 236.829 224.713 236.529 224.423C236.239 224.133 236.094 223.728 236.094 223.208V213.803ZM240.356 224.753V216.923H241.676V224.753H240.356ZM240.356 215.453V213.803H241.676V215.453H240.356ZM247.863 224.363C247.783 224.403 247.678 224.453 247.548 224.513C247.418 224.563 247.268 224.618 247.098 224.678C246.938 224.728 246.758 224.768 246.558 224.798C246.368 224.838 246.168 224.858 245.958 224.858C245.478 224.858 245.063 224.728 244.713 224.468C244.363 224.198 244.188 223.783 244.188 223.223V217.958H243.123V216.923H244.188V214.313H245.508V216.923H247.263V217.958H245.508V222.818C245.528 223.108 245.623 223.318 245.793 223.448C245.963 223.578 246.163 223.643 246.393 223.643C246.653 223.643 246.888 223.603 247.098 223.523C247.318 223.433 247.468 223.363 247.548 223.313L247.863 224.363ZM249.131 225.968L249.431 224.633H248.981V223.073H250.226V224.633L249.776 225.968H249.131ZM63.5402 249.903C62.9102 249.903 62.2902 249.808 61.6802 249.618C61.0702 249.418 60.5452 249.133 60.1052 248.763L60.6752 247.878C61.1352 248.228 61.5952 248.493 62.0552 248.673C62.5152 248.843 63.0002 248.928 63.5102 248.928C64.0802 248.928 64.5302 248.818 64.8602 248.598C65.2002 248.368 65.3702 248.048 65.3702 247.638C65.3702 247.448 65.3252 247.288 65.2352 247.158C65.1452 247.018 65.0102 246.898 64.8302 246.798C64.6502 246.698 64.4202 246.608 64.1402 246.528C63.8602 246.448 63.5352 246.363 63.1652 246.273C62.6952 246.153 62.2902 246.038 61.9502 245.928C61.6102 245.818 61.3302 245.688 61.1102 245.538C60.8902 245.388 60.7302 245.208 60.6302 244.998C60.5302 244.788 60.4802 244.528 60.4802 244.218C60.4802 243.828 60.5552 243.483 60.7052 243.183C60.8652 242.873 61.0802 242.618 61.3502 242.418C61.6202 242.208 61.9352 242.053 62.2952 241.953C62.6652 241.843 63.0602 241.788 63.4802 241.788C64.0702 241.788 64.6202 241.883 65.1302 242.073C65.6402 242.263 66.0702 242.513 66.4202 242.823L65.8202 243.618C65.4902 243.328 65.1202 243.113 64.7102 242.973C64.3002 242.823 63.8802 242.748 63.4502 242.748C62.9702 242.748 62.5602 242.853 62.2202 243.063C61.8902 243.263 61.7252 243.588 61.7252 244.038C61.7252 244.218 61.7552 244.368 61.8152 244.488C61.8852 244.608 61.9952 244.713 62.1452 244.803C62.2952 244.893 62.4852 244.973 62.7152 245.043C62.9552 245.113 63.2402 245.188 63.5702 245.268C64.0902 245.388 64.5402 245.513 64.9202 245.643C65.3102 245.763 65.6302 245.908 65.8802 246.078C66.1402 246.248 66.3302 246.448 66.4502 246.678C66.5802 246.908 66.6452 247.188 66.6452 247.518C66.6452 248.248 66.3652 248.828 65.8052 249.258C65.2452 249.688 64.4902 249.903 63.5402 249.903ZM71.6723 249.903C71.0823 249.903 70.5423 249.798 70.0523 249.588C69.5623 249.368 69.1423 249.073 68.7923 248.703C68.4423 248.333 68.1673 247.903 67.9673 247.413C67.7773 246.913 67.6823 246.388 67.6823 245.838C67.6823 245.288 67.7773 244.768 67.9673 244.278C68.1673 243.788 68.4423 243.358 68.7923 242.988C69.1523 242.618 69.5773 242.328 70.0673 242.118C70.5573 241.898 71.0973 241.788 71.6873 241.788C72.2773 241.788 72.8123 241.898 73.2923 242.118C73.7823 242.338 74.1973 242.633 74.5373 243.003C74.8773 243.363 75.1373 243.788 75.3173 244.278C75.5073 244.758 75.6023 245.258 75.6023 245.778C75.6023 245.888 75.5973 245.988 75.5873 246.078C75.5873 246.168 75.5823 246.238 75.5723 246.288H69.0773C69.1073 246.678 69.1973 247.033 69.3473 247.353C69.4973 247.673 69.6923 247.948 69.9323 248.178C70.1723 248.408 70.4423 248.588 70.7423 248.718C71.0523 248.848 71.3773 248.913 71.7173 248.913C71.9573 248.913 72.1923 248.883 72.4223 248.823C72.6523 248.753 72.8673 248.663 73.0673 248.553C73.2673 248.443 73.4423 248.308 73.5923 248.148C73.7523 247.988 73.8723 247.808 73.9523 247.608L75.0923 247.923C74.9623 248.213 74.7823 248.478 74.5523 248.718C74.3323 248.958 74.0723 249.168 73.7723 249.348C73.4823 249.518 73.1573 249.653 72.7973 249.753C72.4373 249.853 72.0623 249.903 71.6723 249.903ZM74.3573 245.313C74.3273 244.943 74.2323 244.603 74.0723 244.293C73.9223 243.973 73.7273 243.703 73.4873 243.483C73.2573 243.263 72.9873 243.093 72.6773 242.973C72.3673 242.843 72.0373 242.778 71.6873 242.778C71.3373 242.778 71.0073 242.843 70.6973 242.973C70.3873 243.093 70.1123 243.268 69.8723 243.498C69.6423 243.718 69.4523 243.983 69.3023 244.293C69.1623 244.603 69.0773 244.943 69.0473 245.313H74.3573ZM80.2946 249.903C79.7546 249.903 79.2546 249.793 78.7946 249.573C78.3346 249.353 77.9396 249.058 77.6096 248.688C77.2796 248.318 77.0196 247.888 76.8296 247.398C76.6496 246.908 76.5596 246.393 76.5596 245.853C76.5596 245.303 76.6446 244.783 76.8146 244.293C76.9946 243.793 77.2396 243.358 77.5496 242.988C77.8696 242.618 78.2446 242.328 78.6746 242.118C79.1146 241.898 79.5946 241.788 80.1146 241.788C80.7446 241.788 81.3046 241.953 81.7946 242.283C82.2946 242.613 82.6896 243.013 82.9796 243.483V238.803H84.2996V248.133C84.2996 248.443 84.4396 248.603 84.7196 248.613V249.753C84.5796 249.773 84.4646 249.788 84.3746 249.798C84.2946 249.808 84.2146 249.813 84.1346 249.813C83.8746 249.813 83.6446 249.728 83.4446 249.558C83.2546 249.378 83.1596 249.173 83.1596 248.943V248.283C82.8496 248.793 82.4346 249.193 81.9146 249.483C81.4046 249.763 80.8646 249.903 80.2946 249.903ZM80.6096 248.763C80.8496 248.763 81.0946 248.718 81.3446 248.628C81.6046 248.538 81.8446 248.413 82.0646 248.253C82.2946 248.093 82.4896 247.908 82.6496 247.698C82.8196 247.478 82.9296 247.248 82.9796 247.008V244.758C82.8896 244.508 82.7546 244.273 82.5746 244.053C82.3946 243.823 82.1896 243.628 81.9596 243.468C81.7396 243.298 81.4996 243.168 81.2396 243.078C80.9896 242.978 80.7396 242.928 80.4896 242.928C80.0996 242.928 79.7446 243.013 79.4246 243.183C79.1146 243.343 78.8446 243.563 78.6146 243.843C78.3946 244.113 78.2246 244.428 78.1046 244.788C77.9846 245.138 77.9246 245.498 77.9246 245.868C77.9246 246.258 77.9946 246.633 78.1346 246.993C78.2746 247.343 78.4646 247.648 78.7046 247.908C78.9446 248.168 79.2246 248.378 79.5446 248.538C79.8746 248.688 80.2296 248.763 80.6096 248.763ZM93.5222 249.903C92.9822 249.903 92.4822 249.793 92.0222 249.573C91.5622 249.353 91.1672 249.058 90.8372 248.688C90.5072 248.318 90.2472 247.888 90.0572 247.398C89.8772 246.908 89.7872 246.393 89.7872 245.853C89.7872 245.303 89.8722 244.783 90.0422 244.293C90.2222 243.793 90.4672 243.358 90.7772 242.988C91.0972 242.618 91.4722 242.328 91.9022 242.118C92.3422 241.898 92.8222 241.788 93.3422 241.788C93.9722 241.788 94.5322 241.953 95.0222 242.283C95.5222 242.613 95.9172 243.013 96.2072 243.483V238.803H97.5272V248.133C97.5272 248.443 97.6672 248.603 97.9472 248.613V249.753C97.8072 249.773 97.6922 249.788 97.6022 249.798C97.5222 249.808 97.4422 249.813 97.3622 249.813C97.1022 249.813 96.8722 249.728 96.6722 249.558C96.4822 249.378 96.3872 249.173 96.3872 248.943V248.283C96.0772 248.793 95.6622 249.193 95.1422 249.483C94.6322 249.763 94.0922 249.903 93.5222 249.903ZM93.8372 248.763C94.0772 248.763 94.3222 248.718 94.5722 248.628C94.8322 248.538 95.0722 248.413 95.2922 248.253C95.5222 248.093 95.7172 247.908 95.8772 247.698C96.0472 247.478 96.1572 247.248 96.2072 247.008V244.758C96.1172 244.508 95.9822 244.273 95.8022 244.053C95.6222 243.823 95.4172 243.628 95.1872 243.468C94.9672 243.298 94.7272 243.168 94.4672 243.078C94.2172 242.978 93.9672 242.928 93.7172 242.928C93.3272 242.928 92.9722 243.013 92.6522 243.183C92.3422 243.343 92.0722 243.563 91.8422 243.843C91.6222 244.113 91.4522 244.428 91.3322 244.788C91.2122 245.138 91.1522 245.498 91.1522 245.868C91.1522 246.258 91.2222 246.633 91.3622 246.993C91.5022 247.343 91.6922 247.648 91.9322 247.908C92.1722 248.168 92.4522 248.378 92.7722 248.538C93.1022 248.688 93.4572 248.763 93.8372 248.763ZM103.151 249.903C102.561 249.903 102.021 249.793 101.531 249.573C101.051 249.353 100.636 249.058 100.286 248.688C99.9458 248.318 99.6808 247.888 99.4908 247.398C99.3008 246.908 99.2058 246.393 99.2058 245.853C99.2058 245.303 99.3008 244.783 99.4908 244.293C99.6908 243.803 99.9608 243.373 100.301 243.003C100.651 242.633 101.066 242.338 101.546 242.118C102.036 241.898 102.571 241.788 103.151 241.788C103.731 241.788 104.266 241.898 104.756 242.118C105.246 242.338 105.661 242.633 106.001 243.003C106.351 243.373 106.621 243.803 106.811 244.293C107.011 244.783 107.111 245.303 107.111 245.853C107.111 246.393 107.016 246.908 106.826 247.398C106.636 247.888 106.366 248.318 106.016 248.688C105.666 249.058 105.246 249.353 104.756 249.573C104.276 249.793 103.741 249.903 103.151 249.903ZM100.556 245.868C100.556 246.278 100.621 246.658 100.751 247.008C100.891 247.358 101.076 247.663 101.306 247.923C101.546 248.183 101.821 248.388 102.131 248.538C102.451 248.688 102.791 248.763 103.151 248.763C103.511 248.763 103.846 248.688 104.156 248.538C104.476 248.388 104.756 248.183 104.996 247.923C105.236 247.653 105.421 247.343 105.551 246.993C105.691 246.633 105.761 246.248 105.761 245.838C105.761 245.438 105.691 245.063 105.551 244.713C105.421 244.353 105.236 244.043 104.996 243.783C104.756 243.513 104.476 243.303 104.156 243.153C103.846 243.003 103.511 242.928 103.151 242.928C102.791 242.928 102.451 243.008 102.131 243.168C101.821 243.318 101.546 243.528 101.306 243.798C101.076 244.058 100.891 244.368 100.751 244.728C100.621 245.078 100.556 245.458 100.556 245.868ZM115.969 249.903C115.379 249.903 114.839 249.798 114.349 249.588C113.859 249.368 113.439 249.073 113.089 248.703C112.739 248.333 112.464 247.903 112.264 247.413C112.074 246.913 111.979 246.388 111.979 245.838C111.979 245.288 112.074 244.768 112.264 244.278C112.464 243.788 112.739 243.358 113.089 242.988C113.449 242.618 113.874 242.328 114.364 242.118C114.854 241.898 115.394 241.788 115.984 241.788C116.574 241.788 117.109 241.898 117.589 242.118C118.079 242.338 118.494 242.633 118.834 243.003C119.174 243.363 119.434 243.788 119.614 244.278C119.804 244.758 119.899 245.258 119.899 245.778C119.899 245.888 119.894 245.988 119.884 246.078C119.884 246.168 119.879 246.238 119.869 246.288H113.374C113.404 246.678 113.494 247.033 113.644 247.353C113.794 247.673 113.989 247.948 114.229 248.178C114.469 248.408 114.739 248.588 115.039 248.718C115.349 248.848 115.674 248.913 116.014 248.913C116.254 248.913 116.489 248.883 116.719 248.823C116.949 248.753 117.164 248.663 117.364 248.553C117.564 248.443 117.739 248.308 117.889 248.148C118.049 247.988 118.169 247.808 118.249 247.608L119.389 247.923C119.259 248.213 119.079 248.478 118.849 248.718C118.629 248.958 118.369 249.168 118.069 249.348C117.779 249.518 117.454 249.653 117.094 249.753C116.734 249.853 116.359 249.903 115.969 249.903ZM118.654 245.313C118.624 244.943 118.529 244.603 118.369 244.293C118.219 243.973 118.024 243.703 117.784 243.483C117.554 243.263 117.284 243.093 116.974 242.973C116.664 242.843 116.334 242.778 115.984 242.778C115.634 242.778 115.304 242.843 114.994 242.973C114.684 243.093 114.409 243.268 114.169 243.498C113.939 243.718 113.749 243.983 113.599 244.293C113.459 244.603 113.374 244.943 113.344 245.313H118.654ZM121.367 249.753V241.923H122.687V249.753H121.367ZM121.367 240.453V238.803H122.687V240.453H121.367ZM127.239 249.903C126.419 249.903 125.799 249.628 125.379 249.078C124.959 248.528 124.749 247.708 124.749 246.618V241.923H126.069V246.363C126.069 247.963 126.624 248.763 127.734 248.763C128.274 248.763 128.779 248.593 129.249 248.253C129.729 247.903 130.084 247.428 130.314 246.828V241.923H131.634V248.133C131.634 248.443 131.774 248.603 132.054 248.613V249.753C131.904 249.773 131.784 249.783 131.694 249.783C131.614 249.793 131.534 249.798 131.454 249.798C131.194 249.798 130.974 249.723 130.794 249.573C130.624 249.413 130.534 249.218 130.524 248.988L130.494 248.073C130.144 248.663 129.684 249.118 129.114 249.438C128.544 249.748 127.919 249.903 127.239 249.903ZM136.577 249.903C135.947 249.903 135.327 249.808 134.717 249.618C134.107 249.418 133.582 249.133 133.142 248.763L133.712 247.878C134.172 248.228 134.632 248.493 135.092 248.673C135.552 248.843 136.037 248.928 136.547 248.928C137.117 248.928 137.567 248.818 137.897 248.598C138.237 248.368 138.407 248.048 138.407 247.638C138.407 247.448 138.362 247.288 138.272 247.158C138.182 247.018 138.047 246.898 137.867 246.798C137.687 246.698 137.457 246.608 137.177 246.528C136.897 246.448 136.572 246.363 136.202 246.273C135.732 246.153 135.327 246.038 134.987 245.928C134.647 245.818 134.367 245.688 134.147 245.538C133.927 245.388 133.767 245.208 133.667 244.998C133.567 244.788 133.517 244.528 133.517 244.218C133.517 243.828 133.592 243.483 133.742 243.183C133.902 242.873 134.117 242.618 134.387 242.418C134.657 242.208 134.972 242.053 135.332 241.953C135.702 241.843 136.097 241.788 136.517 241.788C137.107 241.788 137.657 241.883 138.167 242.073C138.677 242.263 139.107 242.513 139.457 242.823L138.857 243.618C138.527 243.328 138.157 243.113 137.747 242.973C137.337 242.823 136.917 242.748 136.487 242.748C136.007 242.748 135.597 242.853 135.257 243.063C134.927 243.263 134.762 243.588 134.762 244.038C134.762 244.218 134.792 244.368 134.852 244.488C134.922 244.608 135.032 244.713 135.182 244.803C135.332 244.893 135.522 244.973 135.752 245.043C135.992 245.113 136.277 245.188 136.607 245.268C137.127 245.388 137.577 245.513 137.957 245.643C138.347 245.763 138.667 245.908 138.917 246.078C139.177 246.248 139.367 246.448 139.487 246.678C139.617 246.908 139.682 247.188 139.682 247.518C139.682 248.248 139.402 248.828 138.842 249.258C138.282 249.688 137.527 249.903 136.577 249.903ZM153.049 249.753H151.729V245.373C151.729 244.553 151.594 243.948 151.324 243.558C151.064 243.168 150.674 242.973 150.154 242.973C149.614 242.973 149.129 243.168 148.699 243.558C148.279 243.938 147.979 244.433 147.799 245.043V249.753H146.479V245.373C146.479 244.533 146.349 243.923 146.089 243.543C145.829 243.163 145.439 242.973 144.919 242.973C144.389 242.973 143.909 243.163 143.479 243.543C143.049 243.913 142.744 244.408 142.564 245.028V249.753H141.244V241.923H142.444V243.603C142.764 243.023 143.179 242.578 143.689 242.268C144.199 241.948 144.774 241.788 145.414 241.788C146.074 241.788 146.594 241.968 146.974 242.328C147.364 242.678 147.604 243.133 147.694 243.693C148.394 242.423 149.389 241.788 150.679 241.788C151.129 241.788 151.504 241.873 151.804 242.043C152.114 242.203 152.359 242.433 152.539 242.733C152.719 243.023 152.849 243.368 152.929 243.768C153.009 244.168 153.049 244.603 153.049 245.073V249.753ZM158.522 249.903C157.932 249.903 157.392 249.793 156.902 249.573C156.422 249.353 156.007 249.058 155.657 248.688C155.317 248.318 155.052 247.888 154.862 247.398C154.672 246.908 154.577 246.393 154.577 245.853C154.577 245.303 154.672 244.783 154.862 244.293C155.062 243.803 155.332 243.373 155.672 243.003C156.022 242.633 156.437 242.338 156.917 242.118C157.407 241.898 157.942 241.788 158.522 241.788C159.102 241.788 159.637 241.898 160.127 242.118C160.617 242.338 161.032 242.633 161.372 243.003C161.722 243.373 161.992 243.803 162.182 244.293C162.382 244.783 162.482 245.303 162.482 245.853C162.482 246.393 162.387 246.908 162.197 247.398C162.007 247.888 161.737 248.318 161.387 248.688C161.037 249.058 160.617 249.353 160.127 249.573C159.647 249.793 159.112 249.903 158.522 249.903ZM155.927 245.868C155.927 246.278 155.992 246.658 156.122 247.008C156.262 247.358 156.447 247.663 156.677 247.923C156.917 248.183 157.192 248.388 157.502 248.538C157.822 248.688 158.162 248.763 158.522 248.763C158.882 248.763 159.217 248.688 159.527 248.538C159.847 248.388 160.127 248.183 160.367 247.923C160.607 247.653 160.792 247.343 160.922 246.993C161.062 246.633 161.132 246.248 161.132 245.838C161.132 245.438 161.062 245.063 160.922 244.713C160.792 244.353 160.607 244.043 160.367 243.783C160.127 243.513 159.847 243.303 159.527 243.153C159.217 243.003 158.882 242.928 158.522 242.928C158.162 242.928 157.822 243.008 157.502 243.168C157.192 243.318 156.917 243.528 156.677 243.798C156.447 244.058 156.262 244.368 156.122 244.728C155.992 245.078 155.927 245.458 155.927 245.868ZM167.306 249.903C166.766 249.903 166.266 249.793 165.806 249.573C165.346 249.353 164.951 249.058 164.621 248.688C164.291 248.318 164.031 247.888 163.841 247.398C163.661 246.908 163.571 246.393 163.571 245.853C163.571 245.303 163.656 244.783 163.826 244.293C164.006 243.793 164.251 243.358 164.561 242.988C164.881 242.618 165.256 242.328 165.686 242.118C166.126 241.898 166.606 241.788 167.126 241.788C167.756 241.788 168.316 241.953 168.806 242.283C169.306 242.613 169.701 243.013 169.991 243.483V238.803H171.311V248.133C171.311 248.443 171.451 248.603 171.731 248.613V249.753C171.591 249.773 171.476 249.788 171.386 249.798C171.306 249.808 171.226 249.813 171.146 249.813C170.886 249.813 170.656 249.728 170.456 249.558C170.266 249.378 170.171 249.173 170.171 248.943V248.283C169.861 248.793 169.446 249.193 168.926 249.483C168.416 249.763 167.876 249.903 167.306 249.903ZM167.621 248.763C167.861 248.763 168.106 248.718 168.356 248.628C168.616 248.538 168.856 248.413 169.076 248.253C169.306 248.093 169.501 247.908 169.661 247.698C169.831 247.478 169.941 247.248 169.991 247.008V244.758C169.901 244.508 169.766 244.273 169.586 244.053C169.406 243.823 169.201 243.628 168.971 243.468C168.751 243.298 168.511 243.168 168.251 243.078C168.001 242.978 167.751 242.928 167.501 242.928C167.111 242.928 166.756 243.013 166.436 243.183C166.126 243.343 165.856 243.563 165.626 243.843C165.406 244.113 165.236 244.428 165.116 244.788C164.996 245.138 164.936 245.498 164.936 245.868C164.936 246.258 165.006 246.633 165.146 246.993C165.286 247.343 165.476 247.648 165.716 247.908C165.956 248.168 166.236 248.378 166.556 248.538C166.886 248.688 167.241 248.763 167.621 248.763ZM181.359 249.363C181.279 249.403 181.174 249.453 181.044 249.513C180.914 249.563 180.764 249.618 180.594 249.678C180.434 249.728 180.254 249.768 180.054 249.798C179.864 249.838 179.664 249.858 179.454 249.858C178.974 249.858 178.559 249.728 178.209 249.468C177.859 249.198 177.684 248.783 177.684 248.223V242.958H176.619V241.923H177.684V239.313H179.004V241.923H180.759V242.958H179.004V247.818C179.024 248.108 179.119 248.318 179.289 248.448C179.459 248.578 179.659 248.643 179.889 248.643C180.149 248.643 180.384 248.603 180.594 248.523C180.814 248.433 180.964 248.363 181.044 248.313L181.359 249.363ZM185.945 249.903C185.355 249.903 184.815 249.798 184.325 249.588C183.835 249.368 183.415 249.073 183.065 248.703C182.715 248.333 182.44 247.903 182.24 247.413C182.05 246.913 181.955 246.388 181.955 245.838C181.955 245.288 182.05 244.768 182.24 244.278C182.44 243.788 182.715 243.358 183.065 242.988C183.425 242.618 183.85 242.328 184.34 242.118C184.83 241.898 185.37 241.788 185.96 241.788C186.55 241.788 187.085 241.898 187.565 242.118C188.055 242.338 188.47 242.633 188.81 243.003C189.15 243.363 189.41 243.788 189.59 244.278C189.78 244.758 189.875 245.258 189.875 245.778C189.875 245.888 189.87 245.988 189.86 246.078C189.86 246.168 189.855 246.238 189.845 246.288H183.35C183.38 246.678 183.47 247.033 183.62 247.353C183.77 247.673 183.965 247.948 184.205 248.178C184.445 248.408 184.715 248.588 185.015 248.718C185.325 248.848 185.65 248.913 185.99 248.913C186.23 248.913 186.465 248.883 186.695 248.823C186.925 248.753 187.14 248.663 187.34 248.553C187.54 248.443 187.715 248.308 187.865 248.148C188.025 247.988 188.145 247.808 188.225 247.608L189.365 247.923C189.235 248.213 189.055 248.478 188.825 248.718C188.605 248.958 188.345 249.168 188.045 249.348C187.755 249.518 187.43 249.653 187.07 249.753C186.71 249.853 186.335 249.903 185.945 249.903ZM188.63 245.313C188.6 244.943 188.505 244.603 188.345 244.293C188.195 243.973 188 243.703 187.76 243.483C187.53 243.263 187.26 243.093 186.95 242.973C186.64 242.843 186.31 242.778 185.96 242.778C185.61 242.778 185.28 242.843 184.97 242.973C184.66 243.093 184.385 243.268 184.145 243.498C183.915 243.718 183.725 243.983 183.575 244.293C183.435 244.603 183.35 244.943 183.32 245.313H188.63ZM203.147 249.753H201.827V245.373C201.827 244.553 201.692 243.948 201.422 243.558C201.162 243.168 200.772 242.973 200.252 242.973C199.712 242.973 199.227 243.168 198.797 243.558C198.377 243.938 198.077 244.433 197.897 245.043V249.753H196.577V245.373C196.577 244.533 196.447 243.923 196.187 243.543C195.927 243.163 195.537 242.973 195.017 242.973C194.487 242.973 194.007 243.163 193.577 243.543C193.147 243.913 192.842 244.408 192.662 245.028V249.753H191.342V241.923H192.542V243.603C192.862 243.023 193.277 242.578 193.787 242.268C194.297 241.948 194.872 241.788 195.512 241.788C196.172 241.788 196.692 241.968 197.072 242.328C197.462 242.678 197.702 243.133 197.792 243.693C198.492 242.423 199.487 241.788 200.777 241.788C201.227 241.788 201.602 241.873 201.902 242.043C202.212 242.203 202.457 242.433 202.637 242.733C202.817 243.023 202.947 243.368 203.027 243.768C203.107 244.168 203.147 244.603 203.147 245.073V249.753ZM209.415 249.903C208.765 249.903 208.19 249.743 207.69 249.423C207.2 249.103 206.81 248.698 206.52 248.208V252.948H205.2V241.923H206.37V243.393C206.68 242.913 207.08 242.528 207.57 242.238C208.07 241.938 208.62 241.788 209.22 241.788C209.76 241.788 210.255 241.898 210.705 242.118C211.155 242.338 211.545 242.638 211.875 243.018C212.205 243.388 212.46 243.818 212.64 244.308C212.83 244.798 212.925 245.308 212.925 245.838C212.925 246.398 212.84 246.928 212.67 247.428C212.5 247.918 212.26 248.348 211.95 248.718C211.64 249.078 211.27 249.368 210.84 249.588C210.41 249.798 209.935 249.903 209.415 249.903ZM209.01 248.763C209.4 248.763 209.75 248.683 210.06 248.523C210.38 248.353 210.65 248.133 210.87 247.863C211.1 247.583 211.275 247.268 211.395 246.918C211.515 246.568 211.575 246.208 211.575 245.838C211.575 245.448 211.505 245.078 211.365 244.728C211.225 244.368 211.035 244.058 210.795 243.798C210.555 243.528 210.27 243.318 209.94 243.168C209.62 243.008 209.27 242.928 208.89 242.928C208.65 242.928 208.4 242.978 208.14 243.078C207.89 243.168 207.65 243.293 207.42 243.453C207.2 243.603 207.005 243.788 206.835 244.008C206.675 244.218 206.57 244.443 206.52 244.683V246.918C206.63 247.178 206.77 247.423 206.94 247.653C207.11 247.873 207.305 248.068 207.525 248.238C207.745 248.398 207.98 248.528 208.23 248.628C208.48 248.718 208.74 248.763 209.01 248.763ZM217.965 249.903C217.375 249.903 216.835 249.793 216.345 249.573C215.865 249.353 215.45 249.058 215.1 248.688C214.76 248.318 214.495 247.888 214.305 247.398C214.115 246.908 214.02 246.393 214.02 245.853C214.02 245.303 214.115 244.783 214.305 244.293C214.505 243.803 214.775 243.373 215.115 243.003C215.465 242.633 215.88 242.338 216.36 242.118C216.85 241.898 217.385 241.788 217.965 241.788C218.545 241.788 219.08 241.898 219.57 242.118C220.06 242.338 220.475 242.633 220.815 243.003C221.165 243.373 221.435 243.803 221.625 244.293C221.825 244.783 221.925 245.303 221.925 245.853C221.925 246.393 221.83 246.908 221.64 247.398C221.45 247.888 221.18 248.318 220.83 248.688C220.48 249.058 220.06 249.353 219.57 249.573C219.09 249.793 218.555 249.903 217.965 249.903ZM215.37 245.868C215.37 246.278 215.435 246.658 215.565 247.008C215.705 247.358 215.89 247.663 216.12 247.923C216.36 248.183 216.635 248.388 216.945 248.538C217.265 248.688 217.605 248.763 217.965 248.763C218.325 248.763 218.66 248.688 218.97 248.538C219.29 248.388 219.57 248.183 219.81 247.923C220.05 247.653 220.235 247.343 220.365 246.993C220.505 246.633 220.575 246.248 220.575 245.838C220.575 245.438 220.505 245.063 220.365 244.713C220.235 244.353 220.05 244.043 219.81 243.783C219.57 243.513 219.29 243.303 218.97 243.153C218.66 243.003 218.325 242.928 217.965 242.928C217.605 242.928 217.265 243.008 216.945 243.168C216.635 243.318 216.36 243.528 216.12 243.798C215.89 244.058 215.705 244.368 215.565 244.728C215.435 245.078 215.37 245.458 215.37 245.868ZM227.665 243.078C227.005 243.098 226.42 243.268 225.91 243.588C225.41 243.908 225.055 244.353 224.845 244.923V249.753H223.525V241.923H224.755V243.738C225.025 243.198 225.38 242.763 225.82 242.433C226.26 242.093 226.73 241.903 227.23 241.863C227.33 241.863 227.415 241.863 227.485 241.863C227.555 241.863 227.615 241.868 227.665 241.878V243.078ZM234.494 249.753L231.794 245.928L230.294 247.338V249.753H228.974V238.803H230.294V246.003L234.314 241.938H235.769L232.649 245.178L235.919 249.753H234.494Z" fill="#4D6668"/>
<path d="M112.89 118.507H71.9979C65.2221 118.507 59.7302 113.015 59.7302 106.239V65.3467C59.7302 58.5708 65.2221 53.079 71.9979 53.079H112.89C119.666 53.079 125.158 58.5708 125.158 65.3467V106.239C125.158 113.015 119.666 118.507 112.89 118.507Z" fill="#EFECFF"/>
<path d="M107.437 102.15H77.4509C76.6965 102.15 76.0872 101.54 76.0872 100.786C76.0872 100.032 76.6965 99.4222 77.4509 99.4222H107.439C108.192 99.4222 108.803 100.034 108.803 100.786C108.803 101.538 108.192 102.15 107.437 102.15Z" fill="#6656B9"/>
<path d="M85.6294 79.3175C85.6294 78.377 84.8647 77.6144 83.9262 77.6144H79.1541C78.2136 77.6144 77.4509 78.3791 77.4509 79.3175V98.0605H85.6294V79.3175Z" fill="#6656B9"/>
<path d="M96.5333 87.0053V98.0605H88.3549V84.7705C88.3549 83.83 89.1175 83.0674 90.058 83.0674H93.8058V83.4088C93.8058 84.8953 94.6911 86.2447 96.0406 86.8438C96.2062 86.9113 96.3697 86.9644 96.5333 87.0053Z" fill="#6656B9"/>
<path d="M107.437 98.0604V90.2234C107.437 89.2829 106.673 88.5203 105.734 88.5203H100.964C100.024 88.5203 99.2609 89.2849 99.2609 90.2234V98.0604H107.437Z" fill="#6656B9"/>
<path d="M97.897 84.4291C97.713 84.4291 97.527 84.3923 97.3511 84.3146C96.8543 84.0978 96.5333 83.6071 96.5333 83.0674V80.3419H95.1695C93.6667 80.3398 92.444 79.1172 92.444 77.6144V72.1614C92.444 70.6586 93.6667 69.4359 95.1695 69.4359H106.073C107.578 69.4359 108.801 70.6586 108.801 72.1614V77.6144C108.801 79.1172 107.578 80.3398 106.075 80.3398H102.859L98.8212 84.0672C98.5636 84.3043 98.2323 84.4291 97.897 84.4291Z" fill="#6F5AE0" fill-opacity="0.51"/>
<defs>
<filter id="filter0_d" x="0.651367" y="0" width="317.349" height="337.704" filterUnits="userSpaceOnUse" color-interpolation-filters="sRGB">
<feFlood flood-opacity="0" result="BackgroundImageFix"/>
<feColorMatrix in="SourceAlpha" type="matrix" values="0 0 0 0 0 0 0 0 0 0 0 0 0 0 0 0 0 0 127 0"/>
<feOffset dy="6"/>
<feGaussianBlur stdDeviation="15"/>
<feColorMatrix type="matrix" values="0 0 0 0 0 0 0 0 0 0 0 0 0 0 0 0 0 0 0.1 0"/>
<feBlend mode="normal" in2="BackgroundImageFix" result="effect1_dropShadow"/>
<feBlend mode="normal" in="SourceGraphic" in2="effect1_dropShadow" result="shape"/>
</filter>
</defs>
</svg>
