<svg width="319" height="338" viewBox="0 0 319 338" fill="none" xmlns="http://www.w3.org/2000/svg">
<g filter="url(#filter0_d)">
<rect x="30.8586" y="24" width="257.349" height="277.704" rx="10" fill="white"/>
</g>
<path d="M65.4887 166.441H66.4848C67.4158 166.441 68.1124 166.259 68.5746 165.895C69.0369 165.523 69.268 164.986 69.268 164.283C69.268 163.574 69.0727 163.049 68.6821 162.711C68.298 162.372 67.6925 162.203 66.8657 162.203H65.4887V166.441ZM72.3246 164.176C72.3246 165.712 71.8429 166.887 70.8793 167.701C69.9223 168.515 68.5584 168.922 66.7875 168.922H65.4887V174H62.4614V159.723H67.0219C68.7537 159.723 70.0688 160.097 70.9672 160.846C71.8722 161.588 72.3246 162.698 72.3246 164.176ZM79.3071 164.996C78.6756 164.996 78.1808 165.198 77.8227 165.602C77.4646 165.999 77.2595 166.565 77.2075 167.301H81.3871C81.3741 166.565 81.1821 165.999 80.811 165.602C80.4399 165.198 79.9386 164.996 79.3071 164.996ZM79.727 174.195C77.9692 174.195 76.5955 173.71 75.6059 172.74C74.6163 171.77 74.1215 170.396 74.1215 168.619C74.1215 166.79 74.5773 165.377 75.4887 164.381C76.4067 163.378 77.673 162.877 79.2875 162.877C80.8305 162.877 82.0317 163.316 82.8911 164.195C83.7504 165.074 84.1801 166.288 84.1801 167.838V169.283H77.1391C77.1717 170.13 77.4223 170.79 77.8911 171.266C78.3598 171.741 79.0174 171.979 79.8637 171.979C80.5213 171.979 81.143 171.91 81.7289 171.773C82.3149 171.637 82.9269 171.419 83.5649 171.119V173.424C83.044 173.684 82.4874 173.876 81.895 174C81.3025 174.13 80.5799 174.195 79.727 174.195ZM96.6801 174H93.7016V167.623C93.7016 166.835 93.5616 166.246 93.2817 165.855C93.0017 165.458 92.5558 165.26 91.9438 165.26C91.1105 165.26 90.5082 165.54 90.1371 166.1C89.7661 166.653 89.5805 167.574 89.5805 168.863V174H86.602V163.082H88.8774L89.2778 164.479H89.4438C89.7758 163.951 90.2315 163.554 90.811 163.287C91.3969 163.014 92.061 162.877 92.8032 162.877C94.0727 162.877 95.0362 163.222 95.6938 163.912C96.3513 164.596 96.6801 165.585 96.6801 166.881V174ZM109.248 163.082V164.596L107.539 165.035C107.852 165.523 108.008 166.07 108.008 166.676C108.008 167.848 107.598 168.762 106.778 169.42C105.964 170.071 104.831 170.396 103.379 170.396L102.842 170.367L102.403 170.318C102.097 170.553 101.944 170.813 101.944 171.1C101.944 171.529 102.491 171.744 103.584 171.744H105.44C106.638 171.744 107.549 172.001 108.174 172.516C108.806 173.03 109.122 173.785 109.122 174.781C109.122 176.057 108.588 177.047 107.52 177.75C106.459 178.453 104.932 178.805 102.94 178.805C101.416 178.805 100.251 178.538 99.4438 178.004C98.643 177.477 98.2426 176.734 98.2426 175.777C98.2426 175.12 98.4477 174.57 98.8578 174.127C99.268 173.684 99.8702 173.368 100.664 173.18C100.359 173.049 100.092 172.838 99.8637 172.545C99.6358 172.245 99.5219 171.93 99.5219 171.598C99.5219 171.181 99.6424 170.836 99.8832 170.562C100.124 170.283 100.472 170.009 100.928 169.742C100.355 169.495 99.8995 169.098 99.561 168.551C99.2289 168.004 99.0629 167.359 99.0629 166.617C99.0629 165.426 99.4503 164.505 100.225 163.854C101 163.202 102.107 162.877 103.545 162.877C103.851 162.877 104.213 162.906 104.629 162.965C105.053 163.017 105.323 163.056 105.44 163.082H109.248ZM100.821 175.543C100.821 175.953 101.016 176.275 101.407 176.51C101.804 176.744 102.357 176.861 103.067 176.861C104.135 176.861 104.971 176.715 105.577 176.422C106.182 176.129 106.485 175.729 106.485 175.221C106.485 174.811 106.306 174.527 105.948 174.371C105.59 174.215 105.036 174.137 104.288 174.137H102.745C102.198 174.137 101.739 174.264 101.368 174.518C101.003 174.778 100.821 175.12 100.821 175.543ZM101.905 166.656C101.905 167.249 102.038 167.717 102.305 168.062C102.579 168.408 102.992 168.58 103.545 168.58C104.105 168.58 104.515 168.408 104.776 168.062C105.036 167.717 105.166 167.249 105.166 166.656C105.166 165.341 104.626 164.684 103.545 164.684C102.452 164.684 101.905 165.341 101.905 166.656ZM117.989 174L117.413 172.516H117.334C116.833 173.147 116.316 173.587 115.782 173.834C115.254 174.075 114.564 174.195 113.711 174.195C112.663 174.195 111.836 173.896 111.231 173.297C110.632 172.698 110.332 171.845 110.332 170.738C110.332 169.579 110.736 168.727 111.543 168.18C112.357 167.626 113.581 167.32 115.215 167.262L117.11 167.203V166.725C117.11 165.618 116.543 165.064 115.411 165.064C114.538 165.064 113.513 165.328 112.334 165.855L111.348 163.844C112.605 163.186 113.998 162.857 115.528 162.857C116.993 162.857 118.116 163.176 118.897 163.814C119.678 164.452 120.069 165.423 120.069 166.725V174H117.989ZM117.11 168.941L115.957 168.98C115.092 169.007 114.447 169.163 114.024 169.449C113.601 169.736 113.389 170.172 113.389 170.758C113.389 171.598 113.871 172.018 114.834 172.018C115.525 172.018 116.075 171.819 116.485 171.422C116.901 171.025 117.11 170.497 117.11 169.84V168.941ZM126.602 174.195C125.319 174.195 124.31 173.697 123.575 172.701C122.845 171.705 122.481 170.325 122.481 168.561C122.481 166.77 122.852 165.377 123.594 164.381C124.343 163.378 125.372 162.877 126.68 162.877C128.054 162.877 129.102 163.411 129.825 164.479H129.922C129.773 163.665 129.698 162.939 129.698 162.301V158.805H132.686V174H130.401L129.825 172.584H129.698C129.021 173.658 127.989 174.195 126.602 174.195ZM127.647 171.822C128.409 171.822 128.965 171.601 129.317 171.158C129.675 170.715 129.87 169.964 129.903 168.902V168.58C129.903 167.408 129.72 166.568 129.356 166.061C128.998 165.553 128.412 165.299 127.598 165.299C126.934 165.299 126.416 165.582 126.045 166.148C125.681 166.708 125.498 167.525 125.498 168.6C125.498 169.674 125.684 170.481 126.055 171.021C126.426 171.555 126.957 171.822 127.647 171.822ZM143.536 174L143.135 172.604H142.979C142.66 173.111 142.207 173.505 141.622 173.785C141.036 174.059 140.368 174.195 139.62 174.195C138.337 174.195 137.37 173.854 136.719 173.17C136.068 172.48 135.743 171.49 135.743 170.201V163.082H138.721V169.459C138.721 170.247 138.861 170.839 139.141 171.236C139.421 171.627 139.867 171.822 140.479 171.822C141.312 171.822 141.914 171.546 142.286 170.992C142.657 170.432 142.842 169.508 142.842 168.219V163.082H145.821V174H143.536ZM155.879 174L155.303 172.516H155.225C154.724 173.147 154.206 173.587 153.672 173.834C153.145 174.075 152.455 174.195 151.602 174.195C150.554 174.195 149.727 173.896 149.122 173.297C148.523 172.698 148.223 171.845 148.223 170.738C148.223 169.579 148.627 168.727 149.434 168.18C150.248 167.626 151.472 167.32 153.106 167.262L155 167.203V166.725C155 165.618 154.434 165.064 153.301 165.064C152.429 165.064 151.403 165.328 150.225 165.855L149.239 163.844C150.495 163.186 151.888 162.857 153.418 162.857C154.883 162.857 156.006 163.176 156.788 163.814C157.569 164.452 157.959 165.423 157.959 166.725V174H155.879ZM155 168.941L153.848 168.98C152.982 169.007 152.338 169.163 151.914 169.449C151.491 169.736 151.28 170.172 151.28 170.758C151.28 171.598 151.761 172.018 152.725 172.018C153.415 172.018 153.965 171.819 154.375 171.422C154.792 171.025 155 170.497 155 169.84V168.941ZM171.114 174H168.135V167.623C168.135 166.835 167.995 166.246 167.715 165.855C167.435 165.458 166.989 165.26 166.377 165.26C165.544 165.26 164.942 165.54 164.571 166.1C164.2 166.653 164.014 167.574 164.014 168.863V174H161.036V163.082H163.311L163.711 164.479H163.877C164.209 163.951 164.665 163.554 165.245 163.287C165.831 163.014 166.495 162.877 167.237 162.877C168.506 162.877 169.47 163.222 170.127 163.912C170.785 164.596 171.114 165.585 171.114 166.881V174Z" fill="#038C98"/>
<path d="M61.9395 199.753V189.103H63.2895V198.553H69.2295V199.753H61.9395ZM73.8067 199.903C73.2167 199.903 72.6767 199.793 72.1867 199.573C71.7067 199.353 71.2917 199.058 70.9417 198.688C70.6017 198.318 70.3367 197.888 70.1467 197.398C69.9567 196.908 69.8617 196.393 69.8617 195.853C69.8617 195.303 69.9567 194.783 70.1467 194.293C70.3467 193.803 70.6167 193.373 70.9567 193.003C71.3067 192.633 71.7217 192.338 72.2017 192.118C72.6917 191.898 73.2267 191.788 73.8067 191.788C74.3867 191.788 74.9217 191.898 75.4117 192.118C75.9017 192.338 76.3167 192.633 76.6567 193.003C77.0067 193.373 77.2767 193.803 77.4667 194.293C77.6667 194.783 77.7667 195.303 77.7667 195.853C77.7667 196.393 77.6717 196.908 77.4817 197.398C77.2917 197.888 77.0217 198.318 76.6717 198.688C76.3217 199.058 75.9017 199.353 75.4117 199.573C74.9317 199.793 74.3967 199.903 73.8067 199.903ZM71.2117 195.868C71.2117 196.278 71.2767 196.658 71.4067 197.008C71.5467 197.358 71.7317 197.663 71.9617 197.923C72.2017 198.183 72.4767 198.388 72.7867 198.538C73.1067 198.688 73.4467 198.763 73.8067 198.763C74.1667 198.763 74.5017 198.688 74.8117 198.538C75.1317 198.388 75.4117 198.183 75.6517 197.923C75.8917 197.653 76.0767 197.343 76.2067 196.993C76.3467 196.633 76.4167 196.248 76.4167 195.838C76.4167 195.438 76.3467 195.063 76.2067 194.713C76.0767 194.353 75.8917 194.043 75.6517 193.783C75.4117 193.513 75.1317 193.303 74.8117 193.153C74.5017 193.003 74.1667 192.928 73.8067 192.928C73.4467 192.928 73.1067 193.008 72.7867 193.168C72.4767 193.318 72.2017 193.528 71.9617 193.798C71.7317 194.058 71.5467 194.368 71.4067 194.728C71.2767 195.078 71.2117 195.458 71.2117 195.868ZM83.5062 193.078C82.8462 193.098 82.2612 193.268 81.7512 193.588C81.2512 193.908 80.8962 194.353 80.6862 194.923V199.753H79.3662V191.923H80.5962V193.738C80.8662 193.198 81.2212 192.763 81.6612 192.433C82.1012 192.093 82.5712 191.903 83.0712 191.863C83.1712 191.863 83.2562 191.863 83.3262 191.863C83.3962 191.863 83.4562 191.868 83.5062 191.878V193.078ZM88.1046 199.903C87.5146 199.903 86.9746 199.798 86.4846 199.588C85.9946 199.368 85.5746 199.073 85.2246 198.703C84.8746 198.333 84.5996 197.903 84.3996 197.413C84.2096 196.913 84.1146 196.388 84.1146 195.838C84.1146 195.288 84.2096 194.768 84.3996 194.278C84.5996 193.788 84.8746 193.358 85.2246 192.988C85.5846 192.618 86.0096 192.328 86.4996 192.118C86.9896 191.898 87.5296 191.788 88.1196 191.788C88.7096 191.788 89.2446 191.898 89.7246 192.118C90.2146 192.338 90.6296 192.633 90.9696 193.003C91.3096 193.363 91.5696 193.788 91.7496 194.278C91.9396 194.758 92.0346 195.258 92.0346 195.778C92.0346 195.888 92.0296 195.988 92.0196 196.078C92.0196 196.168 92.0146 196.238 92.0046 196.288H85.5096C85.5396 196.678 85.6296 197.033 85.7796 197.353C85.9296 197.673 86.1246 197.948 86.3646 198.178C86.6046 198.408 86.8746 198.588 87.1746 198.718C87.4846 198.848 87.8096 198.913 88.1496 198.913C88.3896 198.913 88.6246 198.883 88.8546 198.823C89.0846 198.753 89.2996 198.663 89.4996 198.553C89.6996 198.443 89.8746 198.308 90.0246 198.148C90.1846 197.988 90.3046 197.808 90.3846 197.608L91.5246 197.923C91.3946 198.213 91.2146 198.478 90.9846 198.718C90.7646 198.958 90.5046 199.168 90.2046 199.348C89.9146 199.518 89.5896 199.653 89.2296 199.753C88.8696 199.853 88.4946 199.903 88.1046 199.903ZM90.7896 195.313C90.7596 194.943 90.6646 194.603 90.5046 194.293C90.3546 193.973 90.1596 193.703 89.9196 193.483C89.6896 193.263 89.4196 193.093 89.1096 192.973C88.7996 192.843 88.4696 192.778 88.1196 192.778C87.7696 192.778 87.4396 192.843 87.1296 192.973C86.8196 193.093 86.5446 193.268 86.3046 193.498C86.0746 193.718 85.8846 193.983 85.7346 194.293C85.5946 194.603 85.5096 194.943 85.4796 195.313H90.7896ZM105.307 199.753H103.987V195.373C103.987 194.553 103.852 193.948 103.582 193.558C103.322 193.168 102.932 192.973 102.412 192.973C101.872 192.973 101.387 193.168 100.957 193.558C100.537 193.938 100.237 194.433 100.057 195.043V199.753H98.737V195.373C98.737 194.533 98.607 193.923 98.347 193.543C98.087 193.163 97.697 192.973 97.177 192.973C96.647 192.973 96.167 193.163 95.737 193.543C95.307 193.913 95.002 194.408 94.822 195.028V199.753H93.502V191.923H94.702V193.603C95.022 193.023 95.437 192.578 95.947 192.268C96.457 191.948 97.032 191.788 97.672 191.788C98.332 191.788 98.852 191.968 99.232 192.328C99.622 192.678 99.862 193.133 99.952 193.693C100.652 192.423 101.647 191.788 102.937 191.788C103.387 191.788 103.762 191.873 104.062 192.043C104.372 192.203 104.617 192.433 104.797 192.733C104.977 193.023 105.107 193.368 105.187 193.768C105.267 194.168 105.307 194.603 105.307 195.073V199.753ZM111.153 199.753V191.923H112.473V199.753H111.153ZM111.153 190.453V188.803H112.473V190.453H111.153ZM118.825 199.903C118.175 199.903 117.6 199.743 117.1 199.423C116.61 199.103 116.22 198.698 115.93 198.208V202.948H114.61V191.923H115.78V193.393C116.09 192.913 116.49 192.528 116.98 192.238C117.48 191.938 118.03 191.788 118.63 191.788C119.17 191.788 119.665 191.898 120.115 192.118C120.565 192.338 120.955 192.638 121.285 193.018C121.615 193.388 121.87 193.818 122.05 194.308C122.24 194.798 122.335 195.308 122.335 195.838C122.335 196.398 122.25 196.928 122.08 197.428C121.91 197.918 121.67 198.348 121.36 198.718C121.05 199.078 120.68 199.368 120.25 199.588C119.82 199.798 119.345 199.903 118.825 199.903ZM118.42 198.763C118.81 198.763 119.16 198.683 119.47 198.523C119.79 198.353 120.06 198.133 120.28 197.863C120.51 197.583 120.685 197.268 120.805 196.918C120.925 196.568 120.985 196.208 120.985 195.838C120.985 195.448 120.915 195.078 120.775 194.728C120.635 194.368 120.445 194.058 120.205 193.798C119.965 193.528 119.68 193.318 119.35 193.168C119.03 193.008 118.68 192.928 118.3 192.928C118.06 192.928 117.81 192.978 117.55 193.078C117.3 193.168 117.06 193.293 116.83 193.453C116.61 193.603 116.415 193.788 116.245 194.008C116.085 194.218 115.98 194.443 115.93 194.683V196.918C116.04 197.178 116.18 197.423 116.35 197.653C116.52 197.873 116.715 198.068 116.935 198.238C117.155 198.398 117.39 198.528 117.64 198.628C117.89 198.718 118.15 198.763 118.42 198.763ZM126.701 199.903C126.071 199.903 125.451 199.808 124.841 199.618C124.231 199.418 123.706 199.133 123.266 198.763L123.836 197.878C124.296 198.228 124.756 198.493 125.216 198.673C125.676 198.843 126.161 198.928 126.671 198.928C127.241 198.928 127.691 198.818 128.021 198.598C128.361 198.368 128.531 198.048 128.531 197.638C128.531 197.448 128.486 197.288 128.396 197.158C128.306 197.018 128.171 196.898 127.991 196.798C127.811 196.698 127.581 196.608 127.301 196.528C127.021 196.448 126.696 196.363 126.326 196.273C125.856 196.153 125.451 196.038 125.111 195.928C124.771 195.818 124.491 195.688 124.271 195.538C124.051 195.388 123.891 195.208 123.791 194.998C123.691 194.788 123.641 194.528 123.641 194.218C123.641 193.828 123.716 193.483 123.866 193.183C124.026 192.873 124.241 192.618 124.511 192.418C124.781 192.208 125.096 192.053 125.456 191.953C125.826 191.843 126.221 191.788 126.641 191.788C127.231 191.788 127.781 191.883 128.291 192.073C128.801 192.263 129.231 192.513 129.581 192.823L128.981 193.618C128.651 193.328 128.281 193.113 127.871 192.973C127.461 192.823 127.041 192.748 126.611 192.748C126.131 192.748 125.721 192.853 125.381 193.063C125.051 193.263 124.886 193.588 124.886 194.038C124.886 194.218 124.916 194.368 124.976 194.488C125.046 194.608 125.156 194.713 125.306 194.803C125.456 194.893 125.646 194.973 125.876 195.043C126.116 195.113 126.401 195.188 126.731 195.268C127.251 195.388 127.701 195.513 128.081 195.643C128.471 195.763 128.791 195.908 129.041 196.078C129.301 196.248 129.491 196.448 129.611 196.678C129.741 196.908 129.806 197.188 129.806 197.518C129.806 198.248 129.526 198.828 128.966 199.258C128.406 199.688 127.651 199.903 126.701 199.903ZM133.783 199.903C132.963 199.903 132.343 199.628 131.923 199.078C131.503 198.528 131.293 197.708 131.293 196.618V191.923H132.613V196.363C132.613 197.963 133.168 198.763 134.278 198.763C134.818 198.763 135.323 198.593 135.793 198.253C136.273 197.903 136.628 197.428 136.858 196.828V191.923H138.178V198.133C138.178 198.443 138.318 198.603 138.598 198.613V199.753C138.448 199.773 138.328 199.783 138.238 199.783C138.158 199.793 138.078 199.798 137.998 199.798C137.738 199.798 137.518 199.723 137.338 199.573C137.168 199.413 137.078 199.218 137.068 198.988L137.038 198.073C136.688 198.663 136.228 199.118 135.658 199.438C135.088 199.748 134.463 199.903 133.783 199.903ZM152.182 199.753H150.862V195.373C150.862 194.553 150.727 193.948 150.457 193.558C150.197 193.168 149.807 192.973 149.287 192.973C148.747 192.973 148.262 193.168 147.832 193.558C147.412 193.938 147.112 194.433 146.932 195.043V199.753H145.612V195.373C145.612 194.533 145.482 193.923 145.222 193.543C144.962 193.163 144.572 192.973 144.052 192.973C143.522 192.973 143.042 193.163 142.612 193.543C142.182 193.913 141.877 194.408 141.697 195.028V199.753H140.377V191.923H141.577V193.603C141.897 193.023 142.312 192.578 142.822 192.268C143.332 191.948 143.907 191.788 144.547 191.788C145.207 191.788 145.727 191.968 146.107 192.328C146.497 192.678 146.737 193.133 146.827 193.693C147.527 192.423 148.522 191.788 149.812 191.788C150.262 191.788 150.637 191.873 150.937 192.043C151.247 192.203 151.492 192.433 151.672 192.733C151.852 193.023 151.982 193.368 152.062 193.768C152.142 194.168 152.182 194.603 152.182 195.073V199.753ZM161.253 199.903C160.713 199.903 160.213 199.793 159.753 199.573C159.293 199.353 158.898 199.058 158.568 198.688C158.238 198.318 157.978 197.888 157.788 197.398C157.608 196.908 157.518 196.393 157.518 195.853C157.518 195.303 157.603 194.783 157.773 194.293C157.953 193.793 158.198 193.358 158.508 192.988C158.828 192.618 159.203 192.328 159.633 192.118C160.073 191.898 160.553 191.788 161.073 191.788C161.703 191.788 162.263 191.953 162.753 192.283C163.253 192.613 163.648 193.013 163.938 193.483V188.803H165.258V198.133C165.258 198.443 165.398 198.603 165.678 198.613V199.753C165.538 199.773 165.423 199.788 165.333 199.798C165.253 199.808 165.173 199.813 165.093 199.813C164.833 199.813 164.603 199.728 164.403 199.558C164.213 199.378 164.118 199.173 164.118 198.943V198.283C163.808 198.793 163.393 199.193 162.873 199.483C162.363 199.763 161.823 199.903 161.253 199.903ZM161.568 198.763C161.808 198.763 162.053 198.718 162.303 198.628C162.563 198.538 162.803 198.413 163.023 198.253C163.253 198.093 163.448 197.908 163.608 197.698C163.778 197.478 163.888 197.248 163.938 197.008V194.758C163.848 194.508 163.713 194.273 163.533 194.053C163.353 193.823 163.148 193.628 162.918 193.468C162.698 193.298 162.458 193.168 162.198 193.078C161.948 192.978 161.698 192.928 161.448 192.928C161.058 192.928 160.703 193.013 160.383 193.183C160.073 193.343 159.803 193.563 159.573 193.843C159.353 194.113 159.183 194.428 159.063 194.788C158.943 195.138 158.883 195.498 158.883 195.868C158.883 196.258 158.953 196.633 159.093 196.993C159.233 197.343 159.423 197.648 159.663 197.908C159.903 198.168 160.183 198.378 160.503 198.538C160.833 198.688 161.188 198.763 161.568 198.763ZM170.882 199.903C170.292 199.903 169.752 199.793 169.262 199.573C168.782 199.353 168.367 199.058 168.017 198.688C167.677 198.318 167.412 197.888 167.222 197.398C167.032 196.908 166.937 196.393 166.937 195.853C166.937 195.303 167.032 194.783 167.222 194.293C167.422 193.803 167.692 193.373 168.032 193.003C168.382 192.633 168.797 192.338 169.277 192.118C169.767 191.898 170.302 191.788 170.882 191.788C171.462 191.788 171.997 191.898 172.487 192.118C172.977 192.338 173.392 192.633 173.732 193.003C174.082 193.373 174.352 193.803 174.542 194.293C174.742 194.783 174.842 195.303 174.842 195.853C174.842 196.393 174.747 196.908 174.557 197.398C174.367 197.888 174.097 198.318 173.747 198.688C173.397 199.058 172.977 199.353 172.487 199.573C172.007 199.793 171.472 199.903 170.882 199.903ZM168.287 195.868C168.287 196.278 168.352 196.658 168.482 197.008C168.622 197.358 168.807 197.663 169.037 197.923C169.277 198.183 169.552 198.388 169.862 198.538C170.182 198.688 170.522 198.763 170.882 198.763C171.242 198.763 171.577 198.688 171.887 198.538C172.207 198.388 172.487 198.183 172.727 197.923C172.967 197.653 173.152 197.343 173.282 196.993C173.422 196.633 173.492 196.248 173.492 195.838C173.492 195.438 173.422 195.063 173.282 194.713C173.152 194.353 172.967 194.043 172.727 193.783C172.487 193.513 172.207 193.303 171.887 193.153C171.577 193.003 171.242 192.928 170.882 192.928C170.522 192.928 170.182 193.008 169.862 193.168C169.552 193.318 169.277 193.528 169.037 193.798C168.807 194.058 168.622 194.368 168.482 194.728C168.352 195.078 168.287 195.458 168.287 195.868ZM176.471 188.803H177.791V197.728C177.791 198.018 177.866 198.248 178.016 198.418C178.176 198.578 178.396 198.658 178.676 198.658C178.786 198.658 178.916 198.643 179.066 198.613C179.216 198.573 179.356 198.528 179.486 198.478L179.696 199.543C179.476 199.633 179.216 199.708 178.916 199.768C178.616 199.828 178.351 199.858 178.121 199.858C177.611 199.858 177.206 199.713 176.906 199.423C176.616 199.133 176.471 198.728 176.471 198.208V188.803ZM184.153 199.903C183.563 199.903 183.023 199.793 182.533 199.573C182.053 199.353 181.638 199.058 181.288 198.688C180.948 198.318 180.683 197.888 180.493 197.398C180.303 196.908 180.208 196.393 180.208 195.853C180.208 195.303 180.303 194.783 180.493 194.293C180.693 193.803 180.963 193.373 181.303 193.003C181.653 192.633 182.068 192.338 182.548 192.118C183.038 191.898 183.573 191.788 184.153 191.788C184.733 191.788 185.268 191.898 185.758 192.118C186.248 192.338 186.663 192.633 187.003 193.003C187.353 193.373 187.623 193.803 187.813 194.293C188.013 194.783 188.113 195.303 188.113 195.853C188.113 196.393 188.018 196.908 187.828 197.398C187.638 197.888 187.368 198.318 187.018 198.688C186.668 199.058 186.248 199.353 185.758 199.573C185.278 199.793 184.743 199.903 184.153 199.903ZM181.558 195.868C181.558 196.278 181.623 196.658 181.753 197.008C181.893 197.358 182.078 197.663 182.308 197.923C182.548 198.183 182.823 198.388 183.133 198.538C183.453 198.688 183.793 198.763 184.153 198.763C184.513 198.763 184.848 198.688 185.158 198.538C185.478 198.388 185.758 198.183 185.998 197.923C186.238 197.653 186.423 197.343 186.553 196.993C186.693 196.633 186.763 196.248 186.763 195.838C186.763 195.438 186.693 195.063 186.553 194.713C186.423 194.353 186.238 194.043 185.998 193.783C185.758 193.513 185.478 193.303 185.158 193.153C184.848 193.003 184.513 192.928 184.153 192.928C183.793 192.928 183.453 193.008 183.133 193.168C182.823 193.318 182.548 193.528 182.308 193.798C182.078 194.058 181.893 194.368 181.753 194.728C181.623 195.078 181.558 195.458 181.558 195.868ZM193.853 193.078C193.193 193.098 192.608 193.268 192.098 193.588C191.598 193.908 191.243 194.353 191.033 194.923V199.753H189.713V191.923H190.943V193.738C191.213 193.198 191.568 192.763 192.008 192.433C192.448 192.093 192.918 191.903 193.418 191.863C193.518 191.863 193.603 191.863 193.673 191.863C193.743 191.863 193.803 191.868 193.853 191.878V193.078ZM201.349 199.903C200.719 199.903 200.099 199.808 199.489 199.618C198.879 199.418 198.354 199.133 197.914 198.763L198.484 197.878C198.944 198.228 199.404 198.493 199.864 198.673C200.324 198.843 200.809 198.928 201.319 198.928C201.889 198.928 202.339 198.818 202.669 198.598C203.009 198.368 203.179 198.048 203.179 197.638C203.179 197.448 203.134 197.288 203.044 197.158C202.954 197.018 202.819 196.898 202.639 196.798C202.459 196.698 202.229 196.608 201.949 196.528C201.669 196.448 201.344 196.363 200.974 196.273C200.504 196.153 200.099 196.038 199.759 195.928C199.419 195.818 199.139 195.688 198.919 195.538C198.699 195.388 198.539 195.208 198.439 194.998C198.339 194.788 198.289 194.528 198.289 194.218C198.289 193.828 198.364 193.483 198.514 193.183C198.674 192.873 198.889 192.618 199.159 192.418C199.429 192.208 199.744 192.053 200.104 191.953C200.474 191.843 200.869 191.788 201.289 191.788C201.879 191.788 202.429 191.883 202.939 192.073C203.449 192.263 203.879 192.513 204.229 192.823L203.629 193.618C203.299 193.328 202.929 193.113 202.519 192.973C202.109 192.823 201.689 192.748 201.259 192.748C200.779 192.748 200.369 192.853 200.029 193.063C199.699 193.263 199.534 193.588 199.534 194.038C199.534 194.218 199.564 194.368 199.624 194.488C199.694 194.608 199.804 194.713 199.954 194.803C200.104 194.893 200.294 194.973 200.524 195.043C200.764 195.113 201.049 195.188 201.379 195.268C201.899 195.388 202.349 195.513 202.729 195.643C203.119 195.763 203.439 195.908 203.689 196.078C203.949 196.248 204.139 196.448 204.259 196.678C204.389 196.908 204.454 197.188 204.454 197.518C204.454 198.248 204.174 198.828 203.614 199.258C203.054 199.688 202.299 199.903 201.349 199.903ZM206.017 199.753V191.923H207.337V199.753H206.017ZM206.017 190.453V188.803H207.337V190.453H206.017ZM213.524 199.363C213.444 199.403 213.339 199.453 213.209 199.513C213.079 199.563 212.929 199.618 212.759 199.678C212.599 199.728 212.419 199.768 212.219 199.798C212.029 199.838 211.829 199.858 211.619 199.858C211.139 199.858 210.724 199.728 210.374 199.468C210.024 199.198 209.849 198.783 209.849 198.223V192.958H208.784V191.923H209.849V189.313H211.169V191.923H212.924V192.958H211.169V197.818C211.189 198.108 211.284 198.318 211.454 198.448C211.624 198.578 211.824 198.643 212.054 198.643C212.314 198.643 212.549 198.603 212.759 198.523C212.979 198.433 213.129 198.363 213.209 198.313L213.524 199.363ZM220.551 199.903C220.181 199.903 219.836 199.843 219.516 199.723C219.196 199.593 218.916 199.418 218.676 199.198C218.446 198.978 218.261 198.723 218.121 198.433C217.991 198.133 217.926 197.808 217.926 197.458C217.926 197.098 218.006 196.773 218.166 196.483C218.326 196.183 218.551 195.928 218.841 195.718C219.141 195.508 219.491 195.343 219.891 195.223C220.301 195.103 220.746 195.043 221.226 195.043C221.606 195.043 221.991 195.078 222.381 195.148C222.771 195.218 223.116 195.313 223.416 195.433V194.803C223.416 194.163 223.236 193.663 222.876 193.303C222.516 192.933 222.006 192.748 221.346 192.748C220.556 192.748 219.726 193.053 218.856 193.663L218.421 192.808C219.431 192.128 220.446 191.788 221.466 191.788C222.496 191.788 223.296 192.063 223.866 192.613C224.446 193.163 224.736 193.938 224.736 194.938V198.133C224.736 198.443 224.876 198.603 225.156 198.613V199.753C225.016 199.773 224.901 199.788 224.811 199.798C224.721 199.808 224.626 199.813 224.526 199.813C224.266 199.813 224.056 199.738 223.896 199.588C223.746 199.428 223.656 199.238 223.626 199.018L223.596 198.463C223.246 198.933 222.801 199.293 222.261 199.543C221.731 199.783 221.161 199.903 220.551 199.903ZM220.896 198.913C221.366 198.913 221.801 198.828 222.201 198.658C222.611 198.478 222.921 198.243 223.131 197.953C223.321 197.763 223.416 197.568 223.416 197.368V196.213C222.776 195.963 222.111 195.838 221.421 195.838C220.761 195.838 220.221 195.978 219.801 196.258C219.391 196.538 219.186 196.903 219.186 197.353C219.186 197.573 219.226 197.778 219.306 197.968C219.396 198.158 219.516 198.323 219.666 198.463C219.826 198.603 220.011 198.713 220.221 198.793C220.431 198.873 220.656 198.913 220.896 198.913ZM238.652 199.753H237.332V195.373C237.332 194.553 237.197 193.948 236.927 193.558C236.667 193.168 236.277 192.973 235.757 192.973C235.217 192.973 234.732 193.168 234.302 193.558C233.882 193.938 233.582 194.433 233.402 195.043V199.753H232.082V195.373C232.082 194.533 231.952 193.923 231.692 193.543C231.432 193.163 231.042 192.973 230.522 192.973C229.992 192.973 229.512 193.163 229.082 193.543C228.652 193.913 228.347 194.408 228.167 195.028V199.753H226.847V191.923H228.047V193.603C228.367 193.023 228.782 192.578 229.292 192.268C229.802 191.948 230.377 191.788 231.017 191.788C231.677 191.788 232.197 191.968 232.577 192.328C232.967 192.678 233.207 193.133 233.297 193.693C233.997 192.423 234.992 191.788 236.282 191.788C236.732 191.788 237.107 191.873 237.407 192.043C237.717 192.203 237.962 192.433 238.142 192.733C238.322 193.023 238.452 193.368 238.532 193.768C238.612 194.168 238.652 194.603 238.652 195.073V199.753ZM244.169 199.903C243.579 199.903 243.039 199.798 242.549 199.588C242.059 199.368 241.639 199.073 241.289 198.703C240.939 198.333 240.664 197.903 240.464 197.413C240.274 196.913 240.179 196.388 240.179 195.838C240.179 195.288 240.274 194.768 240.464 194.278C240.664 193.788 240.939 193.358 241.289 192.988C241.649 192.618 242.074 192.328 242.564 192.118C243.054 191.898 243.594 191.788 244.184 191.788C244.774 191.788 245.309 191.898 245.789 192.118C246.279 192.338 246.694 192.633 247.034 193.003C247.374 193.363 247.634 193.788 247.814 194.278C248.004 194.758 248.099 195.258 248.099 195.778C248.099 195.888 248.094 195.988 248.084 196.078C248.084 196.168 248.079 196.238 248.069 196.288H241.574C241.604 196.678 241.694 197.033 241.844 197.353C241.994 197.673 242.189 197.948 242.429 198.178C242.669 198.408 242.939 198.588 243.239 198.718C243.549 198.848 243.874 198.913 244.214 198.913C244.454 198.913 244.689 198.883 244.919 198.823C245.149 198.753 245.364 198.663 245.564 198.553C245.764 198.443 245.939 198.308 246.089 198.148C246.249 197.988 246.369 197.808 246.449 197.608L247.589 197.923C247.459 198.213 247.279 198.478 247.049 198.718C246.829 198.958 246.569 199.168 246.269 199.348C245.979 199.518 245.654 199.653 245.294 199.753C244.934 199.853 244.559 199.903 244.169 199.903ZM246.854 195.313C246.824 194.943 246.729 194.603 246.569 194.293C246.419 193.973 246.224 193.703 245.984 193.483C245.754 193.263 245.484 193.093 245.174 192.973C244.864 192.843 244.534 192.778 244.184 192.778C243.834 192.778 243.504 192.843 243.194 192.973C242.884 193.093 242.609 193.268 242.369 193.498C242.139 193.718 241.949 193.983 241.799 194.293C241.659 194.603 241.574 194.943 241.544 195.313H246.854ZM253.543 199.363C253.463 199.403 253.358 199.453 253.228 199.513C253.098 199.563 252.948 199.618 252.778 199.678C252.618 199.728 252.438 199.768 252.238 199.798C252.048 199.838 251.848 199.858 251.638 199.858C251.158 199.858 250.743 199.728 250.393 199.468C250.043 199.198 249.868 198.783 249.868 198.223V192.958H248.803V191.923H249.868V189.313H251.188V191.923H252.943V192.958H251.188V197.818C251.208 198.108 251.303 198.318 251.473 198.448C251.643 198.578 251.843 198.643 252.073 198.643C252.333 198.643 252.568 198.603 252.778 198.523C252.998 198.433 253.148 198.363 253.228 198.313L253.543 199.363ZM254.812 200.968L255.112 199.633H254.662V198.073H255.907V199.633L255.457 200.968H254.812ZM61.2045 220.823C61.2045 220.273 61.2995 219.753 61.4895 219.263C61.6795 218.773 61.9495 218.348 62.2995 217.988C62.6495 217.618 63.0645 217.328 63.5445 217.118C64.0345 216.898 64.5795 216.788 65.1795 216.788C65.9595 216.788 66.6295 216.963 67.1895 217.313C67.7595 217.653 68.1895 218.113 68.4795 218.693L67.1895 219.098C66.9895 218.728 66.7095 218.443 66.3495 218.243C65.9895 218.033 65.5895 217.928 65.1495 217.928C64.7895 217.928 64.4495 218.003 64.1295 218.153C63.8095 218.293 63.5345 218.493 63.3045 218.753C63.0745 219.013 62.8895 219.318 62.7495 219.668C62.6195 220.018 62.5545 220.403 62.5545 220.823C62.5545 221.233 62.6245 221.618 62.7645 221.978C62.9045 222.338 63.0895 222.653 63.3195 222.923C63.5595 223.183 63.8345 223.388 64.1445 223.538C64.4645 223.688 64.8045 223.763 65.1645 223.763C65.3945 223.763 65.6195 223.733 65.8395 223.673C66.0695 223.603 66.2745 223.513 66.4545 223.403C66.6445 223.293 66.8095 223.168 66.9495 223.028C67.0895 222.878 67.1895 222.718 67.2495 222.548L68.5395 222.938C68.4195 223.228 68.2495 223.493 68.0295 223.733C67.8195 223.973 67.5695 224.178 67.2795 224.348C66.9895 224.518 66.6645 224.653 66.3045 224.753C65.9545 224.853 65.5845 224.903 65.1945 224.903C64.6045 224.903 64.0645 224.793 63.5745 224.573C63.0845 224.353 62.6645 224.058 62.3145 223.688C61.9645 223.318 61.6895 222.888 61.4895 222.398C61.2995 221.898 61.2045 221.373 61.2045 220.823ZM73.3819 224.903C72.7919 224.903 72.2519 224.793 71.7619 224.573C71.2819 224.353 70.8669 224.058 70.5169 223.688C70.1769 223.318 69.9119 222.888 69.7219 222.398C69.5319 221.908 69.4369 221.393 69.4369 220.853C69.4369 220.303 69.5319 219.783 69.7219 219.293C69.9219 218.803 70.1919 218.373 70.5319 218.003C70.8819 217.633 71.2969 217.338 71.7769 217.118C72.2669 216.898 72.8019 216.788 73.3819 216.788C73.9619 216.788 74.4969 216.898 74.9869 217.118C75.4769 217.338 75.8919 217.633 76.2319 218.003C76.5819 218.373 76.8519 218.803 77.0419 219.293C77.2419 219.783 77.3419 220.303 77.3419 220.853C77.3419 221.393 77.2469 221.908 77.0569 222.398C76.8669 222.888 76.5969 223.318 76.2469 223.688C75.8969 224.058 75.4769 224.353 74.9869 224.573C74.5069 224.793 73.9719 224.903 73.3819 224.903ZM70.7869 220.868C70.7869 221.278 70.8519 221.658 70.9819 222.008C71.1219 222.358 71.3069 222.663 71.5369 222.923C71.7769 223.183 72.0519 223.388 72.3619 223.538C72.6819 223.688 73.0219 223.763 73.3819 223.763C73.7419 223.763 74.0769 223.688 74.3869 223.538C74.7069 223.388 74.9869 223.183 75.2269 222.923C75.4669 222.653 75.6519 222.343 75.7819 221.993C75.9219 221.633 75.9919 221.248 75.9919 220.838C75.9919 220.438 75.9219 220.063 75.7819 219.713C75.6519 219.353 75.4669 219.043 75.2269 218.783C74.9869 218.513 74.7069 218.303 74.3869 218.153C74.0769 218.003 73.7419 217.928 73.3819 217.928C73.0219 217.928 72.6819 218.008 72.3619 218.168C72.0519 218.318 71.7769 218.528 71.5369 218.798C71.3069 219.058 71.1219 219.368 70.9819 219.728C70.8519 220.078 70.7869 220.458 70.7869 220.868ZM85.7364 224.753H84.4164V220.373C84.4164 219.533 84.2864 218.923 84.0264 218.543C83.7764 218.163 83.3914 217.973 82.8714 217.973C82.6014 217.973 82.3314 218.028 82.0614 218.138C81.7914 218.238 81.5364 218.378 81.2964 218.558C81.0564 218.738 80.8464 218.953 80.6664 219.203C80.4864 219.453 80.3514 219.728 80.2614 220.028V224.753H78.9414V216.923H80.1414V218.603C80.4514 218.053 80.8964 217.613 81.4764 217.283C82.0664 216.953 82.7064 216.788 83.3964 216.788C83.8464 216.788 84.2214 216.873 84.5214 217.043C84.8214 217.203 85.0614 217.433 85.2414 217.733C85.4214 218.023 85.5464 218.368 85.6164 218.768C85.6964 219.168 85.7364 219.603 85.7364 220.073V224.753ZM90.5341 224.903C89.9041 224.903 89.2841 224.808 88.6741 224.618C88.0641 224.418 87.5391 224.133 87.0991 223.763L87.6691 222.878C88.1291 223.228 88.5891 223.493 89.0491 223.673C89.5091 223.843 89.9941 223.928 90.5041 223.928C91.0741 223.928 91.5241 223.818 91.8541 223.598C92.1941 223.368 92.3641 223.048 92.3641 222.638C92.3641 222.448 92.3191 222.288 92.2291 222.158C92.1391 222.018 92.0041 221.898 91.8241 221.798C91.6441 221.698 91.4141 221.608 91.1341 221.528C90.8541 221.448 90.5291 221.363 90.1591 221.273C89.6891 221.153 89.2841 221.038 88.9441 220.928C88.6041 220.818 88.3241 220.688 88.1041 220.538C87.8841 220.388 87.7241 220.208 87.6241 219.998C87.5241 219.788 87.4741 219.528 87.4741 219.218C87.4741 218.828 87.5491 218.483 87.6991 218.183C87.8591 217.873 88.0741 217.618 88.3441 217.418C88.6141 217.208 88.9291 217.053 89.2891 216.953C89.6591 216.843 90.0541 216.788 90.4741 216.788C91.0641 216.788 91.6141 216.883 92.1241 217.073C92.6341 217.263 93.0641 217.513 93.4141 217.823L92.8141 218.618C92.4841 218.328 92.1141 218.113 91.7041 217.973C91.2941 217.823 90.8741 217.748 90.4441 217.748C89.9641 217.748 89.5541 217.853 89.2141 218.063C88.8841 218.263 88.7191 218.588 88.7191 219.038C88.7191 219.218 88.7491 219.368 88.8091 219.488C88.8791 219.608 88.9891 219.713 89.1391 219.803C89.2891 219.893 89.4791 219.973 89.7091 220.043C89.9491 220.113 90.2341 220.188 90.5641 220.268C91.0841 220.388 91.5341 220.513 91.9141 220.643C92.3041 220.763 92.6241 220.908 92.8741 221.078C93.1341 221.248 93.3241 221.448 93.4441 221.678C93.5741 221.908 93.6391 222.188 93.6391 222.518C93.6391 223.248 93.3591 223.828 92.7991 224.258C92.2391 224.688 91.4841 224.903 90.5341 224.903ZM98.6662 224.903C98.0762 224.903 97.5362 224.798 97.0462 224.588C96.5562 224.368 96.1362 224.073 95.7862 223.703C95.4362 223.333 95.1612 222.903 94.9612 222.413C94.7712 221.913 94.6762 221.388 94.6762 220.838C94.6762 220.288 94.7712 219.768 94.9612 219.278C95.1612 218.788 95.4362 218.358 95.7862 217.988C96.1462 217.618 96.5712 217.328 97.0612 217.118C97.5512 216.898 98.0912 216.788 98.6812 216.788C99.2712 216.788 99.8062 216.898 100.286 217.118C100.776 217.338 101.191 217.633 101.531 218.003C101.871 218.363 102.131 218.788 102.311 219.278C102.501 219.758 102.596 220.258 102.596 220.778C102.596 220.888 102.591 220.988 102.581 221.078C102.581 221.168 102.576 221.238 102.566 221.288H96.0712C96.1012 221.678 96.1912 222.033 96.3412 222.353C96.4912 222.673 96.6862 222.948 96.9262 223.178C97.1662 223.408 97.4362 223.588 97.7362 223.718C98.0462 223.848 98.3712 223.913 98.7112 223.913C98.9512 223.913 99.1862 223.883 99.4162 223.823C99.6462 223.753 99.8612 223.663 100.061 223.553C100.261 223.443 100.436 223.308 100.586 223.148C100.746 222.988 100.866 222.808 100.946 222.608L102.086 222.923C101.956 223.213 101.776 223.478 101.546 223.718C101.326 223.958 101.066 224.168 100.766 224.348C100.476 224.518 100.151 224.653 99.7912 224.753C99.4312 224.853 99.0562 224.903 98.6662 224.903ZM101.351 220.313C101.321 219.943 101.226 219.603 101.066 219.293C100.916 218.973 100.721 218.703 100.481 218.483C100.251 218.263 99.9812 218.093 99.6712 217.973C99.3612 217.843 99.0312 217.778 98.6812 217.778C98.3312 217.778 98.0012 217.843 97.6912 217.973C97.3812 218.093 97.1062 218.268 96.8662 218.498C96.6362 218.718 96.4462 218.983 96.2962 219.293C96.1562 219.603 96.0712 219.943 96.0412 220.313H101.351ZM103.538 220.823C103.538 220.273 103.633 219.753 103.823 219.263C104.013 218.773 104.283 218.348 104.633 217.988C104.983 217.618 105.398 217.328 105.878 217.118C106.368 216.898 106.913 216.788 107.513 216.788C108.293 216.788 108.963 216.963 109.523 217.313C110.093 217.653 110.523 218.113 110.813 218.693L109.523 219.098C109.323 218.728 109.043 218.443 108.683 218.243C108.323 218.033 107.923 217.928 107.483 217.928C107.123 217.928 106.783 218.003 106.463 218.153C106.143 218.293 105.868 218.493 105.638 218.753C105.408 219.013 105.223 219.318 105.083 219.668C104.953 220.018 104.888 220.403 104.888 220.823C104.888 221.233 104.958 221.618 105.098 221.978C105.238 222.338 105.423 222.653 105.653 222.923C105.893 223.183 106.168 223.388 106.478 223.538C106.798 223.688 107.138 223.763 107.498 223.763C107.728 223.763 107.953 223.733 108.173 223.673C108.403 223.603 108.608 223.513 108.788 223.403C108.978 223.293 109.143 223.168 109.283 223.028C109.423 222.878 109.523 222.718 109.583 222.548L110.873 222.938C110.753 223.228 110.583 223.493 110.363 223.733C110.153 223.973 109.903 224.178 109.613 224.348C109.323 224.518 108.998 224.653 108.638 224.753C108.288 224.853 107.918 224.903 107.528 224.903C106.938 224.903 106.398 224.793 105.908 224.573C105.418 224.353 104.998 224.058 104.648 223.688C104.298 223.318 104.023 222.888 103.823 222.398C103.633 221.898 103.538 221.373 103.538 220.823ZM116.419 224.363C116.339 224.403 116.234 224.453 116.104 224.513C115.974 224.563 115.824 224.618 115.654 224.678C115.494 224.728 115.314 224.768 115.114 224.798C114.924 224.838 114.724 224.858 114.514 224.858C114.034 224.858 113.619 224.728 113.269 224.468C112.919 224.198 112.744 223.783 112.744 223.223V217.958H111.679V216.923H112.744V214.313H114.064V216.923H115.819V217.958H114.064V222.818C114.084 223.108 114.179 223.318 114.349 223.448C114.519 223.578 114.719 223.643 114.949 223.643C115.209 223.643 115.444 223.603 115.654 223.523C115.874 223.433 116.024 223.363 116.104 223.313L116.419 224.363ZM121.005 224.903C120.415 224.903 119.875 224.798 119.385 224.588C118.895 224.368 118.475 224.073 118.125 223.703C117.775 223.333 117.5 222.903 117.3 222.413C117.11 221.913 117.015 221.388 117.015 220.838C117.015 220.288 117.11 219.768 117.3 219.278C117.5 218.788 117.775 218.358 118.125 217.988C118.485 217.618 118.91 217.328 119.4 217.118C119.89 216.898 120.43 216.788 121.02 216.788C121.61 216.788 122.145 216.898 122.625 217.118C123.115 217.338 123.53 217.633 123.87 218.003C124.21 218.363 124.47 218.788 124.65 219.278C124.84 219.758 124.935 220.258 124.935 220.778C124.935 220.888 124.93 220.988 124.92 221.078C124.92 221.168 124.915 221.238 124.905 221.288H118.41C118.44 221.678 118.53 222.033 118.68 222.353C118.83 222.673 119.025 222.948 119.265 223.178C119.505 223.408 119.775 223.588 120.075 223.718C120.385 223.848 120.71 223.913 121.05 223.913C121.29 223.913 121.525 223.883 121.755 223.823C121.985 223.753 122.2 223.663 122.4 223.553C122.6 223.443 122.775 223.308 122.925 223.148C123.085 222.988 123.205 222.808 123.285 222.608L124.425 222.923C124.295 223.213 124.115 223.478 123.885 223.718C123.665 223.958 123.405 224.168 123.105 224.348C122.815 224.518 122.49 224.653 122.13 224.753C121.77 224.853 121.395 224.903 121.005 224.903ZM123.69 220.313C123.66 219.943 123.565 219.603 123.405 219.293C123.255 218.973 123.06 218.703 122.82 218.483C122.59 218.263 122.32 218.093 122.01 217.973C121.7 217.843 121.37 217.778 121.02 217.778C120.67 217.778 120.34 217.843 120.03 217.973C119.72 218.093 119.445 218.268 119.205 218.498C118.975 218.718 118.785 218.983 118.635 219.293C118.495 219.603 118.41 219.943 118.38 220.313H123.69ZM130.379 224.363C130.299 224.403 130.194 224.453 130.064 224.513C129.934 224.563 129.784 224.618 129.614 224.678C129.454 224.728 129.274 224.768 129.074 224.798C128.884 224.838 128.684 224.858 128.474 224.858C127.994 224.858 127.579 224.728 127.229 224.468C126.879 224.198 126.704 223.783 126.704 223.223V217.958H125.639V216.923H126.704V214.313H128.024V216.923H129.779V217.958H128.024V222.818C128.044 223.108 128.139 223.318 128.309 223.448C128.479 223.578 128.679 223.643 128.909 223.643C129.169 223.643 129.404 223.603 129.614 223.523C129.834 223.433 129.984 223.363 130.064 223.313L130.379 224.363ZM134.018 224.903C133.198 224.903 132.578 224.628 132.158 224.078C131.738 223.528 131.528 222.708 131.528 221.618V216.923H132.848V221.363C132.848 222.963 133.403 223.763 134.513 223.763C135.053 223.763 135.558 223.593 136.028 223.253C136.508 222.903 136.863 222.428 137.093 221.828V216.923H138.413V223.133C138.413 223.443 138.553 223.603 138.833 223.613V224.753C138.683 224.773 138.563 224.783 138.473 224.783C138.393 224.793 138.313 224.798 138.233 224.798C137.973 224.798 137.753 224.723 137.573 224.573C137.403 224.413 137.313 224.218 137.303 223.988L137.273 223.073C136.923 223.663 136.463 224.118 135.893 224.438C135.323 224.748 134.698 224.903 134.018 224.903ZM144.751 218.078C144.091 218.098 143.506 218.268 142.996 218.588C142.496 218.908 142.141 219.353 141.931 219.923V224.753H140.611V216.923H141.841V218.738C142.111 218.198 142.466 217.763 142.906 217.433C143.346 217.093 143.816 216.903 144.316 216.863C144.416 216.863 144.501 216.863 144.571 216.863C144.641 216.863 144.701 216.868 144.751 216.878V218.078ZM151.513 224.903C151.143 224.903 150.798 224.843 150.478 224.723C150.158 224.593 149.878 224.418 149.638 224.198C149.408 223.978 149.223 223.723 149.083 223.433C148.953 223.133 148.888 222.808 148.888 222.458C148.888 222.098 148.968 221.773 149.128 221.483C149.288 221.183 149.513 220.928 149.803 220.718C150.103 220.508 150.453 220.343 150.853 220.223C151.263 220.103 151.708 220.043 152.188 220.043C152.568 220.043 152.953 220.078 153.343 220.148C153.733 220.218 154.078 220.313 154.378 220.433V219.803C154.378 219.163 154.198 218.663 153.838 218.303C153.478 217.933 152.968 217.748 152.308 217.748C151.518 217.748 150.688 218.053 149.818 218.663L149.383 217.808C150.393 217.128 151.408 216.788 152.428 216.788C153.458 216.788 154.258 217.063 154.828 217.613C155.408 218.163 155.698 218.938 155.698 219.938V223.133C155.698 223.443 155.838 223.603 156.118 223.613V224.753C155.978 224.773 155.863 224.788 155.773 224.798C155.683 224.808 155.588 224.813 155.488 224.813C155.228 224.813 155.018 224.738 154.858 224.588C154.708 224.428 154.618 224.238 154.588 224.018L154.558 223.463C154.208 223.933 153.763 224.293 153.223 224.543C152.693 224.783 152.123 224.903 151.513 224.903ZM151.858 223.913C152.328 223.913 152.763 223.828 153.163 223.658C153.573 223.478 153.883 223.243 154.093 222.953C154.283 222.763 154.378 222.568 154.378 222.368V221.213C153.738 220.963 153.073 220.838 152.383 220.838C151.723 220.838 151.183 220.978 150.763 221.258C150.353 221.538 150.148 221.903 150.148 222.353C150.148 222.573 150.188 222.778 150.268 222.968C150.358 223.158 150.478 223.323 150.628 223.463C150.788 223.603 150.973 223.713 151.183 223.793C151.393 223.873 151.618 223.913 151.858 223.913ZM161.034 224.903C160.494 224.903 159.994 224.793 159.534 224.573C159.074 224.353 158.679 224.058 158.349 223.688C158.019 223.318 157.759 222.888 157.569 222.398C157.389 221.908 157.299 221.393 157.299 220.853C157.299 220.303 157.384 219.783 157.554 219.293C157.734 218.793 157.979 218.358 158.289 217.988C158.609 217.618 158.984 217.328 159.414 217.118C159.854 216.898 160.334 216.788 160.854 216.788C161.484 216.788 162.044 216.953 162.534 217.283C163.034 217.613 163.429 218.013 163.719 218.483V213.803H165.039V223.133C165.039 223.443 165.179 223.603 165.459 223.613V224.753C165.319 224.773 165.204 224.788 165.114 224.798C165.034 224.808 164.954 224.813 164.874 224.813C164.614 224.813 164.384 224.728 164.184 224.558C163.994 224.378 163.899 224.173 163.899 223.943V223.283C163.589 223.793 163.174 224.193 162.654 224.483C162.144 224.763 161.604 224.903 161.034 224.903ZM161.349 223.763C161.589 223.763 161.834 223.718 162.084 223.628C162.344 223.538 162.584 223.413 162.804 223.253C163.034 223.093 163.229 222.908 163.389 222.698C163.559 222.478 163.669 222.248 163.719 222.008V219.758C163.629 219.508 163.494 219.273 163.314 219.053C163.134 218.823 162.929 218.628 162.699 218.468C162.479 218.298 162.239 218.168 161.979 218.078C161.729 217.978 161.479 217.928 161.229 217.928C160.839 217.928 160.484 218.013 160.164 218.183C159.854 218.343 159.584 218.563 159.354 218.843C159.134 219.113 158.964 219.428 158.844 219.788C158.724 220.138 158.664 220.498 158.664 220.868C158.664 221.258 158.734 221.633 158.874 221.993C159.014 222.343 159.204 222.648 159.444 222.908C159.684 223.168 159.964 223.378 160.284 223.538C160.614 223.688 160.969 223.763 161.349 223.763ZM167.242 224.753V216.923H168.562V224.753H167.242ZM167.242 215.453V213.803H168.562V215.453H167.242ZM174.914 224.903C174.264 224.903 173.689 224.743 173.189 224.423C172.699 224.103 172.309 223.698 172.019 223.208V227.948H170.699V216.923H171.869V218.393C172.179 217.913 172.579 217.528 173.069 217.238C173.569 216.938 174.119 216.788 174.719 216.788C175.259 216.788 175.754 216.898 176.204 217.118C176.654 217.338 177.044 217.638 177.374 218.018C177.704 218.388 177.959 218.818 178.139 219.308C178.329 219.798 178.424 220.308 178.424 220.838C178.424 221.398 178.339 221.928 178.169 222.428C177.999 222.918 177.759 223.348 177.449 223.718C177.139 224.078 176.769 224.368 176.339 224.588C175.909 224.798 175.434 224.903 174.914 224.903ZM174.509 223.763C174.899 223.763 175.249 223.683 175.559 223.523C175.879 223.353 176.149 223.133 176.369 222.863C176.599 222.583 176.774 222.268 176.894 221.918C177.014 221.568 177.074 221.208 177.074 220.838C177.074 220.448 177.004 220.078 176.864 219.728C176.724 219.368 176.534 219.058 176.294 218.798C176.054 218.528 175.769 218.318 175.439 218.168C175.119 218.008 174.769 217.928 174.389 217.928C174.149 217.928 173.899 217.978 173.639 218.078C173.389 218.168 173.149 218.293 172.919 218.453C172.699 218.603 172.504 218.788 172.334 219.008C172.174 219.218 172.069 219.443 172.019 219.683V221.918C172.129 222.178 172.269 222.423 172.439 222.653C172.609 222.873 172.804 223.068 173.024 223.238C173.244 223.398 173.479 223.528 173.729 223.628C173.979 223.718 174.239 223.763 174.509 223.763ZM180.045 224.753V216.923H181.365V224.753H180.045ZM180.045 215.453V213.803H181.365V215.453H180.045ZM186.247 224.903C185.617 224.903 184.997 224.808 184.387 224.618C183.777 224.418 183.252 224.133 182.812 223.763L183.382 222.878C183.842 223.228 184.302 223.493 184.762 223.673C185.222 223.843 185.707 223.928 186.217 223.928C186.787 223.928 187.237 223.818 187.567 223.598C187.907 223.368 188.077 223.048 188.077 222.638C188.077 222.448 188.032 222.288 187.942 222.158C187.852 222.018 187.717 221.898 187.537 221.798C187.357 221.698 187.127 221.608 186.847 221.528C186.567 221.448 186.242 221.363 185.872 221.273C185.402 221.153 184.997 221.038 184.657 220.928C184.317 220.818 184.037 220.688 183.817 220.538C183.597 220.388 183.437 220.208 183.337 219.998C183.237 219.788 183.187 219.528 183.187 219.218C183.187 218.828 183.262 218.483 183.412 218.183C183.572 217.873 183.787 217.618 184.057 217.418C184.327 217.208 184.642 217.053 185.002 216.953C185.372 216.843 185.767 216.788 186.187 216.788C186.777 216.788 187.327 216.883 187.837 217.073C188.347 217.263 188.777 217.513 189.127 217.823L188.527 218.618C188.197 218.328 187.827 218.113 187.417 217.973C187.007 217.823 186.587 217.748 186.157 217.748C185.677 217.748 185.267 217.853 184.927 218.063C184.597 218.263 184.432 218.588 184.432 219.038C184.432 219.218 184.462 219.368 184.522 219.488C184.592 219.608 184.702 219.713 184.852 219.803C185.002 219.893 185.192 219.973 185.422 220.043C185.662 220.113 185.947 220.188 186.277 220.268C186.797 220.388 187.247 220.513 187.627 220.643C188.017 220.763 188.337 220.908 188.587 221.078C188.847 221.248 189.037 221.448 189.157 221.678C189.287 221.908 189.352 222.188 189.352 222.518C189.352 223.248 189.072 223.828 188.512 224.258C187.952 224.688 187.197 224.903 186.247 224.903ZM190.914 224.753V216.923H192.234V224.753H190.914ZM190.914 215.453V213.803H192.234V215.453H190.914ZM193.846 220.823C193.846 220.273 193.941 219.753 194.131 219.263C194.321 218.773 194.591 218.348 194.941 217.988C195.291 217.618 195.706 217.328 196.186 217.118C196.676 216.898 197.221 216.788 197.821 216.788C198.601 216.788 199.271 216.963 199.831 217.313C200.401 217.653 200.831 218.113 201.121 218.693L199.831 219.098C199.631 218.728 199.351 218.443 198.991 218.243C198.631 218.033 198.231 217.928 197.791 217.928C197.431 217.928 197.091 218.003 196.771 218.153C196.451 218.293 196.176 218.493 195.946 218.753C195.716 219.013 195.531 219.318 195.391 219.668C195.261 220.018 195.196 220.403 195.196 220.823C195.196 221.233 195.266 221.618 195.406 221.978C195.546 222.338 195.731 222.653 195.961 222.923C196.201 223.183 196.476 223.388 196.786 223.538C197.106 223.688 197.446 223.763 197.806 223.763C198.036 223.763 198.261 223.733 198.481 223.673C198.711 223.603 198.916 223.513 199.096 223.403C199.286 223.293 199.451 223.168 199.591 223.028C199.731 222.878 199.831 222.718 199.891 222.548L201.181 222.938C201.061 223.228 200.891 223.493 200.671 223.733C200.461 223.973 200.211 224.178 199.921 224.348C199.631 224.518 199.306 224.653 198.946 224.753C198.596 224.853 198.226 224.903 197.836 224.903C197.246 224.903 196.706 224.793 196.216 224.573C195.726 224.353 195.306 224.058 194.956 223.688C194.606 223.318 194.331 222.888 194.131 222.398C193.941 221.898 193.846 221.373 193.846 220.823ZM202.677 224.753V216.923H203.997V224.753H202.677ZM202.677 215.453V213.803H203.997V215.453H202.677ZM212.929 224.753H211.609V220.373C211.609 219.533 211.479 218.923 211.219 218.543C210.969 218.163 210.584 217.973 210.064 217.973C209.794 217.973 209.524 218.028 209.254 218.138C208.984 218.238 208.729 218.378 208.489 218.558C208.249 218.738 208.039 218.953 207.859 219.203C207.679 219.453 207.544 219.728 207.454 220.028V224.753H206.134V216.923H207.334V218.603C207.644 218.053 208.089 217.613 208.669 217.283C209.259 216.953 209.899 216.788 210.589 216.788C211.039 216.788 211.414 216.873 211.714 217.043C212.014 217.203 212.254 217.433 212.434 217.733C212.614 218.023 212.739 218.368 212.809 218.768C212.889 219.168 212.929 219.603 212.929 220.073V224.753ZM218.101 224.843C217.571 224.843 217.081 224.733 216.631 224.513C216.191 224.293 215.811 223.998 215.491 223.628C215.171 223.258 214.921 222.833 214.741 222.353C214.571 221.873 214.486 221.373 214.486 220.853C214.486 220.303 214.571 219.783 214.741 219.293C214.921 218.793 215.171 218.358 215.491 217.988C215.811 217.618 216.191 217.328 216.631 217.118C217.081 216.898 217.576 216.788 218.116 216.788C218.776 216.788 219.346 216.948 219.826 217.268C220.306 217.588 220.711 217.993 221.041 218.483V216.923H222.211V224.663C222.211 225.223 222.106 225.713 221.896 226.133C221.686 226.563 221.401 226.923 221.041 227.213C220.681 227.503 220.256 227.723 219.766 227.873C219.286 228.023 218.771 228.098 218.221 228.098C217.331 228.098 216.606 227.943 216.046 227.633C215.496 227.333 215.036 226.913 214.666 226.373L215.431 225.698C215.741 226.158 216.141 226.503 216.631 226.733C217.121 226.963 217.651 227.078 218.221 227.078C218.581 227.078 218.921 227.028 219.241 226.928C219.571 226.828 219.856 226.678 220.096 226.478C220.336 226.278 220.526 226.028 220.666 225.728C220.816 225.428 220.891 225.073 220.891 224.663V223.283C220.741 223.523 220.561 223.743 220.351 223.943C220.151 224.133 219.931 224.298 219.691 224.438C219.451 224.568 219.196 224.668 218.926 224.738C218.656 224.808 218.381 224.843 218.101 224.843ZM218.506 223.763C218.786 223.763 219.056 223.713 219.316 223.613C219.576 223.513 219.816 223.383 220.036 223.223C220.256 223.053 220.441 222.863 220.591 222.653C220.741 222.443 220.841 222.228 220.891 222.008V219.758C220.781 219.488 220.636 219.243 220.456 219.023C220.286 218.803 220.091 218.613 219.871 218.453C219.651 218.283 219.411 218.153 219.151 218.063C218.901 217.973 218.646 217.928 218.386 217.928C217.986 217.928 217.626 218.013 217.306 218.183C216.996 218.353 216.731 218.578 216.511 218.858C216.291 219.138 216.121 219.458 216.001 219.818C215.881 220.168 215.821 220.523 215.821 220.883C215.821 221.273 215.891 221.643 216.031 221.993C216.171 222.343 216.361 222.648 216.601 222.908C216.841 223.168 217.121 223.378 217.441 223.538C217.771 223.688 218.126 223.763 218.506 223.763ZM231.601 224.903C231.011 224.903 230.471 224.798 229.981 224.588C229.491 224.368 229.071 224.073 228.721 223.703C228.371 223.333 228.096 222.903 227.896 222.413C227.706 221.913 227.611 221.388 227.611 220.838C227.611 220.288 227.706 219.768 227.896 219.278C228.096 218.788 228.371 218.358 228.721 217.988C229.081 217.618 229.506 217.328 229.996 217.118C230.486 216.898 231.026 216.788 231.616 216.788C232.206 216.788 232.741 216.898 233.221 217.118C233.711 217.338 234.126 217.633 234.466 218.003C234.806 218.363 235.066 218.788 235.246 219.278C235.436 219.758 235.531 220.258 235.531 220.778C235.531 220.888 235.526 220.988 235.516 221.078C235.516 221.168 235.511 221.238 235.501 221.288H229.006C229.036 221.678 229.126 222.033 229.276 222.353C229.426 222.673 229.621 222.948 229.861 223.178C230.101 223.408 230.371 223.588 230.671 223.718C230.981 223.848 231.306 223.913 231.646 223.913C231.886 223.913 232.121 223.883 232.351 223.823C232.581 223.753 232.796 223.663 232.996 223.553C233.196 223.443 233.371 223.308 233.521 223.148C233.681 222.988 233.801 222.808 233.881 222.608L235.021 222.923C234.891 223.213 234.711 223.478 234.481 223.718C234.261 223.958 234.001 224.168 233.701 224.348C233.411 224.518 233.086 224.653 232.726 224.753C232.366 224.853 231.991 224.903 231.601 224.903ZM234.286 220.313C234.256 219.943 234.161 219.603 234.001 219.293C233.851 218.973 233.656 218.703 233.416 218.483C233.186 218.263 232.916 218.093 232.606 217.973C232.296 217.843 231.966 217.778 231.616 217.778C231.266 217.778 230.936 217.843 230.626 217.973C230.316 218.093 230.041 218.268 229.801 218.498C229.571 218.718 229.381 218.983 229.231 219.293C229.091 219.603 229.006 219.943 228.976 220.313H234.286ZM237.028 213.803H238.348V222.728C238.348 223.018 238.423 223.248 238.573 223.418C238.733 223.578 238.953 223.658 239.233 223.658C239.343 223.658 239.473 223.643 239.623 223.613C239.773 223.573 239.913 223.528 240.043 223.478L240.253 224.543C240.033 224.633 239.773 224.708 239.473 224.768C239.173 224.828 238.908 224.858 238.678 224.858C238.168 224.858 237.763 224.713 237.463 224.423C237.173 224.133 237.028 223.728 237.028 223.208V213.803ZM241.29 224.753V216.923H242.61V224.753H241.29ZM241.29 215.453V213.803H242.61V215.453H241.29ZM248.797 224.363C248.717 224.403 248.612 224.453 248.482 224.513C248.352 224.563 248.202 224.618 248.032 224.678C247.872 224.728 247.692 224.768 247.492 224.798C247.302 224.838 247.102 224.858 246.892 224.858C246.412 224.858 245.997 224.728 245.647 224.468C245.297 224.198 245.122 223.783 245.122 223.223V217.958H244.057V216.923H245.122V214.313H246.442V216.923H248.197V217.958H246.442V222.818C246.462 223.108 246.557 223.318 246.727 223.448C246.897 223.578 247.097 223.643 247.327 223.643C247.587 223.643 247.822 223.603 248.032 223.523C248.252 223.433 248.402 223.363 248.482 223.313L248.797 224.363ZM250.066 225.968L250.366 224.633H249.916V223.073H251.161V224.633L250.711 225.968H250.066ZM64.4745 249.903C63.8445 249.903 63.2245 249.808 62.6145 249.618C62.0045 249.418 61.4795 249.133 61.0395 248.763L61.6095 247.878C62.0695 248.228 62.5295 248.493 62.9895 248.673C63.4495 248.843 63.9345 248.928 64.4445 248.928C65.0145 248.928 65.4645 248.818 65.7945 248.598C66.1345 248.368 66.3045 248.048 66.3045 247.638C66.3045 247.448 66.2595 247.288 66.1695 247.158C66.0795 247.018 65.9445 246.898 65.7645 246.798C65.5845 246.698 65.3545 246.608 65.0745 246.528C64.7945 246.448 64.4695 246.363 64.0995 246.273C63.6295 246.153 63.2245 246.038 62.8845 245.928C62.5445 245.818 62.2645 245.688 62.0445 245.538C61.8245 245.388 61.6645 245.208 61.5645 244.998C61.4645 244.788 61.4145 244.528 61.4145 244.218C61.4145 243.828 61.4895 243.483 61.6395 243.183C61.7995 242.873 62.0145 242.618 62.2845 242.418C62.5545 242.208 62.8695 242.053 63.2295 241.953C63.5995 241.843 63.9945 241.788 64.4145 241.788C65.0045 241.788 65.5545 241.883 66.0645 242.073C66.5745 242.263 67.0045 242.513 67.3545 242.823L66.7545 243.618C66.4245 243.328 66.0545 243.113 65.6445 242.973C65.2345 242.823 64.8145 242.748 64.3845 242.748C63.9045 242.748 63.4945 242.853 63.1545 243.063C62.8245 243.263 62.6595 243.588 62.6595 244.038C62.6595 244.218 62.6895 244.368 62.7495 244.488C62.8195 244.608 62.9295 244.713 63.0795 244.803C63.2295 244.893 63.4195 244.973 63.6495 245.043C63.8895 245.113 64.1745 245.188 64.5045 245.268C65.0245 245.388 65.4745 245.513 65.8545 245.643C66.2445 245.763 66.5645 245.908 66.8145 246.078C67.0745 246.248 67.2645 246.448 67.3845 246.678C67.5145 246.908 67.5795 247.188 67.5795 247.518C67.5795 248.248 67.2995 248.828 66.7395 249.258C66.1795 249.688 65.4245 249.903 64.4745 249.903ZM72.6066 249.903C72.0166 249.903 71.4766 249.798 70.9866 249.588C70.4966 249.368 70.0766 249.073 69.7266 248.703C69.3766 248.333 69.1016 247.903 68.9016 247.413C68.7116 246.913 68.6166 246.388 68.6166 245.838C68.6166 245.288 68.7116 244.768 68.9016 244.278C69.1016 243.788 69.3766 243.358 69.7266 242.988C70.0866 242.618 70.5116 242.328 71.0016 242.118C71.4916 241.898 72.0316 241.788 72.6216 241.788C73.2116 241.788 73.7466 241.898 74.2266 242.118C74.7166 242.338 75.1316 242.633 75.4716 243.003C75.8116 243.363 76.0716 243.788 76.2516 244.278C76.4416 244.758 76.5366 245.258 76.5366 245.778C76.5366 245.888 76.5316 245.988 76.5216 246.078C76.5216 246.168 76.5166 246.238 76.5066 246.288H70.0116C70.0416 246.678 70.1316 247.033 70.2816 247.353C70.4316 247.673 70.6266 247.948 70.8666 248.178C71.1066 248.408 71.3766 248.588 71.6766 248.718C71.9866 248.848 72.3116 248.913 72.6516 248.913C72.8916 248.913 73.1266 248.883 73.3566 248.823C73.5866 248.753 73.8016 248.663 74.0016 248.553C74.2016 248.443 74.3766 248.308 74.5266 248.148C74.6866 247.988 74.8066 247.808 74.8866 247.608L76.0266 247.923C75.8966 248.213 75.7166 248.478 75.4866 248.718C75.2666 248.958 75.0066 249.168 74.7066 249.348C74.4166 249.518 74.0916 249.653 73.7316 249.753C73.3716 249.853 72.9966 249.903 72.6066 249.903ZM75.2916 245.313C75.2616 244.943 75.1666 244.603 75.0066 244.293C74.8566 243.973 74.6616 243.703 74.4216 243.483C74.1916 243.263 73.9216 243.093 73.6116 242.973C73.3016 242.843 72.9716 242.778 72.6216 242.778C72.2716 242.778 71.9416 242.843 71.6316 242.973C71.3216 243.093 71.0466 243.268 70.8066 243.498C70.5766 243.718 70.3866 243.983 70.2366 244.293C70.0966 244.603 70.0116 244.943 69.9816 245.313H75.2916ZM81.2289 249.903C80.6889 249.903 80.1889 249.793 79.7289 249.573C79.2689 249.353 78.8739 249.058 78.5439 248.688C78.2139 248.318 77.9539 247.888 77.7639 247.398C77.5839 246.908 77.4939 246.393 77.4939 245.853C77.4939 245.303 77.5789 244.783 77.7489 244.293C77.9289 243.793 78.1739 243.358 78.4839 242.988C78.8039 242.618 79.1789 242.328 79.6089 242.118C80.0489 241.898 80.5289 241.788 81.0489 241.788C81.6789 241.788 82.2389 241.953 82.7289 242.283C83.2289 242.613 83.6239 243.013 83.9139 243.483V238.803H85.2339V248.133C85.2339 248.443 85.3739 248.603 85.6539 248.613V249.753C85.5139 249.773 85.3989 249.788 85.3089 249.798C85.2289 249.808 85.1489 249.813 85.0689 249.813C84.8089 249.813 84.5789 249.728 84.3789 249.558C84.1889 249.378 84.0939 249.173 84.0939 248.943V248.283C83.7839 248.793 83.3689 249.193 82.8489 249.483C82.3389 249.763 81.7989 249.903 81.2289 249.903ZM81.5439 248.763C81.7839 248.763 82.0289 248.718 82.2789 248.628C82.5389 248.538 82.7789 248.413 82.9989 248.253C83.2289 248.093 83.4239 247.908 83.5839 247.698C83.7539 247.478 83.8639 247.248 83.9139 247.008V244.758C83.8239 244.508 83.6889 244.273 83.5089 244.053C83.3289 243.823 83.1239 243.628 82.8939 243.468C82.6739 243.298 82.4339 243.168 82.1739 243.078C81.9239 242.978 81.6739 242.928 81.4239 242.928C81.0339 242.928 80.6789 243.013 80.3589 243.183C80.0489 243.343 79.7789 243.563 79.5489 243.843C79.3289 244.113 79.1589 244.428 79.0389 244.788C78.9189 245.138 78.8589 245.498 78.8589 245.868C78.8589 246.258 78.9289 246.633 79.0689 246.993C79.2089 247.343 79.3989 247.648 79.6389 247.908C79.8789 248.168 80.1589 248.378 80.4789 248.538C80.8089 248.688 81.1639 248.763 81.5439 248.763ZM94.4564 249.903C93.9164 249.903 93.4164 249.793 92.9564 249.573C92.4964 249.353 92.1014 249.058 91.7714 248.688C91.4414 248.318 91.1814 247.888 90.9914 247.398C90.8114 246.908 90.7214 246.393 90.7214 245.853C90.7214 245.303 90.8064 244.783 90.9764 244.293C91.1564 243.793 91.4014 243.358 91.7114 242.988C92.0314 242.618 92.4064 242.328 92.8364 242.118C93.2764 241.898 93.7564 241.788 94.2764 241.788C94.9064 241.788 95.4664 241.953 95.9564 242.283C96.4564 242.613 96.8514 243.013 97.1414 243.483V238.803H98.4614V248.133C98.4614 248.443 98.6014 248.603 98.8814 248.613V249.753C98.7414 249.773 98.6264 249.788 98.5364 249.798C98.4564 249.808 98.3764 249.813 98.2964 249.813C98.0364 249.813 97.8064 249.728 97.6064 249.558C97.4164 249.378 97.3214 249.173 97.3214 248.943V248.283C97.0114 248.793 96.5964 249.193 96.0764 249.483C95.5664 249.763 95.0264 249.903 94.4564 249.903ZM94.7714 248.763C95.0114 248.763 95.2564 248.718 95.5064 248.628C95.7664 248.538 96.0064 248.413 96.2264 248.253C96.4564 248.093 96.6514 247.908 96.8114 247.698C96.9814 247.478 97.0914 247.248 97.1414 247.008V244.758C97.0514 244.508 96.9164 244.273 96.7364 244.053C96.5564 243.823 96.3514 243.628 96.1214 243.468C95.9014 243.298 95.6614 243.168 95.4014 243.078C95.1514 242.978 94.9014 242.928 94.6514 242.928C94.2614 242.928 93.9064 243.013 93.5864 243.183C93.2764 243.343 93.0064 243.563 92.7764 243.843C92.5564 244.113 92.3864 244.428 92.2664 244.788C92.1464 245.138 92.0864 245.498 92.0864 245.868C92.0864 246.258 92.1564 246.633 92.2964 246.993C92.4364 247.343 92.6264 247.648 92.8664 247.908C93.1064 248.168 93.3864 248.378 93.7064 248.538C94.0364 248.688 94.3914 248.763 94.7714 248.763ZM104.085 249.903C103.495 249.903 102.955 249.793 102.465 249.573C101.985 249.353 101.57 249.058 101.22 248.688C100.88 248.318 100.615 247.888 100.425 247.398C100.235 246.908 100.14 246.393 100.14 245.853C100.14 245.303 100.235 244.783 100.425 244.293C100.625 243.803 100.895 243.373 101.235 243.003C101.585 242.633 102 242.338 102.48 242.118C102.97 241.898 103.505 241.788 104.085 241.788C104.665 241.788 105.2 241.898 105.69 242.118C106.18 242.338 106.595 242.633 106.935 243.003C107.285 243.373 107.555 243.803 107.745 244.293C107.945 244.783 108.045 245.303 108.045 245.853C108.045 246.393 107.95 246.908 107.76 247.398C107.57 247.888 107.3 248.318 106.95 248.688C106.6 249.058 106.18 249.353 105.69 249.573C105.21 249.793 104.675 249.903 104.085 249.903ZM101.49 245.868C101.49 246.278 101.555 246.658 101.685 247.008C101.825 247.358 102.01 247.663 102.24 247.923C102.48 248.183 102.755 248.388 103.065 248.538C103.385 248.688 103.725 248.763 104.085 248.763C104.445 248.763 104.78 248.688 105.09 248.538C105.41 248.388 105.69 248.183 105.93 247.923C106.17 247.653 106.355 247.343 106.485 246.993C106.625 246.633 106.695 246.248 106.695 245.838C106.695 245.438 106.625 245.063 106.485 244.713C106.355 244.353 106.17 244.043 105.93 243.783C105.69 243.513 105.41 243.303 105.09 243.153C104.78 243.003 104.445 242.928 104.085 242.928C103.725 242.928 103.385 243.008 103.065 243.168C102.755 243.318 102.48 243.528 102.24 243.798C102.01 244.058 101.825 244.368 101.685 244.728C101.555 245.078 101.49 245.458 101.49 245.868ZM116.903 249.903C116.313 249.903 115.773 249.798 115.283 249.588C114.793 249.368 114.373 249.073 114.023 248.703C113.673 248.333 113.398 247.903 113.198 247.413C113.008 246.913 112.913 246.388 112.913 245.838C112.913 245.288 113.008 244.768 113.198 244.278C113.398 243.788 113.673 243.358 114.023 242.988C114.383 242.618 114.808 242.328 115.298 242.118C115.788 241.898 116.328 241.788 116.918 241.788C117.508 241.788 118.043 241.898 118.523 242.118C119.013 242.338 119.428 242.633 119.768 243.003C120.108 243.363 120.368 243.788 120.548 244.278C120.738 244.758 120.833 245.258 120.833 245.778C120.833 245.888 120.828 245.988 120.818 246.078C120.818 246.168 120.813 246.238 120.803 246.288H114.308C114.338 246.678 114.428 247.033 114.578 247.353C114.728 247.673 114.923 247.948 115.163 248.178C115.403 248.408 115.673 248.588 115.973 248.718C116.283 248.848 116.608 248.913 116.948 248.913C117.188 248.913 117.423 248.883 117.653 248.823C117.883 248.753 118.098 248.663 118.298 248.553C118.498 248.443 118.673 248.308 118.823 248.148C118.983 247.988 119.103 247.808 119.183 247.608L120.323 247.923C120.193 248.213 120.013 248.478 119.783 248.718C119.563 248.958 119.303 249.168 119.003 249.348C118.713 249.518 118.388 249.653 118.028 249.753C117.668 249.853 117.293 249.903 116.903 249.903ZM119.588 245.313C119.558 244.943 119.463 244.603 119.303 244.293C119.153 243.973 118.958 243.703 118.718 243.483C118.488 243.263 118.218 243.093 117.908 242.973C117.598 242.843 117.268 242.778 116.918 242.778C116.568 242.778 116.238 242.843 115.928 242.973C115.618 243.093 115.343 243.268 115.103 243.498C114.873 243.718 114.683 243.983 114.533 244.293C114.393 244.603 114.308 244.943 114.278 245.313H119.588ZM122.301 249.753V241.923H123.621V249.753H122.301ZM122.301 240.453V238.803H123.621V240.453H122.301ZM128.173 249.903C127.353 249.903 126.733 249.628 126.313 249.078C125.893 248.528 125.683 247.708 125.683 246.618V241.923H127.003V246.363C127.003 247.963 127.558 248.763 128.668 248.763C129.208 248.763 129.713 248.593 130.183 248.253C130.663 247.903 131.018 247.428 131.248 246.828V241.923H132.568V248.133C132.568 248.443 132.708 248.603 132.988 248.613V249.753C132.838 249.773 132.718 249.783 132.628 249.783C132.548 249.793 132.468 249.798 132.388 249.798C132.128 249.798 131.908 249.723 131.728 249.573C131.558 249.413 131.468 249.218 131.458 248.988L131.428 248.073C131.078 248.663 130.618 249.118 130.048 249.438C129.478 249.748 128.853 249.903 128.173 249.903ZM137.512 249.903C136.882 249.903 136.262 249.808 135.652 249.618C135.042 249.418 134.517 249.133 134.077 248.763L134.647 247.878C135.107 248.228 135.567 248.493 136.027 248.673C136.487 248.843 136.972 248.928 137.482 248.928C138.052 248.928 138.502 248.818 138.832 248.598C139.172 248.368 139.342 248.048 139.342 247.638C139.342 247.448 139.297 247.288 139.207 247.158C139.117 247.018 138.982 246.898 138.802 246.798C138.622 246.698 138.392 246.608 138.112 246.528C137.832 246.448 137.507 246.363 137.137 246.273C136.667 246.153 136.262 246.038 135.922 245.928C135.582 245.818 135.302 245.688 135.082 245.538C134.862 245.388 134.702 245.208 134.602 244.998C134.502 244.788 134.452 244.528 134.452 244.218C134.452 243.828 134.527 243.483 134.677 243.183C134.837 242.873 135.052 242.618 135.322 242.418C135.592 242.208 135.907 242.053 136.267 241.953C136.637 241.843 137.032 241.788 137.452 241.788C138.042 241.788 138.592 241.883 139.102 242.073C139.612 242.263 140.042 242.513 140.392 242.823L139.792 243.618C139.462 243.328 139.092 243.113 138.682 242.973C138.272 242.823 137.852 242.748 137.422 242.748C136.942 242.748 136.532 242.853 136.192 243.063C135.862 243.263 135.697 243.588 135.697 244.038C135.697 244.218 135.727 244.368 135.787 244.488C135.857 244.608 135.967 244.713 136.117 244.803C136.267 244.893 136.457 244.973 136.687 245.043C136.927 245.113 137.212 245.188 137.542 245.268C138.062 245.388 138.512 245.513 138.892 245.643C139.282 245.763 139.602 245.908 139.852 246.078C140.112 246.248 140.302 246.448 140.422 246.678C140.552 246.908 140.617 247.188 140.617 247.518C140.617 248.248 140.337 248.828 139.777 249.258C139.217 249.688 138.462 249.903 137.512 249.903ZM153.984 249.753H152.664V245.373C152.664 244.553 152.529 243.948 152.259 243.558C151.999 243.168 151.609 242.973 151.089 242.973C150.549 242.973 150.064 243.168 149.634 243.558C149.214 243.938 148.914 244.433 148.734 245.043V249.753H147.414V245.373C147.414 244.533 147.284 243.923 147.024 243.543C146.764 243.163 146.374 242.973 145.854 242.973C145.324 242.973 144.844 243.163 144.414 243.543C143.984 243.913 143.679 244.408 143.499 245.028V249.753H142.179V241.923H143.379V243.603C143.699 243.023 144.114 242.578 144.624 242.268C145.134 241.948 145.709 241.788 146.349 241.788C147.009 241.788 147.529 241.968 147.909 242.328C148.299 242.678 148.539 243.133 148.629 243.693C149.329 242.423 150.324 241.788 151.614 241.788C152.064 241.788 152.439 241.873 152.739 242.043C153.049 242.203 153.294 242.433 153.474 242.733C153.654 243.023 153.784 243.368 153.864 243.768C153.944 244.168 153.984 244.603 153.984 245.073V249.753ZM159.456 249.903C158.866 249.903 158.326 249.793 157.836 249.573C157.356 249.353 156.941 249.058 156.591 248.688C156.251 248.318 155.986 247.888 155.796 247.398C155.606 246.908 155.511 246.393 155.511 245.853C155.511 245.303 155.606 244.783 155.796 244.293C155.996 243.803 156.266 243.373 156.606 243.003C156.956 242.633 157.371 242.338 157.851 242.118C158.341 241.898 158.876 241.788 159.456 241.788C160.036 241.788 160.571 241.898 161.061 242.118C161.551 242.338 161.966 242.633 162.306 243.003C162.656 243.373 162.926 243.803 163.116 244.293C163.316 244.783 163.416 245.303 163.416 245.853C163.416 246.393 163.321 246.908 163.131 247.398C162.941 247.888 162.671 248.318 162.321 248.688C161.971 249.058 161.551 249.353 161.061 249.573C160.581 249.793 160.046 249.903 159.456 249.903ZM156.861 245.868C156.861 246.278 156.926 246.658 157.056 247.008C157.196 247.358 157.381 247.663 157.611 247.923C157.851 248.183 158.126 248.388 158.436 248.538C158.756 248.688 159.096 248.763 159.456 248.763C159.816 248.763 160.151 248.688 160.461 248.538C160.781 248.388 161.061 248.183 161.301 247.923C161.541 247.653 161.726 247.343 161.856 246.993C161.996 246.633 162.066 246.248 162.066 245.838C162.066 245.438 161.996 245.063 161.856 244.713C161.726 244.353 161.541 244.043 161.301 243.783C161.061 243.513 160.781 243.303 160.461 243.153C160.151 243.003 159.816 242.928 159.456 242.928C159.096 242.928 158.756 243.008 158.436 243.168C158.126 243.318 157.851 243.528 157.611 243.798C157.381 244.058 157.196 244.368 157.056 244.728C156.926 245.078 156.861 245.458 156.861 245.868ZM168.241 249.903C167.701 249.903 167.201 249.793 166.741 249.573C166.281 249.353 165.886 249.058 165.556 248.688C165.226 248.318 164.966 247.888 164.776 247.398C164.596 246.908 164.506 246.393 164.506 245.853C164.506 245.303 164.591 244.783 164.761 244.293C164.941 243.793 165.186 243.358 165.496 242.988C165.816 242.618 166.191 242.328 166.621 242.118C167.061 241.898 167.541 241.788 168.061 241.788C168.691 241.788 169.251 241.953 169.741 242.283C170.241 242.613 170.636 243.013 170.926 243.483V238.803H172.246V248.133C172.246 248.443 172.386 248.603 172.666 248.613V249.753C172.526 249.773 172.411 249.788 172.321 249.798C172.241 249.808 172.161 249.813 172.081 249.813C171.821 249.813 171.591 249.728 171.391 249.558C171.201 249.378 171.106 249.173 171.106 248.943V248.283C170.796 248.793 170.381 249.193 169.861 249.483C169.351 249.763 168.811 249.903 168.241 249.903ZM168.556 248.763C168.796 248.763 169.041 248.718 169.291 248.628C169.551 248.538 169.791 248.413 170.011 248.253C170.241 248.093 170.436 247.908 170.596 247.698C170.766 247.478 170.876 247.248 170.926 247.008V244.758C170.836 244.508 170.701 244.273 170.521 244.053C170.341 243.823 170.136 243.628 169.906 243.468C169.686 243.298 169.446 243.168 169.186 243.078C168.936 242.978 168.686 242.928 168.436 242.928C168.046 242.928 167.691 243.013 167.371 243.183C167.061 243.343 166.791 243.563 166.561 243.843C166.341 244.113 166.171 244.428 166.051 244.788C165.931 245.138 165.871 245.498 165.871 245.868C165.871 246.258 165.941 246.633 166.081 246.993C166.221 247.343 166.411 247.648 166.651 247.908C166.891 248.168 167.171 248.378 167.491 248.538C167.821 248.688 168.176 248.763 168.556 248.763ZM182.293 249.363C182.213 249.403 182.108 249.453 181.978 249.513C181.848 249.563 181.698 249.618 181.528 249.678C181.368 249.728 181.188 249.768 180.988 249.798C180.798 249.838 180.598 249.858 180.388 249.858C179.908 249.858 179.493 249.728 179.143 249.468C178.793 249.198 178.618 248.783 178.618 248.223V242.958H177.553V241.923H178.618V239.313H179.938V241.923H181.693V242.958H179.938V247.818C179.958 248.108 180.053 248.318 180.223 248.448C180.393 248.578 180.593 248.643 180.823 248.643C181.083 248.643 181.318 248.603 181.528 248.523C181.748 248.433 181.898 248.363 181.978 248.313L182.293 249.363ZM186.879 249.903C186.289 249.903 185.749 249.798 185.259 249.588C184.769 249.368 184.349 249.073 183.999 248.703C183.649 248.333 183.374 247.903 183.174 247.413C182.984 246.913 182.889 246.388 182.889 245.838C182.889 245.288 182.984 244.768 183.174 244.278C183.374 243.788 183.649 243.358 183.999 242.988C184.359 242.618 184.784 242.328 185.274 242.118C185.764 241.898 186.304 241.788 186.894 241.788C187.484 241.788 188.019 241.898 188.499 242.118C188.989 242.338 189.404 242.633 189.744 243.003C190.084 243.363 190.344 243.788 190.524 244.278C190.714 244.758 190.809 245.258 190.809 245.778C190.809 245.888 190.804 245.988 190.794 246.078C190.794 246.168 190.789 246.238 190.779 246.288H184.284C184.314 246.678 184.404 247.033 184.554 247.353C184.704 247.673 184.899 247.948 185.139 248.178C185.379 248.408 185.649 248.588 185.949 248.718C186.259 248.848 186.584 248.913 186.924 248.913C187.164 248.913 187.399 248.883 187.629 248.823C187.859 248.753 188.074 248.663 188.274 248.553C188.474 248.443 188.649 248.308 188.799 248.148C188.959 247.988 189.079 247.808 189.159 247.608L190.299 247.923C190.169 248.213 189.989 248.478 189.759 248.718C189.539 248.958 189.279 249.168 188.979 249.348C188.689 249.518 188.364 249.653 188.004 249.753C187.644 249.853 187.269 249.903 186.879 249.903ZM189.564 245.313C189.534 244.943 189.439 244.603 189.279 244.293C189.129 243.973 188.934 243.703 188.694 243.483C188.464 243.263 188.194 243.093 187.884 242.973C187.574 242.843 187.244 242.778 186.894 242.778C186.544 242.778 186.214 242.843 185.904 242.973C185.594 243.093 185.319 243.268 185.079 243.498C184.849 243.718 184.659 243.983 184.509 244.293C184.369 244.603 184.284 244.943 184.254 245.313H189.564ZM204.081 249.753H202.761V245.373C202.761 244.553 202.626 243.948 202.356 243.558C202.096 243.168 201.706 242.973 201.186 242.973C200.646 242.973 200.161 243.168 199.731 243.558C199.311 243.938 199.011 244.433 198.831 245.043V249.753H197.511V245.373C197.511 244.533 197.381 243.923 197.121 243.543C196.861 243.163 196.471 242.973 195.951 242.973C195.421 242.973 194.941 243.163 194.511 243.543C194.081 243.913 193.776 244.408 193.596 245.028V249.753H192.276V241.923H193.476V243.603C193.796 243.023 194.211 242.578 194.721 242.268C195.231 241.948 195.806 241.788 196.446 241.788C197.106 241.788 197.626 241.968 198.006 242.328C198.396 242.678 198.636 243.133 198.726 243.693C199.426 242.423 200.421 241.788 201.711 241.788C202.161 241.788 202.536 241.873 202.836 242.043C203.146 242.203 203.391 242.433 203.571 242.733C203.751 243.023 203.881 243.368 203.961 243.768C204.041 244.168 204.081 244.603 204.081 245.073V249.753ZM210.349 249.903C209.699 249.903 209.124 249.743 208.624 249.423C208.134 249.103 207.744 248.698 207.454 248.208V252.948H206.134V241.923H207.304V243.393C207.614 242.913 208.014 242.528 208.504 242.238C209.004 241.938 209.554 241.788 210.154 241.788C210.694 241.788 211.189 241.898 211.639 242.118C212.089 242.338 212.479 242.638 212.809 243.018C213.139 243.388 213.394 243.818 213.574 244.308C213.764 244.798 213.859 245.308 213.859 245.838C213.859 246.398 213.774 246.928 213.604 247.428C213.434 247.918 213.194 248.348 212.884 248.718C212.574 249.078 212.204 249.368 211.774 249.588C211.344 249.798 210.869 249.903 210.349 249.903ZM209.944 248.763C210.334 248.763 210.684 248.683 210.994 248.523C211.314 248.353 211.584 248.133 211.804 247.863C212.034 247.583 212.209 247.268 212.329 246.918C212.449 246.568 212.509 246.208 212.509 245.838C212.509 245.448 212.439 245.078 212.299 244.728C212.159 244.368 211.969 244.058 211.729 243.798C211.489 243.528 211.204 243.318 210.874 243.168C210.554 243.008 210.204 242.928 209.824 242.928C209.584 242.928 209.334 242.978 209.074 243.078C208.824 243.168 208.584 243.293 208.354 243.453C208.134 243.603 207.939 243.788 207.769 244.008C207.609 244.218 207.504 244.443 207.454 244.683V246.918C207.564 247.178 207.704 247.423 207.874 247.653C208.044 247.873 208.239 248.068 208.459 248.238C208.679 248.398 208.914 248.528 209.164 248.628C209.414 248.718 209.674 248.763 209.944 248.763ZM218.899 249.903C218.309 249.903 217.769 249.793 217.279 249.573C216.799 249.353 216.384 249.058 216.034 248.688C215.694 248.318 215.429 247.888 215.239 247.398C215.049 246.908 214.954 246.393 214.954 245.853C214.954 245.303 215.049 244.783 215.239 244.293C215.439 243.803 215.709 243.373 216.049 243.003C216.399 242.633 216.814 242.338 217.294 242.118C217.784 241.898 218.319 241.788 218.899 241.788C219.479 241.788 220.014 241.898 220.504 242.118C220.994 242.338 221.409 242.633 221.749 243.003C222.099 243.373 222.369 243.803 222.559 244.293C222.759 244.783 222.859 245.303 222.859 245.853C222.859 246.393 222.764 246.908 222.574 247.398C222.384 247.888 222.114 248.318 221.764 248.688C221.414 249.058 220.994 249.353 220.504 249.573C220.024 249.793 219.489 249.903 218.899 249.903ZM216.304 245.868C216.304 246.278 216.369 246.658 216.499 247.008C216.639 247.358 216.824 247.663 217.054 247.923C217.294 248.183 217.569 248.388 217.879 248.538C218.199 248.688 218.539 248.763 218.899 248.763C219.259 248.763 219.594 248.688 219.904 248.538C220.224 248.388 220.504 248.183 220.744 247.923C220.984 247.653 221.169 247.343 221.299 246.993C221.439 246.633 221.509 246.248 221.509 245.838C221.509 245.438 221.439 245.063 221.299 244.713C221.169 244.353 220.984 244.043 220.744 243.783C220.504 243.513 220.224 243.303 219.904 243.153C219.594 243.003 219.259 242.928 218.899 242.928C218.539 242.928 218.199 243.008 217.879 243.168C217.569 243.318 217.294 243.528 217.054 243.798C216.824 244.058 216.639 244.368 216.499 244.728C216.369 245.078 216.304 245.458 216.304 245.868ZM228.599 243.078C227.939 243.098 227.354 243.268 226.844 243.588C226.344 243.908 225.989 244.353 225.779 244.923V249.753H224.459V241.923H225.689V243.738C225.959 243.198 226.314 242.763 226.754 242.433C227.194 242.093 227.664 241.903 228.164 241.863C228.264 241.863 228.349 241.863 228.419 241.863C228.489 241.863 228.549 241.868 228.599 241.878V243.078ZM235.428 249.753L232.728 245.928L231.228 247.338V249.753H229.908V238.803H231.228V246.003L235.248 241.938H236.703L233.583 245.178L236.853 249.753H235.428Z" fill="#4D6668"/>
<g clip-path="url(#clip0)">
<path d="M113.824 118.507H72.9322C66.1563 118.507 60.6645 113.015 60.6645 106.239V65.3467C60.6645 58.5708 66.1563 53.079 72.9322 53.079H113.824C120.6 53.079 126.092 58.5708 126.092 65.3467V106.239C126.092 113.015 120.6 118.507 113.824 118.507Z" fill="#FFE6E2"/>
<path d="M101.898 69.4359H92.0145V74.8889H101.898C102.456 74.8889 102.921 74.4248 102.921 73.8666V70.4582C102.921 69.9 102.456 69.4359 101.898 69.4359ZM83.8361 70.4582V73.8666C83.8361 74.4248 84.3002 74.8889 84.8584 74.8889H89.2891V69.4359H84.8584C84.3002 69.4359 83.8361 69.9 83.8361 70.4582Z" fill="#FD907E"/>
<path d="M101.898 77.6144H92.0145V83.0674H101.898C102.456 83.0674 102.921 82.6032 102.921 82.0451V78.6367C102.921 78.0785 102.456 77.6144 101.898 77.6144ZM83.8361 78.6367V82.0451C83.8361 82.6032 84.3002 83.0674 84.8584 83.0674H89.2891V77.6144H84.8584C84.3002 77.6144 83.8361 78.0785 83.8361 78.6367Z" fill="#FD907E"/>
<path d="M107.351 74.8889H105.497C105.347 75.3939 105.088 75.856 104.761 76.2527C105.088 76.6473 105.347 77.1114 105.497 77.6164H107.01V93.9733H79.7469V77.6164H81.2599C81.4091 77.1114 81.6688 76.6493 81.9959 76.2527C81.6688 75.8581 81.4091 75.3939 81.2599 74.8889H79.4054C78.0969 74.8889 77.0214 75.9644 77.0214 77.2729V94.3107C77.0214 95.6192 78.0989 96.6968 79.4075 96.6968H90.6528V99.4222H87.9274C87.1749 99.4222 86.5636 100.034 86.5636 100.786C86.5636 101.538 87.1729 102.15 87.9253 102.15H98.8313C99.5857 102.15 100.195 101.538 100.195 100.786C100.195 100.034 99.5857 99.4222 98.8313 99.4222H96.1058V96.6968H107.351C108.66 96.6968 109.737 95.6192 109.737 94.3107V77.2729C109.735 75.9644 108.66 74.8889 107.351 74.8889Z" fill="#FC573B"/>
</g>
<defs>
<filter id="filter0_d" x="0.858582" y="0" width="317.349" height="337.704" filterUnits="userSpaceOnUse" color-interpolation-filters="sRGB">
<feFlood flood-opacity="0" result="BackgroundImageFix"/>
<feColorMatrix in="SourceAlpha" type="matrix" values="0 0 0 0 0 0 0 0 0 0 0 0 0 0 0 0 0 0 127 0"/>
<feOffset dy="6"/>
<feGaussianBlur stdDeviation="15"/>
<feColorMatrix type="matrix" values="0 0 0 0 0 0 0 0 0 0 0 0 0 0 0 0 0 0 0.1 0"/>
<feBlend mode="normal" in2="BackgroundImageFix" result="effect1_dropShadow"/>
<feBlend mode="normal" in="SourceGraphic" in2="effect1_dropShadow" result="shape"/>
</filter>
<clipPath id="clip0">
<rect width="65.4276" height="65.4276" fill="white" transform="translate(60.6645 53.079)"/>
</clipPath>
</defs>
</svg>
